<?xml version="1.0" encoding="utf-8" ?>
<svg xmlns="http://www.w3.org/2000/svg" xmlns:xlink="http://www.w3.org/1999/xlink" width="1024" height="1024">
	<path fill="#48D3D5" d="M474.288 264.205C479.786 263.354 486.762 263.851 492.372 264.097Q494.019 264.17 495.664 264.281Q497.309 264.393 498.951 264.542Q500.593 264.692 502.232 264.88Q503.87 265.068 505.503 265.294Q507.136 265.52 508.764 265.784Q510.391 266.048 512.012 266.35Q513.633 266.652 515.247 266.991Q516.86 267.331 518.466 267.708Q520.071 268.085 521.667 268.499Q523.262 268.914 524.848 269.365Q526.434 269.817 528.009 270.305Q529.584 270.794 531.147 271.319Q532.71 271.843 534.26 272.405Q535.811 272.966 537.348 273.563Q538.885 274.16 540.407 274.793Q541.93 275.426 543.437 276.094Q544.944 276.763 546.436 277.466Q547.927 278.169 549.402 278.907Q550.876 279.644 552.333 280.416Q553.79 281.188 555.229 281.994Q556.668 282.799 558.087 283.638Q559.507 284.477 560.906 285.349Q562.306 286.221 563.684 287.125Q565.063 288.029 566.421 288.966Q567.778 289.902 569.113 290.869Q570.448 291.837 571.76 292.835Q573.073 293.833 574.361 294.862Q575.65 295.891 576.914 296.949Q578.179 298.007 579.418 299.095Q580.657 300.183 581.871 301.299Q583.084 302.415 584.272 303.559Q585.459 304.703 586.619 305.875C601.253 320.587 609.476 334.599 627.908 346.148C641.404 354.605 657.58 360.108 673.079 363.454C679.877 364.921 686.846 365.771 693.55 367.626L694.296 367.836C675.256 368.429 656.068 368.033 637.012 368.077C617.657 368.121 598.189 368.611 578.85 368.089C559.606 367.57 556.621 358.812 544.798 346.504C529.27 330.339 508.378 322.354 486.128 321.991C453.557 321.459 423.631 337.144 407.846 366.038C397.652 384.697 395.362 405.132 373.441 414.996C346.405 427.162 314.642 406.977 287.003 434.013C276.402 444.383 272.045 457.927 271.908 472.506C271.983 475.473 272.111 478.363 272.618 481.293Q272.938 483.247 273.403 485.172Q273.867 487.097 274.475 488.981Q275.082 490.866 275.829 492.7Q276.576 494.534 277.457 496.307Q278.339 498.08 279.351 499.782Q280.363 501.484 281.499 503.106Q282.635 504.727 283.889 506.26Q285.144 507.792 286.509 509.226C313.811 537.36 350.147 518.304 366.366 530.382C371.241 534.012 373.549 539.627 374.236 545.511C375.195 553.72 372.409 563.605 367.277 570.07C362.152 576.524 354.751 579.03 346.842 579.804C341.529 580.324 336.049 580.09 330.709 580.056C302.825 579.875 277.563 573.69 255.699 555.606Q254.683 554.757 253.687 553.883Q252.692 553.008 251.719 552.11Q250.745 551.212 249.794 550.29Q248.843 549.368 247.915 548.423Q246.987 547.478 246.082 546.511Q245.178 545.543 244.297 544.554Q243.417 543.564 242.561 542.554Q241.705 541.543 240.874 540.511Q240.043 539.48 239.237 538.428Q238.432 537.377 237.653 536.306Q236.873 535.235 236.121 534.145Q235.368 533.055 234.642 531.947Q233.916 530.839 233.218 529.713Q232.52 528.588 231.849 527.445Q231.179 526.303 230.537 525.145Q229.895 523.986 229.281 522.812Q228.667 521.638 228.083 520.45Q227.498 519.261 226.943 518.059Q226.388 516.856 225.863 515.64Q225.337 514.424 224.842 513.196Q224.346 511.967 223.881 510.727Q223.416 509.487 222.982 508.236Q222.547 506.985 222.144 505.723Q221.74 504.462 221.368 503.19Q220.995 501.919 220.654 500.64Q220.313 499.36 220.003 498.072Q219.693 496.784 219.416 495.489Q219.138 494.194 218.892 492.892Q218.646 491.591 218.432 490.284Q218.218 488.977 218.036 487.665Q217.854 486.353 217.705 485.036Q217.555 483.72 217.438 482.401Q217.316 481.068 217.227 479.733Q217.138 478.397 217.083 477.06Q217.027 475.723 217.004 474.384Q216.982 473.046 216.993 471.708Q217.003 470.369 217.047 469.032Q217.091 467.694 217.168 466.358Q217.245 465.022 217.355 463.688Q217.465 462.354 217.608 461.023Q217.751 459.692 217.927 458.366Q218.103 457.039 218.312 455.717Q218.52 454.395 218.762 453.078Q219.003 451.762 219.278 450.452Q219.552 449.142 219.858 447.839Q220.165 446.536 220.503 445.241Q220.842 443.946 221.212 442.66Q221.583 441.374 221.985 440.098Q222.388 438.821 222.822 437.555Q223.256 436.289 223.721 435.034Q224.186 433.779 224.682 432.536Q225.178 431.293 225.705 430.062Q226.232 428.832 226.789 427.615Q227.346 426.398 227.933 425.195Q228.52 423.992 229.137 422.805Q229.753 421.617 230.399 420.445Q231.045 419.272 231.72 418.116Q232.395 416.961 233.098 415.822Q233.802 414.683 234.533 413.562Q235.264 412.441 236.023 411.339Q236.782 410.236 237.568 409.153Q238.354 408.069 239.166 407.006Q239.979 405.942 240.817 404.899Q241.656 403.856 242.52 402.834C257.162 385.329 278.817 372.285 301.409 368.547C309.738 367.168 318.132 367.183 326.515 366.414C332.621 365.854 339.395 364.706 344.303 360.761C351.487 354.985 355.955 340.083 360.752 331.803Q366.269 322.436 373.257 314.108C398.773 283.273 435.213 268 474.288 264.205Z"/>
	<path fill="#48D3D5" d="M102.538 571.5C104.835 571.346 106.892 571.659 109.114 572.202C128.978 577.059 148.654 582.966 168.387 588.34L260.727 613.2Q432.557 658.486 601.327 714.098L634.959 725.244C641.105 727.282 647.813 728.986 653.641 731.758C655.445 732.616 657.501 733.661 658.446 735.538C659.12 736.877 659.274 738.114 658.726 739.531C657.782 741.976 655.997 743.081 653.729 744.166C645.973 745.285 637.923 744.961 630.103 744.99C620.839 745.025 611.53 745.209 602.274 744.759Q593.418 744.414 584.658 743.07Q575.898 741.726 567.347 739.399C541.967 732.235 517.015 722.81 492.013 714.403L355.18 668.414L207.63 619.302Q166.623 605.911 125.792 591.996C119.436 589.814 112.947 587.966 106.629 585.696C103.93 584.726 100.891 583.377 99.0096 581.135C98.0422 579.982 97.5079 578.604 97.8065 577.08C98.3296 574.409 100.451 572.935 102.538 571.5Z"/>
	<path fill="#FEC747" d="M503.169 399.05C542.305 398.592 581.48 398.964 620.619 398.972L831.375 398.979L883.393 398.992C891.503 398.984 900.614 398.148 908.626 399.252C910.149 399.462 912.005 400.213 913.097 401.334C914.274 402.543 914.683 403.955 914.617 405.603C914.396 411.127 902.95 428.467 899.164 433.45C897.569 437.065 894.767 441.005 892.227 444.03C885.08 452.541 875.798 456.823 864.82 457.695C856.884 458.326 848.742 457.993 840.781 457.993L799.781 457.972L671.429 457.981L524.372 457.981L477.711 457.993C469.673 457.998 461.356 458.424 453.35 457.938C450.229 457.749 446.406 456.847 444.043 454.663C441.495 452.308 440.772 448.796 440.824 445.461C440.998 434.236 448.21 414.091 456.548 406.163C464.863 398.257 476.248 398.892 486.89 398.907Q495.03 398.871 503.169 399.05Z"/>
	<path fill="#FEC747" d="M399.74 494.87C410.186 493.444 421.745 494.457 432.327 494.483L491.964 494.483L704.82 494.49L800.585 494.488L831.23 494.458C836.466 494.453 841.868 494.165 847.081 494.539C848.904 494.67 851.418 495.327 852.803 496.582C854.029 497.694 854.569 498.98 854.592 500.611C854.677 506.494 846.937 516.435 843.242 521.067C843.188 521.228 843.15 521.396 843.081 521.552C841.823 524.412 839.677 527.383 838.025 530.072C832.735 538.681 827.915 546.58 818.529 551.189C812.198 554.297 804.7 555.125 797.734 555.385C781.631 555.984 765.303 555.474 749.178 555.467L657.788 555.447L522.452 555.439C501.475 555.434 480.433 555.82 459.465 555.487C456.533 555.441 451.714 555.58 449.052 554.338C443.673 551.829 446.187 538.247 443.804 531.579C438.301 516.179 421.769 512.717 407.932 508.481C404.698 507.491 401.167 506.683 398.16 505.116C396.536 504.269 394.917 503.11 394.497 501.205C394.186 499.794 394.642 498.203 395.523 497.077C396.624 495.669 398.043 495.144 399.74 494.87Z"/>
	<path fill="#FEC747" d="M449.191 583.048C473.999 582.629 498.853 582.948 523.667 582.95L658.811 582.959L741.969 582.964C756.719 582.958 771.787 582.303 786.503 583.174C788.564 583.916 790.301 584.654 791.333 586.712C792.373 588.788 791.926 591.251 791.128 593.329C790.266 595.573 788.648 598.016 787.193 599.939L776.253 617.683C768.551 630.174 762.084 639.035 746.945 642.505C736.761 644.839 709.474 643.561 697.202 643.551L580.462 643.535L547.144 643.532C539.953 643.476 532.615 643.105 525.439 643.452C523.644 643.538 520.271 643.559 518.934 644.769C518.69 644.989 518.449 645.216 518.244 645.472C517.66 646.198 517.25 647.398 516.883 648.264C518.197 649.636 519.523 650.984 521.112 652.041C530.349 658.19 541.31 662.738 551.303 667.567C563.387 673.407 575.614 680.106 588.405 684.249L588.34 684.558L587.757 684.918C583.816 684.264 579.95 682.935 576.124 681.796C547.051 672.998 518.195 663.448 489.162 654.498L455.984 644.346C449.685 642.426 443.166 640.75 437.051 638.32C432.964 636.696 428.551 634.549 425.534 631.292C420.797 626.178 418.453 619.183 418.728 612.254C418.995 605.553 423.632 590.855 428.621 586.382C434.073 581.494 442.454 582.809 449.191 583.048Z"/>
</svg>
