<svg width="678" height="316" viewBox="0 0 678 316" fill="none" xmlns="http://www.w3.org/2000/svg">
<path d="M138.141 150.777C147.556 151.97 162.58 158.904 172.18 162.332L385.322 237.134L421.109 249.553C428.575 252.106 437.187 254.255 444.072 258.123C430.995 257.83 417.521 254.961 404.542 253.241C391.99 251.577 378.08 251.064 365.934 247.552C355.57 244.555 345.735 239.127 335.825 234.888L185.996 171.428C170.027 164.677 153.531 158.796 138.141 150.777Z" fill="url(#paint0_linear_36_11)"/>
<path d="M446.018 0.00430921C461.863 -0.179691 476.792 5.56832 491.884 9.66932C506.664 13.6853 521.374 17.2423 535.936 22.0433C514.486 21.6363 492.965 20.1553 471.532 19.1383L350.906 13.5303C334.608 12.8043 318.299 11.5533 301.988 11.3093C294.571 10.6023 286.977 10.5373 279.526 10.1623L229.796 7.84833C221.696 7.48433 209.202 7.87934 201.574 5.81834C212.117 4.76834 222.746 4.86333 233.329 4.75233C244.62 4.62233 255.909 4.39833 267.197 4.08033C326.772 2.52033 386.483 2.50931 446.018 0.00430921Z" fill="url(#paint1_linear_36_11)"/>
<path d="M168.348 28.2259C186.677 27.8519 205.138 29.4439 223.445 30.2379C251.591 31.1826 279.726 32.3776 307.851 33.8229C307.103 39.1999 306.588 44.6169 306.008 50.0149L207.826 48.3859C222.172 77.0669 238.039 105.038 252.696 133.574L76.096 108.262C83.478 112.025 92.098 113.817 100.012 116.234L283.876 173.557C294.599 177.437 305.659 180.487 316.591 183.716L319.328 196.059C293.607 188.221 268.209 179.267 242.695 170.781L39.753 103.471C26.482 99.1019 12.688 95.7399 0 89.8159C19.55 93.1039 39.498 95.1179 59.164 97.7079C111.534 104.607 164.148 110.705 216.381 118.516C199.835 88.7739 184.228 58.3379 168.348 28.2259Z" fill="url(#paint2_linear_36_11)"/>
<path d="M336.972 29.8721C352.079 29.1281 367.491 30.1021 382.634 30.1841L577.835 31.1941C599.825 31.2021 622.247 30.4221 644.192 31.9791C649.979 32.3901 655.075 33.2591 660.042 36.3741C667.873 41.2871 673.846 48.8641 675.898 57.9631C676.692 61.4861 676.821 65.9881 674.835 69.0961C627.982 67.4451 580.961 67.4461 534.08 66.6071C519.022 66.3381 503.978 65.7351 488.915 65.6551C483.033 65.6241 476.394 65.0171 470.651 66.1691C483.86 67.8461 497.178 68.9401 510.439 70.1541C518.948 70.6191 527.592 72.0321 536.082 72.9391L590.378 78.7161L643.688 84.3291C654.26 85.4221 665.03 86.1671 675.519 87.8401C675.767 88.3871 675.988 88.8851 676.111 89.4771C676.854 93.0331 676.918 98.2081 674.766 101.226C663.53 98.7391 650.821 98.8851 639.343 97.9101L326.841 69.5881C326.086 59.5621 322.518 42.5511 328.97 34.0871C331.14 31.2411 333.55 30.2321 336.972 29.8721Z" fill="url(#paint3_linear_36_11)"/>
<path d="M274.149 100.042C279.916 100.052 285.901 101.772 291.57 102.836L316.354 107.324L608.134 159.715L649.192 167.013C657.603 168.464 667.9 169.084 675.71 172.275C676.689 173.734 676.775 175.04 676.827 176.748C677.107 185.924 676.747 195.156 676.838 204.342C676.936 214.234 677.629 224.547 676.69 234.381C676.555 235.789 676.514 237.249 675.528 238.296C656.088 234.471 636.273 231.781 616.721 228.489C561.431 219.18 505.952 210.492 450.803 200.407C457.279 203.188 464.242 205.031 470.979 207.077L597.996 245.393C613.405 250.293 628.875 254.995 644.404 259.499C651.901 261.698 669.993 265.925 675.96 269.518C676.778 270.758 676.908 271.894 677.009 273.354C677.218 276.389 677.024 279.469 677.113 282.515C677.372 291.322 678.622 302.827 672.252 309.919C668.763 313.802 663.589 315.25 658.537 315.489C654.253 315.692 650.138 314.81 646.073 313.525C628.132 307.853 610.602 300.836 592.929 294.387L401.64 225.079C384.552 218.904 367.182 213.289 350.312 206.542C346.967 205.204 343.661 203.828 340.979 201.354C334.838 195.688 333.893 186.809 333.587 178.933C315.216 172.16 295.796 168.159 277.533 161.094C301.364 164.352 325.152 169.967 348.834 174.334C358.17 176.055 367.65 178.118 377.107 178.955L332.731 163.898C330.858 149.796 330.73 135.175 330.065 120.955C318.694 116.878 307.347 112.734 296.024 108.525C288.715 105.826 281.213 103.333 274.149 100.042Z" fill="url(#paint4_linear_36_11)"/>
<defs>
<linearGradient id="paint0_linear_36_11" x1="462.5" y1="-1.57078e-06" x2="363.5" y2="250" gradientUnits="userSpaceOnUse">
<stop stop-color="#1AE8D9"/>
<stop offset="1" stop-color="#C37BFF"/>
</linearGradient>
<linearGradient id="paint1_linear_36_11" x1="462.5" y1="-1.57078e-06" x2="363.5" y2="250" gradientUnits="userSpaceOnUse">
<stop stop-color="#1AE8D9"/>
<stop offset="1" stop-color="#C37BFF"/>
</linearGradient>
<linearGradient id="paint2_linear_36_11" x1="462.5" y1="-1.57078e-06" x2="363.5" y2="250" gradientUnits="userSpaceOnUse">
<stop stop-color="#1AE8D9"/>
<stop offset="1" stop-color="#C37BFF"/>
</linearGradient>
<linearGradient id="paint3_linear_36_11" x1="475.766" y1="30" x2="527.5" y2="275.5" gradientUnits="userSpaceOnUse">
<stop stop-color="#FAD55E"/>
<stop offset="1" stop-color="#F76D1D"/>
</linearGradient>
<linearGradient id="paint4_linear_36_11" x1="475.766" y1="30" x2="527.5" y2="275.5" gradientUnits="userSpaceOnUse">
<stop stop-color="#FAD55E"/>
<stop offset="1" stop-color="#F76D1D"/>
</linearGradient>
</defs>
</svg>
