<svg width="452" height="211" viewBox="0 0 452 211" fill="none" xmlns="http://www.w3.org/2000/svg">
<path d="M92.2766 100.47C98.5658 101.265 108.602 105.886 115.014 108.17L257.391 158.014L281.297 166.289C286.284 167.991 292.037 169.423 296.636 172C287.9 171.805 278.9 169.893 270.23 168.747C261.845 167.638 252.554 167.296 244.44 164.956C237.517 162.959 230.948 159.342 224.328 156.517L124.243 114.231C113.576 109.732 102.557 105.814 92.2766 100.47Z" fill="url(#paint0_linear_36_10)"/>
<path d="M297.936 0.00287143C308.52 -0.119737 318.492 3.71044 328.574 6.44313C338.447 9.11919 348.273 11.4894 358 14.6885C343.672 14.4173 329.296 13.4305 314.979 12.7528L234.402 9.0159C223.515 8.53213 212.621 7.69854 201.725 7.53595C196.77 7.06484 191.698 7.02153 186.721 6.77165L153.501 5.22972C148.091 4.98717 139.745 5.25038 134.649 3.87704C141.692 3.17737 148.792 3.24067 155.861 3.1667C163.404 3.08008 170.945 2.93082 178.485 2.71892C218.28 1.67942 258.167 1.67207 297.936 0.00287143Z" fill="url(#paint1_linear_36_10)"/>
<path d="M112.455 18.8083C124.698 18.5591 137.03 19.6199 149.259 20.149C168.06 20.7785 186.855 21.5747 205.642 22.5378C205.142 26.1208 204.798 29.7304 204.41 33.3274L138.826 32.2419C148.409 51.3534 159.008 69.9918 168.799 89.0067L50.8314 72.1401C55.7625 74.6476 61.5206 75.8417 66.8071 77.4523L189.627 115.649C196.789 118.235 204.177 120.267 211.48 122.419L213.308 130.644C196.127 125.421 179.161 119.454 162.118 113.8L26.5546 68.9477C17.6897 66.0364 8.47546 63.7961 0 59.8487C13.0592 62.0396 26.3843 63.3817 39.521 65.1075C74.5037 69.7046 109.649 73.768 144.54 78.9729C133.488 59.1543 123.063 38.8734 112.455 18.8083Z" fill="url(#paint2_linear_36_10)"/>
<path d="M224.91 20.1859C234.987 19.6889 245.269 20.3396 255.371 20.3943L385.59 21.069C400.26 21.0744 415.218 20.5533 429.857 21.5934C433.718 21.868 437.118 22.4485 440.431 24.5293C445.655 27.8112 449.64 32.8727 451.009 38.951C451.538 41.3044 451.624 44.3117 450.3 46.3879C419.044 45.285 387.676 45.2857 356.401 44.7252C346.356 44.5455 336.32 44.1427 326.271 44.0893C322.348 44.0686 317.919 43.6631 314.087 44.4326C322.899 45.5529 331.784 46.2837 340.63 47.0947C346.307 47.4053 352.073 48.3492 357.737 48.955L393.958 52.8141L429.521 56.5637C436.574 57.2938 443.759 57.7915 450.756 58.909C450.921 59.2744 451.069 59.6071 451.151 60.0026C451.646 62.378 451.689 65.835 450.254 67.851C442.758 66.1897 434.28 66.2872 426.623 65.6359L218.151 46.7166C217.647 40.0191 215.267 28.6556 219.571 23.0016C221.019 21.1004 222.627 20.4264 224.91 20.1859Z" fill="url(#paint3_linear_36_10)"/>
<path d="M183 67.0601C186.847 67.0668 190.84 68.2157 194.622 68.9265L211.155 71.9245L405.803 106.922L433.193 111.797C438.804 112.767 445.673 113.181 450.883 115.312C451.536 116.287 451.594 117.159 451.628 118.3C451.815 124.43 451.575 130.597 451.636 136.733C451.701 143.341 452.163 150.231 451.537 156.8C451.447 157.74 451.42 158.716 450.762 159.415C437.793 156.86 424.575 155.063 411.531 152.864C374.647 146.645 337.637 140.842 300.847 134.105C305.167 135.963 309.812 137.194 314.306 138.56L399.04 164.156C409.32 167.429 419.639 170.57 429.999 173.579C435 175.048 447.069 177.871 451.05 180.272C451.596 181.1 451.682 181.859 451.75 182.834C451.889 184.861 451.76 186.919 451.819 188.954C451.992 194.837 452.826 202.522 448.576 207.26C446.249 209.854 442.797 210.821 439.427 210.981C436.569 211.116 433.824 210.527 431.112 209.669C419.144 205.88 407.449 201.192 395.66 196.884L268.05 150.586C256.65 146.461 245.063 142.71 233.809 138.203C231.577 137.309 229.372 136.39 227.583 134.737C223.486 130.952 222.856 125.021 222.651 119.76C210.396 115.236 197.441 112.563 185.257 107.843C201.155 110.02 217.024 113.771 232.823 116.688C239.051 117.837 245.375 119.216 251.684 119.775L222.08 109.716C220.831 100.296 220.745 90.5293 220.302 81.0302C212.716 78.3065 205.147 75.5387 197.593 72.7268C192.717 70.9239 187.712 69.2585 183 67.0601Z" fill="url(#paint4_linear_36_10)"/>
<defs>
<linearGradient id="paint0_linear_36_10" x1="308.946" y1="-1.04669e-06" x2="243.096" y2="166.698" gradientUnits="userSpaceOnUse">
<stop stop-color="#1AE8D9"/>
<stop offset="1" stop-color="#C37BFF"/>
</linearGradient>
<linearGradient id="paint1_linear_36_10" x1="308.946" y1="-1.04669e-06" x2="243.096" y2="166.698" gradientUnits="userSpaceOnUse">
<stop stop-color="#1AE8D9"/>
<stop offset="1" stop-color="#C37BFF"/>
</linearGradient>
<linearGradient id="paint2_linear_36_10" x1="308.946" y1="-1.04669e-06" x2="243.096" y2="166.698" gradientUnits="userSpaceOnUse">
<stop stop-color="#1AE8D9"/>
<stop offset="1" stop-color="#C37BFF"/>
</linearGradient>
<linearGradient id="paint3_linear_36_10" x1="317.5" y1="20.2714" x2="352.101" y2="184.249" gradientUnits="userSpaceOnUse">
<stop stop-color="#FAD55E"/>
<stop offset="1" stop-color="#F76D1D"/>
</linearGradient>
<linearGradient id="paint4_linear_36_10" x1="317.5" y1="20.2714" x2="352.101" y2="184.249" gradientUnits="userSpaceOnUse">
<stop stop-color="#FAD55E"/>
<stop offset="1" stop-color="#F76D1D"/>
</linearGradient>
</defs>
</svg>
