<svg width="678" height="316" viewBox="0 0 678 316" fill="none" xmlns="http://www.w3.org/2000/svg">
<path d="M171.072 165.324C164.398 162.635 165.404 159.913 172.18 162.332V162.332L385.322 237.134L421.109 249.553V249.553C427.15 251.619 425.986 256.502 419.677 255.522C414.592 254.733 409.53 253.902 404.542 253.241C391.99 251.577 378.08 251.064 365.934 247.552C355.57 244.555 345.735 239.127 335.825 234.888L185.996 171.428C181.055 169.34 176.065 167.335 171.072 165.324Z" fill="#2BDFDC"/>
<path d="M446.018 0.00430921C461.863 -0.179691 476.792 5.56832 491.884 9.66932V9.66932C499.528 11.7464 498.126 20.5298 490.215 20.1037C483.983 19.7679 477.754 19.4335 471.532 19.1383L350.906 13.5303C334.608 12.8043 318.299 11.5533 301.988 11.3093C294.571 10.6023 286.977 10.5373 279.526 10.1623L229.796 7.84833V7.84833C224.019 7.58876 224.114 4.82771 229.896 4.7828C231.04 4.77391 232.185 4.76432 233.329 4.75233C244.62 4.62233 255.909 4.39833 267.197 4.08033C326.772 2.52033 386.483 2.50931 446.018 0.00430921Z" fill="#2BDFDC"/>
<path d="M189.428 68.4053C179.734 49.9659 192.882 28.6328 213.684 29.7552C216.941 29.9309 220.196 30.097 223.445 30.2379C248.636 31.0834 273.818 32.1294 298.992 33.376C303.755 33.6118 307.3 37.887 306.789 42.6286V42.6286C306.338 46.8106 302.787 49.9615 298.582 49.8917L252.116 49.1208C231.949 48.7862 218.8 69.8729 228.329 87.6494C229.684 90.1783 231.042 92.7063 232.4 95.2341C241.011 111.267 227.769 130.001 209.754 127.419L101.091 111.844C96.4006 111.172 95.4804 114.85 100.012 116.234V116.234L283.876 173.557C293.585 177.07 303.569 179.902 313.485 182.803C315.402 183.364 316.859 184.926 317.292 186.876V186.876C318.202 190.98 314.353 194.537 310.344 193.274C287.683 186.139 265.234 178.278 242.695 170.781L39.753 103.471V103.471C33.4292 101.389 35.0661 94.7093 41.6748 95.5152C47.5175 96.2276 53.353 96.9426 59.164 97.7079C92.7395 102.131 126.415 106.225 160.027 110.652C183.067 113.687 200.242 88.9749 189.428 68.4053V68.4053Z" fill="#2BDFDC"/>
<path d="M336.972 29.8721C352.079 29.1281 367.491 30.1021 382.634 30.1841L577.835 31.1941C599.825 31.2021 622.247 30.4221 644.192 31.9791C649.979 32.3901 655.075 33.2591 660.042 36.3741C667.873 41.2871 673.846 48.8641 675.898 57.9631V57.9631C677.459 64.8909 670.48 68.9359 663.382 68.7241C620.322 67.4397 577.142 67.3777 534.08 66.6071C519.022 66.3381 503.978 65.7351 488.915 65.6551V65.6551C485.522 65.6372 485.472 67.8452 488.849 68.1735C496.045 68.8731 503.25 69.496 510.439 70.1541C518.948 70.6191 527.592 72.0321 536.082 72.9391L590.378 78.7161L643.688 84.3291C653.681 85.3623 663.852 86.0845 673.795 87.5736C674.872 87.7349 675.889 88.4105 676.111 89.4771V89.4771V89.4771C677.614 96.6698 670.102 100.132 662.786 99.4441C654.951 98.7072 646.882 98.5504 639.343 97.9101L352.141 71.881C337.54 70.5577 323.819 58.8411 325.44 44.2704C325.877 40.3437 326.916 36.7821 328.97 34.0871C331.14 31.2411 333.55 30.2321 336.972 29.8721Z" fill="#F9C454"/>
<path d="M290.577 106.546C286.648 105.128 287.465 102.066 291.57 102.836V102.836L316.354 107.324L608.134 159.715L649.192 167.013C656.088 168.203 664.252 168.834 671.273 170.781C674.216 171.597 676.734 173.696 676.827 176.748V176.748C677.107 185.924 676.747 195.156 676.838 204.342C676.936 214.234 677.629 224.547 676.69 234.381V234.381C676.442 236.963 673.984 237.988 671.435 237.508C653.311 234.091 634.902 231.55 616.721 228.489C568.42 220.357 519.974 212.698 471.73 204.168C468.915 203.671 468.244 206.246 470.979 207.077V207.077L597.996 245.393C613.405 250.293 628.875 254.995 644.404 259.499C650.72 261.352 664.558 264.644 672.328 267.784C674.787 268.778 676.826 270.708 677.009 273.354V273.354C677.218 276.389 677.024 279.469 677.113 282.515C677.372 291.322 678.622 302.827 672.252 309.919C668.763 313.802 663.589 315.25 658.537 315.489C654.253 315.692 650.138 314.81 646.073 313.525C628.132 307.853 610.602 300.836 592.929 294.387L401.64 225.079C384.552 218.904 367.182 213.289 350.312 206.542C346.967 205.204 343.661 203.828 340.979 201.354C335.928 196.694 334.392 189.861 333.836 183.2C333.621 180.622 332.013 178.344 329.568 177.499V177.499C322.4 175.02 323.764 169.418 331.199 170.91C337.084 172.092 342.962 173.251 348.834 174.334V174.334C352.835 175.072 353.818 171.053 349.966 169.746L335.809 164.942C333.924 164.303 332.559 162.65 332.333 160.672C331.591 154.186 331.179 147.606 330.876 141.02C330.319 128.881 322.596 118.291 311.184 114.116C306.126 112.266 301.073 110.402 296.024 108.525C294.217 107.858 292.398 107.203 290.577 106.546Z" fill="#F9C454"/>
</svg>
