<svg version="1.1" id="Layer_1" xmlns:x="ns_extend;" xmlns:i="ns_ai;" xmlns:graph="ns_graphs;" xmlns="http://www.w3.org/2000/svg" xmlns:xlink="http://www.w3.org/1999/xlink" x="0px" y="0px" viewBox="0 0 364.8 100" style="enable-background:new 0 0 364.8 100;" xml:space="preserve">
 <style type="text/css">
  .st0{fill-rule:evenodd;clip-rule:evenodd;fill:#615EFF;}
	.st1{fill-rule:evenodd;clip-rule:evenodd;fill:#FFFFFF;}
 </style>
 <metadata>
  <sfw xmlns="ns_sfw;">
   <slices>
   </slices>
   <sliceSourceBounds bottomLeftOrigin="true" height="100" width="364.8" x="66" y="50">
   </sliceSourceBounds>
  </sfw>
 </metadata>
 <g>
  <path class="st0" d="M32.7,12.1C43.4,0.1,61-3.4,75.4,3.5c19.2,9.2,26.2,32.7,15.8,50.8L67.7,95c-1.3,2.3-3.5,3.9-6,4.6
		c-2.5,0.7-5.2,0.3-7.5-1l28.5-49.3c7.6-13.1,2.5-30.2-11.4-36.9c-10.5-5-23.2-2.5-31,6.1c-4.3,4.8-6.7,10.9-6.7,17.3
		c-0.1,6.4,2.2,12.6,6.3,17.4c0.7,0.9,1.5,1.7,2.4,2.5L25.6,84.6c-0.7,1.1-1.5,2.1-2.5,2.9c-1,0.8-2.2,1.4-3.5,1.7
		c-1.3,0.3-2.6,0.4-3.9,0.3s-2.5-0.6-3.7-1.2l18.1-31.3c-2.6-3.7-4.5-7.9-5.5-12.4L13.5,63.8c-1.3,2.3-3.5,3.9-6,4.6
		c-2.5,0.7-5.2,0.3-7.5-1l28.6-49.6C29.8,15.8,31.2,13.9,32.7,12.1z M65.8,27.9c6.9,4,9.3,12.8,5.3,19.7L43.6,95
		c-1.3,2.3-3.5,3.9-6,4.6c-2.5,0.7-5.2,0.3-7.5-1l25.5-44.1c-2-0.4-4-1.3-5.6-2.5c-1.7-1.2-3.1-2.8-4.1-4.7c-1-1.8-1.6-3.9-1.7-5.9
		c-0.1-2.1,0.2-4.2,0.9-6.1c0.7-2,1.9-3.7,3.4-5.2c1.5-1.5,3.3-2.6,5.3-3.3c2-0.7,4.1-1,6.1-0.8C62,26.2,64,26.9,65.8,27.9z
		 M55.8,36.8c-0.5,0.4-0.9,0.8-1.2,1.3h0c-0.4,0.8-0.7,1.7-0.6,2.6c0.1,0.9,0.4,1.7,0.9,2.5c0.5,0.7,1.3,1.2,2.1,1.5
		c0.8,0.3,1.8,0.3,2.6,0.1c0.9-0.2,1.6-0.7,2.2-1.4c0.6-0.7,1-1.5,1.1-2.4c0.1-0.9,0-1.8-0.4-2.6c-0.4-0.8-1-1.5-1.8-1.9
		c-0.5-0.3-1.1-0.5-1.7-0.6c-0.6-0.1-1.2,0-1.8,0.1C56.8,36.2,56.3,36.5,55.8,36.8z">
  </path>
  <path class="st0" d="M32.7,12.1C43.4,0.1,61-3.4,75.4,3.5c19.2,9.2,26.2,32.7,15.8,50.8L67.7,95c-1.3,2.3-3.5,3.9-6,4.6
		c-2.5,0.7-5.2,0.3-7.5-1l28.5-49.3c7.6-13.1,2.5-30.2-11.4-36.9c-10.5-5-23.2-2.5-31,6.1c-4.3,4.8-6.7,10.9-6.7,17.3
		c-0.1,6.4,2.2,12.6,6.3,17.4c0.7,0.9,1.5,1.7,2.4,2.5L25.6,84.6c-0.7,1.1-1.5,2.1-2.5,2.9c-1,0.8-2.2,1.4-3.5,1.7
		c-1.3,0.3-2.6,0.4-3.9,0.3s-2.5-0.6-3.7-1.2l18.1-31.3c-2.6-3.7-4.5-7.9-5.5-12.4L13.5,63.8c-1.3,2.3-3.5,3.9-6,4.6
		c-2.5,0.7-5.2,0.3-7.5-1l28.6-49.6C29.8,15.8,31.2,13.9,32.7,12.1z M65.8,27.9c6.9,4,9.3,12.8,5.3,19.7L43.6,95
		c-1.3,2.3-3.5,3.9-6,4.6c-2.5,0.7-5.2,0.3-7.5-1l25.5-44.1c-2-0.4-4-1.3-5.6-2.5c-1.7-1.2-3.1-2.8-4.1-4.7c-1-1.8-1.6-3.9-1.7-5.9
		c-0.1-2.1,0.2-4.2,0.9-6.1c0.7-2,1.9-3.7,3.4-5.2c1.5-1.5,3.3-2.6,5.3-3.3c2-0.7,4.1-1,6.1-0.8C62,26.2,64,26.9,65.8,27.9z
		 M55.8,36.8c-0.5,0.4-0.9,0.8-1.2,1.3h0c-0.4,0.8-0.7,1.7-0.6,2.6c0.1,0.9,0.4,1.7,0.9,2.5c0.5,0.7,1.3,1.2,2.1,1.5
		c0.8,0.3,1.8,0.3,2.6,0.1c0.9-0.2,1.6-0.7,2.2-1.4c0.6-0.7,1-1.5,1.1-2.4c0.1-0.9,0-1.8-0.4-2.6c-0.4-0.8-1-1.5-1.8-1.9
		c-0.5-0.3-1.1-0.5-1.7-0.6c-0.6-0.1-1.2,0-1.8,0.1C56.8,36.2,56.3,36.5,55.8,36.8z">
  </path>
  <path class="st1" d="M114,76l20.6-52.7h12.1L167.2,76h-11.5l-4.4-11.8h-21.3L125.5,76H114z M147.8,54.7c-1.4-4.1-2.7-7.8-3.8-11.1
		c-1.1-3.3-2.2-6.6-3.4-10.1c-1.1,3.5-2.3,6.8-3.4,10.1c-1.1,3.3-2.4,6.9-3.8,11.1H147.8z M170.7,28.9c0-1.7,0.5-3,1.5-4.1
		c1-1,2.4-1.5,4.1-1.5c1.7,0,3,0.5,4.1,1.5s1.5,2.4,1.5,4.1s-0.5,3-1.5,4.1c-1,1-2.4,1.5-4.1,1.5c-1.7,0-3-0.5-4.1-1.5
		C171.2,31.9,170.7,30.6,170.7,28.9z M171.2,76V40.8h10.1V76H171.2z M189.9,40.8V76h10.1V60.5c0-3.7,0.8-6.6,2.5-8.5
		c1.7-2,3.9-3,6.6-3c1.3,0,2.6,0.2,4,0.7l1.4-8.8c-1.6-0.5-3.2-0.7-4.7-0.7c-4.5,0-8,1.9-10.5,5.7v-5H189.9z M218.4,76V23.3h10.1
		v21.1c1.5-1.3,3.2-2.3,5.1-3.1c1.9-0.8,3.9-1.1,6.2-1.1c3.3,0,6.2,0.8,8.8,2.4c2.6,1.6,4.6,3.7,6.1,6.5c1.5,2.7,2.2,5.9,2.2,9.4
		c0,3.5-0.7,6.7-2.2,9.4c-1.5,2.7-3.5,4.9-6.1,6.5c-2.6,1.6-5.5,2.4-8.8,2.4c-2.3,0-4.4-0.4-6.4-1.2c-2-0.8-3.7-1.9-5.2-3.3L228,76
		H218.4z M238.5,67.9c2.6,0,4.7-0.9,6.4-2.7c1.7-1.8,2.5-4.1,2.5-6.8c0-2.7-0.8-5-2.5-6.8c-1.7-1.8-3.8-2.7-6.4-2.7
		s-4.7,0.9-6.4,2.7c-1.7,1.8-2.5,4.1-2.5,6.8c0,2.7,0.8,5,2.5,6.8C233.8,67,235.9,67.9,238.5,67.9z M273.8,58l-8.2-17.2H255
		l16.4,33.4l-8,19.3H274l21.9-52.7h-10.7l-9.5,22.9c-0.2-1.1-0.5-2.2-0.8-3.2C274.5,59.6,274.2,58.8,273.8,58z M297.2,40.8h5.8v-8.8
		h10.1v8.8h8.5v8.8h-8.5v12.9c0,1.7,0.5,3,1.6,3.9c1.1,0.9,2.4,1.4,4.1,1.4c1.2,0,2.5-0.3,3.8-0.8v8.3c-2.2,0.9-4.4,1.3-6.6,1.3
		c-4.2,0-7.4-1.1-9.6-3.3c-2.2-2.2-3.3-5.5-3.3-9.6V49.6h-5.8V40.8z M340.9,66.2c-1.7-1.2-2.8-2.8-3.5-4.7h27.4v-3.1
		c0-3.5-0.8-6.7-2.4-9.4c-1.6-2.7-3.8-4.9-6.5-6.5c-2.7-1.6-5.9-2.4-9.4-2.4c-3.6,0-6.8,0.8-9.6,2.4c-2.8,1.6-5,3.7-6.6,6.5
		c-1.6,2.7-2.4,5.8-2.4,9.3c0,3.5,0.8,6.7,2.5,9.5c1.7,2.8,4,4.9,7,6.5c3,1.6,6.4,2.4,10.3,2.4c2.4,0,5-0.4,7.6-1.2
		c2.7-0.8,5.4-2.3,8.1-4.4l-6.1-7.3c-1.3,1.2-2.8,2.3-4.4,3.1c-1.6,0.8-3.6,1.2-6,1.2C344.6,68,342.6,67.4,340.9,66.2z M353.8,54
		c-0.6-1.2-1.4-2.3-2.4-3.2c-1.5-1.3-3.4-1.9-5.5-1.9c-2.2,0-4,0.6-5.6,1.9c-1.1,0.9-1.9,1.9-2.5,3.1H353.8z">
  </path>
 </g>
</svg>