<svg version="1.1" id="Layer_1" xmlns:x="ns_extend;" xmlns:i="ns_ai;" xmlns:graph="ns_graphs;" xmlns="http://www.w3.org/2000/svg" xmlns:xlink="http://www.w3.org/1999/xlink" x="0px" y="0px" viewBox="0 0 269.2 170.1" style="enable-background:new 0 0 269.2 170.1;" xml:space="preserve">
 <style type="text/css">
  .st0{fill:#333333;}
	.st1{fill:#FCB400;}
	.st2{fill:#18BFFF;}
	.st3{fill:#F82B60;}
	.st4{fill:#BA1E45;}
 </style>
 <metadata>
  <sfw xmlns="ns_sfw;">
   <slices>
   </slices>
   <sliceSourceBounds bottomLeftOrigin="true" height="170.1" width="269.2" x="174.8" y="119.8">
   </sliceSourceBounds>
  </sfw>
 </metadata>
 <g>
  <g>
   <path class="st0" d="M34.4,145.9l-6.7-18.4c-0.3-0.8-1.4-0.8-1.6,0l-6.8,18.4c-0.2,0.6,0.2,1.2,0.8,1.2h13.7
			C34.2,147.1,34.7,146.5,34.4,145.9 M37.6,156.2H16c-0.4,0-0.7,0.2-0.8,0.6L11,168.2c-0.1,0.3-0.5,0.6-0.8,0.6H0.8
			c-0.6,0-1-0.6-0.8-1.2L21.6,114c0.1-0.3,0.5-0.5,0.8-0.5h8.9c0.4,0,0.7,0.2,0.8,0.5l21.5,53.7c0.2,0.6-0.2,1.2-0.8,1.2h-9.3
			c-0.4,0-0.7-0.2-0.8-0.6l-4.3-11.4C38.3,156.5,38,156.2,37.6,156.2 M58,132.3h8c0.5,0,0.9,0.4,0.9,0.9V168c0,0.5-0.4,0.9-0.9,0.9
			h-8c-0.5,0-0.9-0.4-0.9-0.9v-34.9C57.1,132.7,57.5,132.3,58,132.3 M96,140.8c0,0.5-0.4,0.9-0.9,0.9h-0.2c-4,0-6.8,1-8.7,2.9
			c-1.9,1.9-2.8,5.1-2.8,9.4V168c0,0.5-0.4,0.9-0.9,0.9h-7.9c-0.5,0-0.9-0.4-0.9-0.9v-34.9c0-0.5,0.4-0.9,0.9-0.9h7.8
			c0.5,0,0.9,0.4,0.9,0.9v6.8h0.2c1-2.9,2.5-5.1,4.5-6.6c2.1-1.5,4.6-2.3,7.6-2.3H96L96,140.8L96,140.8z M118,140.5
			c-0.5,0-0.9,0.4-0.9,0.9v14.5c0,1.5,0.3,2.6,0.9,3.2c0.6,0.6,1.6,1,3,1h0.8c0.5,0,0.9,0.4,0.9,0.9v7.2c0,0.5-0.4,0.9-0.9,0.9h-3.4
			c-3.6,0-6.3-0.9-8.1-2.7s-2.9-4.6-2.9-8.1v-16.9c0-0.5-0.4-0.9-0.9-0.9h-5c-0.5,0-0.9-0.4-0.9-0.9v-6.5c0-0.5,0.4-0.9,0.9-0.9h5
			c0.5,0,0.9-0.4,0.9-0.9v-12.9c0-0.5,0.4-0.9,0.9-0.9h8c0.5,0,0.9,0.4,0.9,0.9v12.9c0,0.5,0.4,0.9,0.9,0.9h5.8
			c0.5,0,0.9,0.4,0.9,0.9v6.5c0,0.5-0.4,0.9-0.9,0.9H118z M154.6,158c1.8-1.9,2.7-4.4,2.7-7.4s-0.9-5.6-2.7-7.4
			c-1.8-1.9-4.2-2.9-7.1-2.9c-3,0-5.4,1-7.1,2.9c-1.8,1.9-2.7,4.4-2.7,7.4s0.9,5.6,2.7,7.4c1.8,1.9,4.2,2.9,7.1,2.9
			C150.3,160.9,152.7,159.9,154.6,158 M136.1,167.8c-2.7-1.5-4.8-3.8-6.4-6.6c-1.6-2.9-2.4-6.5-2.4-10.5c0-4.1,0.8-7.5,2.4-10.5
			c1.6-2.9,3.7-5.2,6.4-6.6c2.7-1.5,5.7-2.3,8.8-2.3c2.9,0,5.3,0.6,7.3,1.7c2,1.1,3.7,2.7,4.9,4.7h0.2v-4.3c0-0.5,0.4-0.9,0.9-0.9
			h7.9c0.5,0,0.9,0.4,0.9,0.9V168c0,0.5-0.4,0.9-0.9,0.9h-7.9c-0.5,0-0.9-0.4-0.9-0.9v-4.3h-0.2c-1.2,2-2.9,3.6-4.9,4.7
			s-4.5,1.7-7.3,1.7C141.7,170,138.8,169.2,136.1,167.8 M199.8,158c1.8-1.9,2.7-4.4,2.7-7.4s-0.9-5.6-2.7-7.4
			c-1.8-1.9-4.2-2.9-7.1-2.9s-5.4,1-7.1,2.9c-1.8,1.9-2.8,4.4-2.8,7.4s0.9,5.6,2.8,7.4c1.8,1.9,4.2,2.9,7.1,2.9S198,159.9,199.8,158
			 M187.8,168.3c-2-1.1-3.7-2.7-4.9-4.7h-0.2v4.3c0,0.5-0.4,0.9-0.9,0.9h-8c-0.5,0-0.9-0.4-0.9-0.9v-53.6c0-0.5,0.4-0.9,0.9-0.9h8
			c0.5,0,0.9,0.4,0.9,0.9v23.1h0.2c1.2-2,2.9-3.6,4.9-4.7s4.5-1.7,7.3-1.7c3.2,0,6.2,0.8,8.8,2.3c2.7,1.5,4.8,3.8,6.4,6.6
			c1.6,2.9,2.4,6.5,2.4,10.5c0,4.1-0.8,7.5-2.4,10.5c-1.6,2.9-3.7,5.2-6.4,6.6c-2.7,1.5-5.7,2.3-8.8,2.3
			C192.3,170,189.9,169.4,187.8,168.3 M226.2,168.8h-8c-0.5,0-0.9-0.4-0.9-0.9v-53.6c0-0.5,0.4-0.9,0.9-0.9h8c0.5,0,0.9,0.4,0.9,0.9
			V168C227,168.4,226.7,168.8,226.2,168.8 M245.1,140.8c-1.3,1-2.2,2.5-2.7,4.5c-0.1,0.5,0.3,1.1,0.9,1.1h15.2c0.5,0,1-0.5,0.9-1
			c-0.3-1.9-1.1-3.3-2.4-4.5c-1.5-1.3-3.5-2-5.9-2C248.7,139,246.7,139.6,245.1,140.8 M264.5,136.2c3.1,3.4,4.7,8.2,4.7,14.4v1
			c0,0.5-0.4,0.9-0.9,0.9h-25.4c-0.5,0-1,0.5-0.9,1c0.4,2.3,1.4,4.2,3.1,5.5c1.9,1.6,4.3,2.4,7,2.4c3.7,0,7-1.4,10.2-4.3
			c0.4-0.4,1-0.3,1.3,0.2l3.9,5.6c0.3,0.4,0.2,0.9-0.1,1.2c-1.9,1.7-4,3.1-6.4,4.2c-2.6,1.2-5.6,1.9-8.9,1.9c-4,0-7.4-0.8-10.3-2.4
			c-3-1.6-5.3-3.9-6.8-6.8c-1.6-2.9-2.5-6.4-2.5-10.1c0-3.9,0.8-7.2,2.4-10.2c1.6-3,3.8-5.3,6.6-6.8c2.9-1.6,6.2-2.5,9.9-2.5
			C257.1,131.1,261.5,132.8,264.5,136.2 M67.9,119.4c0,3.3-2.7,6-6,6c-3.3,0-6-2.7-6-6s2.7-6,6-6C65.3,113.5,67.9,116.1,67.9,119.4">
   </path>
  </g>
  <g>
   <path class="st1" d="M128.9,1.2L87.4,18.4c-2.3,1-2.3,4.2,0,5.2l41.8,16.6c3.7,1.4,7.7,1.4,11.4,0l41.8-16.6c2.3-1,2.4-4.2,0-5.2
			L140.8,1.2C137-0.4,132.7-0.4,128.9,1.2">
   </path>
   <path class="st2" d="M138.6,49.2v41.4c0,2,2,3.4,3.8,2.6l46.6-18c1.1-0.4,1.7-1.4,1.7-2.6V31.2c0-2-2-3.4-3.8-2.6l-46.6,18
			C139.2,47,138.6,48,138.6,49.2">
   </path>
   <path class="st3" d="M79.1,31.3v38.9c0,2.1,2.4,3.4,4.2,2.5l29.1-14l1.4-0.7L80,29.4C79.5,29.9,79.1,30.5,79.1,31.3z">
   </path>
   <path class="st4" d="M127.5,46.3L83.2,28.7c-0.9-0.3-1.8-0.2-2.5,0.2c-0.2,0.1-0.5,0.3-0.8,0.5L113.8,58l13.8-6.6
			C129.9,50.3,129.7,47.1,127.5,46.3z">
   </path>
  </g>
 </g>
</svg>