<svg width="357" height="108" viewBox="0 0 357 108" fill="none" xmlns="http://www.w3.org/2000/svg" xmlns:xlink="http://www.w3.org/1999/xlink">
 <path d="M188.503 33.5384H179.241C178.335 33.5384 177.832 34.1459 177.731 35.057L177.429 39.7142C173.704 35.462 168.67 32.4247 162.429 32.4247C148.636 32.4247 138.569 43.9664 138.569 58.4441C138.569 72.9219 148.636 84.4636 162.429 84.4636C168.872 84.4636 173.805 81.5275 177.328 77.3766L177.731 81.6288C177.832 82.5399 178.335 83.1474 179.241 83.1474H188.503C189.409 83.1474 190.013 82.5399 190.013 81.6288V35.057C190.013 34.1459 189.409 33.5384 188.503 33.5384ZM164.039 72.3144C156.69 72.3144 151.355 66.3411 151.355 58.3429C151.355 50.446 156.69 44.5739 164.039 44.5739C171.288 44.5739 176.624 50.8509 176.624 58.3429C176.624 65.8349 171.288 72.3144 164.039 72.3144Z" fill="#2B2E32">
 </path>
 <path d="M201.584 10.7588V81.6288C201.584 82.5399 202.188 83.1474 203.094 83.1474H213.363C214.269 83.1474 214.873 82.5399 214.873 81.6288V10.7588C214.873 9.84757 214.269 9.24011 213.363 9.24011H203.094C202.188 9.24011 201.584 9.84757 201.584 10.7588Z" fill="#2B2E32">
 </path>
 <path d="M227.5 10.7588V81.6288C227.5 82.5399 228.104 83.1474 229.01 83.1474H239.278C240.184 83.1474 240.788 82.5399 240.788 81.6288V10.7588C240.788 9.84757 240.184 9.24011 239.278 9.24011H229.01C228.104 9.24011 227.5 9.84757 227.5 10.7588Z" fill="#2B2E32">
 </path>
 <path d="M276.493 84.4636C290.688 84.4636 302.064 73.0231 302.064 58.4441C302.064 43.8652 290.688 32.4247 276.493 32.4247C262.298 32.4247 250.922 43.8652 250.922 58.4441C250.922 73.0231 262.298 84.4636 276.493 84.4636ZM276.493 72.1119C269.345 72.1119 263.707 66.4423 263.707 58.4441C263.707 50.446 269.345 44.7764 276.493 44.7764C283.54 44.7764 289.278 50.446 289.278 58.4441C289.278 66.4423 283.54 72.1119 276.493 72.1119Z" fill="#2B2E32">
 </path>
 <path d="M355.654 33.5384H345.084C344.278 33.5384 343.573 33.9434 343.271 34.7533L331.291 67.556L319.21 34.7533C318.908 33.9434 318.204 33.5384 317.398 33.5384H307.029C305.922 33.5384 305.418 34.1459 305.821 35.2595L324.848 83.2486L317.7 100.662C317.197 101.776 317.801 102.384 318.908 102.384H328.976C329.781 102.384 330.486 101.979 330.788 101.169L356.862 35.2595C357.265 34.1459 356.762 33.5384 355.654 33.5384Z" fill="#2B2E32">
 </path>
 <path d="M47.6797 1.56381L94.4422 27.9731V80.7916L47.6797 107.201L0.917175 80.7916V27.9731L47.6797 1.56381Z" fill="#38393A">
 </path>
 <path d="M47.7185 1.56381L78.1141 54.3823H17.3228L47.7185 1.56381Z" fill="#B5B5B5">
 </path>
 <path d="M47.7136 1.56381L94.5108 27.9731L78.1138 54.3823L47.7136 1.56381Z" fill="#8F8F8F">
 </path>
 <path d="M47.7009 1.56381L17.3188 54.3823L0.921781 27.9731L47.7009 1.56381Z" fill="#CDCDCD">
 </path>
 <path d="M78.0365 54.3926L94.4335 80.8019L47.7136 107.211L78.0365 54.3926Z" fill="#5C5C5C">
 </path>
 <path d="M0.919845 80.8001L17.3169 54.3908L47.717 107.209L0.919845 80.8001Z" fill="#B0B0B0">
 </path>
 <path d="M47.7148 107.207L17.3192 54.3885L78.1104 54.3885L47.7148 107.207Z" fill="#9B9B9B">
 </path>
 <path d="M17.3205 54.397L0.923491 80.8063L0.923515 27.9878L17.3205 54.397Z" fill="#E0E0E0">
 </path>
</svg>