<svg version="1.1" id="Layer_1" xmlns="http://www.w3.org/2000/svg" xmlns:xlink="http://www.w3.org/1999/xlink" x="0px" y="0px" viewBox="0 0 207.2 65" style="enable-background:new 0 0 207.2 65;" xml:space="preserve">
 <style type="text/css">
  .st0{fill:#FFB71B;}
	.st1{fill:#FFFFFF;}
 </style>
 <g>
  <path id="Path_12755" class="st0" d="M21.8,0L0,51.8h14.9L35.9,0H21.8z">
  </path>
  <path id="Path_12756" class="st1" d="M94.7,18.7c2.1,2.5,3.1,6.3,3.1,11.4v21.7h-11V30.6c0-2.4-0.4-4.2-1.3-5.4
		c-1-1.2-2.6-1.8-4.2-1.7c-2.1-0.1-4.1,0.7-5.5,2.2c-1.4,1.6-2.2,3.7-2.1,5.9v20.2h-11v-36h10.7v5.1c1.2-1.9,2.9-3.4,4.9-4.5
		c2.1-1.1,4.4-1.6,6.8-1.5C89.4,14.9,92.6,16.2,94.7,18.7">
  </path>
  <path id="Path_12757" class="st1" d="M109.8,51.3c-2.5-0.7-4.9-1.8-7.1-3.3l2.9-7.6c2,1.3,4.1,2.4,6.4,3.1c2.3,0.7,4.6,1.1,7,1.1
		c1.4,0.1,2.7-0.2,4-0.8c0.9-0.4,1.4-1.3,1.4-2.3c0-0.8-0.3-1.6-1-2.1c-1.1-0.7-2.4-1.1-3.7-1.3l-5.8-1.3c-3.4-0.8-6-2-7.6-3.6
		c-1.7-1.8-2.6-4.2-2.4-6.7c0-2.1,0.6-4.2,1.9-5.9c1.4-1.8,3.3-3.2,5.4-4c2.5-1,5.3-1.5,8-1.5c2.5,0,5.1,0.4,7.5,1.2
		c2.3,0.7,4.5,1.9,6.5,3.3l-2.9,7.3c-3.2-2.4-7.1-3.8-11.2-4c-1.4-0.1-2.8,0.2-4,0.9c-0.9,0.5-1.5,1.5-1.4,2.5
		c0,0.7,0.3,1.4,0.9,1.8c0.9,0.6,2,1,3,1.2l6,1.4c3.6,0.8,6.3,2.1,7.9,3.8c1.7,1.8,2.6,4.3,2.5,6.9c0.1,3.2-1.4,6.3-4.1,8.2
		c-2.7,2-6.5,3-11.3,3C115.8,52.4,112.8,52,109.8,51.3">
  </path>
  <path id="Path_12758" class="st1" d="M182.8,51.3c-2.5-0.7-4.9-1.8-7.1-3.3l2.9-7.6c2,1.3,4.1,2.4,6.4,3.1c2.3,0.7,4.6,1.1,7,1.1
		c1.4,0.1,2.7-0.2,4-0.8c0.9-0.4,1.4-1.3,1.4-2.3c0-0.8-0.3-1.6-1-2.1c-1.1-0.7-2.4-1.1-3.7-1.3l-5.8-1.3c-3.4-0.8-6-2-7.6-3.6
		c-1.7-1.8-2.6-4.2-2.4-6.7c0-2.1,0.6-4.2,1.9-5.9c1.4-1.8,3.3-3.2,5.4-4c2.5-1,5.3-1.5,8-1.5c2.5,0,5.1,0.4,7.5,1.2
		c2.3,0.7,4.5,1.9,6.5,3.3l-2.9,7.3c-3.2-2.4-7.1-3.8-11.2-4c-1.4-0.1-2.8,0.2-4,0.9c-0.9,0.5-1.5,1.5-1.5,2.5
		c0,0.7,0.3,1.4,0.9,1.8c0.9,0.6,2,1,3,1.2l6,1.4c3.6,0.8,6.3,2.1,7.9,3.8c1.7,1.9,2.6,4.3,2.5,6.9c0.1,3.2-1.4,6.3-4.1,8.2
		c-2.7,2-6.5,3-11.3,3C188.8,52.4,185.7,52,182.8,51.3">
  </path>
  <path id="Path_12759" class="st1" d="M38.4,1.6L31.3,19l13.3,32.7h14.9L38.4,1.6z">
  </path>
  <path id="Union_1" class="st1" d="M144,65l11.7-27.8l-5.4,12.7L136,15.8h10.8l8.9,21.2l8.9-21.2h10.8L154.8,65H144z">
  </path>
 </g>
</svg>