<svg version="1.1" id="Layer_1" xmlns:x="ns_extend;" xmlns:i="ns_ai;" xmlns:graph="ns_graphs;" xmlns="http://www.w3.org/2000/svg" xmlns:xlink="http://www.w3.org/1999/xlink" x="0px" y="0px" viewBox="0 0 241.4 57" style="enable-background:new 0 0 241.4 57;" xml:space="preserve">
 <style type="text/css">
  .st0{fill:#FFC127;}
 </style>
 <metadata>
  <sfw xmlns="ns_sfw;">
   <slices>
   </slices>
   <sliceSourceBounds bottomLeftOrigin="true" height="57" width="241.4" x="211.8" y="50">
   </sliceSourceBounds>
  </sfw>
 </metadata>
 <g>
  <path d="M200.6,13.3c2.4,0,4.3-1.9,4.3-4.1S203,5,200.6,5c-2.4,0-4.3,1.9-4.3,4.1S198.2,13.3,200.6,13.3z">
  </path>
  <path d="M107.3,46.7c-9.5,0-16.4-6.4-16.4-15.2c0-8.8,6.9-15.1,16.4-15.1c4.6,0,8.8,1.5,11.8,4.2c3,2.7,4.6,6.6,4.6,10.9
		c0,4.3-1.7,8.1-4.6,10.9C116.1,45.3,111.9,46.7,107.3,46.7z M107.3,23.1c-4.9,0-8.4,3.5-8.4,8.5s3.4,8.5,8.4,8.5
		c5,0,8.4-3.4,8.4-8.5C115.7,26.5,112.3,23.1,107.3,23.1L107.3,23.1z">
  </path>
  <path d="M135.2,5.6h-7.9v40.7h7.9V5.6z">
  </path>
  <path d="M147.2,5.6h-7.9v40.7h7.9V5.6z">
  </path>
  <path d="M167.1,46.7c-9.5,0-16.4-6.4-16.4-15.2c0-8.8,6.9-15.1,16.4-15.1c4.6,0,8.8,1.5,11.8,4.2c3,2.7,4.6,6.6,4.6,10.9
		c0,4.3-1.7,8.1-4.6,10.9C175.9,45.3,171.7,46.7,167.1,46.7z M167.1,23.1c-4.9,0-8.4,3.5-8.4,8.5s3.4,8.5,8.4,8.5
		c5,0,8.4-3.4,8.4-8.5C175.5,26.5,172.2,23.1,167.1,23.1L167.1,23.1z">
  </path>
  <path d="M204.6,16.5h-7.9v29.9h7.9V16.5z">
  </path>
  <path d="M225,46.7c-9.5,0-16.4-6.4-16.4-15.2c0-8.8,6.9-15.1,16.4-15.1c4.6,0,8.8,1.5,11.8,4.2c3,2.7,4.6,6.6,4.6,10.9
		c0,4.3-1.7,8.1-4.6,10.9C233.8,45.3,229.6,46.7,225,46.7z M225,23.1c-4.9,0-8.4,3.5-8.4,8.5s3.4,8.5,8.4,8.5c5,0,8.4-3.4,8.4-8.5
		C233.4,26.5,230,23.1,225,23.1L225,23.1z">
  </path>
  <path d="M55.4,57V16.3h7.9v2.2c2.6-1.3,5.5-2,8.4-1.9c4.6,0,8.8,1.5,11.8,4.2c3,2.7,4.6,6.6,4.6,10.9c0,4.3-1.7,8.1-4.6,10.9
		c-3,2.8-7.2,4.3-11.8,4.3c-2.9,0-5.8-0.6-8.4-2V57H55.4z M71.7,23.1c-4.9,0-8.4,3.5-8.4,8.5c0,5,3.4,8.5,8.4,8.5
		c5,0,8.4-3.4,8.4-8.5C80.2,26.5,76.8,23.1,71.7,23.1z">
  </path>
  <path d="M189,46.4c-0.7,0-1.3-0.2-1.9-0.6c-0.6-0.4-1-0.9-1.3-1.5s-0.3-1.3-0.2-1.9c0.1-0.6,0.5-1.2,0.9-1.7
		c0.5-0.5,1.1-0.8,1.8-0.9c0.7-0.1,1.4-0.1,2,0.2c0.6,0.2,1.2,0.7,1.5,1.2c0.4,0.5,0.6,1.2,0.6,1.8c0,0.9-0.4,1.7-1,2.3
		C190.8,46,189.9,46.4,189,46.4z">
  </path>
  <path class="st0" d="M44.8,9h-7.5l3.9,6.5L44.8,9z">
  </path>
  <path d="M49,34.9L44,26.4L28,0L0,46.4h15c2,0,4-0.5,5.7-1.5c1.7-1,3.2-2.3,4.2-4l7.7-12.8l-4.3-7.1L19,36.5
		c-0.5,0.9-1.3,1.6-2.2,2.1c-0.9,0.5-1.9,0.8-2.9,0.8h-1.1L28,14.1l19.4,32.2h5.5v-5.1L49,34.9L49,34.9z">
  </path>
 </g>
</svg>