<svg version="1.1" id="Layer_1" xmlns:x="ns_extend;" xmlns:i="ns_ai;" xmlns:graph="ns_graphs;" xmlns="http://www.w3.org/2000/svg" xmlns:xlink="http://www.w3.org/1999/xlink" x="0px" y="0px" viewBox="0 0 264 48" style="enable-background:new 0 0 264 48;" xml:space="preserve">
 <style type="text/css">
  .st0{fill:#EDEDF0;}
	.st1{fill-rule:evenodd;clip-rule:evenodd;fill:#EDEDF0;}
	.st2{fill:#FD366E;}
 </style>
 <metadata>
  <sfw xmlns="ns_sfw;">
   <slices>
   </slices>
   <sliceSourceBounds bottomLeftOrigin="true" height="48" width="264" x="-132" y="0">
   </sliceSourceBounds>
  </sfw>
 </metadata>
 <g>
  <path class="st0" d="M77.1,39c4.3,0,6.5-2.2,7.4-3.7H85c0.2,1.6,1.3,3.1,3.6,3.1h4.2v-4.7h-1.1c-0.8,0-1.1-0.4-1.1-1.1v-19h-5.6v3
		h-0.4c-1.1-1.5-3.4-3.6-7.5-3.6c-6.6,0-11.6,5.5-11.6,13S70.4,39,77.1,39z M78.1,33.6c-3.9,0-7-2.9-7-7.6c0-4.6,3-7.7,7-7.7
		c3.8,0,7,2.8,7,7.7C85,30.2,82.3,33.6,78.1,33.6L78.1,33.6z M96.1,48h5.6V35.2h0.4c1,1.5,3.3,3.7,7.7,3.7c6.6,0,11.5-5.6,11.5-13
		c0-7.5-5.2-13-11.9-13c-4.3,0-6.4,2.3-7.4,3.6h-0.4v-3h-5.6L96.1,48L96.1,48z M108.6,33.7c-3.8,0-7-2.8-7-7.8
		c0-4.2,2.7-7.8,6.9-7.8c3.9,0,7,3.1,7,7.8C115.5,30.6,112.5,33.7,108.6,33.7z M124.2,48h5.6V35.2h0.4c1,1.5,3.3,3.7,7.7,3.7
		c6.6,0,11-5.6,11-13c0-7.5-4.7-13-11.4-13c-4.3,0-6.4,2.3-7.4,3.6h-0.4v-3h-5.6C124.2,13.6,124.2,48,124.2,48z M136.7,33.7
		c-3.8,0-7-2.8-7-7.8c0-4.2,2.7-7.8,6.9-7.8c3.9,0,7,3.1,7,7.8C143.6,30.6,140.6,33.7,136.7,33.7z M156.3,39h7.9l4.5-19.5h0.3
		l4.5,19.5h7.9l6.3-24.8h-5.6l-4.5,19.5h-0.4l-4.5-19.5h-7.4l-4.6,19.5h-0.4l-4.5-19.5h-6L156.3,39L156.3,39z M190.5,39h5.6V26.7
		c0-4.7,2.2-7.6,6.3-7.6h2.5v-5.6H203c-3.2,0-5.6,2.2-6.5,4.3h-0.4v-3.6h-5.6C190.5,14.1,190.5,39,190.5,39z M232.7,39h4.4v-5h-4.3
		c-1.7,0-2.4-0.8-2.4-2.5V19.1h7v-4.9h-7v-7H225v7h-4.6v4.9h4.3v12.5C224.6,36.8,227.8,39,232.7,39z M252,39c5.2,0,9.7-2.6,11.3-7.7
		l-5.1-1.2c-0.9,2.7-3.5,4.2-6.3,4.2c-4.1,0-6.8-2.7-6.8-6.8H264v-1.6c0-7.4-4.6-12.9-12.2-12.9c-6.7,0-12.4,5.3-12.4,13.1
		C239.4,33.6,244.5,39,252,39z M245.2,23.3c0.3-3,3-5.5,6.6-5.5c3.4,0,6.2,2.1,6.5,5.5C258.3,23.3,245.2,23.3,245.2,23.3z">
  </path>
  <path class="st1" d="M217.8,39h-5.6V19.1h-4.4v-4.9h10V39z">
  </path>
  <path class="st0" d="M214.6,10.7c2,0,3.6-1.5,3.6-3.5c0-1.9-1.5-3.5-3.6-3.5c-2,0-3.6,1.5-3.6,3.5C211.1,9.2,212.6,10.7,214.6,10.7
		z">
  </path>
  <path class="st2" d="M48.9,32.9v11H21.5c-8,0-14.9-4.4-18.7-11C1.2,30,0.2,26.7,0,23.4v-3c0.1-1.5,0.4-3,0.8-4.5
		C3.3,6.7,11.6,0,21.5,0c9.9,0,18.2,6.7,20.7,15.9H30.5c-1.9-3-5.2-5-9-5s-7.1,2-9,5c-0.6,0.9-1,1.9-1.3,3c-0.3,1-0.4,2-0.4,3
		c0,3,1.2,5.9,3.4,8c2,1.9,4.6,3,7.4,3H48.9L48.9,32.9z">
  </path>
  <path class="st2" d="M48.9,18.9v11h-20c2.2-2.1,3.4-5,3.4-8c0-1-0.1-2-0.4-3L48.9,18.9L48.9,18.9z">
  </path>
 </g>
</svg>