<svg version="1.1" id="Layer_1" xmlns:x="ns_extend;" xmlns:i="ns_ai;" xmlns:graph="ns_graphs;" xmlns="http://www.w3.org/2000/svg" xmlns:xlink="http://www.w3.org/1999/xlink" x="0px" y="0px" viewBox="0 0 300 64" style="enable-background:new 0 0 300 64;" xml:space="preserve">
 <style type="text/css">
  .st0{fill:#FFFFFF;}
 </style>
 <metadata>
  <sfw xmlns="ns_sfw;">
   <slices>
   </slices>
   <sliceSourceBounds bottomLeftOrigin="true" height="64" width="299.4" x="0" y="0">
   </sliceSourceBounds>
  </sfw>
 </metadata>
 <g>
  <path class="st0" d="M69.4,45.2l10-26.1h3.8l9.9,26.1h-3.5l-2.8-7H75.6l-2.8,7H69.4z M86,35.2l-4.7-12.6l-4.7,12.6H86z">
  </path>
  <path class="st0" d="M107.5,26.2h3.1v19H108l-0.4-2.5c-1.1,1.4-2.9,2.8-6.1,2.8c-4.2,0-7.5-2.3-7.5-8.6V26.2H97v10.4c0,4,1.8,6,5,6
		c3.5,0,5.6-2.6,5.6-6.9V26.2z">
  </path>
  <path class="st0" d="M112.1,28.9v-2.8h3.4v-5.3h3.1v5.3h4.9v2.8h-4.9v11.2c0,1.6,0.6,2.2,2.2,2.2h3v2.8h-3.3c-3.6,0-5-1.6-5-5V28.9
		H112.1z">
  </path>
  <path class="st0" d="M142.5,34.6v10.6h-3.1V34.8c0-4-1.9-6-5.2-6c-3.5,0-5.7,2.6-5.7,6.9v9.5h-3.1V19.1h3.1v10.2
		c1.1-1.8,3.1-3.4,6.3-3.4C139,25.9,142.5,28.3,142.5,34.6L142.5,34.6z">
  </path>
  <path class="st0" d="M144.6,31.5c0-7.4,4-12.7,9.9-12.7c5.9,0,9.9,5.3,9.9,12.7v1.2c0,7.8-4,12.7-9.9,12.7c-5.9,0-9.9-4.9-9.9-12.7
		V31.5z M161.2,31.6c0-6.2-2.7-9.9-6.7-9.9c-4,0-6.7,3.7-6.7,9.9v1c0,6.2,2.7,9.9,6.7,9.9c4.1,0,6.7-3.7,6.7-9.9V31.6z">
  </path>
  <path class="st0" d="M195.4,35.7c0,5.8-3.9,9.7-9.1,9.7c-3.2,0-5.4-1.3-6.5-3.1l-0.4,2.9h-2.6V19.1h3.1v10.1
		c1.3-1.8,3.3-3.3,6.5-3.3C191.6,25.9,195.4,29.5,195.4,35.7L195.4,35.7z M192.3,35.7c0-4.1-2.5-7-6.3-7c-3.8,0-6.3,2.9-6.3,6.9
		s2.5,7.1,6.3,7.1S192.3,39.8,192.3,35.7L192.3,35.7z">
  </path>
  <path class="st0" d="M195.3,26.2h3.2l5.9,15.2l5.7-15.2h3.2l-8.8,22.2c-1.2,3.1-1.9,4.2-4.6,4.2h-3.7v-2.8h2.7
		c1.8,0,2.1-0.4,2.8-2.2l0.9-2.3L195.3,26.2L195.3,26.2z">
  </path>
  <path class="st0" d="M236.2,45.4c-7.3,0-12.4-5.6-12.4-13.3c0-7.7,5.1-13.3,12.4-13.3c7.3,0,12.4,5.6,12.4,13.3
		C248.6,39.8,243.5,45.4,236.2,45.4z M236.2,42.4c5.4,0,9.1-4.3,9.1-10.3c0-6-3.7-10.3-9.1-10.3c-5.4,0-9.1,4.3-9.1,10.3
		C227,38.1,230.7,42.4,236.2,42.4z">
  </path>
  <path class="st0" d="M251,19.1h3.1v17.2l9.5-10.1h3.8l-7.4,7.9l7.9,11.1h-3.7l-6.3-8.9l-3.8,4v5H251L251,19.1L251,19.1z">
  </path>
  <path class="st0" d="M268.1,28.9v-2.8h3.4v-5.3h3.1v5.3h4.9v2.8h-4.9v11.2c0,1.6,0.6,2.2,2.2,2.2h3v2.8h-3.3c-3.7,0-5-1.6-5-5V28.9
		H268.1z">
  </path>
  <path class="st0" d="M299.4,42.4v2.8h-1.7c-2.5,0-3.4-1.1-3.4-2.9c-1.2,1.7-3.1,3.2-6.4,3.2c-4.2,0-7-2.1-7-5.6
		c0-3.8,2.6-5.9,7.6-5.9h5.6v-1.3c0-2.5-1.8-4-4.7-4c-2.7,0-4.5,1.3-4.8,3.2h-3.1c0.5-3.7,3.5-5.9,8.1-5.9c4.8,0,7.6,2.4,7.6,6.9
		v8.3c0,1,0.4,1.3,1.2,1.3H299.4z M288.3,36.5c-2.7,0-4.2,1-4.2,3.2c0,1.9,1.6,3.1,4.1,3.1c3.8,0,6-2.2,6-5.4v-0.9H288.3z">
  </path>
  <path class="st0" d="M3.4,27.8c10.5-1.7,18.7-10.4,20.4-20.9l0.6-5C24.5,1,24-0.1,22.9,0C15,0.6,7.6,3.2,3.4,4.9
		C1.3,5.8,0,7.8,0,10v16.5c0,1,0.9,1.7,1.8,1.6L3.4,27.8L3.4,27.8z">
  </path>
  <path class="st0" d="M28.8,6.9c1.7,10.5,9.9,19.2,20.4,20.9l1.5,0.3c1,0.2,1.8-0.6,1.8-1.6V10c0-2.2-1.3-4.2-3.4-5.1
		C45,3.2,37.6,0.6,29.7,0c-1-0.1-1.5,1-1.4,1.8L28.8,6.9L28.8,6.9z">
  </path>
  <path class="st0" d="M49.2,32.4c-14.3,2.8-21,12.4-21,30.4c0,0.9,0.9,1.5,1.7,1c6.6-4.4,21.1-16.1,22.6-30.6
		C52.5,31.4,50.3,32.3,49.2,32.4z">
  </path>
  <path class="st0" d="M3.4,32.4c14.3,2.8,21,12.4,21,30.4c0,0.9-0.9,1.5-1.7,1C16.1,59.4,1.6,47.8,0.1,33.2
		C0.1,31.4,2.3,32.3,3.4,32.4z">
  </path>
 </g>
</svg>