<svg width="557" height="140" viewBox="0 0 557 140" fill="none" xmlns="http://www.w3.org/2000/svg">
<g clip-path="url(#clip0_1867_4605)">
<path d="M146.902 83.3171L146.894 119.76C146.894 121.045 146.207 122.231 145.093 122.871L116.222 139.513C113.814 140.901 110.805 139.155 110.827 136.376L111.032 103.997C111.04 102.699 110.349 101.5 109.222 100.855L76.7998 82.3098C75.673 81.6653 74.9815 80.4659 74.9901 79.1683L75.2206 42.6104C75.2291 41.3171 74.5419 40.122 73.4194 39.4732L44.6724 22.9208C42.2694 21.5378 42.2694 18.0762 44.6724 16.6933L72.8389 0.482341C73.9358 -0.149367 75.2889 -0.157903 76.3944 0.460999L109.252 18.8445C110.387 19.4805 111.091 20.6799 111.091 21.9817L111.083 58.3945C111.083 59.675 111.766 60.8573 112.871 61.5018L145.11 80.2098C146.219 80.8543 146.902 82.0366 146.898 83.3171H146.902Z" fill="#7747FF"/>
<path d="M1.79268 84.286L30.4415 100.856C31.5598 101.5 32.2427 102.699 32.2341 103.993L32.0293 136.381C32.0122 139.155 35.0085 140.905 37.4073 139.518L66.1671 122.876C67.2768 122.235 67.9598 121.049 67.9598 119.764L67.9683 83.3555C67.9683 82.0537 67.2683 80.8543 66.1372 80.2183L33.3994 61.8177C32.2982 61.1988 30.9494 61.2074 29.8567 61.8391L1.79268 78.0586C-0.597561 79.4415 -0.597561 82.9031 1.79268 84.286Z" fill="#7747FF"/>
<path d="M185.129 27.2957H197.409V63.239C200.845 60.9512 206.462 58.5652 213.125 58.5652C228.943 58.5652 237.164 71.861 237.164 85.8866C237.164 104.274 223.112 114.04 207.606 114.04C200.84 114.04 191.997 112.171 185.129 107.497V27.2957ZM197.409 101.363C199.594 102.819 203.444 103.856 207.401 103.856C218.016 103.856 224.154 96.5829 224.154 86.1939C224.154 77.0512 219.369 68.8475 210.419 68.8475C205.318 68.8475 199.803 71.5494 197.409 73.9396V101.363Z" fill="#26045D"/>
<path d="M296.168 107.079C293.36 109.571 285.139 114.04 274.003 114.04C256.623 114.04 244.966 103.237 244.966 86.6165C244.966 69.9957 255.995 58.5695 272.441 58.5695C288.887 58.5695 298.042 71.2421 298.042 85.7884V90.8805H257.664C258.394 97.6329 264.532 103.865 276.086 103.865C284.204 103.865 289.51 100.54 292.323 98.3585L296.173 107.083L296.168 107.079ZM285.241 81.0037C284.93 74.1488 280.35 68.2244 272.232 68.2244C265.052 68.2244 258.701 72.7957 257.766 81.0037H285.241Z" fill="#26045D"/>
<path d="M356.842 107.079C354.034 109.571 345.813 114.04 334.677 114.04C317.296 114.04 305.64 103.237 305.64 86.6165C305.64 69.9957 316.673 58.5695 333.115 58.5695C349.556 58.5695 358.716 71.2421 358.716 85.7884V90.8805H318.338C319.068 97.6329 325.205 103.865 336.76 103.865C344.878 103.865 350.184 100.54 352.996 98.3585L356.846 107.083L356.842 107.079ZM345.915 81.0037C345.604 74.1488 341.024 68.2244 332.906 68.2244C325.726 68.2244 319.375 72.7957 318.44 81.0037H345.915Z" fill="#26045D"/>
<path d="M373.288 112.478V70.0939H364.444V60.1189H373.288V49.8366C373.288 43.7073 374.744 37.7872 378.077 33.839C381.927 29.3744 388.172 27.6073 393.896 27.6073C401.493 27.6073 407.008 30.7232 407.84 31.3463L403.055 40.8006C401.911 39.9683 398.685 37.9963 394.523 37.9963C388.385 37.9963 385.47 42.3585 385.47 49.6317V60.1232H398.685V70.0981H385.47V112.482H373.292L373.288 112.478Z" fill="#26045D"/>
<path d="M407.422 112.478V60.0165H419.702V68.1177C420.846 65.625 425.007 58.561 431.149 58.561C435.729 58.561 438.538 60.0165 440.514 61.1561L436.041 72.5823C434.585 71.5451 432.293 70.0896 429.066 70.0896C423.133 70.0896 419.702 76.7396 419.702 83.2829V112.474H407.422V112.478Z" fill="#26045D"/>
<path d="M494.32 107.079C491.511 109.571 483.286 114.04 472.154 114.04C454.774 114.04 443.117 103.237 443.117 86.6164C443.117 69.9957 454.146 58.5695 470.592 58.5695C487.038 58.5695 496.193 71.242 496.193 85.7884V90.8805H455.815C456.545 97.6329 462.683 103.865 474.237 103.865C482.356 103.865 487.661 100.54 490.474 98.3585L494.324 107.083L494.32 107.079ZM483.393 81.0036C483.081 74.1488 478.501 68.2244 470.383 68.2244C463.204 68.2244 456.853 72.7957 455.918 81.0036H483.393Z" fill="#26045D"/>
<path d="M554.993 107.079C552.185 109.571 543.964 114.04 532.828 114.04C515.448 114.04 503.791 103.237 503.791 86.6164C503.791 69.9957 514.82 58.5695 531.266 58.5695C547.712 58.5695 556.867 71.242 556.867 85.7884V90.8805H516.489C517.219 97.6329 523.357 103.865 534.911 103.865C543.029 103.865 548.335 100.54 551.148 98.3585L554.998 107.083L554.993 107.079ZM544.067 81.0036C543.755 74.1488 539.175 68.2244 531.057 68.2244C523.878 68.2244 517.526 72.7957 516.592 81.0036H544.067Z" fill="#26045D"/>
</g>
<defs>
<clipPath id="clip0_1867_4605">
<rect width="556.867" height="140" fill="white"/>
</clipPath>
</defs>
</svg>
