<svg width="147" height="40" viewBox="0 0 147 40" fill="none" xmlns="http://www.w3.org/2000/svg">
<path d="M45.5036 7.69429C45.5028 7.64046 45.4955 7.58663 45.4871 7.53224C45.4823 7.50084 45.4803 7.46888 45.473 7.43804C45.4716 7.43131 45.4716 7.42458 45.4702 7.41786C45.4562 7.3629 45.4344 7.31272 45.4133 7.26169C45.4049 7.24123 45.4001 7.21936 45.3906 7.19917C45.3539 7.12151 45.3093 7.04946 45.2582 6.98329C45.2493 6.97152 45.2375 6.96198 45.228 6.95049C45.1834 6.89722 45.1357 6.84704 45.083 6.80274C45.0771 6.79769 45.0729 6.79096 45.0667 6.7862L37.7344 0.824552C37.7223 0.81502 37.7077 0.810534 37.6957 0.801282C37.6303 0.752218 37.5608 0.710164 37.4868 0.675399C37.4649 0.665025 37.4441 0.653531 37.4217 0.644559C37.3317 0.608672 37.238 0.582599 37.1407 0.569422C37.1236 0.567179 37.1068 0.5683 37.0897 0.566618C37.0089 0.559328 36.9273 0.56073 36.8446 0.570543C36.816 0.573907 36.788 0.577832 36.7596 0.583159C36.7366 0.587645 36.7136 0.587645 36.6904 0.593533L0.986798 9.63048C0.920339 9.6473 0.858367 9.67226 0.797517 9.69917C0.789665 9.70254 0.780972 9.70282 0.773401 9.70646C0.771718 9.7073 0.770316 9.7087 0.768634 9.70955C0.676657 9.75328 0.594494 9.80992 0.518221 9.87328C0.498872 9.88954 0.481206 9.90692 0.462979 9.9243C0.403811 9.98038 0.350812 10.0418 0.304543 10.1082C0.293326 10.1242 0.280427 10.1385 0.270052 10.1553C0.218735 10.2375 0.178636 10.3258 0.14835 10.4183C0.14134 10.4396 0.137414 10.4618 0.131806 10.4836C0.111055 10.5624 0.0987166 10.6429 0.0945103 10.7259C0.0936691 10.7416 0.0874999 10.7559 0.0874999 10.7718L9.69562e-06 18.4008C-0.000270722 18.4224 0.00561804 18.4429 0.00645929 18.4642C0.00842222 18.5116 0.0131893 18.5584 0.0207606 18.6052C0.0269298 18.6428 0.0336598 18.6798 0.0434744 18.7165C0.0549715 18.7597 0.070114 18.8014 0.0863782 18.8435C0.100399 18.8794 0.113298 18.9153 0.130404 18.9498C0.150594 18.9899 0.176392 19.0271 0.201349 19.0653C0.222661 19.0975 0.241169 19.1312 0.265565 19.1612C0.293887 19.1962 0.328659 19.2268 0.361187 19.259C0.387827 19.2851 0.41026 19.3151 0.439704 19.3389L0.521306 19.4053C1.82833 20.4845 4.94573 23.5926 4.856 26.0721C4.86076 28.5612 4.75 32.6088 4.7486 32.6497C4.7385 33.0114 4.89357 33.3579 5.16978 33.5917L11.7408 39.1561C11.7478 39.162 11.7557 39.1659 11.7627 39.1718C11.7952 39.1982 11.8297 39.2211 11.865 39.2436C11.8875 39.2582 11.9091 39.2739 11.932 39.2868C11.9693 39.3075 12.0086 39.324 12.0479 39.3406C12.0703 39.3501 12.0919 39.3616 12.1146 39.3697C12.164 39.3871 12.2147 39.3992 12.2663 39.4101C12.2803 39.4129 12.2938 39.4182 12.3078 39.4205C12.374 39.432 12.4416 39.4384 12.51 39.4384C12.5117 39.4384 12.5134 39.4379 12.515 39.4379C12.6067 39.4376 12.6981 39.4244 12.7884 39.4028C12.7957 39.4011 12.803 39.402 12.8103 39.4L20.0412 37.5247C20.5616 37.3898 20.9273 36.9227 20.9334 36.385L21.0579 25.5459C21.0779 25.245 21.3151 22.6015 23.4774 21.0261C25.1907 21.3289 25.1691 22.8751 25.119 23.3459C25.1133 23.3902 25.1105 23.4345 25.11 23.479L25.0632 27.5681C25.0592 27.9262 25.2163 28.2671 25.4911 28.4967L32.0315 33.9548C32.0467 33.9674 32.0638 33.9764 32.0795 33.9882C32.1056 34.0078 32.1316 34.026 32.1594 34.0437C32.1942 34.0655 32.2301 34.0852 32.2665 34.1034C32.2957 34.118 32.3246 34.132 32.3548 34.1443C32.3952 34.1603 32.4364 34.1726 32.4782 34.1841C32.5074 34.1923 32.5357 34.2015 32.5654 34.2074C32.6212 34.2183 32.6779 34.2237 32.7351 34.2265C32.7508 34.227 32.7657 34.2315 32.7816 34.2315C32.7864 34.2315 32.7909 34.2315 32.7957 34.2315C32.8879 34.2315 32.9765 34.2186 33.0626 34.1987C33.0696 34.1973 33.0766 34.1979 33.0836 34.1962L40.2534 32.4089C40.7791 32.2777 41.1504 31.8083 41.1566 31.2664L41.2758 20.9002C41.2763 20.8857 41.2766 20.8708 41.2769 20.8557C41.2788 20.5576 41.3966 17.9584 44.4812 16.503C44.5695 16.4837 44.6567 16.4548 44.7409 16.4147C45.1506 16.2187 45.4133 15.8074 45.4186 15.3533L45.5061 7.72401C45.5067 7.7142 45.5036 7.70467 45.5036 7.69429ZM8.89905 15.4455L3.87201 11.3581L35.7731 3.2839L35.7114 8.6593L8.89905 15.4455ZM2.39001 17.853L2.44244 13.2671L7.41312 17.3091L7.3604 21.8947L2.39001 17.853ZM38.146 4.23041L41.7219 7.13777L38.1023 8.054L38.146 4.23041ZM43.1055 9.24582L43.0637 12.9046L39.561 10.1427L43.1055 9.24582ZM7.11588 24.767L7.77206 25.3005C7.77767 25.3053 7.78411 25.3081 7.79 25.3129C7.81384 25.3317 7.8402 25.3471 7.86572 25.3642C7.90245 25.3886 7.93919 25.4124 7.97816 25.4326C8.00424 25.4461 8.03116 25.4573 8.05864 25.4688C8.10211 25.4873 8.14613 25.5035 8.19128 25.5167C8.20642 25.5209 8.2196 25.5285 8.23475 25.5324C9.32669 25.8055 11.3115 27.1602 11.4105 28.8942L11.3446 35.6975L7.14673 32.1428C7.17729 30.9255 7.24347 28.0369 7.23926 26.1136C7.25553 25.6622 7.20842 25.2122 7.11588 24.767ZM26.5712 20.1988C26.4989 20.1063 26.4207 20.0193 26.3407 19.9344C26.3452 19.9338 26.3486 19.9327 26.3531 19.9322C27.7658 19.7457 28.8707 20.0053 29.7332 20.7256C31.4443 22.1543 31.6743 24.9582 31.6933 25.2453L31.6328 30.5181L27.4531 27.0295L27.493 23.5609C27.5308 23.1516 27.6049 21.5221 26.5712 20.1988ZM38.8945 20.7912C38.8939 20.8066 38.8933 20.822 38.8931 20.8374L38.7843 30.319L34.0048 31.5106L34.0769 25.2321C34.0772 25.2108 34.0766 25.1895 34.0758 25.1682C34.0688 25.0028 33.875 21.0917 31.2738 18.9071C29.8886 17.7439 28.127 17.2939 26.041 17.5695C20.5123 18.2996 18.8068 23.0363 18.6772 25.439C18.6766 25.4562 18.6758 25.4727 18.6755 25.4895L18.5611 35.4466L13.7183 36.7026L13.794 28.8811C13.7943 28.8595 13.7937 28.8379 13.7929 28.816C13.6785 26.2602 11.547 24.3529 9.72544 23.5441L9.79274 17.6769L36.6475 10.8798L42.0705 15.1556C39.1303 17.2401 38.9082 20.2288 38.8945 20.7912Z" fill="#26BA9E"/>
<path d="M56.3189 29.7627V9.66703H63.6395C64.7017 9.66703 65.6586 9.88713 66.5103 10.3273C67.3715 10.7579 68.051 11.3799 68.5486 12.1933C69.0557 12.9972 69.3093 13.9493 69.3093 15.0498C69.3093 15.5378 69.2376 16.0307 69.094 16.5283C68.9505 17.0259 68.7304 17.4756 68.4337 17.8775C68.1371 18.2699 67.7543 18.5618 67.2854 18.7531C67.9074 18.9063 68.4146 19.1838 68.8069 19.5857C69.1993 19.9876 69.5055 20.4613 69.7256 21.0067C69.9457 21.5426 70.094 22.0929 70.1706 22.6574C70.2567 23.2125 70.2998 23.7292 70.2998 24.2077C70.2998 25.2699 70.0366 26.2172 69.5103 27.0498C68.984 27.8823 68.2758 28.5426 67.3859 29.0306C66.5055 29.5187 65.5294 29.7627 64.4577 29.7627H56.3189ZM59.8213 26.7627H64.0988C64.673 26.7627 65.1897 26.6239 65.649 26.3464C66.1084 26.0689 66.4768 25.6861 66.7543 25.1981C67.0318 24.7101 67.1706 24.155 67.1706 23.533C67.1706 22.9972 67.0318 22.49 66.7543 22.0115C66.4768 21.533 66.1084 21.1455 65.649 20.8488C65.1897 20.5522 64.673 20.4039 64.0988 20.4039H59.8213V26.7627ZM59.8213 17.4469H63.2376C63.9457 17.4469 64.5486 17.2268 65.0462 16.7866C65.5534 16.3464 65.8069 15.7627 65.8069 15.0354C65.8069 14.2603 65.5534 13.6766 65.0462 13.2843C64.5486 12.8823 63.9457 12.6814 63.2376 12.6814H59.8213V17.4469ZM72.6074 29.7627V8.23163H76.1098V29.7627H72.6074ZM85.6516 30.1359C84.3311 30.1359 83.1253 29.7962 82.0344 29.1168C80.9531 28.4373 80.087 27.5282 79.4363 26.3895C78.7952 25.2412 78.4746 23.9732 78.4746 22.5857C78.4746 21.533 78.6612 20.5522 79.0344 19.6431C79.4076 18.7244 79.9196 17.9206 80.5703 17.2316C81.2306 16.5331 81.9961 15.9876 82.8669 15.5953C83.7378 15.2029 84.666 15.0067 85.6516 15.0067C86.9722 15.0067 88.1732 15.3465 89.2545 16.0259C90.3454 16.7053 91.2114 17.6192 91.8526 18.7675C92.5033 19.9158 92.8287 21.1885 92.8287 22.5857C92.8287 23.6287 92.6421 24.6048 92.2688 25.5139C91.8956 26.423 91.3789 27.2268 90.7186 27.9254C90.0679 28.6144 89.3071 29.155 88.4363 29.5474C87.5751 29.9397 86.6468 30.1359 85.6516 30.1359ZM85.6516 26.6335C86.3502 26.6335 86.977 26.4469 87.532 26.0737C88.087 25.7005 88.5224 25.2077 88.8382 24.5952C89.1636 23.9828 89.3263 23.3129 89.3263 22.5857C89.3263 21.8393 89.1588 21.1598 88.8239 20.5474C88.4985 19.9254 88.0535 19.4326 87.489 19.0689C86.9339 18.6957 86.3215 18.5091 85.6516 18.5091C84.9626 18.5091 84.3406 18.6957 83.7856 19.0689C83.2306 19.4421 82.7904 19.9397 82.465 20.5618C82.1397 21.1838 81.977 21.8584 81.977 22.5857C81.977 23.3417 82.1445 24.0259 82.4794 24.6383C82.8143 25.2507 83.2593 25.7388 83.8143 26.1024C84.3789 26.4565 84.9913 26.6335 85.6516 26.6335ZM104.019 25.4421L107.177 27.1503C106.517 28.0498 105.689 28.7723 104.694 29.3177C103.699 29.8632 102.613 30.1359 101.435 30.1359C100.115 30.1359 98.9092 29.7962 97.8183 29.1168C96.7369 28.4373 95.8709 27.5282 95.2202 26.3895C94.579 25.2412 94.2585 23.9732 94.2585 22.5857C94.2585 21.533 94.4451 20.5522 94.8183 19.6431C95.1915 18.7244 95.7034 17.9206 96.3541 17.2316C97.0144 16.5331 97.78 15.9876 98.6508 15.5953C99.5216 15.2029 100.45 15.0067 101.435 15.0067C102.613 15.0067 103.699 15.2795 104.694 15.8249C105.689 16.3704 106.517 17.1024 107.177 18.0211L104.019 19.7149C103.684 19.3321 103.287 19.0354 102.828 18.8249C102.378 18.6144 101.914 18.5091 101.435 18.5091C100.746 18.5091 100.124 18.7005 99.5694 19.0833C99.0144 19.4565 98.5742 19.9541 98.2489 20.5761C97.9235 21.1885 97.7608 21.8584 97.7608 22.5857C97.7608 23.3034 97.9235 23.9732 98.2489 24.5952C98.5742 25.2077 99.0144 25.7005 99.5694 26.0737C100.124 26.4469 100.746 26.6335 101.435 26.6335C101.933 26.6335 102.407 26.5283 102.857 26.3177C103.306 26.0976 103.694 25.8058 104.019 25.4421ZM122.124 29.7627H118.09L114.817 24.1216L112.808 26.5187V29.7627H109.306V8.23163H112.808V21.0785L117.559 15.4087H122.138L117.215 21.2795L122.124 29.7627ZM124.669 29.7627V9.66703H131.846C132.937 9.66703 133.922 9.93976 134.803 10.4852C135.693 11.0307 136.396 11.7627 136.913 12.6814C137.43 13.6 137.688 14.6096 137.688 15.7101C137.688 16.8393 137.42 17.8632 136.884 18.7819C136.358 19.6909 135.65 20.4182 134.76 20.9637C133.87 21.4996 132.898 21.7675 131.846 21.7675H128.171V29.7627H124.669ZM128.171 18.2651H131.473C131.97 18.2651 132.425 18.1407 132.836 17.8919C133.248 17.6431 133.573 17.3082 133.812 16.8871C134.061 16.4661 134.186 15.9972 134.186 15.4804C134.186 14.9541 134.061 14.4804 133.812 14.0594C133.573 13.6383 133.248 13.3034 132.836 13.0546C132.425 12.8058 131.97 12.6814 131.473 12.6814H128.171V18.2651ZM140.743 29.7627V9.66703H144.246V29.7627H140.743Z" fill="black"/>
</svg>
