<svg width="164" height="32" viewBox="0 0 164 32" fill="none" xmlns="http://www.w3.org/2000/svg">
<path d="M20.3091 8.73736C21.3384 8.67681 22.4129 8.65151 23.3849 9.04636C24.4767 9.4709 25.5173 10.1979 26.0531 11.2547C27.0727 13.078 27.4493 15.1835 27.1237 17.2407C26.8906 18.1789 26.5014 19.1686 25.6762 19.7515C25.0501 20.2077 24.2898 20.4491 23.5115 20.4388C22.4575 20.4697 21.4149 20.3189 20.372 20.2014C18.8878 20.117 17.4131 19.845 15.9212 19.9352C14.2238 20.032 12.5254 20.1167 10.8347 20.2982C9.93372 20.4081 9.02481 20.4412 8.11807 20.3972C7.28355 20.2478 6.53207 19.8055 6.00247 19.1522C4.94853 17.6621 4.79579 15.7452 5.03661 13.991C5.31541 12.3899 5.98571 10.7039 7.40876 9.7713C8.5508 9.0806 9.92134 8.85847 11.2401 8.80466C13.233 8.70684 15.2001 9.31269 17.1922 9.05868C18.2251 8.90017 19.2655 8.79322 20.3093 8.73821L20.3091 8.73736ZM19.8743 11.4052C19.5929 11.4973 19.3482 11.6748 19.1751 11.9122C18.5127 12.8316 18.7167 14.2678 19.6468 14.9388C19.8792 15.1111 20.1678 15.1931 20.4576 15.1692C20.7473 15.1453 21.0181 15.0171 21.2182 14.8091C21.9398 14.0332 21.9253 12.7344 21.2404 11.9387C20.9293 11.5339 20.3917 11.2579 19.8743 11.4053V11.4052ZM11.0552 11.4866C9.73918 11.8071 9.33997 13.5211 9.95674 14.5879C10.2545 15.1531 11.0386 15.4942 11.6218 15.1368C12.7772 14.4845 12.9077 12.7129 12.0099 11.7956C11.7542 11.5792 11.3962 11.4087 11.055 11.4856L11.0552 11.4866Z" fill="#4A3C56"/>
<path d="M15.9999 2.22222C8.40814 2.22222 2.25361 8.39072 2.25361 16C2.25361 23.6092 8.40797 29.7778 15.9999 29.7778C23.5919 29.7778 29.7462 23.6092 29.7462 16C29.7462 8.39072 23.5917 2.22222 15.9999 2.22222ZM15.9999 2.241e-05C18.1458 -0.0035536 20.2696 0.42639 22.2405 1.26334C24.1464 2.07119 25.8739 3.23828 27.3262 4.6991C29.5735 6.96773 31.0956 9.83723 31.7038 12.9514C32.3119 16.0656 31.9792 19.2874 30.747 22.2167C29.9489 24.1126 28.7874 25.8389 27.3262 27.3009C25.8739 28.7617 24.1464 29.9288 22.2405 30.7366C20.2685 31.5702 18.1453 32 15.9998 32C13.8543 32 11.7312 31.5702 9.75918 30.7366C7.8533 29.9288 6.12574 28.7617 4.67348 27.3009C2.42621 25.0321 0.904101 22.1625 0.296089 19.0482C-0.311922 15.9339 0.0209448 12.7121 1.25337 9.78274C2.05144 7.88684 3.21293 6.16058 4.67417 4.69859C6.12627 3.23803 7.85359 2.07112 9.75918 1.26334C11.7301 0.426368 13.854 -0.00357664 15.9999 2.241e-05Z" fill="#4A3C56"/>
<path d="M40.003 23.8324V7.9076C39.9889 7.65672 40.0245 7.40554 40.1077 7.16845C40.1909 6.93137 40.32 6.71306 40.4876 6.52604C40.6668 6.35201 40.8801 6.21715 41.1141 6.13C41.348 6.04286 41.5975 6.00534 41.8467 6.01982H47.9469C49.6308 5.8918 51.3029 6.38719 52.6459 7.41192C53.1755 7.89577 53.5918 8.49078 53.865 9.15441C54.1382 9.81803 54.2616 10.5339 54.2262 11.2508C54.2957 12.1002 54.1165 12.9515 53.7105 13.7007C53.3044 14.4498 52.6892 15.0644 51.94 15.4693V15.5325C52.7099 15.8656 53.3577 16.4293 53.7943 17.1461C54.3279 17.9942 54.5991 18.9811 54.5739 19.9831C54.6309 20.7878 54.4997 21.5948 54.1906 22.3399C53.8815 23.085 53.4031 23.7477 52.7934 24.2754C51.3261 25.3203 49.5437 25.8268 47.7468 25.7097H41.8889C41.6397 25.7241 41.3902 25.6866 41.1562 25.5995C40.9222 25.5123 40.7089 25.3775 40.5298 25.2035C40.3524 25.0236 40.214 24.8089 40.1234 24.573C40.0327 24.3371 39.9917 24.085 40.003 23.8324ZM44.4175 14.0561H47.3991C48.0879 14.0912 48.7659 13.8738 49.3061 13.4444C49.5388 13.2276 49.7208 12.9621 49.8392 12.6667C49.9576 12.3714 50.0094 12.0536 49.9909 11.7359C50.0112 11.4221 49.9613 11.1077 49.8446 10.8158C49.7279 10.5238 49.5475 10.2617 49.3166 10.0485C48.7721 9.62151 48.0892 9.41116 47.3991 9.4579H44.4596C44.4366 9.45429 44.4132 9.45617 44.3911 9.46338C44.369 9.47058 44.3489 9.48291 44.3325 9.49936C44.316 9.51581 44.3037 9.53591 44.2965 9.55803C44.2893 9.58015 44.2874 9.60365 44.291 9.62663V13.8451C44.291 13.9928 44.3437 14.0561 44.4596 14.0561H44.4175ZM44.2489 22.0607C44.2489 22.1767 44.3016 22.24 44.4175 22.24H47.5782C48.3047 22.2885 49.0219 22.0543 49.58 21.5861C49.8175 21.3462 50.0014 21.0586 50.1194 20.7422C50.2375 20.4259 50.287 20.088 50.2648 19.751C50.2822 19.4206 50.2281 19.0903 50.1063 18.7827C49.9845 18.4751 49.7978 18.1975 49.5589 17.9687C49.0047 17.5095 48.2962 17.2794 47.5782 17.3254H44.4175C44.3945 17.3218 44.371 17.3237 44.3489 17.3309C44.3268 17.3381 44.3067 17.3504 44.2903 17.3669C44.2739 17.3833 44.2616 17.4034 44.2544 17.4255C44.2472 17.4477 44.2453 17.4712 44.2489 17.4941V22.0607Z" fill="#4A3C56"/>
<path d="M60.885 25.2773C60.4926 25.6543 59.9698 25.8649 59.4258 25.8649C58.8819 25.8649 58.359 25.6543 57.9666 25.2773C57.7712 25.0692 57.62 24.8236 57.5222 24.5553C57.4244 24.287 57.382 24.0016 57.3977 23.7164V13.6448C57.382 13.3596 57.4244 13.0742 57.5222 12.8059C57.62 12.5376 57.7712 12.292 57.9666 12.0839C58.1569 11.8934 58.384 11.7438 58.6339 11.644C58.8839 11.5443 59.1516 11.4966 59.4206 11.5039C59.8763 11.4945 60.3218 11.6394 60.6849 11.9152C61.0521 12.1996 61.3031 12.6083 61.3908 13.0647C61.7688 12.5392 62.2674 12.1124 62.8447 11.8203C63.4956 11.4849 64.22 11.3182 64.9519 11.3351C65.4581 11.3246 65.9608 11.4217 66.4269 11.6199C66.7477 11.7558 67.02 11.9857 67.208 12.2793C67.396 12.5729 67.491 12.9165 67.4804 13.2651C67.4903 13.536 67.446 13.8062 67.3501 14.0597C67.2542 14.3133 67.1087 14.5451 66.922 14.7416C66.7373 14.9366 66.5127 15.0893 66.2636 15.1894C66.0145 15.2895 65.7468 15.3346 65.4786 15.3216C65.1847 15.3181 64.8932 15.2682 64.6147 15.174C64.2719 15.0782 63.9171 15.032 63.5611 15.0369C62.1388 15.0369 61.454 16.0177 61.454 17.9793V23.727C61.4682 24.0104 61.4252 24.2938 61.3274 24.5602C61.2296 24.8266 61.0792 25.0705 60.885 25.2773Z" fill="#4A3C56"/>
<path d="M78.7397 24.9504C77.5675 25.6341 76.235 25.9943 74.8783 25.9943C73.5216 25.9943 72.1892 25.6341 71.017 24.9504C69.9584 24.247 69.1793 23.1948 68.815 21.9763C68.1971 19.8227 68.1971 17.5385 68.815 15.3849C69.1819 14.165 69.9601 13.1102 71.017 12.4003C72.1913 11.7229 73.5229 11.3663 74.8783 11.3663C76.2338 11.3663 77.5654 11.7229 78.7397 12.4003C79.7966 13.1102 80.5748 14.165 80.9417 15.3849C81.5596 17.5385 81.5596 19.8227 80.9417 21.9763C80.5774 23.1948 79.7983 24.247 78.7397 24.9504ZM74.8731 22.588C75.3607 22.6186 75.8439 22.4786 76.2398 22.1919C76.6357 21.9053 76.9198 21.4898 77.0434 21.0166C77.2516 20.2545 77.3404 19.4647 77.3068 18.6753C77.3389 17.886 77.2501 17.0965 77.0434 16.3341C76.89 15.8812 76.5986 15.4877 76.2103 15.2091C75.8219 14.9305 75.3561 14.7807 74.8783 14.7807C74.4006 14.7807 73.9348 14.9305 73.5464 15.2091C73.1581 15.4877 72.8667 15.8812 72.7132 16.3341C72.5066 17.0965 72.4178 17.886 72.4499 18.6753C72.4163 19.4647 72.5051 20.2545 72.7132 21.0166C72.8366 21.4879 73.1191 21.902 73.5128 22.1884C73.9065 22.4749 74.3872 22.6161 74.8731 22.588Z" fill="#4A3C56"/>
<path d="M97.3592 25.8363C96.8151 25.849 96.2847 25.6652 95.8649 25.3186C95.445 24.9719 95.1639 24.4856 95.0729 23.9485L93.0817 17.2411L91.0588 23.9485C90.9618 24.4827 90.679 24.9654 90.2606 25.3109C89.8421 25.6564 89.315 25.8425 88.7726 25.8363C88.2341 25.8319 87.7137 25.6417 87.2991 25.2978C86.8845 24.9539 86.6011 24.4773 86.4968 23.9485L83.1992 14.2881C83.112 14.0149 83.0624 13.7311 83.0517 13.4444C83.0437 13.187 83.0903 12.9308 83.1883 12.6927C83.2864 12.4546 83.4337 12.2399 83.6206 12.0629C83.8043 11.8797 84.0232 11.7358 84.264 11.6397C84.5048 11.5436 84.7627 11.4974 85.0218 11.5039C85.9841 11.5039 86.6268 12.0734 86.9499 13.2124L88.9727 20.2995H89.036L91.0272 13.2441C91.3784 12.084 92.0422 11.5039 93.0185 11.5039C93.9878 11.5039 94.641 12.084 94.9887 13.2441L97.0958 20.2995L99.1187 13.1808C99.4453 12.0418 100.088 11.4723 101.057 11.4723C101.313 11.468 101.567 11.5153 101.804 11.6113C102.041 11.7073 102.257 11.8501 102.438 12.0311C102.618 12.2122 102.761 12.4278 102.857 12.6652C102.953 12.9025 103 13.1568 102.996 13.4128C102.985 13.6994 102.935 13.9833 102.848 14.2565L99.5822 23.9379C99.4857 24.4617 99.212 24.9363 98.8072 25.2819C98.4024 25.6276 97.8911 25.8233 97.3592 25.8363Z" fill="#4A3C56"/>
<path d="M110.844 25.9944C109.049 26.0446 107.277 25.5838 105.734 24.6656C105.438 24.5099 105.191 24.2763 105.018 23.9901C104.845 23.7039 104.754 23.3758 104.754 23.0414C104.752 22.8283 104.794 22.6171 104.877 22.421C104.96 22.225 105.084 22.0484 105.239 21.9024C105.396 21.748 105.582 21.6265 105.786 21.5451C105.991 21.4636 106.209 21.4237 106.429 21.4279C106.849 21.4504 107.255 21.5812 107.609 21.8075C108.645 22.4568 109.833 22.8207 111.054 22.8621C112.498 22.8621 113.162 22.4192 113.162 21.5544C113.169 21.398 113.135 21.2424 113.063 21.1034C112.991 20.9645 112.883 20.8472 112.751 20.7634C112.248 20.5172 111.698 20.3841 111.139 20.3732L109.611 20.1939C106.563 19.8494 105.042 18.4222 105.049 15.9122C105.025 15.2817 105.15 14.6545 105.416 14.0823C105.682 13.5102 106.08 13.0095 106.577 12.6217C107.804 11.7528 109.29 11.3253 110.791 11.4089C112.249 11.3753 113.693 11.6898 115.005 12.3264C115.336 12.4481 115.625 12.6633 115.836 12.946C116.048 13.2287 116.173 13.5666 116.196 13.9189C116.205 14.1304 116.17 14.3415 116.093 14.5388C116.016 14.736 115.899 14.9152 115.75 15.0649C115.6 15.2146 115.421 15.3316 115.224 15.4084C115.027 15.4853 114.816 15.5204 114.605 15.5114C114.198 15.479 113.803 15.3603 113.446 15.1634C112.557 14.7576 111.589 14.5523 110.612 14.5622C109.442 14.5622 108.852 14.9208 108.852 15.6169C108.845 15.7719 108.879 15.9262 108.951 16.0635C109.023 16.2008 109.131 16.3161 109.263 16.3973C109.742 16.624 110.262 16.7497 110.791 16.7664L112.319 16.9457C115.416 17.2937 116.975 18.7069 116.975 21.1642C116.995 21.835 116.853 22.5007 116.564 23.106C116.274 23.7113 115.845 24.2387 115.311 24.6445C114.015 25.5823 112.442 26.0577 110.844 25.9944Z" fill="#4A3C56"/>
<path d="M125.839 25.9944C124.427 26.0396 123.032 25.6732 121.825 24.9398C120.754 24.2589 119.964 23.2141 119.601 21.9974C118.997 19.8096 118.997 17.4988 119.601 15.3111C119.976 14.109 120.754 13.0733 121.803 12.3792C122.976 11.7087 124.304 11.356 125.654 11.356C127.005 11.356 128.332 11.7087 129.505 12.3792C130.542 13.068 131.306 14.0975 131.665 15.29C131.989 16.3453 132.145 17.4449 132.128 18.5488C132.139 18.7275 132.112 18.9064 132.049 19.0738C131.985 19.2412 131.887 19.3932 131.76 19.5198C131.634 19.6463 131.482 19.7446 131.315 19.8081C131.148 19.8716 130.969 19.8989 130.79 19.8881H123.415C123.3 19.8881 123.236 19.8881 123.236 20.0569C123.247 20.4348 123.336 20.8064 123.498 21.1481C123.659 21.4898 123.89 21.7942 124.175 22.042C124.46 22.2898 124.794 22.4757 125.155 22.5878C125.515 22.7 125.895 22.7359 126.271 22.6934C127.196 22.6779 128.102 22.4275 128.905 21.9657C129.317 21.6985 129.794 21.549 130.285 21.5333C130.481 21.5276 130.676 21.5631 130.857 21.6376C131.039 21.7121 131.203 21.8239 131.338 21.9657C131.476 22.1039 131.584 22.2686 131.657 22.4499C131.729 22.6311 131.764 22.8252 131.76 23.0204C131.763 23.3127 131.69 23.6008 131.548 23.8561C131.405 24.1114 131.199 24.325 130.948 24.4758C129.447 25.5078 127.659 26.0392 125.839 25.9944ZM123.363 17.2094H127.956C128.072 17.2094 128.125 17.1461 128.125 17.0301C128.132 16.673 128.082 16.317 127.977 15.9755C127.828 15.4869 127.512 15.0662 127.085 14.7868C126.657 14.5074 126.145 14.3869 125.638 14.4463C125.136 14.3905 124.63 14.513 124.208 14.7924C123.786 15.0718 123.476 15.4905 123.331 15.9755C123.232 16.3181 123.182 16.6733 123.184 17.0301C123.18 17.0545 123.182 17.0793 123.19 17.1027C123.198 17.1261 123.211 17.1473 123.228 17.1647C123.246 17.1821 123.267 17.1952 123.29 17.203C123.314 17.2107 123.338 17.2129 123.363 17.2094Z" fill="#4A3C56"/>
<path d="M140.13 23.9961C140.125 23.7186 140.175 23.4429 140.277 23.1848L145.54 8.48773C146.118 6.82312 147.087 6.00134 148.455 6.00134C149.823 6.00134 150.823 6.82312 151.402 8.48773L156.664 23.1848C156.762 23.4442 156.812 23.719 156.812 23.9961C156.82 24.2649 156.77 24.5323 156.664 24.7797C156.559 25.0272 156.401 25.2487 156.201 25.4289C155.815 25.8018 155.296 26.0064 154.759 25.9978C154.304 26.0195 153.856 25.8805 153.492 25.6052C153.129 25.3299 152.873 24.9357 152.77 24.4912L151.96 22.0891H144.95L144.171 24.4912C144.068 24.9357 143.813 25.3299 143.449 25.6052C143.086 25.8805 142.637 26.0195 142.182 25.9978C141.643 26.0013 141.123 25.7977 140.73 25.4289C140.534 25.2464 140.379 25.0242 140.275 24.7772C140.172 24.5301 140.122 24.2638 140.13 23.9961ZM146.16 18.4754H150.781L148.529 11.6063H148.444L146.16 18.4754Z" fill="#6719BC"/>
<path d="M159.432 23.7432V8.25594C159.418 7.95747 159.464 7.65928 159.567 7.37886C159.67 7.09844 159.828 6.84144 160.032 6.62292C160.23 6.41701 160.469 6.25522 160.734 6.14811C160.999 6.041 161.283 5.99099 161.569 6.00133C161.851 5.99199 162.132 6.04254 162.393 6.14968C162.654 6.25682 162.89 6.4181 163.084 6.62292C163.286 6.84228 163.442 7.09968 163.543 7.38006C163.644 7.66044 163.689 7.9582 163.674 8.25594V23.7432C163.689 24.0394 163.645 24.3356 163.544 24.6143C163.442 24.8931 163.286 25.1486 163.084 25.3657C162.892 25.574 162.657 25.7384 162.395 25.8475C162.134 25.9566 161.852 26.0078 161.569 25.9978C161.282 26.0088 160.997 25.9581 160.732 25.849C160.466 25.74 160.228 25.5751 160.032 25.3657C159.829 25.1491 159.671 24.8939 159.568 24.6152C159.465 24.3366 159.419 24.04 159.432 23.7432Z" fill="#6719BC"/>
</svg>
