<?xml version="1.0" encoding="utf-8"?>
<!-- Generator: Adobe Illustrator 26.0.1, SVG Export Plug-In . SVG Version: 6.00 Build 0)  -->
<svg version="1.1" id="Layer_1" xmlns="http://www.w3.org/2000/svg" xmlns:xlink="http://www.w3.org/1999/xlink" x="0px" y="0px"
	 viewBox="0 0 1295.1 314.6" style="enable-background:new 0 0 1295.1 314.6;" xml:space="preserve">
<g>
	<path d="M112,141.5c11.8,0,21.9,5.1,28.5,13.5c0.9,1.2,2.5,1.5,3.8,0.8l20.6-11.7c1.5-0.9,2-2.9,1-4.3c-11.7-16.2-31.2-26-53.8-26
		c-37.3-0.5-67,28.8-66.3,65.6c-0.7,36.9,29,66.1,66.3,65.6c22.6,0,42.1-10,53.8-26c1-1.4,0.6-3.5-0.9-4.4l-20.5-11.8
		c-1.3-0.8-3-0.4-3.9,0.8c-6.4,8.6-16.4,13.3-28.4,13.3c-10.7,0-19.3-3.5-26-10.7c-7.2-7.7-10.4-17.1-9.9-29
		C76.9,157.6,92.4,141.5,112,141.5z"/>
	<path d="M303.2,116.9h-25.8c-1.7,0-3,1.3-3,3v14.4c-8.4-13.7-23.2-20.6-40.6-20.6c-34.6-0.7-61.2,29.2-60.8,65.6
		c0,36.9,26,65.6,60.8,65.6c17.4,0,32.2-7.2,40.6-20.9v14.6c0,1.7,1.3,3,3,3h25.8c1.7,0,3-1.3,3-3V119.9
		C306.2,118.2,304.9,116.9,303.2,116.9z M238.9,217.3c-21.1,0-35.5-16.5-35.5-38c0-10.9,3.2-19.9,9.7-27.1
		c6.7-7.2,15.3-10.9,25.7-10.9c20.6,0,35.5,15.1,35.5,38C274.4,202.2,259.6,217.3,238.9,217.3z"/>
	<path d="M387.7,141.5c11.8,0,21.9,5.1,28.5,13.5c0.9,1.2,2.5,1.5,3.8,0.8l20.6-11.7c1.5-0.9,2-2.9,1-4.3
		c-11.7-16.2-31.2-26-53.8-26c-37.3-0.5-67,28.8-66.3,65.6c-0.7,36.9,29,66.1,66.3,65.6c22.6,0,42.1-10,53.8-26
		c1-1.4,0.6-3.5-0.9-4.4l-20.5-11.8c-1.3-0.8-3-0.4-3.9,0.8c-6.4,8.6-16.4,13.3-28.4,13.3c-10.7,0-19.3-3.5-26-10.7
		c-7.2-7.7-10.4-17.1-9.9-29C352.6,157.6,368.2,141.5,387.7,141.5z"/>
	<path d="M528.2,113.6c-17.6,0-32,8.4-39.2,21.1V70.5c0-1.7-1.3-3-3-3h-25.5c-1.7,0-3,1.3-3,3v168.2c0,1.7,1.3,3,3,3H486
		c1.7,0,3-1.3,3-3v-62.2c0-21.1,13.5-35.3,31.8-35.3c18.3,0,28.1,10.9,28.1,32.2v65.2c0,1.7,1.3,3,3,3h25.8c1.7,0,3-1.3,3-3v-67.5
		C580.6,134.7,560.6,113.6,528.2,113.6z"/>
	<path d="M660.4,113.6c-36.9,0-64.5,28.3-64.5,65.6s28.3,65.6,68.4,65.6c22.8,0,43.5-9.7,55-24.7c1.1-1.4,0.7-3.4-0.8-4.3
		l-19.3-12.1c-1.3-0.8-3-0.5-4,0.7c-6.7,8.2-18.3,13.4-30.9,13.4c-19.3,0-33.6-9.7-37.6-27.6h94.8c1.6,0,2.9-1.3,3-2.9
		c0.2-4.1,0.3-7.8,0.3-11C724.9,139.4,697.5,113.6,660.4,113.6z M626.8,167.9c3.7-17.6,17.2-27.8,33.9-27.8
		c19.3,0,32.2,11.1,33.9,27.8H626.8z"/>
	<path d="M1246.4,121h-25.5c-1.7,0-3,1.3-3,3l0,68.6c0,14.1-11.5,25.9-25.6,25.6c-13.6-0.3-24.6-11.4-24.6-25.1l0-3.2v-66
		c0-1.7-1.3-3-3-3h-25.5c-1.7,0-3,1.3-3,3l0,68.6c0,14.1-11.5,25.9-25.6,25.6c-13.6-0.3-24.6-11.4-24.6-25.1l0-71.4
		c0-24.5-19.4-45-44-45.5C1017,75.9,996.5,96,996.5,121v3.1c-9.7-6.2-21.8-10.5-34.8-10.5c-37.3-0.5-67,28.8-66.3,65.6l0,63
		c0,7.3-5.9,13.2-13.2,13.2c-7.3,0-13.2-5.9-13.2-13.2l0-152.5c0-31.1-24.8-57.1-55.9-57.5c-31.6-0.4-57.4,25.1-57.4,56.6v28h-23.7
		c-1.7,0-3,1.3-3,3v21.6c0,1.7,1.3,3,3,3h23.7v94.2c0,1.7,1.3,3,3,3h25.5c1.7,0,3-1.3,3-3v-94.2h30.5c1.7,0,3-1.3,3-3v-21.6
		c0-1.7-1.3-3-3-3h-30.5V84.7c0-14.1,11.5-25.9,25.6-25.6c13.6,0.3,24.6,11.4,24.6,25.1v152.7c0,24.5,19.4,45,44,45.5
		c25.1,0.4,45.5-19.8,45.5-44.7v-3.2c9.7,6.6,22,10.7,34.8,10.5c38.3,0,66.3-28.3,66.3-65.6c0,0,0-63,0-63c0-7.3,5.9-13.2,13.2-13.2
		s13.2,5.9,13.2,13.2v71.4c0,31.4,25.7,57.8,57.2,57.5c15.9-0.1,30.1-6.8,40.3-17.4c10.2,10.6,24.5,17.3,40.3,17.4
		c31.4,0.3,57.2-26.1,57.2-57.5V124C1249.4,122.3,1248.1,121,1246.4,121z M961.7,218.1c-20.9,0-37.8-17.4-37.8-38.8
		s16.9-38.8,37.8-38.8s37.8,17.4,37.8,38.8S982.6,218.1,961.7,218.1z"/>
</g>
</svg>
