<svg xmlns="http://www.w3.org/2000/svg" width="169" height="45" viewBox="0 0 169 45" fill="none"><path d="M90.3777 25.3835H94.1482C94.0861 26.5472 93.768 27.5752 93.1939 28.4674C92.6276 29.3518 91.8401 30.0462 90.8315 30.5505C89.823 31.047 88.6243 31.2952 87.2356 31.2952C86.1262 31.2952 85.1331 31.1052 84.2564 30.725C83.3797 30.3449 82.635 29.8018 82.0221 29.0958C81.4169 28.382 80.9514 27.5247 80.6256 26.5239C80.3075 25.5154 80.1484 24.3788 80.1484 23.1142V22.0785C80.1484 20.8139 80.3152 19.6773 80.6488 18.6687C80.9824 17.6601 81.4596 16.799 82.0802 16.0852C82.7009 15.3714 83.4457 14.8245 84.3146 14.4443C85.1835 14.0642 86.1533 13.8741 87.224 13.8741C88.667 13.8741 89.885 14.134 90.8781 14.6538C91.8711 15.1736 92.6392 15.8874 93.1823 16.7951C93.7331 17.7028 94.0629 18.7385 94.1715 19.9023H90.3893C90.3583 19.2428 90.2342 18.6881 90.0169 18.2381C89.7997 17.7804 89.4661 17.4351 89.0161 17.2024C88.5661 16.9696 87.9688 16.8533 87.224 16.8533C86.6809 16.8533 86.2037 16.9541 85.7926 17.1558C85.3891 17.3576 85.0516 17.6718 84.7801 18.0985C84.5163 18.5252 84.3185 19.0683 84.1866 19.7277C84.0547 20.3794 83.9888 21.1552 83.9888 22.0552V23.1142C83.9888 24.0064 84.047 24.7783 84.1633 25.43C84.2797 26.0817 84.4659 26.6209 84.7219 27.0476C84.9857 27.4743 85.3232 27.7924 85.7344 28.0019C86.1456 28.2113 86.646 28.3161 87.2356 28.3161C87.9106 28.3161 88.473 28.2113 88.923 28.0019C89.373 27.7846 89.7182 27.4588 89.9587 27.0243C90.1992 26.5899 90.3389 26.0429 90.3777 25.3835Z" fill="#04184B"/><path d="M100.374 13.1875V31.0625H96.7312V13.1875H100.374Z" fill="#04184B"/><path d="M102.945 24.8947V24.6503C102.945 23.7271 103.077 22.8776 103.341 22.1017C103.605 21.3181 103.992 20.6393 104.505 20.0652C105.017 19.4911 105.645 19.045 106.39 18.7269C107.135 18.401 107.988 18.2381 108.95 18.2381C109.928 18.2381 110.789 18.401 111.533 18.7269C112.286 19.045 112.918 19.4911 113.43 20.0652C113.942 20.6393 114.33 21.3181 114.594 22.1017C114.858 22.8776 114.99 23.7271 114.99 24.6503V24.8947C114.99 25.8102 114.858 26.6597 114.594 27.4433C114.33 28.2191 113.942 28.8979 113.43 29.4798C112.918 30.0539 112.29 30.5 111.545 30.8181C110.8 31.1362 109.943 31.2952 108.973 31.2952C108.011 31.2952 107.154 31.1362 106.401 30.8181C105.649 30.5 105.017 30.0539 104.505 29.4798C103.992 28.8979 103.605 28.2191 103.341 27.4433C103.077 26.6597 102.945 25.8102 102.945 24.8947ZM106.588 24.6503V24.8947C106.588 25.3912 106.626 25.8567 106.704 26.2912C106.789 26.7256 106.925 27.1058 107.111 27.4316C107.297 27.7575 107.542 28.0135 107.844 28.1997C108.155 28.3781 108.531 28.4674 108.973 28.4674C109.415 28.4674 109.788 28.3781 110.09 28.1997C110.393 28.0135 110.637 27.7575 110.824 27.4316C111.01 27.1058 111.142 26.7256 111.219 26.2912C111.305 25.8567 111.347 25.3912 111.347 24.8947V24.6503C111.347 24.1615 111.305 23.7038 111.219 23.2771C111.142 22.8426 111.01 22.4586 110.824 22.125C110.637 21.7914 110.389 21.5315 110.079 21.3453C109.776 21.1591 109.4 21.066 108.95 21.066C108.516 21.066 108.147 21.1591 107.844 21.3453C107.542 21.5315 107.297 21.7914 107.111 22.125C106.925 22.4586 106.789 22.8426 106.704 23.2771C106.626 23.7038 106.588 24.1615 106.588 24.6503Z" fill="#04184B"/><path d="M124.765 28.0251V18.4709H128.419V31.0625H124.997L124.765 28.0251ZM125.149 25.4533L126.15 25.43C126.15 26.2757 126.049 27.0554 125.847 27.7691C125.653 28.4829 125.358 29.1035 124.963 29.6311C124.575 30.1587 124.09 30.5699 123.508 30.8647C122.934 31.1517 122.263 31.2952 121.495 31.2952C120.874 31.2952 120.304 31.2099 119.784 31.0392C119.272 30.8608 118.83 30.5854 118.457 30.213C118.085 29.8328 117.798 29.3479 117.596 28.7583C117.394 28.1609 117.294 27.4472 117.294 26.617V18.4709H120.924V26.6403C120.924 26.9661 120.963 27.2454 121.041 27.4782C121.126 27.7032 121.239 27.8894 121.378 28.0368C121.526 28.1842 121.704 28.2928 121.914 28.3626C122.131 28.4325 122.367 28.4674 122.623 28.4674C123.267 28.4674 123.772 28.3355 124.136 28.0717C124.509 27.8002 124.769 27.4394 124.916 26.9894C125.071 26.5317 125.149 26.0196 125.149 25.4533Z" fill="#04184B"/><path d="M138.589 28.2463V13.1875H142.244V31.0625H138.962L138.589 28.2463ZM130.746 24.918V24.6736C130.746 23.7193 130.851 22.8504 131.06 22.0668C131.277 21.2755 131.592 20.5966 132.003 20.0303C132.422 19.4562 132.938 19.0139 133.55 18.7036C134.163 18.3933 134.865 18.2381 135.657 18.2381C136.386 18.2381 137.022 18.401 137.565 18.7269C138.108 19.045 138.57 19.495 138.95 20.0768C139.338 20.6509 139.652 21.3298 139.893 22.1134C140.133 22.8892 140.316 23.731 140.44 24.6387V25.0576C140.323 25.9265 140.141 26.7373 139.893 27.4898C139.652 28.2424 139.338 28.9057 138.95 29.4798C138.57 30.0462 138.105 30.4923 137.554 30.8181C137.011 31.1362 136.371 31.2952 135.634 31.2952C134.842 31.2952 134.14 31.1362 133.527 30.8181C132.922 30.5 132.414 30.0539 132.003 29.4798C131.592 28.9057 131.277 28.2307 131.06 27.4549C130.851 26.6791 130.746 25.8334 130.746 24.918ZM134.377 24.6736V24.918C134.377 25.4145 134.412 25.8761 134.481 26.3028C134.559 26.7295 134.683 27.1058 134.854 27.4316C135.025 27.7575 135.25 28.0135 135.529 28.1997C135.808 28.3781 136.149 28.4674 136.553 28.4674C137.096 28.4674 137.542 28.3432 137.891 28.095C138.24 27.8389 138.504 27.4859 138.683 27.036C138.861 26.586 138.954 26.0623 138.962 25.4649V24.243C138.962 23.7465 138.911 23.3004 138.811 22.9047C138.71 22.509 138.558 22.1754 138.357 21.9039C138.163 21.6324 137.918 21.4268 137.624 21.2871C137.329 21.1397 136.98 21.066 136.576 21.066C136.181 21.066 135.843 21.1591 135.564 21.3453C135.284 21.5237 135.056 21.7759 134.877 22.1017C134.706 22.4276 134.578 22.8116 134.493 23.2538C134.416 23.6883 134.377 24.1615 134.377 24.6736Z" fill="#04184B"/><path d="M155.403 28.2364V31.0643H145.744V28.2364H155.403ZM155.251 20.4976L147.303 31.0643H144.836V28.9696L152.761 18.4727H155.251V20.4976ZM154.006 18.4727V21.3005H145.045V18.4727H154.006Z" fill="#3742BA"/><path d="M161.71 29.6096L165.003 18.4727H168.913L163.851 32.9495C163.742 33.2676 163.595 33.609 163.409 33.9736C163.23 34.3383 162.986 34.6874 162.676 35.021C162.373 35.3546 161.985 35.6261 161.512 35.8356C161.039 36.0451 160.457 36.1498 159.766 36.1498C159.417 36.1498 159.146 36.1304 158.952 36.0916C158.765 36.0606 158.517 36.0063 158.207 35.9287L158.195 33.287C158.296 33.287 158.385 33.287 158.463 33.287C158.548 33.2948 158.634 33.2987 158.719 33.2987C159.153 33.2987 159.502 33.2521 159.766 33.159C160.038 33.0659 160.247 32.9263 160.395 32.7401C160.55 32.5616 160.674 32.3328 160.767 32.0535L161.71 29.6096ZM160.604 18.4727L163.211 27.4334L163.653 31.2854L161.198 31.4134L156.694 18.4727H160.604Z" fill="#3742BA"/><path d="M71.9023 29.2824C71.9023 25.4211 70.3811 21.6768 67.6314 18.9856C64.8817 16.2359 61.1959 14.7148 57.3346 14.6562C55.7549 14.7148 58.2706 19.3951 58.2706 21.9693C58.2706 22.0278 58.6217 22.0278 58.6217 22.0864C59.6748 22.2619 60.6693 22.6714 61.5469 23.315C62.4245 23.9 63.1265 24.7191 63.7116 25.6551C64.2381 26.5912 64.5892 27.5858 64.7062 28.6389C64.8232 29.692 64.6477 30.7451 64.2966 31.7396C63.9456 32.7342 63.3606 33.6703 62.6 34.4309C61.8394 35.1914 60.9619 35.7765 59.9673 36.1275C58.9727 36.4785 57.9196 36.654 56.8665 36.5955C55.8134 36.537 54.7604 36.2445 53.8243 35.718C52.4787 35.718 50.782 35.1329 49.3779 36.3615C47.9738 37.5901 47.4473 38.7017 48.2078 40.6909C50.782 42.797 53.9998 43.9086 57.3346 43.9671H57.3931C59.3237 43.9671 61.1959 43.6161 63.0095 42.8555C64.7647 42.095 66.4028 41.0419 67.7484 39.6963C69.094 38.3507 70.2056 36.7125 70.9077 34.9574C71.5512 33.1437 71.9023 31.2131 71.9023 29.2824Z" fill="url(#paint0_linear_411411_49646)"/><path d="M36.5645 0.03125C31.1235 0.03125 25.8581 2.02041 21.8213 5.70621C17.7844 9.3335 15.2687 14.3649 14.7422 19.8059H22.1138C22.5233 17.0561 23.7519 14.4234 25.6241 12.3758C27.4962 10.2696 29.8949 8.74846 32.5861 7.9879C35.2774 7.22733 38.1441 7.22733 40.8353 8.0464C43.5265 8.86547 45.9252 10.3866 47.7389 12.5513C49.5525 14.6574 50.7226 17.2901 51.1321 20.0399C51.5417 22.7896 51.1321 25.6563 49.9035 28.172C48.7334 30.7462 46.8613 32.8524 44.5211 34.3735C42.1809 35.8947 39.4312 36.7137 36.623 36.7137H23.8689V44.0268H36.5645C42.4149 44.0268 47.9729 41.6866 52.0682 37.5913C56.222 33.496 58.5037 27.8795 58.5037 22.0875C58.5037 16.2956 56.1635 10.6791 52.0682 6.58378C47.9729 2.37144 42.4149 0.03125 36.5645 0.03125Z" fill="url(#paint1_linear_411411_49646)"/><path d="M23.4041 44.0333H14.6284C11.7617 44.0333 8.89492 43.1558 6.49623 41.5761C4.09753 39.938 2.22538 37.7148 1.11379 35.0236C0.00220284 32.3324 -0.29032 29.4072 0.294728 26.5989C0.879775 23.7907 2.22538 21.158 4.27305 19.1103C6.32072 17.0627 8.89492 15.6586 11.7617 15.132C14.5699 14.6055 17.5536 14.8395 20.2448 15.9511C22.9361 17.0627 25.2177 18.9348 26.7974 21.3335C28.4355 23.7322 29.2546 26.5404 29.2546 29.4657V38.2414C29.2546 39.7625 28.611 41.2836 27.5579 42.3952C26.4463 43.4483 24.9252 44.0333 23.4041 44.0333ZM14.6284 22.0941C12.6977 22.0941 10.8256 22.8546 9.47997 24.2002C8.07586 25.6044 7.3153 27.418 7.3153 29.3487C7.3153 31.2793 8.07586 33.1515 9.47997 34.4971C10.8841 35.9012 12.6977 36.6032 14.6284 36.6032H21.9415V29.3487C21.9415 27.418 21.1809 25.5459 19.7768 24.2002C18.4312 22.9131 16.559 22.0941 14.6284 22.0941Z" fill="url(#paint2_linear_411411_49646)"/><defs><linearGradient id="paint0_linear_411411_49646" x1="47.7452" y1="29.2865" x2="71.9148" y2="29.2865" gradientUnits="userSpaceOnUse"><stop stop-color="#242189"/><stop offset="0.0582992" stop-color="#26258F"/><stop offset="0.4516" stop-color="#333CB0"/><stop offset="0.7781" stop-color="#3B4AC5"/><stop offset="0.9955" stop-color="#3E4FCC"/></linearGradient><linearGradient id="paint1_linear_411411_49646" x1="14.7176" y1="21.9926" x2="58.5389" y2="21.9926" gradientUnits="userSpaceOnUse"><stop stop-color="#242189"/><stop offset="0.0582992" stop-color="#26258F"/><stop offset="0.4516" stop-color="#333CB0"/><stop offset="0.7781" stop-color="#3B4AC5"/><stop offset="0.9955" stop-color="#3E4FCC"/></linearGradient><linearGradient id="paint2_linear_411411_49646" x1="-0.0369944" y1="29.4344" x2="29.2622" y2="29.4344" gradientUnits="userSpaceOnUse"><stop stop-color="#242189"/><stop offset="0.0582992" stop-color="#26258F"/><stop offset="0.4516" stop-color="#333CB0"/><stop offset="0.7781" stop-color="#3B4AC5"/><stop offset="0.9955" stop-color="#3E4FCC"/></linearGradient></defs></svg>