<svg width="544" height="103" viewBox="0 0 544 103" fill="none" xmlns="http://www.w3.org/2000/svg">
<path d="M217.445 34.7129C207.8 34.7129 203.345 41.7483 203.345 48.5471C203.345 55.3433 207.554 62.1407 217.445 62.1407C221.035 62.1407 224.868 60.6885 227.594 58.1361L231.794 62.1407C227.84 65.9022 222.762 67.7265 217.444 67.7265C203.59 67.7265 197.405 58.3779 197.405 48.5471C197.405 38.7149 203.836 29.0102 217.444 29.0102C222.515 29.0102 227.465 30.8331 231.427 34.7129L227.346 38.5993C224.62 35.9221 221.035 34.7129 217.445 34.7129ZM235.263 66.8748V29.4939H241.442V61.2865H261.481V66.8735H235.263V66.8748ZM284.872 67.7265C271.628 67.7265 265.316 58.2531 265.316 48.4196C265.316 37.0182 273.48 28.8827 284.872 28.8827C297.977 28.8827 304.402 38.2299 304.402 48.4196C304.402 58.4962 298.085 67.7265 284.872 67.7265ZM284.98 34.3502C276.207 34.3502 271.382 40.4103 271.382 48.5458C271.502 55.1001 275.463 62.2551 284.872 62.2551C294.387 62.2551 298.341 55.7034 298.341 48.5458C298.341 41.6247 294.262 34.4685 284.98 34.3502ZM324.183 67.5977C315.655 67.3558 308.481 62.0133 308.481 51.4543V29.6109H314.559V51.4543C314.559 58.2531 318.621 61.8989 324.182 62.1407C330.257 62.4982 334.707 58.6198 334.707 51.4543V29.6109H340.764V51.4543C340.765 62.4982 333.336 67.9683 324.183 67.5977ZM360.934 66.8748C356.361 66.8748 351.031 66.8748 346.461 66.8748V29.4939H360.934C373.931 29.4939 379.858 38.5979 379.971 47.8203C380.227 57.2845 374.165 66.8748 360.934 66.8748ZM360.934 35.1953H352.516V61.1695H360.934C370.195 61.1695 374.165 54.4929 374.039 47.8203C373.931 41.5078 369.956 35.1953 360.934 35.1953ZM424.514 66.9944H419.062L413.992 53.7622L409.909 41.2633L405.701 53.8897L400.761 66.9957H395.453L381.581 29.6122H388.389L398.051 58.3779L407.937 29.6122H411.888L421.918 58.3779L431.438 29.6122H438.243L424.514 66.9944ZM471.262 66.9944L467.562 59.1034H446.902L443.313 66.9944H436.887L453.946 29.6109H460.627L477.7 66.9944H471.262ZM457.276 35.8051L449.26 53.6478H465.33L457.276 35.8051ZM494.523 51.5831V66.8748H488.463V51.5831L473.75 29.7383V29.4939H481.033L491.427 45.9961L502.299 29.4939H509.62V29.7383L494.523 51.5831ZM527.923 33.7403C522.834 33.7403 519.139 35.8051 519.139 39.443C519.139 43.0875 523.349 44.0614 528.398 44.783C536.195 45.8817 543.755 47.9359 543.755 56.3119C543.755 64.6905 535.955 67.8395 527.923 67.8395C520.622 67.8395 515.055 65.6591 511.594 59.3479L516.172 56.3106C518.883 60.7989 523.589 62.4969 528.031 62.4969C532.607 62.4969 537.696 61.0446 537.696 56.3106C537.696 52.3059 533.23 50.8537 527.923 50.1229C520.381 49.1543 513.21 47.2065 513.21 39.1999C513.21 31.4325 520.986 28.5226 527.923 28.5226C533.356 28.5226 538.923 29.8514 542.145 34.8338L537.331 37.8698C535.462 35.3214 531.877 33.7403 527.923 33.7403ZM122.695 76.7043C101.11 76.7043 83.612 59.5371 83.612 38.3574C83.612 17.1751 101.11 0 122.695 0C144.285 0 161.79 17.1751 161.79 38.3574C161.79 59.5371 144.285 76.7043 122.695 76.7043ZM151.394 96.2466C132.607 96.2466 117.38 81.3096 117.38 62.8675C117.38 44.4334 132.607 29.4939 151.394 29.4939C170.179 29.4939 185.407 44.4334 185.407 62.8675C185.407 81.3096 170.181 96.2466 151.394 96.2466ZM94.4949 96.2466C75.7161 96.2466 60.4808 81.3096 60.4808 62.8675C60.4808 44.4334 75.7161 29.4939 94.4949 29.4939C113.28 29.4939 128.517 44.4334 128.517 62.8675C128.515 81.3096 113.28 96.2466 94.4949 96.2466ZM94.4949 96.3569V69.7807H151.277V96.3569H94.4949ZM38.957 75.9762H5.92944C4.44708 75.9762 3.33958 74.8801 3.33958 73.4252V69.6637C3.33958 68.2101 4.44708 67.1153 5.92944 67.1153H38.836C40.3184 67.1153 41.4364 68.2101 41.4364 69.6637V73.4252C41.5561 74.7645 40.3184 75.9762 38.957 75.9762ZM88.8101 75.9762H55.9035C54.4225 75.9762 53.3045 74.8801 53.3045 73.4252V69.6637C53.3045 68.2101 54.4212 67.1153 55.9035 67.1153H88.8114C90.2938 67.1153 91.4105 68.2101 91.4105 69.6637V73.4252C91.4091 74.7645 90.2925 75.9762 88.8101 75.9762ZM124.059 96.3569H32.779C30.2996 96.3569 28.2056 94.3092 28.2056 91.8686C28.2056 89.4424 30.2996 87.3777 32.779 87.3777H124.059C126.531 87.3777 128.635 89.4424 128.635 91.8686C128.635 94.3105 126.531 96.3569 124.059 96.3569ZM95.8562 55.5851H4.57598C2.09661 55.5851 0 53.5217 0 51.0981C0 48.6641 2.0953 46.6072 4.57598 46.6072H95.8562C98.3343 46.6072 100.432 48.6641 100.432 51.0981C100.432 53.5203 98.3356 55.5851 95.8562 55.5851ZM120.354 35.1953H29.0645C26.593 35.1953 24.4885 33.1305 24.4885 30.7057C24.4885 28.2808 26.593 26.2161 29.0645 26.2161H120.354C122.825 26.2161 124.93 28.2808 124.93 30.7057C124.93 33.1305 122.943 35.1953 120.354 35.1953ZM129.13 14.8041H37.8482C35.3688 14.8041 33.2722 12.7499 33.2722 10.3145C33.2722 7.89097 35.3688 5.82492 37.8482 5.82492H129.13C131.609 5.82492 133.706 7.88966 133.706 10.3145C133.706 12.7499 131.609 14.8041 129.13 14.8041Z" fill="#2F39BF"/>
<path d="M408.138 79.2611C406.215 77.9329 403.835 77.2458 401.042 77.2458H395V96.4819H401.042C403.835 96.4819 406.215 95.7491 408.138 94.3751C409.191 93.6423 410.015 92.5889 410.564 91.3065C411.113 90.0241 411.434 88.4669 411.434 86.7723C411.434 85.0777 411.159 83.5663 410.564 82.2839C410.015 81.0015 409.191 79.9939 408.138 79.2611ZM398.525 80.5435H400.447C402.553 80.5435 404.293 80.9557 405.62 81.7801C407.085 82.6503 407.817 84.3449 407.817 86.7723C407.817 89.2913 407.085 91.0317 405.62 91.9935C404.338 92.8179 402.645 93.2759 400.493 93.2759H398.571V80.5435H398.525Z" fill="#2F39BF"/>
<path d="M415.096 77.0627C414.501 77.0627 413.997 77.2917 413.631 77.6581C413.219 78.0703 413.036 78.5283 413.036 79.1237C413.036 79.7192 413.265 80.223 413.631 80.6352C414.043 81.0474 414.546 81.2306 415.142 81.2306C415.737 81.2306 416.24 81.0016 416.652 80.6352C417.064 80.223 417.247 79.7192 417.247 79.1237C417.247 78.5283 417.018 78.0245 416.652 77.6581C416.194 77.2459 415.691 77.0627 415.096 77.0627Z" fill="#2F39BF"/>
<path d="M416.744 82.9709H413.356V96.5278H416.744V82.9709Z" fill="#2F39BF"/>
<path d="M428.554 84.1157C427.547 83.1997 426.403 82.6501 425.121 82.6501C423.244 82.6501 421.688 83.2913 420.497 84.5737C419.261 85.8562 418.666 87.4592 418.666 89.4286C418.666 91.3522 419.261 92.9552 420.452 94.2834C421.642 95.5658 423.244 96.207 425.121 96.207C426.448 96.207 427.547 95.8406 428.462 95.1078V95.4284C428.462 96.5734 428.142 97.4436 427.547 98.039C426.952 98.6344 426.128 98.955 425.121 98.955C423.564 98.955 422.557 98.3596 421.367 96.7108L419.033 98.955L419.078 99.0466C419.582 99.7336 420.36 100.421 421.367 101.108C422.374 101.749 423.656 102.069 425.167 102.069C427.181 102.069 428.829 101.428 430.019 100.237C431.209 99.0008 431.85 97.352 431.85 95.3368V82.9707H428.508V84.1157H428.554ZM427.639 92.085C427.043 92.772 426.265 93.0926 425.304 93.0926C424.343 93.0926 423.564 92.772 422.969 92.085C422.374 91.398 422.1 90.5278 422.1 89.4286C422.1 88.3294 422.374 87.4134 422.969 86.7264C423.564 86.0394 424.343 85.7188 425.304 85.7188C426.265 85.7188 427.043 86.0394 427.639 86.7264C428.234 87.4134 428.554 88.2836 428.554 89.4286C428.554 90.5278 428.234 91.398 427.639 92.085Z" fill="#2F39BF"/>
<path d="M437.618 82.9709H434.23V96.5278H437.618V82.9709Z" fill="#2F39BF"/>
<path d="M435.97 77.0627C435.375 77.0627 434.871 77.2917 434.505 77.6581C434.093 78.0703 433.91 78.5283 433.91 79.1237C433.91 79.7192 434.139 80.223 434.505 80.6352C434.917 81.0474 435.421 81.2306 436.016 81.2306C436.611 81.2306 437.114 81.0016 437.526 80.6352C437.938 80.223 438.121 79.7192 438.121 79.1237C438.121 78.5283 437.892 78.0245 437.526 77.6581C437.023 77.2459 436.519 77.0627 435.97 77.0627Z" fill="#2F39BF"/>
<path d="M444.896 79.3069H441.555V82.9709H439.632V86.0853H441.6V91.7187C441.6 93.4591 441.967 94.7415 442.653 95.4743C443.34 96.2071 444.576 96.5735 446.315 96.5735C446.865 96.5735 447.414 96.5735 447.963 96.5277H448.101V93.4133L446.91 93.4591C446.086 93.4591 445.537 93.3217 445.308 93.0469C445.034 92.7721 444.896 92.1767 444.896 91.2607V86.0853H448.055V82.9709H444.896V79.3069V79.3069Z" fill="#2F39BF"/>
<path d="M466.594 77.2917H463.207V96.5278H466.594V77.2917Z" fill="#2F39BF"/>
<path d="M500.011 91.673C499.416 92.36 498.775 92.9554 498.317 93.276C497.859 93.5966 497.264 93.734 496.532 93.734C495.525 93.734 494.701 93.3676 494.06 92.6348C493.419 91.902 493.053 90.9402 493.053 89.7952C493.053 88.6502 493.373 87.6884 494.014 86.9556C494.655 86.2228 495.479 85.8564 496.486 85.8564C497.585 85.8564 498.729 86.5434 499.736 87.6884L501.979 85.5358C500.514 83.6121 498.638 82.7419 496.395 82.7419C494.518 82.7419 492.916 83.4289 491.588 84.7571C490.261 86.0854 489.62 87.78 489.62 89.7952C489.62 91.8104 490.306 93.505 491.588 94.8332C492.916 96.1614 494.518 96.8484 496.395 96.8484C498.866 96.8484 500.835 95.795 502.208 93.8256L500.011 91.673Z" fill="#2F39BF"/>
<path d="M514.11 84.8486C513.606 84.1615 512.966 83.6119 512.142 83.2455C511.318 82.8333 510.402 82.6501 509.349 82.6501C507.427 82.6501 505.916 83.3371 504.726 84.757C503.581 86.131 503.032 87.8256 503.032 89.8408C503.032 91.9018 503.673 93.5964 504.909 94.8788C506.145 96.1612 507.793 96.8024 509.807 96.8024C512.096 96.8024 513.973 95.8864 515.392 94.0544L515.483 93.9628L513.24 91.8102C513.057 92.0392 512.737 92.3598 512.462 92.5888C512.142 92.9094 511.821 93.1384 511.455 93.3216C510.951 93.5964 510.356 93.688 509.715 93.688C508.754 93.688 507.976 93.4132 507.381 92.8636C506.832 92.3598 506.511 91.6728 506.42 90.8026H515.437L515.483 89.566C515.483 88.6958 515.346 87.8256 515.117 87.047C514.934 86.2684 514.568 85.5356 514.11 84.8486ZM506.648 88.0546C506.832 87.4134 507.106 86.8638 507.518 86.4516C507.976 85.9936 508.571 85.7646 509.303 85.7646C510.127 85.7646 510.768 85.9936 511.18 86.4516C511.592 86.8638 511.821 87.4134 511.867 88.0546H506.648Z" fill="#2F39BF"/>
<path d="M527.11 83.9783C526.058 83.1081 524.639 82.6501 522.853 82.6501C521.709 82.6501 520.656 82.8791 519.695 83.3829C518.825 83.8409 517.955 84.5738 517.406 85.5356L517.452 85.5814L519.649 87.6882C520.564 86.2684 521.526 85.7646 522.853 85.7646C523.586 85.7646 524.135 85.9478 524.593 86.3142C525.051 86.6806 525.279 87.1844 525.279 87.7798V88.421C524.455 88.1462 523.586 88.0546 522.762 88.0546C521.068 88.0546 519.695 88.4668 518.642 89.2454C517.589 90.024 517.085 91.169 517.085 92.6346C517.085 93.917 517.543 94.9246 518.413 95.7032C519.283 96.436 520.381 96.8024 521.709 96.8024C522.991 96.8024 524.227 96.2986 525.325 95.3826V96.4818H528.667V87.7798C528.667 86.131 528.163 84.8486 527.11 83.9783ZM521.068 91.3064C521.434 91.0316 521.984 90.8942 522.67 90.8942C523.494 90.8942 524.364 91.0774 525.234 91.398V92.7262C524.501 93.4132 523.494 93.7796 522.304 93.7796C521.709 93.7796 521.251 93.6422 520.931 93.3674C520.61 93.0926 520.473 92.772 520.473 92.3598C520.519 91.9476 520.702 91.5812 521.068 91.3064Z" fill="#2F39BF"/>
<path d="M541.347 84.2532C540.386 83.1997 539.058 82.6501 537.364 82.6501C536.037 82.6501 534.938 83.0165 534.114 83.7951V82.9707H530.773V96.5276H534.16V89.0164C534.16 88.0088 534.389 87.1844 534.892 86.589C535.35 85.9936 536.037 85.7188 536.907 85.7188C537.685 85.7188 538.28 85.9478 538.692 86.4974C539.104 87.0012 539.333 87.734 539.333 88.65V96.4818H542.72V88.65C542.766 86.7722 542.262 85.3066 541.347 84.2532Z" fill="#2F39BF"/>
<path d="M459.499 83.9783C458.446 83.1081 457.027 82.6501 455.242 82.6501C454.097 82.6501 453.044 82.8791 452.083 83.3829C451.213 83.8409 450.344 84.5738 449.794 85.5356L449.84 85.5814L452.037 87.6882C452.953 86.2684 453.914 85.7646 455.242 85.7646C455.974 85.7646 456.523 85.9478 456.981 86.3142C457.439 86.6806 457.668 87.1844 457.668 87.7798V88.421C456.844 88.1462 455.974 88.0546 455.15 88.0546C453.456 88.0546 452.083 88.4668 451.03 89.2454C449.977 90.024 449.474 91.169 449.474 92.6346C449.474 93.917 449.932 94.9246 450.801 95.7032C451.671 96.436 452.77 96.8024 454.097 96.8024C455.379 96.8024 456.615 96.2986 457.714 95.3826V96.4818H461.055V87.7798C461.055 86.131 460.552 84.8486 459.499 83.9783ZM453.456 91.3064C453.823 91.0316 454.372 90.8942 455.059 90.8942C455.883 90.8942 456.752 91.0774 457.622 91.398V92.7262C456.89 93.4132 455.883 93.7796 454.692 93.7796C454.097 93.7796 453.639 93.6422 453.319 93.3674C452.999 93.0926 452.861 92.772 452.861 92.3598C452.907 91.9476 453.09 91.5812 453.456 91.3064Z" fill="#2F39BF"/>
<path d="M478.359 96.8025C472.911 96.8025 468.471 92.3599 468.471 86.9097C468.471 81.4595 472.911 77.0168 478.359 77.0168C483.806 77.0168 488.246 81.4595 488.246 86.9097C488.246 92.3599 483.852 96.8025 478.359 96.8025ZM478.359 80.4519C474.834 80.4519 471.95 83.3373 471.95 86.8639C471.95 90.3905 474.834 93.2759 478.359 93.2759C481.883 93.2759 484.767 90.3905 484.767 86.8639C484.767 83.3373 481.929 80.4519 478.359 80.4519Z" fill="#2F39BF"/>
<path d="M375.12 96.6928C374.192 96.6928 373.451 96.3995 372.896 95.8128V96.5168H371.104V85.3008H372.928V89.2528C373.525 88.7408 374.256 88.4848 375.12 88.4848C376.24 88.4848 377.157 88.8742 377.872 89.6528C378.587 90.4315 378.944 91.4128 378.944 92.5968C378.944 93.7808 378.587 94.7622 377.872 95.5408C377.147 96.3088 376.229 96.6928 375.12 96.6928ZM373.456 94.3888C373.829 94.8582 374.341 95.0928 374.992 95.0928C375.643 95.0928 376.155 94.8582 376.528 94.3888C376.901 93.9195 377.088 93.3222 377.088 92.5968C377.088 91.8715 376.901 91.2742 376.528 90.8048C376.155 90.3355 375.643 90.1008 374.992 90.1008C374.341 90.1008 373.829 90.3355 373.456 90.8048C373.083 91.2742 372.896 91.8715 372.896 92.5968C372.896 93.3222 373.083 93.9195 373.456 94.3888ZM387.948 88.6768L383.564 99.6208H381.644L382.86 96.6128L379.756 88.6768H381.836L383.884 94.3408L385.964 88.6768H387.948Z" fill="#2F39BF"/>
</svg>
