<?xml version="1.0" encoding="utf-8" ?>
<svg xmlns="http://www.w3.org/2000/svg" xmlns:xlink="http://www.w3.org/1999/xlink" width="962" height="1201">
	<defs>
		<linearGradient id="gradient_0" gradientUnits="userSpaceOnUse" x1="222.68976" y1="725.63477" x2="599.55969" y2="680.16766">
			<stop offset="0" stop-color="#3A17C8"/>
			<stop offset="1" stop-color="#7759FF"/>
		</linearGradient>
	</defs>
	<path fill="url(#gradient_0)" d="M148.434 0.58843C264.737 1.25727 383.148 39.3957 481.017 101.424C493.387 93.6705 506.404 84.7152 519.716 78.7764C525.513 73.9468 564.69 55.7941 572.849 52.9863C573.069 52.9918 573.29 53 573.511 53.0028C576.356 53.0382 581.007 51.3943 583.375 52.1088C582.85 54.731 581.305 59.1579 582.924 61.4976C584.584 63.8965 588.115 64.519 589.656 66.516C590.482 67.587 589.738 67.7564 590 68.7549C590.227 69.6193 595.674 74.5884 596.651 75.6743C604.588 84.4884 611.896 93.7084 619.54 102.754C617.894 104.657 617.378 103.335 617.398 106.45Q597.335 114.326 577.906 123.655Q558.477 132.985 539.786 143.717Q547.268 149.727 554.57 155.953Q561.872 162.18 568.987 168.619Q576.103 175.059 583.026 181.704Q589.949 188.35 596.673 195.196Q603.397 202.042 609.917 209.083Q616.437 216.124 622.747 223.354Q629.057 230.584 635.152 237.996Q641.246 245.409 647.12 252.997C652.456 259.895 659.089 267.297 663.133 274.94C674.704 289.649 684.681 306.678 694.112 322.823C697.593 328.782 701.688 334.974 704.332 341.325C714.436 358.174 722.679 376.884 730.414 394.95Q733.646 402.473 736.685 410.076Q739.725 417.679 742.57 425.357Q745.415 433.035 748.063 440.783Q750.712 448.53 753.162 456.343Q755.612 464.156 757.863 472.028Q760.114 479.901 762.163 487.828Q764.213 495.755 766.06 503.732Q767.906 511.708 769.55 519.73Q771.193 527.751 772.631 535.811Q774.07 543.872 775.303 551.966Q776.536 560.061 777.562 568.184Q778.588 576.307 779.407 584.454Q780.226 592.6 780.838 600.765Q781.449 608.93 781.852 617.108Q782.256 625.286 782.451 633.471Q782.646 641.656 782.632 649.844C782.649 669.806 782.107 689.719 780.034 709.588C779.911 717.945 778.498 726.529 777.41 734.827Q775.398 750.067 772.678 765.196Q769.958 780.325 766.535 795.311Q763.112 810.297 758.994 825.108Q754.876 839.918 750.071 854.52C746.871 864.216 743.754 874.565 739.438 883.789C737.774 891.581 733.274 899.83 730.138 907.185Q726.214 916.36 722.009 925.409Q717.803 934.458 713.32 943.372Q708.837 952.287 704.081 961.059Q699.324 969.832 694.299 978.453Q689.274 987.074 683.985 995.535Q678.696 1004 673.148 1012.29Q667.599 1020.59 661.798 1028.7Q655.996 1036.82 649.946 1044.76C647.716 1047.67 641.457 1057.19 638.805 1058.72C638.604 1058.83 638.368 1058.88 638.15 1058.96C634.936 1066.22 626.967 1073.45 621.623 1079.48Q615.185 1086.84 608.529 1093.99Q601.872 1101.15 595.003 1108.11Q588.134 1115.06 581.059 1121.81Q573.983 1128.55 566.708 1135.08Q559.433 1141.61 551.964 1147.92Q544.495 1154.22 536.84 1160.3Q529.184 1166.38 521.349 1172.23Q513.514 1178.07 505.507 1183.68C498.767 1188.43 488.704 1196.28 481.693 1199.92L480.724 1199.89C475.719 1198.12 441.598 1174.16 439.384 1170.45C438.828 1170.4 438.614 1170.42 438.042 1170.15C434.701 1168.62 430.85 1164.83 427.91 1162.51Q407.236 1146.19 387.904 1128.3Q368.571 1110.41 350.698 1091.06C347.559 1087.64 342.5 1083.34 340.717 1079.06C340.451 1078.96 340.169 1078.89 339.92 1078.75C337.352 1077.31 330.187 1067.6 327.836 1064.73Q318.098 1052.92 308.925 1040.66Q299.752 1028.4 291.164 1015.72Q282.577 1003.05 274.594 989.982Q266.612 976.917 259.251 963.492C254.047 954.002 248.437 944.256 244.382 934.233C238.149 924.821 228.302 899.03 223.664 887.107Q220.348 878.596 217.271 869.996Q214.195 861.396 211.361 852.713Q208.527 844.03 205.938 835.27Q203.348 826.511 201.006 817.683Q198.663 808.855 196.57 799.964Q194.476 791.074 192.632 782.128Q190.788 773.182 189.197 764.188Q187.605 755.194 186.266 746.159Q184.927 737.124 183.842 728.055Q182.757 718.986 181.927 709.89Q181.096 700.795 180.522 691.679Q179.947 682.563 179.629 673.435Q179.31 664.307 179.247 655.174Q179.185 646.041 179.379 636.909Q179.573 627.777 180.022 618.655Q180.472 609.532 181.178 600.426Q181.654 594.317 182.244 588.218Q182.835 582.119 183.54 576.032Q184.245 569.945 185.065 563.873Q185.885 557.8 186.818 551.744Q187.752 545.688 188.8 539.651Q189.847 533.614 191.008 527.597Q192.169 521.58 193.444 515.587Q194.718 509.593 196.104 503.624Q197.491 497.656 198.989 491.714Q200.488 485.772 202.098 479.86Q203.708 473.948 205.43 468.067Q207.151 462.186 208.982 456.338Q210.814 450.491 212.755 444.679Q214.697 438.867 216.747 433.092Q218.797 427.318 220.956 421.583Q223.114 415.848 225.38 410.154Q227.647 404.461 230.019 398.811Q232.392 393.162 234.871 387.557Q237.35 381.953 239.934 376.397Q242.517 370.84 245.205 365.334Q247.893 359.827 250.684 354.371Q253.475 348.916 256.369 343.514Q259.262 338.112 262.256 332.766Q265.25 327.419 268.345 322.13Q271.439 316.841 274.633 311.61Q277.826 306.38 281.117 301.211Q284.409 296.042 287.797 290.936Q291.185 285.829 294.668 280.788Q298.152 275.746 301.729 270.771Q305.307 265.795 308.978 260.888Q312.648 255.981 316.411 251.144Q320.173 246.307 324.026 241.541C338.353 223.822 359.463 198.829 376.446 184.31C380.401 177.863 414.15 150.221 422.125 143.643C405.565 133.617 387.665 125.004 370.01 117.129Q362.975 113.985 355.859 111.029Q348.743 108.072 341.551 105.306Q334.359 102.539 327.096 99.9645Q319.833 97.3897 312.505 95.0084Q305.176 92.6271 297.787 90.4409Q290.398 88.2548 282.953 86.2655Q275.509 84.2761 268.014 82.4849Q260.519 80.6936 252.979 79.1018Q245.44 77.5099 237.86 76.1186Q230.281 74.7273 222.668 73.5375Q215.054 72.3477 207.412 71.3602Q199.769 70.3727 192.103 69.5883Q184.438 68.8038 176.753 68.2229Q169.069 67.6421 161.373 67.2652Q153.676 66.8883 145.972 66.7157Q138.268 66.543 130.562 66.5748Q116.213 66.5954 101.882 67.3216Q87.5505 68.0478 73.2725 69.4779Q58.9946 70.9079 44.8042 73.0383Q30.6139 75.1687 16.5456 77.9944C11.364 56.4159 5.02755 34.9025 0.608322 13.1674C40.3001 6.84705 74.7456 0.708159 115.525 0.587522C122.409 0.594428 129.586 0.166815 136.432 0.685406C140.432 0.646967 144.435 0.571016 148.434 0.58843ZM336.954 352.817C326.464 398.157 330.504 441.024 355.492 481.142C362.416 492.26 370.717 502.525 379.016 512.637C409.116 549.314 443.524 581.05 481.037 609.956C520.836 578.682 550.639 550.702 583.526 512.102C588.062 504.467 597.534 494.965 603.072 486.758Q604.723 484.352 606.285 481.888Q607.847 479.423 609.319 476.904Q610.791 474.385 612.171 471.814Q613.55 469.243 614.836 466.624Q616.122 464.005 617.312 461.341Q618.501 458.677 619.594 455.971Q620.687 453.266 621.681 450.523Q622.675 447.78 623.568 445.002Q624.462 442.225 625.255 439.417Q626.047 436.609 626.738 433.774Q627.428 430.94 628.015 428.082Q628.603 425.224 629.086 422.347Q629.569 419.469 629.948 416.576Q630.327 413.684 630.6 410.779Q630.874 407.874 631.042 404.961Q631.21 402.049 631.273 399.132C631.402 390.774 630.424 382.631 629.987 374.315C625.336 348.067 616.774 324.377 601.053 302.62C595.328 294.698 588.792 287.377 583.138 279.403C579.212 275.964 575.886 271.339 572.472 267.364C566.616 260.546 560.623 253.724 554.394 247.245Q537.387 229.574 519.018 213.323Q500.648 197.072 481.035 182.346Q473.887 187.705 466.903 193.276Q459.92 198.848 453.107 204.626Q446.294 210.405 439.658 216.386Q433.022 222.367 426.569 228.545Q420.116 234.722 413.851 241.091Q407.587 247.46 401.517 254.015Q395.447 260.569 389.577 267.303Q383.707 274.037 378.042 280.944C368.247 292.971 358.866 305.06 351.089 318.52C346.581 326.323 343.324 334.794 340.277 343.248C339.218 346.187 338.407 350.146 336.954 352.817ZM603.399 590.024C581.273 615.76 556.31 630.624 537.758 660.82Q535.757 664.095 533.917 667.462Q532.076 670.83 530.4 674.282Q528.724 677.735 527.216 681.264Q525.709 684.793 524.373 688.391Q523.038 691.989 521.877 695.646Q520.717 699.304 519.734 703.014Q518.752 706.724 517.949 710.476Q517.147 714.229 516.526 718.016C514.234 732.108 514.463 746.079 514.464 760.304L514.481 802.683L514.464 934.452C514.456 956.632 515.317 979.191 514.359 1001.32C514.887 1012.01 514.499 1022.89 514.486 1033.6L514.405 1091.52C514.624 1091.48 514.845 1091.44 515.063 1091.39C518.39 1090.56 532.829 1075.62 536.228 1072.35Q544.109 1064.79 551.703 1056.94Q559.297 1049.09 566.593 1040.97Q573.889 1032.84 580.877 1024.45Q587.865 1016.06 594.535 1007.41Q601.206 998.767 607.549 989.878Q613.893 980.99 619.9 971.871Q625.908 962.752 631.572 953.415Q637.235 944.079 642.547 934.538C650.174 920.941 656.397 906.716 663.74 893.008C665.949 885.317 670.535 877.068 673.617 869.614Q681.427 850.279 687.817 830.429Q692.38 816.32 696.223 801.998Q700.066 787.676 703.179 773.178Q706.291 758.68 708.666 744.042Q711.041 729.405 712.671 714.667C714.033 702.938 714.26 691.117 715.578 679.4C715.664 665.598 716.462 651.857 716.112 638.031C714.744 583.905 706.414 528.557 689.64 476.993C667.25 515.699 634.934 558.41 603.399 590.024ZM447.652 1029.5C446.587 960.016 447.507 890.37 447.503 820.871L447.512 768.959C447.538 748.041 448.229 727.548 443.369 707.024Q442.719 704.31 441.975 701.62Q441.231 698.93 440.395 696.267Q439.558 693.604 438.629 690.972Q437.7 688.34 436.68 685.742Q435.661 683.144 434.552 680.583Q433.442 678.022 432.245 675.5Q431.047 672.979 429.763 670.501Q428.479 668.023 427.109 665.591Q425.739 663.159 424.286 660.776Q422.833 658.393 421.297 656.062Q419.762 653.731 418.147 651.455Q416.532 649.178 414.839 646.959Q413.145 644.74 411.376 642.581Q409.607 640.422 407.763 638.326Q405.92 636.23 404.005 634.199Q402.09 632.168 400.106 630.205C390.118 620.475 379.48 611.432 369.646 601.532C333.216 564.856 297.953 521.686 272.31 476.732C264.194 504.284 257.371 531.864 252.917 560.262Q251.993 566.145 251.19 572.045Q250.386 577.946 249.703 583.862Q249.02 589.777 248.458 595.706Q247.896 601.634 247.455 607.573Q247.014 613.511 246.695 619.458Q246.375 625.404 246.177 631.356Q245.979 637.307 245.902 643.262Q245.825 649.216 245.87 655.171Q245.915 661.126 246.082 667.078Q246.248 673.031 246.536 678.979Q246.824 684.927 247.233 690.868Q247.642 696.809 248.173 702.74Q248.703 708.671 249.355 714.59Q250.006 720.51 250.778 726.414Q251.55 732.319 252.443 738.207Q253.335 744.094 254.348 749.963Q255.36 755.831 256.492 761.677Q257.625 767.524 258.876 773.346Q260.127 779.168 261.497 784.964Q262.866 790.759 264.354 796.525Q265.842 802.291 267.447 808.026Q269.052 813.76 270.774 819.461Q272.496 825.162 274.334 830.826Q276.172 836.491 278.125 842.117Q280.078 847.742 282.145 853.327Q284.213 858.912 286.394 864.453Q288.575 869.994 290.869 875.49Q293.163 880.986 295.568 886.434Q297.974 891.881 300.49 897.279Q303.006 902.676 305.632 908.021Q308.257 913.367 310.992 918.657Q313.726 923.947 316.568 929.181Q324.958 944.624 334.251 959.542Q343.544 974.459 353.707 988.799Q363.87 1003.14 374.868 1016.85Q385.866 1030.56 397.659 1043.59C400.733 1047.01 407.447 1055.65 411.275 1057.63C414.532 1062.36 443.424 1090.41 447.588 1091.38C447.553 1070.76 447.222 1050.11 447.652 1029.5Z"/>
	<path fill="#2527A8" d="M148.434 0.58843C264.737 1.25727 383.148 39.3957 481.017 101.424C493.387 93.6705 506.404 84.7152 519.716 78.7764C525.513 73.9468 564.69 55.7941 572.849 52.9863C573.069 52.9918 573.29 53 573.511 53.0028C576.356 53.0382 581.007 51.3943 583.375 52.1088C582.85 54.731 581.305 59.1579 582.924 61.4976C584.584 63.8965 588.115 64.519 589.656 66.516C590.482 67.587 589.738 67.7564 590 68.7549C590.227 69.6193 595.674 74.5884 596.651 75.6743C604.588 84.4884 611.896 93.7084 619.54 102.754C617.894 104.657 617.378 103.335 617.398 106.45Q597.335 114.326 577.906 123.655Q558.477 132.985 539.786 143.717Q547.268 149.727 554.57 155.953Q561.872 162.18 568.987 168.619Q576.103 175.059 583.026 181.704Q589.949 188.35 596.673 195.196Q603.397 202.042 609.917 209.083Q616.437 216.124 622.747 223.354Q629.057 230.584 635.152 237.996Q641.246 245.409 647.12 252.997C652.456 259.895 659.089 267.297 663.133 274.94C674.704 289.649 684.681 306.678 694.112 322.823C697.593 328.782 701.688 334.974 704.332 341.325C700.453 338.901 692.476 322.694 690.019 317.949L689.339 318.255C681.91 321.516 672.454 322.358 664.513 323.979C652.668 326.397 640.233 329.54 628.228 330.821C625.298 331.133 623.763 334.363 620.667 334.685C622.028 344.654 633.184 364.799 629.987 374.315C625.336 348.067 616.774 324.377 601.053 302.62C595.328 294.698 588.792 287.377 583.138 279.403C579.212 275.964 575.886 271.339 572.472 267.364C566.616 260.546 560.623 253.724 554.394 247.245Q537.387 229.574 519.018 213.323Q500.648 197.072 481.035 182.346Q473.887 187.705 466.903 193.276Q459.92 198.848 453.107 204.626Q446.294 210.405 439.658 216.386Q433.022 222.367 426.569 228.545Q420.116 234.722 413.851 241.091Q407.587 247.46 401.517 254.015Q395.447 260.569 389.577 267.303Q383.707 274.037 378.042 280.944C368.247 292.971 358.866 305.06 351.089 318.52C346.581 326.323 343.324 334.794 340.277 343.248C339.218 346.187 338.407 350.146 336.954 352.817L336.367 352.189C322.272 363.766 312.408 385.413 302.498 400.306C299.768 404.408 295.807 407.285 293.414 411.715C288.52 420.776 282.864 429.618 277.346 438.276C274.446 442.825 270.834 446.953 268.224 451.69C264.531 458.394 242.446 513.254 243.515 516.855Q243.804 517.814 244.144 518.757C242.297 521.56 239.699 524.828 238.521 527.941C237.709 530.087 237.823 532.561 237.122 534.789C234.952 541.679 227.86 555.603 228.85 562.391C229.007 563.465 229.839 563.709 229.92 565.026L228.259 565.463C226.842 569.768 224.993 574.989 224.319 579.436C223.184 586.923 224.033 594.546 223.373 602.03C223.032 605.903 221.557 610.218 221.564 613.991C221.566 614.887 221.908 615.426 222.246 616.21C222.603 617.036 222.898 617.899 223.239 618.735C222.565 620.153 220.789 621.654 221.113 623.244C221.631 625.787 224.275 628.436 223.084 631.065C222.615 632.102 222.128 633.146 222.003 634.292C221.653 637.506 221.507 655.857 222.354 657.979C223.167 660.015 224.938 662.55 224.668 664.758C224.13 665.511 223.602 666.25 223.026 666.974C223.085 667.183 223.147 667.392 223.203 667.601C224.721 673.263 222.697 679.347 224.037 684.647C224.62 686.949 227.15 688.822 226.415 691.076L224.64 690.952C224.418 692.584 224.907 693.368 225.489 694.889L226.145 695.035C226.273 694.028 226.419 693.037 226.605 692.039C227.092 694.134 226.622 696.345 226.838 698.487C227.105 701.132 228.356 704.338 228.244 706.894C228.201 707.859 227.795 708.868 227.536 709.785C227.266 710.745 227.145 711.891 227.643 712.818C228.037 713.549 228.11 713.574 228.608 714.136C229.397 714.045 229.818 713.817 230.521 714.229C228.904 718.17 232.048 720.25 230.809 723.86L230.24 723.858L229.619 723.119C228.453 725.905 233.161 739.07 234.243 741.835C235.588 745.271 234.085 746.74 234.377 749.94C234.82 754.781 236.895 759.181 237.626 763.819C238.599 769.994 236.902 776.958 239.253 782.826L238.599 784.07L239.574 785.639C238.062 788.893 243.387 840.153 244.18 847.666C244.344 849.218 245.04 850.715 245.178 852.224C245.904 860.195 247.251 868.139 248.244 876.102C248.436 877.637 248.396 883.502 248.679 884.283C248.783 884.573 248.898 884.859 249.006 885.148C250.387 888.851 250.15 893.267 250.374 897.192C250.69 902.72 251.792 908.346 251.714 913.865C251.622 920.391 251.194 927.062 250.976 933.607C250.896 936.015 250.414 937.983 250.786 940.432L249.771 941.155C248.181 940.541 247.798 939.489 247.101 937.934Q246.296 936.09 245.54 934.226C244.61 934.049 244.986 933.962 244.382 934.233C238.149 924.821 228.302 899.03 223.664 887.107Q220.348 878.596 217.271 869.996Q214.195 861.396 211.361 852.713Q208.527 844.03 205.938 835.27Q203.348 826.511 201.006 817.683Q198.663 808.855 196.57 799.964Q194.476 791.074 192.632 782.128Q190.788 773.182 189.197 764.188Q187.605 755.194 186.266 746.159Q184.927 737.124 183.842 728.055Q182.757 718.986 181.927 709.89Q181.096 700.795 180.522 691.679Q179.947 682.563 179.629 673.435Q179.31 664.307 179.247 655.174Q179.185 646.041 179.379 636.909Q179.573 627.777 180.022 618.655Q180.472 609.532 181.178 600.426Q181.654 594.317 182.244 588.218Q182.835 582.119 183.54 576.032Q184.245 569.945 185.065 563.873Q185.885 557.8 186.818 551.744Q187.752 545.688 188.8 539.651Q189.847 533.614 191.008 527.597Q192.169 521.58 193.444 515.587Q194.718 509.593 196.104 503.624Q197.491 497.656 198.989 491.714Q200.488 485.772 202.098 479.86Q203.708 473.948 205.43 468.067Q207.151 462.186 208.982 456.338Q210.814 450.491 212.755 444.679Q214.697 438.867 216.747 433.092Q218.797 427.318 220.956 421.583Q223.114 415.848 225.38 410.154Q227.647 404.461 230.019 398.811Q232.392 393.162 234.871 387.557Q237.35 381.953 239.934 376.397Q242.517 370.84 245.205 365.334Q247.893 359.827 250.684 354.371Q253.475 348.916 256.369 343.514Q259.262 338.112 262.256 332.766Q265.25 327.419 268.345 322.13Q271.439 316.841 274.633 311.61Q277.826 306.38 281.117 301.211Q284.409 296.042 287.797 290.936Q291.185 285.829 294.668 280.788Q298.152 275.746 301.729 270.771Q305.307 265.795 308.978 260.888Q312.648 255.981 316.411 251.144Q320.173 246.307 324.026 241.541C338.353 223.822 359.463 198.829 376.446 184.31C380.401 177.863 414.15 150.221 422.125 143.643C405.565 133.617 387.665 125.004 370.01 117.129Q362.975 113.985 355.859 111.029Q348.743 108.072 341.551 105.306Q334.359 102.539 327.096 99.9645Q319.833 97.3897 312.505 95.0084Q305.176 92.6271 297.787 90.4409Q290.398 88.2548 282.953 86.2655Q275.509 84.2761 268.014 82.4849Q260.519 80.6936 252.979 79.1018Q245.44 77.5099 237.86 76.1186Q230.281 74.7273 222.668 73.5375Q215.054 72.3477 207.412 71.3602Q199.769 70.3727 192.103 69.5883Q184.438 68.8038 176.753 68.2229Q169.069 67.6421 161.373 67.2652Q153.676 66.8883 145.972 66.7157Q138.268 66.543 130.562 66.5748Q116.213 66.5954 101.882 67.3216Q87.5505 68.0478 73.2725 69.4779Q58.9946 70.9079 44.8042 73.0383Q30.6139 75.1687 16.5456 77.9944C11.364 56.4159 5.02755 34.9025 0.608322 13.1674C40.3001 6.84705 74.7456 0.708159 115.525 0.587522C122.409 0.594428 129.586 0.166815 136.432 0.685406C140.432 0.646967 144.435 0.571016 148.434 0.58843Z"/>
	<defs>
		<linearGradient id="gradient_1" gradientUnits="userSpaceOnUse" x1="137.88095" y1="19.442152" x2="382.0658" y2="96.52552">
			<stop offset="0" stop-color="#171138"/>
			<stop offset="1" stop-color="#032D88"/>
		</linearGradient>
	</defs>
	<path fill="url(#gradient_1)" d="M148.434 0.58843C264.737 1.25727 383.148 39.3957 481.017 101.424C493.387 93.6705 506.404 84.7152 519.716 78.7764C518.083 81.1171 484.767 100.916 481.382 101.775C481.223 101.815 480.407 101.972 480.143 101.899C475.762 100.694 466.44 93.6934 461.845 90.9663Q438.691 77.3236 414.507 65.6027C409.113 62.9575 403.14 59.391 397.299 58.035C395.435 57.6023 393.51 57.272 392.079 58.7245L393.252 60.4563C388.733 71.2386 378.003 79.9318 370.801 89.1616C366.924 94.1307 364.739 100.605 360.347 105.012L359.167 104.809C358.659 103.728 358.6 103.804 358.99 102.687C357.317 103.778 354.565 105.351 353.852 107.319C353.79 107.488 353.778 107.671 353.741 107.848C354.738 107.759 355.45 107.393 356.344 106.965L356.628 107.706C356.086 108.036 355.696 108.275 355.08 108.451L355.159 108.746L354.605 109.276L355.304 108.924C366.256 115.716 418.196 136.129 422.571 143.702C421.841 148 406.918 156.395 403.337 161.137C400.352 165.089 394.471 168.736 390.668 172.131C386.186 176.133 382.065 180.533 377.575 184.555L376.767 184.619L376.446 184.31C380.401 177.863 414.15 150.221 422.125 143.643C405.565 133.617 387.665 125.004 370.01 117.129Q362.975 113.985 355.859 111.029Q348.743 108.072 341.551 105.306Q334.359 102.539 327.096 99.9645Q319.833 97.3897 312.505 95.0084Q305.176 92.6271 297.787 90.4409Q290.398 88.2548 282.953 86.2655Q275.509 84.2761 268.014 82.4849Q260.519 80.6936 252.979 79.1018Q245.44 77.5099 237.86 76.1186Q230.281 74.7273 222.668 73.5375Q215.054 72.3477 207.412 71.3602Q199.769 70.3727 192.103 69.5883Q184.438 68.8038 176.753 68.2229Q169.069 67.6421 161.373 67.2652Q153.676 66.8883 145.972 66.7157Q138.268 66.543 130.562 66.5748Q116.213 66.5954 101.882 67.3216Q87.5505 68.0478 73.2725 69.4779Q58.9946 70.9079 44.8042 73.0383Q30.6139 75.1687 16.5456 77.9944C11.364 56.4159 5.02755 34.9025 0.608322 13.1674C40.3001 6.84705 74.7456 0.708159 115.525 0.587522C122.409 0.594428 129.586 0.166815 136.432 0.685406C140.432 0.646967 144.435 0.571016 148.434 0.58843Z"/>
	<path fill="#130B50" d="M115.525 0.587522C122.409 0.594428 129.586 0.166815 136.432 0.685406C136.562 0.734406 136.691 0.78701 136.822 0.832408C139.18 1.64782 141.71 1.56122 144.177 1.61257C145.238 4.40819 141.113 11.2875 140.082 14.2724C139.26 16.6509 139.861 19.8927 139.788 22.4034C139.652 27.1061 138.618 34.0822 136.863 38.4721C135.908 40.8605 134.026 42.8649 133.057 45.2274C132.456 46.6919 133.249 48.0102 132.928 49.5193C131.981 53.9637 128.233 59.0843 126.528 63.5195C127.148 64.178 127.642 64.5538 128.447 64.9668L128.589 65.7277L118.818 65.8373L119.424 65.1078L117.973 65.8986C121.867 65.9155 126.857 65.457 130.562 66.5748Q116.213 66.5954 101.882 67.3216Q87.5505 68.0478 73.2725 69.4779Q58.9946 70.9079 44.8042 73.0383Q30.6139 75.1687 16.5456 77.9944C11.364 56.4159 5.02755 34.9025 0.608322 13.1674C40.3001 6.84705 74.7456 0.708159 115.525 0.587522Z"/>
	<path fill="#2477DD" d="M583.138 279.403C583.613 279.413 584.335 279.573 584.742 279.822C587.509 281.511 602.15 302.03 604.827 306.054C607.761 310.464 610.716 317.486 614.904 320.617C620.547 317.247 646.5 307.877 652.821 306.606C656.366 305.894 668.815 305.899 670.975 304.797C673.595 303.46 677.744 303.497 679.745 301.569C675.004 292.228 666.696 284.475 662.264 275.144L663.133 274.94C674.704 289.649 684.681 306.678 694.112 322.823C697.593 328.782 701.688 334.974 704.332 341.325C700.453 338.901 692.476 322.694 690.019 317.949L689.339 318.255C681.91 321.516 672.454 322.358 664.513 323.979C652.668 326.397 640.233 329.54 628.228 330.821C625.298 331.133 623.763 334.363 620.667 334.685C622.028 344.654 633.184 364.799 629.987 374.315C625.336 348.067 616.774 324.377 601.053 302.62C595.328 294.698 588.792 287.377 583.138 279.403Z"/>
	<path fill="#34CAF7" d="M629.987 374.315C633.184 364.799 622.028 344.654 620.667 334.685C623.763 334.363 625.298 331.133 628.228 330.821C640.233 329.54 652.668 326.397 664.513 323.979C672.454 322.358 681.91 321.516 689.339 318.255L690.019 317.949C692.476 322.694 700.453 338.901 704.332 341.325C714.436 358.174 722.679 376.884 730.414 394.95Q733.646 402.473 736.685 410.076Q739.725 417.679 742.57 425.357Q745.415 433.035 748.063 440.783Q750.712 448.53 753.162 456.343Q755.612 464.156 757.863 472.028Q760.114 479.901 762.163 487.828Q764.213 495.755 766.06 503.732Q767.906 511.708 769.55 519.73Q771.193 527.751 772.631 535.811Q774.07 543.872 775.303 551.966Q776.536 560.061 777.562 568.184Q778.588 576.307 779.407 584.454Q780.226 592.6 780.838 600.765Q781.449 608.93 781.852 617.108Q782.256 625.286 782.451 633.471Q782.646 641.656 782.632 649.844C782.649 669.806 782.107 689.719 780.034 709.588C779.911 717.945 778.498 726.529 777.41 734.827Q775.398 750.067 772.678 765.196Q769.958 780.325 766.535 795.311Q763.112 810.297 758.994 825.108Q754.876 839.918 750.071 854.52C746.871 864.216 743.754 874.565 739.438 883.789C737.891 884.44 737.163 887.224 736.509 888.81C732.182 899.304 729.345 900.864 718.96 905.286C712.153 908.184 705.118 911.278 698.027 913.374C687.323 916.538 676.085 918.54 665.507 921.98C662.915 922.823 660.694 924.573 658.182 925.57C655.759 926.532 652.912 926.867 650.368 927.806C649.947 927.962 648.433 926.985 647.967 926.745L648.388 926.086C651.541 921.078 663.994 897.791 663.74 893.008C665.949 885.317 670.535 877.068 673.617 869.614Q681.427 850.279 687.817 830.429Q692.38 816.32 696.223 801.998Q700.066 787.676 703.179 773.178Q706.291 758.68 708.666 744.042Q711.041 729.405 712.671 714.667C714.033 702.938 714.26 691.117 715.578 679.4C715.664 665.598 716.462 651.857 716.112 638.031C714.744 583.905 706.414 528.557 689.64 476.993C667.25 515.699 634.934 558.41 603.399 590.024C597.53 592.053 594.254 599.238 589.391 602.582C590.143 591.727 586.69 586.846 584.317 577.108C581.858 567.014 575.653 536.423 576.151 527.546C576.543 520.552 582.795 517.54 583.526 512.102C588.062 504.467 597.534 494.965 603.072 486.758Q604.723 484.352 606.285 481.888Q607.847 479.423 609.319 476.904Q610.791 474.385 612.171 471.814Q613.55 469.243 614.836 466.624Q616.122 464.005 617.312 461.341Q618.501 458.677 619.594 455.971Q620.687 453.266 621.681 450.523Q622.675 447.78 623.568 445.002Q624.462 442.225 625.255 439.417Q626.047 436.609 626.738 433.774Q627.428 430.94 628.015 428.082Q628.603 425.224 629.086 422.347Q629.569 419.469 629.948 416.576Q630.327 413.684 630.6 410.779Q630.874 407.874 631.042 404.961Q631.21 402.049 631.273 399.132C631.402 390.774 630.424 382.631 629.987 374.315Z"/>
	<path fill="#2477DD" d="M715.578 679.4C715.689 681.605 715.835 683.781 716.083 685.976L716.41 685.915C716.331 682.119 716.882 678.815 717.053 675.14C717.425 667.126 715.544 634.657 717.236 629.796L718.591 630.639C719.596 630.023 719.619 629.675 720.107 628.581C720.997 629.139 720.863 629.181 721.98 629.182C725.714 629.184 729.666 632.081 733.324 632.922C733.978 633.073 733.742 633.007 734.326 633.481C734.965 634 735.269 634.152 735.987 634.481C738.486 635.627 740.259 637.962 742.775 639.049C752.769 643.367 768.43 647.498 777.009 653.931C777.93 654.621 778.941 654.735 780.045 654.921C781.087 654.551 780.974 654.546 781.618 653.773C784.46 663.368 777.044 705.756 780.034 709.588C779.911 717.945 778.498 726.529 777.41 734.827Q775.398 750.067 772.678 765.196Q769.958 780.325 766.535 795.311Q763.112 810.297 758.994 825.108Q754.876 839.918 750.071 854.52C746.871 864.216 743.754 874.565 739.438 883.789C737.891 884.44 737.163 887.224 736.509 888.81C732.182 899.304 729.345 900.864 718.96 905.286C712.153 908.184 705.118 911.278 698.027 913.374C687.323 916.538 676.085 918.54 665.507 921.98C662.915 922.823 660.694 924.573 658.182 925.57C655.759 926.532 652.912 926.867 650.368 927.806C649.947 927.962 648.433 926.985 647.967 926.745L648.388 926.086C651.541 921.078 663.994 897.791 663.74 893.008C665.949 885.317 670.535 877.068 673.617 869.614Q681.427 850.279 687.817 830.429Q692.38 816.32 696.223 801.998Q700.066 787.676 703.179 773.178Q706.291 758.68 708.666 744.042Q711.041 729.405 712.671 714.667C714.033 702.938 714.26 691.117 715.578 679.4Z"/>
	<path fill="#2527A8" d="M663.74 893.008C663.994 897.791 651.541 921.078 648.388 926.086L647.967 926.745C648.433 926.985 649.947 927.962 650.368 927.806C652.912 926.867 655.759 926.532 658.182 925.57C660.694 924.573 662.915 922.823 665.507 921.98C676.085 918.54 687.323 916.538 698.027 913.374C705.118 911.278 712.153 908.184 718.96 905.286C729.345 900.864 732.182 899.304 736.509 888.81C737.163 887.224 737.891 884.44 739.438 883.789C737.774 891.581 733.274 899.83 730.138 907.185Q726.214 916.36 722.009 925.409Q717.803 934.458 713.32 943.372Q708.837 952.287 704.081 961.059Q699.324 969.832 694.299 978.453Q689.274 987.074 683.985 995.535Q678.696 1004 673.148 1012.29Q667.599 1020.59 661.798 1028.7Q655.996 1036.82 649.946 1044.76C647.716 1047.67 641.457 1057.19 638.805 1058.72C638.604 1058.83 638.368 1058.88 638.15 1058.96C634.936 1066.22 626.967 1073.45 621.623 1079.48Q615.185 1086.84 608.529 1093.99Q601.872 1101.15 595.003 1108.11Q588.134 1115.06 581.059 1121.81Q573.983 1128.55 566.708 1135.08Q559.433 1141.61 551.964 1147.92Q544.495 1154.22 536.84 1160.3Q529.184 1166.38 521.349 1172.23Q513.514 1178.07 505.507 1183.68C498.767 1188.43 488.704 1196.28 481.693 1199.92L480.724 1199.89C475.719 1198.12 441.598 1174.16 439.384 1170.45C438.828 1170.4 438.614 1170.42 438.042 1170.15C434.701 1168.62 430.85 1164.83 427.91 1162.51Q407.236 1146.19 387.904 1128.3Q368.571 1110.41 350.698 1091.06C347.559 1087.64 342.5 1083.34 340.717 1079.06L340.97 1078.55C337.36 1073.28 329.854 1067.84 327.783 1061.99C327.388 1060.87 327.658 1060.84 328.102 1059.83C330.288 1059.24 330.5 1060.75 332.337 1061.23C335.126 1061.97 341.96 1059.66 346.544 1060.87L347.254 1062.77L348.152 1062.98C348.857 1062.41 349.611 1061.74 350.403 1061.3C351.485 1060.7 352.869 1061.1 354.032 1061.28C358.029 1061.88 362.061 1062.79 366.1 1063.05C370.226 1063.31 375.134 1062.52 379.115 1063.36C386.842 1064.99 403.506 1063.3 411.303 1061.24C412.049 1059.91 411.566 1059.09 411.275 1057.63C414.532 1062.36 443.424 1090.41 447.588 1091.38C447.553 1070.76 447.222 1050.11 447.652 1029.5C448.692 1037.2 446.484 1048.22 449.115 1055.09C450.101 1053.4 450.659 1053.29 452.222 1052.31C457.75 1048.84 467.506 1047.78 472.751 1045.01C479.056 1041.69 498.723 1036.78 502.524 1032.61C504.619 1030.31 506.48 1031.81 508.954 1030.74C510.127 1030.24 509.124 1030.54 510.107 1030.25C510.906 1030.02 511.55 1029.89 512.262 1029.43C513.158 1028.84 513.761 1005.5 514.264 1001.97L514.359 1001.32C514.887 1012.01 514.499 1022.89 514.486 1033.6L514.405 1091.52C514.624 1091.48 514.845 1091.44 515.063 1091.39C518.39 1090.56 532.829 1075.62 536.228 1072.35Q544.109 1064.79 551.703 1056.94Q559.297 1049.09 566.593 1040.97Q573.889 1032.84 580.877 1024.45Q587.865 1016.06 594.535 1007.41Q601.206 998.767 607.549 989.878Q613.893 980.99 619.9 971.871Q625.908 962.752 631.572 953.415Q637.235 944.079 642.547 934.538C650.174 920.941 656.397 906.716 663.74 893.008Z"/>
	<path fill="#130B50" d="M439.384 1170.45C445.848 1173.43 461.129 1187.36 466.127 1188.19C467.995 1188.5 471.096 1183.51 472.033 1182.07C482.968 1165.3 485.067 1161.21 501.581 1148.85C505.768 1145.72 510.227 1143.21 514.591 1140.36C518.821 1137.61 522.725 1134.39 526.996 1131.68C534.421 1126.97 542.867 1122.97 550.901 1119.37C554.787 1117.63 558.865 1116.43 562.793 1114.81C568.766 1112.35 574.553 1109.48 580.563 1107.08C583.858 1105.76 589.57 1104.51 592.229 1102.42C592.34 1102.33 592.447 1102.24 592.556 1102.15C594.104 1102.3 594.764 1103.03 596.013 1103.92L596.31 1103.08L596.835 1104.58C606.989 1093.82 617.065 1083.06 626.634 1071.77C629.538 1068.35 634.37 1060.65 638.15 1058.96C634.936 1066.22 626.967 1073.45 621.623 1079.48Q615.185 1086.84 608.529 1093.99Q601.872 1101.15 595.003 1108.11Q588.134 1115.06 581.059 1121.81Q573.983 1128.55 566.708 1135.08Q559.433 1141.61 551.964 1147.92Q544.495 1154.22 536.84 1160.3Q529.184 1166.38 521.349 1172.23Q513.514 1178.07 505.507 1183.68C498.767 1188.43 488.704 1196.28 481.693 1199.92L480.724 1199.89C475.719 1198.12 441.598 1174.16 439.384 1170.45Z"/>
	<path fill="#130B50" d="M846.479 0.624271C885.158 0.527655 923.431 6.36349 961.384 13.2178C958.841 25.7703 955.413 38.1845 952.3 50.61C950.024 59.6908 948.108 69.034 945.348 77.9633Q936.982 76.2917 928.571 74.8634Q920.161 73.4351 911.712 72.2513Q903.263 71.0675 894.784 70.1292Q886.304 69.1909 877.801 68.4988Q869.298 67.8068 860.778 67.3617Q852.259 66.9165 843.73 66.7186Q835.201 66.5207 826.669 66.5702Q818.138 66.6197 809.612 66.9165Q801.086 67.2134 792.572 67.7574Q784.058 68.3014 775.564 69.092Q767.069 69.8826 758.601 70.9193Q750.133 71.9559 741.699 73.2377Q733.264 74.5194 724.871 76.0452Q716.477 77.571 708.131 79.3396Q699.785 81.1081 691.494 83.118Q683.203 85.1278 674.974 87.3772C655.313 92.7323 636.648 99.9458 617.398 106.45C617.378 103.335 617.894 104.657 619.54 102.754C611.896 93.7084 604.588 84.4884 596.651 75.6743C595.674 74.5884 590.227 69.6193 590 68.7549C589.738 67.7564 590.482 67.587 589.656 66.516C588.115 64.519 584.584 63.8965 582.924 61.4976C581.305 59.1579 582.85 54.731 583.375 52.1088C581.007 51.3943 576.356 53.0382 573.511 53.0028C573.29 53 573.069 52.9918 572.849 52.9863C581.94 47.6899 594.607 43.761 604.665 40.0473C666.241 17.3129 747.065 -0.0772192 812.982 0.612922C824.097 0.631082 835.382 1.06221 846.479 0.624271Z"/>
	<path fill="#0F0B40" fill-opacity="0.73333335" d="M812.786 0L846.685 0L846.479 0.624271C835.382 1.06221 824.097 0.631082 812.982 0.612922L812.786 0Z"/>
	<path fill="#0F0B40" fill-opacity="0.51372552" d="M115.336 0L148.623 0L148.434 0.58843C144.435 0.571016 140.432 0.646967 136.432 0.685406C129.586 0.166815 122.409 0.594428 115.525 0.587522L115.336 0Z"/>
</svg>
