<svg version="1.1" id="Layer_1" xmlns:x="ns_extend;" xmlns:i="ns_ai;" xmlns:graph="ns_graphs;" xmlns="http://www.w3.org/2000/svg" xmlns:xlink="http://www.w3.org/1999/xlink" x="0px" y="0px" viewBox="0 0 162.2 56" style="enable-background:new 0 0 162.2 56;" xml:space="preserve">
 <style type="text/css">
  .st0{fill:#FFFFFF;}
 </style>
 <metadata>
  <sfw xmlns="ns_sfw;">
   <slices>
   </slices>
   <sliceSourceBounds bottomLeftOrigin="true" height="56" width="162.2" x="0" y="0">
   </sliceSourceBounds>
  </sfw>
 </metadata>
 <g id="Layer_2_1_">
  <g id="Marks">
   <path class="st0" d="M0,34.2C0,47.6,9.3,56,21.1,56c4.1,0,8.3-1,11.3-3.3V42.2c-2.7,2.4-6.3,3.8-9.9,3.8c-6.1,0-11-4.4-11-11.8
			s4.9-11.7,11-11.7c3.7-0.1,7.3,1.3,10,3.7V15.7c-3-2.3-7.2-3.2-11.3-3.2C9.3,12.5,0,20.9,0,34.2z">
   </path>
   <path class="st0" d="M56.4,12.5c-12,0-20.4,8.9-20.4,21.6S44.4,56,56.4,56s20.4-9,20.4-21.8S68.5,12.5,56.4,12.5z M56.4,46.2
			c-5.7,0-8.9-5-8.9-12s3.2-11.9,8.9-11.9s8.9,5,8.9,11.9S62.2,46.2,56.4,46.2z">
   </path>
   <path class="st0" d="M109.7,16.9c-2.8-2.8-6.6-4.4-10.5-4.4c-12.1,0-18.9,9.8-18.9,21.6c0,12,6.8,21.8,18.9,21.8
			c3.9,0,7.7-1.6,10.5-4.4V55h11.5V0h-11.5V16.9z M109.7,41.1c-1.5,2.9-4.6,4.8-7.9,4.8c-6.3,0-10-5-10-11.7s3.7-11.6,10-11.6
			c3.3,0,6.4,1.9,7.9,4.9V41.1z">
   </path>
   <path class="st0" d="M144.3,12.5c-5.6,0-10.9,1.5-13.9,3.4v10c3.4-2.2,7.3-3.4,11.4-3.4c5.9,0,9.3,2.5,9.3,6.6v2.3
			c-1.7-1.2-5.7-2.5-9.3-2.5c-9.1,0-16.1,5.4-16.1,13.4c0,8.6,6.9,13.5,15.4,13.5c4.5,0,8.7-1.6,10-2.9v2.2h11.1V28.5
			C162.2,18.4,155.7,12.5,144.3,12.5z M151.1,43.7c-1,2.2-4.1,3.6-7.3,3.6c-3.7,0-7.4-1.5-7.4-5.1s3.7-5.1,7.4-5.1
			c3.3,0,6.3,1.3,7.3,3.6V43.7z">
   </path>
  </g>
 </g>
</svg>