<svg width="238" height="44" viewBox="0 0 238 44" fill="none" xmlns="http://www.w3.org/2000/svg">
<path fill-rule="evenodd" clip-rule="evenodd" d="M9.54634 34.9445H22.491C29.6402 34.9445 35.4357 29.1489 35.4357 21.9998C35.4357 14.8506 29.6402 9.05512 22.491 9.05512C15.3419 9.05512 9.54634 14.8506 9.54634 21.9998V34.9445ZM22.491 0.198242C10.4503 0.198242 0.689453 9.95912 0.689453 21.9998V43.2276C0.689453 43.8013 0.689453 43.8013 1.26318 43.8013H22.491C34.5317 43.8013 44.2926 34.0405 44.2926 21.9998C44.2926 9.95912 34.5317 0.198242 22.491 0.198242Z" fill="black"/>
<path d="M67.7627 34.2401C65.4125 34.2401 63.3995 33.7287 61.7239 32.7059C60.0483 31.6722 58.759 30.236 57.8559 28.3972C56.9637 26.5584 56.5176 24.4258 56.5176 21.9994C56.5176 19.5731 56.9637 17.4405 57.8559 15.6017C58.759 13.7628 60.0483 12.332 61.7239 11.3093C63.3995 10.2756 65.4125 9.75879 67.7627 9.75879C70.4719 9.75879 72.7296 10.4388 74.5358 11.7989C76.342 13.1481 77.6096 14.9706 78.3386 17.2664L74.3726 18.3599C73.9156 16.8257 73.1377 15.6289 72.0387 14.7693C70.9398 13.8988 69.5144 13.4636 67.7627 13.4636C66.185 13.4636 64.8684 13.8172 63.813 14.5245C62.7685 15.2317 61.9796 16.2273 61.4465 17.5112C60.9242 18.7842 60.6576 20.2803 60.6468 21.9994C60.6468 23.7186 60.9079 25.2201 61.4302 26.504C61.9633 27.777 62.7576 28.7671 63.813 29.4744C64.8684 30.1816 66.185 30.5352 67.7627 30.5352C69.5144 30.5352 70.9398 30.1 72.0387 29.2296C73.1377 28.3591 73.9156 27.1623 74.3726 25.639L78.3386 26.7325C77.6096 29.0283 76.342 30.8562 74.5358 32.2163C72.7296 33.5655 70.4719 34.2401 67.7627 34.2401Z" fill="black"/>
<path d="M88.3872 34.2401C86.6245 34.2401 85.0849 33.8429 83.7684 33.0486C82.4518 32.2544 81.4291 31.1609 80.7001 29.7682C79.982 28.3646 79.6229 26.7542 79.6229 24.9372C79.6229 23.0875 79.9928 21.4663 80.7327 20.0736C81.4726 18.6809 82.5008 17.5928 83.8174 16.8094C85.1339 16.026 86.6572 15.6343 88.3872 15.6343C90.1607 15.6343 91.7058 16.0314 93.0223 16.8257C94.3389 17.62 95.3617 18.7189 96.0907 20.1225C96.8197 21.5152 97.1842 23.1201 97.1842 24.9372C97.1842 26.7651 96.8142 28.3809 96.0743 29.7845C95.3453 31.1772 94.3226 32.2707 93.006 33.065C91.6895 33.8484 90.1499 34.2401 88.3872 34.2401ZM88.3872 30.5516C89.954 30.5516 91.1182 30.0293 91.8799 28.9848C92.6415 27.9402 93.0223 26.591 93.0223 24.9372C93.0223 23.2289 92.6361 21.8689 91.8636 20.857C91.091 19.8342 89.9322 19.3228 88.3872 19.3228C87.3318 19.3228 86.4613 19.5622 85.7759 20.0409C85.1013 20.5088 84.6008 21.1671 84.2743 22.0157C83.9479 22.8536 83.7847 23.8274 83.7847 24.9372C83.7847 26.6454 84.171 28.0109 84.9435 29.0337C85.7269 30.0456 86.8748 30.5516 88.3872 30.5516Z" fill="black"/>
<path d="M120.628 33.7504V23.044C120.628 21.8362 120.329 20.895 119.731 20.2205C119.132 19.535 118.322 19.1922 117.299 19.1922C116.668 19.1922 116.102 19.3391 115.602 19.6329C115.101 19.9158 114.704 20.3401 114.41 20.9059C114.116 21.4608 113.969 22.1246 113.969 22.8971L112.223 21.8689C112.212 20.6502 112.484 19.5785 113.039 18.6537C113.605 17.7179 114.367 16.9889 115.324 16.4667C116.282 15.9444 117.348 15.6833 118.523 15.6833C120.471 15.6833 121.961 16.2708 122.995 17.4459C124.039 18.6101 124.562 20.1443 124.562 22.0484V33.7504H120.628ZM99.4276 33.7504V16.1239H102.904V21.5914H103.394V33.7504H99.4276ZM110.052 33.7504V23.0929C110.052 21.8634 109.753 20.9059 109.155 20.2205C108.556 19.535 107.74 19.1922 106.707 19.1922C105.706 19.1922 104.901 19.535 104.291 20.2205C103.693 20.9059 103.394 21.7981 103.394 22.8971L101.631 21.722C101.631 20.5795 101.914 19.5513 102.48 18.6373C103.045 17.7234 103.807 17.0052 104.765 16.483C105.733 15.9498 106.815 15.6833 108.012 15.6833C109.329 15.6833 110.428 15.9662 111.309 16.5319C112.201 17.0869 112.865 17.8485 113.3 18.8169C113.746 19.7744 113.969 20.857 113.969 22.0647V33.7504H110.052Z" fill="black"/>
<path d="M148.667 33.7504V23.044C148.667 21.8362 148.368 20.895 147.769 20.2205C147.171 19.535 146.36 19.1922 145.337 19.1922C144.706 19.1922 144.141 19.3391 143.64 19.6329C143.14 19.9158 142.742 20.3401 142.449 20.9059C142.155 21.4608 142.008 22.1246 142.008 22.8971L140.262 21.8689C140.251 20.6502 140.523 19.5785 141.078 18.6537C141.644 17.7179 142.405 16.9889 143.363 16.4667C144.32 15.9444 145.386 15.6833 146.562 15.6833C148.509 15.6833 150 16.2708 151.033 17.4459C152.078 18.6101 152.6 20.1443 152.6 22.0484V33.7504H148.667ZM127.466 33.7504V16.1239H130.942V21.5914H131.432V33.7504H127.466ZM138.091 33.7504V23.0929C138.091 21.8634 137.792 20.9059 137.193 20.2205C136.595 19.535 135.779 19.1922 134.745 19.1922C133.744 19.1922 132.939 19.535 132.33 20.2205C131.731 20.9059 131.432 21.7981 131.432 22.8971L129.669 21.722C129.669 20.5795 129.952 19.5513 130.518 18.6373C131.084 17.7234 131.846 17.0052 132.803 16.483C133.771 15.9498 134.854 15.6833 136.051 15.6833C137.367 15.6833 138.466 15.9662 139.348 16.5319C140.24 17.0869 140.904 17.8485 141.339 18.8169C141.785 19.7744 142.008 20.857 142.008 22.0647V33.7504H138.091Z" fill="black"/>
<path d="M163.264 34.2401C161.48 34.2401 159.913 33.8538 158.564 33.0813C157.214 32.3088 156.159 31.237 155.397 29.8661C154.647 28.4951 154.271 26.9174 154.271 25.133C154.271 23.2072 154.641 21.537 155.381 20.1225C156.121 18.6972 157.149 17.5928 158.466 16.8094C159.782 16.026 161.305 15.6343 163.036 15.6343C164.863 15.6343 166.414 16.0641 167.687 16.9236C168.971 17.7723 169.923 18.9746 170.543 20.5306C171.163 22.0865 171.397 23.9198 171.245 26.0307H167.344V24.5944C167.333 22.6795 166.996 21.2813 166.332 20.4C165.669 19.5187 164.624 19.078 163.199 19.078C161.588 19.078 160.392 19.5785 159.608 20.5795C158.825 21.5696 158.433 23.0222 158.433 24.9372C158.433 26.7216 158.825 28.1034 159.608 29.0827C160.392 30.0619 161.534 30.5516 163.036 30.5516C164.004 30.5516 164.836 30.3394 165.533 29.915C166.24 29.4798 166.784 28.8542 167.165 28.0381L171.049 29.2132C170.374 30.8018 169.33 32.0368 167.915 32.9181C166.512 33.7994 164.961 34.2401 163.264 34.2401ZM157.193 26.0307V23.0603H169.319V26.0307H157.193Z" fill="black"/>
<path d="M185.28 33.7504V25.2636C185.28 24.7087 185.242 24.0939 185.166 23.4193C185.09 22.7447 184.91 22.0974 184.627 21.4772C184.355 20.8461 183.942 20.3293 183.387 19.9267C182.843 19.5241 182.103 19.3228 181.167 19.3228C180.667 19.3228 180.172 19.4044 179.682 19.5676C179.192 19.7308 178.746 20.0137 178.344 20.4163C177.952 20.808 177.637 21.352 177.397 22.0484C177.158 22.7339 177.038 23.6152 177.038 24.6924L174.704 23.6968C174.704 22.1953 174.993 20.8352 175.569 19.6166C176.157 18.398 177.016 17.4296 178.148 16.7115C179.28 15.9825 180.672 15.618 182.326 15.618C183.632 15.618 184.709 15.8356 185.558 16.2708C186.406 16.706 187.081 17.2609 187.581 17.9355C188.082 18.6101 188.452 19.3282 188.691 20.0899C188.931 20.8515 189.083 21.5751 189.148 22.2606C189.224 22.9352 189.262 23.4846 189.262 23.909V33.7504H185.28ZM173.056 33.7504V16.1239H176.565V21.5914H177.038V33.7504H173.056Z" fill="black"/>
<path d="M202.533 33.7504C201.368 33.9681 200.226 34.0605 199.105 34.0279C197.995 34.0061 197 33.8048 196.119 33.424C195.237 33.0323 194.568 32.4176 194.111 31.5798C193.709 30.8181 193.496 30.0402 193.475 29.2459C193.453 28.4516 193.442 27.554 193.442 26.5529V11.2277H197.359V26.3245C197.359 27.0317 197.364 27.6519 197.375 28.185C197.397 28.7182 197.511 29.1534 197.718 29.4907C198.11 30.1435 198.735 30.508 199.595 30.5842C200.454 30.6604 201.434 30.6168 202.533 30.4536V33.7504ZM190.243 19.2086V16.1239H202.533V19.2086H190.243Z" fill="black"/>
<path d="M212.124 34.2401C210.34 34.2401 208.773 33.8538 207.424 33.0813C206.074 32.3088 205.019 31.237 204.257 29.8661C203.507 28.4951 203.131 26.9174 203.131 25.133C203.131 23.2072 203.501 21.537 204.241 20.1225C204.981 18.6972 206.009 17.5928 207.326 16.8094C208.642 16.026 210.166 15.6343 211.896 15.6343C213.723 15.6343 215.274 16.0641 216.547 16.9236C217.831 17.7723 218.783 18.9746 219.403 20.5306C220.023 22.0865 220.257 23.9198 220.105 26.0307H216.204V24.5944C216.193 22.6795 215.856 21.2813 215.192 20.4C214.529 19.5187 213.484 19.078 212.059 19.078C210.448 19.078 209.252 19.5785 208.468 20.5795C207.685 21.5696 207.293 23.0222 207.293 24.9372C207.293 26.7216 207.685 28.1034 208.468 29.0827C209.252 30.0619 210.394 30.5516 211.896 30.5516C212.864 30.5516 213.696 30.3394 214.393 29.915C215.1 29.4798 215.644 28.8542 216.025 28.0381L219.909 29.2132C219.235 30.8018 218.19 32.0368 216.776 32.9181C215.372 33.7994 213.821 34.2401 212.124 34.2401ZM206.053 26.0307V23.0603H218.179V26.0307H206.053Z" fill="black"/>
<path d="M229.494 34.2401C227.872 34.2401 226.458 33.832 225.25 33.016C224.042 32.2 223.107 31.0901 222.443 29.6865C221.779 28.283 221.447 26.6998 221.447 24.9372C221.447 23.1528 221.779 21.5642 222.443 20.1715C223.118 18.7679 224.07 17.6635 225.299 16.8584C226.529 16.0423 227.976 15.6343 229.64 15.6343C231.316 15.6343 232.72 16.0423 233.851 16.8584C234.994 17.6635 235.859 18.7679 236.446 20.1715C237.034 21.5751 237.328 23.1636 237.328 24.9372C237.328 26.689 237.034 28.2721 236.446 29.6865C235.859 31.0901 234.983 32.2 233.819 33.016C232.654 33.832 231.213 34.2401 229.494 34.2401ZM230.097 30.7148C231.153 30.7148 232.002 30.4754 232.644 29.9966C233.296 29.507 233.77 28.827 234.063 27.9565C234.368 27.0861 234.52 26.0796 234.52 24.9372C234.52 23.7838 234.368 22.7774 234.063 21.9178C233.77 21.0474 233.307 20.3728 232.676 19.894C232.045 19.4044 231.229 19.1596 230.228 19.1596C229.173 19.1596 228.302 19.4207 227.617 19.943C226.931 20.4544 226.425 21.1507 226.099 22.0321C225.772 22.9025 225.609 23.8709 225.609 24.9372C225.609 26.0144 225.767 26.9936 226.083 27.8749C226.409 28.7454 226.904 29.4363 227.568 29.9477C228.231 30.4591 229.075 30.7148 230.097 30.7148ZM234.52 33.7504V21.3792H234.031V10.2484H237.997V33.7504H234.52Z" fill="black"/>
</svg>
