<svg xmlns="http://www.w3.org/2000/svg" xmlns:xlink="http://www.w3.org/1999/xlink" width="185px" height="32px" viewBox="0 0 185 32"><title>complycube-logo</title><g id="Symbols" stroke="none" stroke-width="1" fill="none" fill-rule="evenodd"><g id="complycube-logo" transform="translate(-80.000000, -30.000000)" fill="#1683FB"><path d="M107.324518,30 C109.480363,30 111.228021,31.7443254 111.228021,33.8960598 L111.228021,57.2724185 C111.228021,59.4241529 109.480363,61.1684783 107.324518,61.1684783 L83.9035026,61.1684783 C81.7476576,61.1684783 80,59.4241529 80,57.2724185 L80,33.8960598 C80,31.7443254 81.7476576,30 83.9035026,30 L107.324518,30 Z M181.637449,41.3570143 C183.322461,41.3570143 184.658326,41.9479167 185.645045,43.1297215 C186.631764,44.3115263 187.125123,45.7963579 187.125123,47.5842165 C187.125123,49.372075 186.631764,50.8569067 185.645045,52.0387115 C184.658326,53.2205163 183.322461,53.8114187 181.637449,53.8114187 C180.848074,53.8114187 180.145986,53.6636931 179.531184,53.3682419 C178.944328,53.0862203 178.485414,52.7386238 178.154443,52.3254522 L178.108032,52.2659817 L178.108032,58.2659137 L174.874631,58.2659137 L174.874631,41.6297385 L177.857557,41.6297385 L177.857557,43.0842674 L177.898807,43.0252204 C178.690519,41.913083 179.936733,41.3570143 181.637449,41.3570143 Z M197.48567,41.6297385 L200.354744,49.5841938 L203.246589,41.6297385 L206.616613,41.6297385 L199.944876,58.2659137 L196.757016,58.2659137 L198.760814,53.3341514 L194.047334,41.6297385 L197.48567,41.6297385 Z M104.071599,35.1947464 L87.1564214,35.1947464 C86.0950824,35.1947464 85.2316055,36.0402797 85.2052882,37.0932679 L85.2046701,37.1427763 L85.2046701,54.025702 C85.2046701,55.0850174 86.0518187,55.9468479 87.1068185,55.973115 L104.071599,55.9737319 C105.132938,55.9737319 105.996415,55.1281985 106.022733,54.0752103 L106.023351,54.025702 L106.023351,37.1427763 C106.023351,36.0669091 105.149522,35.1947464 104.071599,35.1947464 Z M129.766405,37.0616084 C131.815744,37.0616084 133.557682,37.6297837 134.992219,38.7661345 C136.40114,39.8821933 137.264609,41.3855511 137.582628,43.2762078 L137.599434,43.3797186 L134.047246,43.3797186 L134.025796,43.2945526 C133.775525,42.3355406 133.281726,41.5874229 132.544398,41.0501996 C131.785384,40.4971755 130.859386,40.2206635 129.766405,40.2206635 C128.309098,40.2206635 127.174371,40.6903551 126.362226,41.6297385 C125.55008,42.5691218 125.144008,43.8418346 125.144008,45.447877 C125.144008,47.0539195 125.55008,48.3266323 126.362226,49.2660156 C127.174371,50.2053989 128.309098,50.6750906 129.766405,50.6750906 C130.859386,50.6750906 131.785384,50.3985786 132.544398,49.8455545 C133.281726,49.3083312 133.775525,48.5602135 134.025796,47.6012015 L134.047246,47.5160354 L137.599434,47.5160354 L137.582628,47.6195463 C137.264609,49.510203 136.40114,51.0135608 134.992219,52.1296196 C133.557682,53.2659703 131.815744,53.8341457 129.766405,53.8341457 C127.413461,53.8341457 125.470384,53.0614272 123.937175,51.5159901 C122.403966,49.9705531 121.637361,47.9478487 121.637361,45.447877 C121.637361,42.9479053 122.403966,40.925201 123.937175,39.3797639 C125.470384,37.8343269 127.413461,37.0616084 129.766405,37.0616084 Z M215.702015,37.0616084 C217.751354,37.0616084 219.493292,37.6297837 220.927829,38.7661345 C222.362366,39.9024853 223.231438,41.4403467 223.535044,43.3797186 L223.535044,43.3797186 L219.982856,43.3797186 L219.961406,43.2945526 C219.711135,42.3355406 219.217336,41.5874229 218.480008,41.0501996 C217.720993,40.4971755 216.794996,40.2206635 215.702015,40.2206635 C214.244707,40.2206635 213.109981,40.6903551 212.297835,41.6297385 C211.48569,42.5691218 211.079617,43.8418346 211.079617,45.447877 C211.079617,47.0539195 211.48569,48.3266323 212.297835,49.2660156 C213.109981,50.2053989 214.244707,50.6750906 215.702015,50.6750906 C216.794996,50.6750906 217.720993,50.3985786 218.480008,49.8455545 C219.239022,49.2925305 219.739972,48.5160241 219.982856,47.5160354 L219.982856,47.5160354 L223.535044,47.5160354 L223.518238,47.6195463 C223.200219,49.510203 222.33675,51.0135608 220.927829,52.1296196 C219.493292,53.2659703 217.751354,53.8341457 215.702015,53.8341457 C213.34907,53.8341457 211.405994,53.0614272 209.872784,51.5159901 C208.339575,49.9705531 207.572971,47.9478487 207.572971,45.447877 C207.572971,42.9479053 208.339575,40.925201 209.872784,39.3797639 C211.405994,37.8343269 213.34907,37.0616084 215.702015,37.0616084 Z M145.386922,41.3570143 C147.254097,41.3570143 148.764536,41.9592802 149.918237,43.163812 C151.071939,44.3683438 151.64879,45.841812 151.64879,47.5842165 C151.64879,49.326621 151.071939,50.803877 149.918237,52.0159845 C148.764536,53.2129406 147.254097,53.8114187 145.386922,53.8114187 C143.519746,53.8114187 142.009307,53.2091528 140.855606,52.004621 C139.701904,50.8000892 139.125053,49.326621 139.125053,47.5842165 C139.125053,45.841812 139.701904,44.3683438 140.855606,43.163812 C142.009307,41.9592802 143.519746,41.3570143 145.386922,41.3570143 Z M259.079688,41.3570143 C260.825421,41.3570143 262.248573,41.9441288 263.349144,43.118358 C264.429334,44.2708421 264.97943,45.7188827 264.999434,47.4624796 L265,47.5614895 L264.954459,48.5160241 L256.301695,48.5160241 L256.312595,48.594599 C256.42775,49.3743178 256.727722,49.9731191 257.212512,50.3910029 C257.713462,50.8228162 258.373804,51.0387228 259.19354,51.0387228 C259.70967,51.0387228 260.176464,50.9288756 260.593921,50.7091811 C260.992404,50.4994727 261.283691,50.1965789 261.467784,49.8004996 L261.493353,49.7432829 L264.749525,49.7432829 L264.722706,49.8337578 C264.365822,51.0042985 263.687854,51.9551897 262.688801,52.6864314 C261.664132,53.436423 260.468684,53.8114187 259.102458,53.8114187 C257.341545,53.8114187 255.899417,53.228092 254.776076,52.0614385 C253.652735,50.8947851 253.091064,49.394802 253.091064,47.5614895 C253.091064,45.7887823 253.652735,44.3115263 254.776076,43.1297215 C255.899417,41.9479167 257.333955,41.3570143 259.079688,41.3570143 Z M228.931636,41.6297385 L228.931636,48.4932971 L228.932025,48.5577125 C228.951196,50.1359627 229.679721,50.9250877 231.117597,50.9250877 C232.555474,50.9250877 233.283999,50.1359627 233.30317,48.5577125 L233.303559,41.6297385 L236.53696,41.6297385 L236.536525,48.5479985 C236.52055,50.3751462 236.065287,51.7053819 235.170734,52.5387058 C234.259917,53.3871811 232.908871,53.8114187 231.117597,53.8114187 C229.326323,53.8114187 227.975278,53.3871811 227.064461,52.5387058 C226.169908,51.7053819 225.714644,50.3751462 225.69867,48.5479985 L225.698235,41.6297385 L228.931636,41.6297385 Z M242.616665,36.493433 L242.616665,42.9024513 L242.663077,42.8429807 C242.994048,42.4298092 243.452961,42.0822127 244.039817,41.8001911 C244.654619,41.5047399 245.356707,41.3570143 246.146082,41.3570143 C247.831094,41.3570143 249.16696,41.9479167 250.153678,43.1297215 C251.140397,44.3115263 251.633757,45.7963579 251.633757,47.5842165 C251.633757,49.372075 251.140397,50.8569067 250.153678,52.0387115 C249.16696,53.2205163 247.831094,53.8114187 246.146082,53.8114187 C244.445367,53.8114187 243.199153,53.25535 242.40744,52.1432125 L242.366191,52.0841655 L242.366191,53.5386945 L239.383264,53.5386945 L239.383264,36.493433 L242.616665,36.493433 Z M192.567256,36.493433 L192.567256,53.5386945 L189.333855,53.5386945 L189.333855,36.493433 L192.567256,36.493433 Z M167.701945,41.3570143 C169.098531,41.3570143 170.168742,41.7888276 170.912576,42.6524541 C171.63988,43.496889 172.011613,44.6165471 172.027776,46.0114285 L172.028327,46.1069605 L172.028327,53.5386945 L168.794925,53.5386945 L168.794535,46.4041881 C168.776579,44.8878695 168.139137,44.1297101 166.882209,44.1297101 C166.123195,44.1297101 165.546344,44.3607681 165.151656,44.8228841 C164.770125,45.2695962 164.573001,45.8897449 164.560283,46.6833302 L164.559625,46.7660439 L164.559625,53.5386945 L161.326224,53.5386945 L161.326224,46.4705927 L161.325833,46.4041881 C161.307877,44.8878695 160.670435,44.1297101 159.413508,44.1297101 C158.669673,44.1297101 158.096618,44.3569803 157.69434,44.8115206 C157.305472,45.2509096 157.104556,45.8531166 157.091594,46.6181416 L157.090923,46.6978629 L157.090923,53.5386945 L153.857522,53.5386945 L153.857522,41.6297385 L156.840449,41.6297385 L156.840449,43.0842674 L156.872005,43.0271721 C157.50119,41.9137336 158.636783,41.3570143 160.278784,41.3570143 C161.857534,41.3570143 163.011236,41.917614 163.73989,43.0388134 C164.756969,41.917614 166.077654,41.3570143 167.701945,41.3570143 Z M102.119848,37.7921196 C102.838463,37.7921196 103.421016,38.3735614 103.421016,39.0908062 L103.421016,52.0776721 C103.421016,52.7949169 102.838463,53.3763587 102.119848,53.3763587 L89.1081727,53.3763587 C88.3895578,53.3763587 87.8070052,52.7949169 87.8070052,52.0776721 L87.8070052,39.0908062 C87.8070052,38.3735614 88.3895578,37.7921196 89.1081727,37.7921196 L102.119848,37.7921196 Z M245.462969,44.1978912 C244.582513,44.1978912 243.869039,44.5160694 243.322549,45.1524258 C242.791239,45.7887823 242.525584,46.5993792 242.525584,47.5842165 C242.525584,48.5690538 242.795034,49.3796507 243.333934,50.0160071 C243.872834,50.6523636 244.582513,50.9705418 245.462969,50.9705418 C246.343426,50.9705418 247.053105,50.6523636 247.592005,50.0160071 C248.130905,49.3796507 248.400355,48.5690538 248.400355,47.5842165 C248.400355,46.5993792 248.130905,45.7887823 247.592005,45.1524258 C247.053105,44.5160694 246.343426,44.1978912 245.462969,44.1978912 Z M180.954336,44.1978912 C180.073879,44.1978912 179.360406,44.5160694 178.813915,45.1524258 C178.282605,45.7887823 178.01695,46.5993792 178.01695,47.5842165 C178.01695,48.5690538 178.2864,49.3796507 178.825301,50.0160071 C179.364201,50.6523636 180.073879,50.9705418 180.954336,50.9705418 C181.834793,50.9705418 182.544471,50.6523636 183.083371,50.0160071 C183.622272,49.3796507 183.891722,48.5690538 183.891722,47.5842165 C183.891722,46.5993792 183.622272,45.7887823 183.083371,45.1524258 C182.544471,44.5160694 181.834793,44.1978912 180.954336,44.1978912 Z M145.386922,44.1978912 C144.506465,44.1978912 143.777811,44.5009181 143.20096,45.1069718 C142.639289,45.7130256 142.358454,46.5387738 142.358454,47.5842165 C142.358454,48.6296592 142.643084,49.4554074 143.212345,50.0614612 C143.781606,50.6675149 144.506465,50.9705418 145.386922,50.9705418 C146.267378,50.9705418 146.992237,50.6675149 147.561498,50.0614612 C148.130759,49.4554074 148.415389,48.6296592 148.415389,47.5842165 C148.415389,46.5387738 148.130759,45.7130256 147.561498,45.1069718 C146.992237,44.5009181 146.267378,44.1978912 145.386922,44.1978912 Z M96.9151779,42.9868659 L94.3128429,42.9868659 C93.6077867,42.9868659 93.0337069,43.5465735 93.0122945,44.2451018 L93.0116753,44.2855525 L93.0116753,46.8829257 C93.0116753,47.5866376 93.5724522,48.1596228 94.2723149,48.1809943 L94.3128429,48.1816123 L96.9151779,48.1816123 C97.6202342,48.1816123 98.1943139,47.6219047 98.2157263,46.9233765 L98.2163455,46.8829257 L98.2163455,44.2855525 C98.2163455,43.5683077 97.6337929,42.9868659 96.9151779,42.9868659 Z M259.056917,43.947894 C258.328263,43.947894 257.728642,44.1486493 257.258053,44.5501599 C256.804271,44.9373309 256.505758,45.461864 256.362513,46.1237593 L256.347236,46.1978685 L261.766599,46.1978685 C261.645156,45.5160581 261.349141,44.9706097 260.878552,44.5615234 C260.407963,44.1524372 259.800751,43.947894 259.056917,43.947894 Z"></path></g></g></svg>