<svg width="200" height="31" viewBox="0 0 200 31" fill="none" xmlns="http://www.w3.org/2000/svg" xmlns:xlink="http://www.w3.org/1999/xlink">
 <path d="M24.8164 3.6528C23.5737 2.41009 22.0298 1.50631 20.1469 0.903785C18.264 0.301262 16.0422 0 13.4438 0H0V30.0132H13.4438C16.0045 30.0132 18.264 29.7119 20.1469 29.1094C22.0298 28.5069 23.5737 27.6031 24.8164 26.3604C26.0591 25.1177 26.9629 23.5737 27.5654 21.6908C28.168 19.8079 28.4692 17.5861 28.4692 14.9878C28.4692 12.3894 28.168 10.1676 27.5654 8.28469C26.9629 6.40181 26.0591 4.85784 24.8164 3.6528ZM20.2598 19.1678C19.9586 20.2975 19.469 21.2013 18.7912 21.8791C18.1134 22.557 17.2096 23.0465 16.0798 23.3478C14.9501 23.649 13.5944 23.7997 11.9375 23.7997H7.41857V6.25118H11.9375C13.5944 6.25118 14.9501 6.40181 16.0798 6.70307C17.2096 7.00433 18.1134 7.49388 18.7912 8.17172C19.469 8.84956 19.9586 9.75334 20.2598 10.8831C20.5611 12.0128 20.7117 13.3685 20.7117 15.0254C20.7117 16.6824 20.5611 18.038 20.2598 19.1678Z" fill="white">
 </path>
 <path d="M51.9299 10.1675C51.1768 9.41439 50.2353 8.84953 49.068 8.51061C47.9006 8.13403 46.5072 7.9834 44.9256 7.9834H32.9881V13.4061H44.549C45.3775 13.4061 45.9424 13.5944 46.3189 13.9333C46.6579 14.2722 46.8461 14.8748 46.8461 15.6656V15.9292H38.5238C36.2267 15.9292 34.4944 16.5317 33.2894 17.7367C32.0843 18.9418 31.4818 20.7117 31.4818 22.9712C31.4818 25.2306 32.0843 26.9629 33.2894 28.2056C34.4944 29.4483 36.2643 30.0131 38.5238 30.0131H54.1517V17.1719C54.1517 15.5526 53.9634 14.1969 53.6245 13.0295C53.248 11.8621 52.6831 10.9207 51.9299 10.1675ZM46.9215 24.6658H40.595C40.0678 24.6658 39.6159 24.5151 39.3146 24.2139C39.0133 23.9126 38.8627 23.4984 38.8627 22.9712C38.8627 22.4063 39.0133 21.9921 39.3146 21.6908C39.6159 21.3895 40.0301 21.2389 40.595 21.2389H46.9215V24.6658Z" fill="white">
 </path>
 <path d="M67.7839 24.1386C67.4826 23.8373 67.332 23.3478 67.332 22.5946V13.4061H74.1104V7.98343H67.332V2.07117H59.9888V7.94577H56.9385V13.3685H59.9888V22.9712C59.9888 24.2515 60.1017 25.3436 60.3653 26.2474C60.6289 27.1512 61.0055 27.8667 61.5704 28.4316C62.1352 28.9964 62.8507 29.4107 63.7545 29.6366C64.6583 29.9002 65.7504 30.0132 67.0307 30.0132H74.1857V24.5905H69.3279C68.5747 24.5905 68.0852 24.4398 67.7839 24.1386Z" fill="white">
 </path>
 <path d="M97.1569 10.1675C96.4037 9.41439 95.4623 8.84953 94.2949 8.51061C93.1275 8.13403 91.7342 7.9834 90.1525 7.9834H78.215V13.4061H89.776C90.6044 13.4061 91.1693 13.5944 91.5459 13.9333C91.8848 14.2722 92.0731 14.8748 92.0731 15.6656V15.9292H83.7507C81.4536 15.9292 79.7214 16.5317 78.5163 17.7367C77.3113 18.9418 76.7087 20.7117 76.7087 22.9712C76.7087 25.2306 77.3113 26.9629 78.5163 28.2056C79.7214 29.4483 81.4913 30.0131 83.7507 30.0131H99.3787V17.1719C99.3787 15.5526 99.1904 14.1969 98.8515 13.0295C98.4749 11.8621 97.91 10.9207 97.1569 10.1675ZM92.1107 24.6658H85.7842C85.257 24.6658 84.8051 24.5151 84.5039 24.2139C84.2026 23.9126 84.052 23.4984 84.052 22.9712C84.052 22.4063 84.2026 21.9921 84.5039 21.6908C84.8051 21.3895 85.2194 21.2389 85.7842 21.2389H92.1107V24.6658Z" fill="white">
 </path>
 <path d="M118.81 11.8245H113.199C112.295 11.8245 111.58 11.5986 111.128 11.109C110.638 10.6195 110.412 9.94163 110.412 9.03785C110.412 8.13406 110.638 7.45622 111.128 6.96667C111.617 6.47712 112.295 6.25118 113.199 6.25118H126.643V0H111.58C108.567 0 106.308 0.753154 104.801 2.2218C103.295 3.69045 102.58 5.94992 102.58 9.00019C102.58 12.0505 103.333 14.3099 104.801 15.8162C106.27 17.3225 108.53 18.0757 111.58 18.0757H117.304C119.187 18.0757 120.166 19.0171 120.166 20.9377C120.166 22.8582 119.224 23.7997 117.304 23.7997H103.408V30.0508H118.772C121.785 30.0508 124.044 29.2977 125.588 27.7537C127.132 26.2098 127.923 23.9503 127.923 20.9377C127.923 17.9251 127.132 15.6656 125.588 14.1593C124.044 12.653 121.785 11.8245 118.81 11.8245Z" fill="white">
 </path>
 <path d="M141.216 24.1386C140.915 23.8373 140.764 23.3478 140.764 22.5946V13.4061H147.543V7.98343H140.764V2.07117H133.421V7.94577H130.371V13.3685H133.421V22.9712C133.421 24.2515 133.534 25.3436 133.798 26.2474C134.061 27.1512 134.438 27.8667 135.003 28.4316C135.568 28.9964 136.283 29.4107 137.187 29.6366C138.091 29.9002 139.183 30.0132 140.463 30.0132H147.618V24.5905H142.76C142.045 24.5905 141.518 24.4398 141.216 24.1386Z" fill="white">
 </path>
 <path d="M170.589 10.1675C169.836 9.41439 168.895 8.84953 167.727 8.51061C166.56 8.13403 165.167 7.9834 163.585 7.9834H151.648V13.4061H163.208C164.037 13.4061 164.602 13.5944 164.978 13.9333C165.317 14.2722 165.506 14.8748 165.506 15.6656V15.9292H157.183C154.886 15.9292 153.154 16.5317 151.949 17.7367C150.744 18.9418 150.141 20.7117 150.141 22.9712C150.141 25.2306 150.744 26.9629 151.949 28.2056C153.154 29.4483 154.924 30.0131 157.183 30.0131H172.811V17.1719C172.811 15.5526 172.623 14.1969 172.284 13.0295C171.907 11.8621 171.343 10.9207 170.589 10.1675ZM165.543 24.6658H159.217C158.69 24.6658 158.238 24.5151 157.936 24.2139C157.635 23.9126 157.484 23.4984 157.484 22.9712C157.484 22.4063 157.635 21.9921 157.936 21.6908C158.238 21.3895 158.652 21.2389 159.217 21.2389H165.543V24.6658Z" fill="white">
 </path>
 <path d="M191.376 18.9041L199.51 7.9834H191.678L187.196 14.3475L182.715 7.9834H174.581L182.715 18.9041L174.129 30.0131H182.339L186.97 23.4231L191.565 30.0131H199.962L191.376 18.9041Z" fill="white">
 </path>
</svg>