<svg xmlns="http://www.w3.org/2000/svg" class="styles-module--globalHeaderLogo--a96fa" fill="none" style="width:27px;height:35px" viewBox="0 0 76 92"><path d="M2.1323 49.5086C2.87344 35.4105 5.95988 25.0132 12.2775 17.6838C18.8689 10.0368 29.1307 5.55479 44.4673 3.87765L44.4679 3.87758C50.9408 3.1657 57.4354 2.74015 64.4786 2.27865C67.5521 2.07726 70.7301 1.86903 74.0563 1.62717C74.3298 5.46277 74.5208 9.57342 74.4985 13.2265C74.474 17.2452 74.1894 20.5624 73.5484 22.3786C72.2808 25.9703 68.3646 29.1723 63.5884 30.385L63.5855 30.3858C59.6932 31.3864 54.6606 31.4639 49.1819 31.5483C48.0672 31.5654 46.934 31.5829 45.7882 31.6084C39.1162 31.7573 32.0782 32.1876 26.3629 34.6602C18.6148 38.0122 14.1456 41.1557 8.64645 45.0236C6.67388 46.4111 4.56878 47.8917 2.1323 49.5086Z" fill="#5072EB" stroke="#5072EB" stroke-width="2"></path><path d="M1.58498 89.5295C2.31773 75.4342 5.39973 65.0388 11.7141 57.7105C18.303 50.0637 28.5647 45.5817 43.9014 43.9045L43.902 43.9044C50.3749 43.1926 56.8694 42.767 63.9126 42.3055C66.9862 42.1041 70.1642 41.8959 73.4904 41.654C73.7638 45.4896 73.9548 49.6003 73.9325 53.2533C73.908 57.2721 73.6235 60.5892 72.9825 62.4054C71.7148 65.9971 67.7987 69.1992 63.0224 70.4119L63.0195 70.4126C59.1273 71.4133 54.0947 71.4908 48.616 71.5751C47.5012 71.5923 46.3681 71.6097 45.2223 71.6353C38.5503 71.7842 31.5122 72.2145 25.797 74.687C18.0561 78.0359 13.6064 81.1676 8.12576 85.0248C6.14757 86.4171 4.03506 87.9038 1.58498 89.5295Z" fill="#6DD4D5" stroke="#6DD4D5" stroke-width="2"></path></svg>