<svg width="172" height="28" viewBox="0 0 172 28" fill="none" xmlns="http://www.w3.org/2000/svg">
<path d="M26.8735 0H1.79157C0.802111 0 0 0.783502 0 1.75V26.25C0 27.2165 0.802111 28 1.79157 28H26.8735C27.8629 28 28.665 27.2165 28.665 26.25V1.75C28.665 0.783502 27.8629 0 26.8735 0Z" fill="#F76015"/>
<path fill-rule="evenodd" clip-rule="evenodd" d="M9.87603 6.69922C8.71697 6.69922 7.77734 7.61705 7.77734 8.74921C7.77734 9.88142 8.71697 10.7992 9.87603 10.7992H20.2159C21.375 10.7992 22.3146 9.88142 22.3146 8.74921C22.3146 7.61705 21.375 6.69922 20.2159 6.69922H9.87603ZM7.77734 14.8493C7.77734 13.7171 8.71693 12.7992 9.87603 12.7992H16.1209C17.28 12.7992 18.2196 13.7171 18.2196 14.8493C18.2196 15.9814 17.28 16.8993 16.1209 16.8993H9.87603C8.71693 16.8993 7.77734 15.9814 7.77734 14.8493ZM7.77734 20.8992C7.77734 19.7947 8.69404 18.8993 9.82483 18.8993C10.9556 18.8993 11.8723 19.7947 11.8723 20.8992V20.9993C11.8723 22.1038 10.9556 22.9992 9.82483 22.9992C8.69404 22.9992 7.77734 22.1038 7.77734 20.9993V20.8992Z" fill="white"/>
<mask id="mask0_1687_9270" style="mask-type:luminance" maskUnits="userSpaceOnUse" x="37" y="3" width="135" height="22">
<path d="M172 3.06299H37.6328V24.938H172V3.06299Z" fill="white"/>
</mask>
<g mask="url(#mask0_1687_9270)">
<path fill-rule="evenodd" clip-rule="evenodd" d="M51.0696 7.43799V3.06299H37.6328V7.43799V11.813V16.188V24.938H42.1117V16.188H51.0696V11.813H42.1117V7.43799H51.0696ZM133.034 7.00049H128.555V24.5005H133.034V7.00049ZM105.719 9.89875C104.61 8.70923 103.12 8.11445 101.25 8.11445C99.0969 8.11445 97.4769 8.87916 96.3894 10.4086C95.4327 8.87916 93.9543 8.11445 91.9535 8.11445C89.9093 8.11445 88.3977 8.82604 87.4191 10.2493V8.56053H83.2111V24.4919H87.4191V15.5385C87.4191 14.3702 87.6909 13.478 88.2347 12.862C88.8004 12.246 89.5506 11.938 90.4853 11.938C91.3551 11.938 92.0297 12.2035 92.508 12.7345C92.9864 13.2656 93.2255 14.0091 93.2255 14.965V24.4919H97.4335V15.5385C97.4335 14.3702 97.6946 13.478 98.2164 12.862C98.7601 12.246 99.5103 11.938 100.467 11.938C101.337 11.938 102.011 12.2035 102.489 12.7345C102.968 13.2656 103.207 14.0091 103.207 14.965V24.4919H107.415V14.6782C107.415 12.6814 106.849 11.0883 105.719 9.89875ZM126.614 8.56053H122.406V10.4404C121.144 8.88979 119.372 8.11445 117.089 8.11445C114.914 8.11445 113.044 8.93227 111.478 10.5679C109.934 12.1823 109.162 14.1684 109.162 16.5262C109.162 18.884 109.934 20.8808 111.478 22.5164C113.044 24.1308 114.914 24.938 117.089 24.938C119.372 24.938 121.144 24.1627 122.406 22.612V24.4919H126.614V8.56053ZM117.872 21.0189C116.567 21.0189 115.49 20.6046 114.642 19.7762C113.794 18.9266 113.37 17.8432 113.37 16.5262C113.37 15.2092 113.794 14.1365 114.642 13.3081C115.49 12.4584 116.567 12.0336 117.872 12.0336C119.176 12.0336 120.253 12.4584 121.101 13.3081C121.971 14.1365 122.406 15.2092 122.406 16.5262C122.406 17.8432 121.971 18.9266 121.101 19.7762C120.253 20.6046 119.176 21.0189 117.872 21.0189ZM72.2105 16.3438C72.2105 12.7441 74.6734 9.58821 78.227 8.63442L78.502 8.56053C78.502 8.56053 80.2676 8.24189 81.3766 8.24189V12.8301C80.0938 12.6815 78.9409 12.9364 77.9193 13.5948C76.9187 14.2534 76.4184 15.3473 76.4184 16.8767V24.4919H72.2105V20.509V17.5219V16.3438ZM61.8019 24.938C64.3083 24.938 66.4304 24.0983 68.1691 22.419C69.9074 20.7176 70.7768 18.6407 70.7768 16.188C70.7768 13.7353 69.9074 11.6694 68.1691 9.99006C66.4304 8.28866 64.3083 7.43799 61.8019 7.43799C59.296 7.43799 57.1734 8.28866 55.4352 9.99006C53.7193 11.6694 52.8611 13.7353 52.8611 16.188C52.8611 18.6407 53.7193 20.7176 55.4352 22.419C57.1734 24.0983 59.296 24.938 61.8019 24.938ZM61.8019 20.7618C60.4923 20.7618 59.3976 20.331 58.5171 19.4692C57.6589 18.6075 57.2298 17.5137 57.2298 16.188C57.2298 14.8622 57.6589 13.7685 58.5171 12.9067C59.3976 12.045 60.4923 11.6141 61.8019 11.6141C63.1116 11.6141 64.2067 12.045 65.0872 12.9067C65.9678 13.7685 66.408 14.8622 66.408 16.188C66.408 17.5137 65.9678 18.6075 65.0872 19.4692C64.2067 20.331 63.1116 20.7618 61.8019 20.7618ZM150.133 22.419C148.395 24.0983 146.272 24.938 143.766 24.938C141.26 24.938 139.138 24.0983 137.399 22.419C135.683 20.7176 134.825 18.6407 134.825 16.188C134.825 13.7353 135.683 11.6694 137.399 9.99006C139.138 8.28866 141.26 7.43799 143.766 7.43799C146.272 7.43799 148.395 8.28866 150.133 9.99006C151.872 11.6694 152.741 13.7353 152.741 16.188C152.741 18.6407 151.872 20.7176 150.133 22.419ZM140.481 19.4692C141.362 20.331 142.456 20.7618 143.766 20.7618C145.076 20.7618 146.171 20.331 147.051 19.4692C147.932 18.6075 148.372 17.5137 148.372 16.188C148.372 14.8622 147.932 13.7685 147.051 12.9067C146.171 12.045 145.076 11.6141 143.766 11.6141C142.456 11.6141 141.362 12.045 140.481 12.9067C139.623 13.7685 139.194 14.8622 139.194 16.188C139.194 17.5137 139.623 18.6075 140.481 19.4692ZM163.025 24.938C165.532 24.938 167.654 24.0983 169.393 22.419C171.131 20.7176 172 18.6407 172 16.188C172 13.7353 171.131 11.6694 169.393 9.99006C167.654 8.28866 165.532 7.43799 163.025 7.43799C160.519 7.43799 158.397 8.28866 156.659 9.99006C154.943 11.6694 154.085 13.7353 154.085 16.188C154.085 18.6407 154.943 20.7176 156.659 22.419C158.397 24.0983 160.519 24.938 163.025 24.938ZM163.025 20.7618C161.716 20.7618 160.621 20.331 159.741 19.4692C158.882 18.6075 158.453 17.5137 158.453 16.188C158.453 14.8622 158.882 13.7685 159.741 12.9067C160.621 12.045 161.716 11.6141 163.025 11.6141C164.335 11.6141 165.43 12.045 166.311 12.9067C167.191 13.7685 167.631 14.8622 167.631 16.188C167.631 17.5137 167.191 18.6075 166.311 19.4692C165.43 20.331 164.335 20.7618 163.025 20.7618Z" fill="#1A1A1A"/>
</g>
</svg>
