<?xml version="1.0" standalone="no"?>
<!DOCTYPE svg PUBLIC "-//W3C//DTD SVG 20010904//EN"
 "http://www.w3.org/TR/2001/REC-SVG-20010904/DTD/svg10.dtd">
<svg version="1.0" xmlns="http://www.w3.org/2000/svg"
 width="360.000000pt" height="360.000000pt" viewBox="0 0 360.000000 360.000000"
 preserveAspectRatio="xMidYMid meet">

<g transform="translate(0.000000,360.000000) scale(0.100000,-0.100000)"
fill="#000000" stroke="none">
<path d="M0 1800 l0 -1800 1800 0 1800 0 0 1800 0 1800 -1800 0 -1800 0 0
-1800z m681 120 c23 -13 25 -55 3 -64 -9 -3 -65 -6 -125 -6 l-109 0 0 -95 0
-95 90 0 c89 0 90 0 90 25 0 22 -4 25 -37 25 -49 0 -66 12 -61 41 3 23 6 24
83 24 l80 0 3 -83 c2 -53 -1 -89 -9 -98 -15 -19 -279 -20 -297 -2 -8 8 -12 59
-12 165 0 134 2 153 18 162 23 14 258 14 283 1z m323 -146 c71 -147 78 -179
46 -189 -25 -8 -46 7 -54 40 -6 24 -10 25 -90 25 -83 0 -84 0 -96 -29 -19 -48
-70 -52 -70 -6 0 31 127 292 148 304 30 17 50 -7 116 -145z m259 44 l107 -112
0 102 c0 85 3 103 17 111 11 6 24 6 35 0 16 -9 18 -26 18 -162 0 -154 -5 -177
-37 -177 -8 0 -61 48 -118 108 l-104 107 -1 -91 c0 -100 -12 -131 -47 -120
-29 9 -33 32 -33 176 0 98 3 131 16 148 8 12 21 22 27 22 7 0 60 -50 120 -112z
m518 102 c21 -12 25 -40 7 -58 -7 -7 -34 -12 -60 -12 l-48 0 0 -119 c0 -95 -3
-123 -16 -135 -8 -9 -21 -16 -28 -16 -30 0 -36 25 -36 147 l0 123 -55 0 c-46
0 -56 3 -66 22 -10 18 -8 24 11 40 19 15 41 18 147 18 68 0 133 -5 144 -10z
m353 -6 c37 -36 10 -64 -61 -64 l-52 0 -3 -126 c-3 -106 -6 -129 -20 -137 -12
-8 -21 -7 -32 2 -13 11 -16 36 -16 137 l0 124 -53 0 c-71 0 -98 28 -61 64 23
23 275 23 298 0z m360 0 c12 -11 16 -36 16 -90 0 -115 1 -114 -140 -114 l-119
0 -3 -56 c-3 -64 -23 -88 -52 -65 -13 11 -16 39 -16 167 0 135 2 154 18 163 9
6 76 11 149 11 107 0 135 -3 147 -16z m356 -4 c16 -16 20 -33 20 -82 0 -89 -7
-108 -41 -115 -16 -3 -29 -8 -29 -10 0 -3 14 -21 31 -40 32 -37 34 -59 7 -77
-15 -9 -29 0 -86 57 -59 58 -72 67 -104 67 l-37 0 -3 -56 c-3 -64 -23 -88 -52
-65 -13 11 -16 39 -16 167 0 135 2 154 18 163 9 6 74 11 145 11 114 0 129 -2
147 -20z m351 10 c17 -10 19 -23 19 -163 0 -106 -4 -157 -12 -165 -17 -17
-279 -17 -296 0 -8 8 -12 59 -12 165 0 134 2 153 18 162 23 14 258 14 283 1z"/>
<path d="M885 1770 c-20 -39 -20 -40 20 -40 19 0 35 2 35 5 0 9 -30 65 -35 65
-2 0 -11 -13 -20 -30z"/>
<path d="M2252 1818 l3 -33 88 -3 87 -3 0 36 0 35 -91 0 -90 0 3 -32z"/>
<path d="M2612 1818 l3 -33 88 -3 87 -3 0 36 0 35 -91 0 -90 0 3 -32z"/>
<path d="M2970 1755 l0 -95 90 0 90 0 0 95 0 95 -90 0 -90 0 0 -95z"/>
</g>
</svg>
