<?xml version="1.0" encoding="utf-8" ?>
<svg xmlns="http://www.w3.org/2000/svg" xmlns:xlink="http://www.w3.org/1999/xlink" width="400" height="400">
	<clipPath id="cl_3">
		<rect width="400" height="400" rx="100" ry="100"/>
	</clipPath>
	<g clip-path="url(#cl_3)">
		<path fill="#FEFEFE" d="M0 0L400 0L400 400L0 400L0 0Z"/>
		<path fill="#5790E7" d="M286.419 120.111C287.998 120.01 289.723 120.122 291.286 120.364C293.678 120.735 296.211 121.654 297.654 123.717C302.428 130.543 292.61 151.133 289.666 158.337C287.435 163.727 285.292 169.153 283.237 174.612C280.557 181.881 278.245 189.371 276.718 196.969C272.761 216.056 276.682 235.932 287.592 252.086C295.433 263.816 306.431 270.709 320.183 273.449C314.851 273.644 309.403 273.325 304.056 273.335L261.874 273.345L137.375 273.346L99.9591 273.331C93.2806 273.329 86.4266 273.018 79.7732 273.45C83.1738 270.077 86.1633 266.088 89.3667 262.507C103.22 247.197 117.647 232.416 132.617 218.196C144.587 206.609 156.695 195.007 169.352 184.171C192.553 164.307 218.149 146.483 245.643 133.084C258.309 126.911 272.191 120.902 286.419 120.111Z"/>
	</g>
</svg>
