<svg width="1500" height="400" xmlns="http://www.w3.org/2000/svg"><g fill="none" fill-rule="evenodd"><path d="M567.167 280.664c-48.396 0-81.696-33.966-81.696-79.92v-.444c0-44.178 34.41-80.364 81.474-80.364 23.532 0 39.072 5.328 53.058 15.096 3.33 2.442 7.104 7.104 7.104 13.764 0 9.324-7.548 16.872-16.872 16.872-4.884 0-7.992-1.776-10.434-3.552-9.324-6.66-19.314-10.656-33.966-10.656-24.864 0-44.622 21.978-44.622 48.396v.444c0 28.416 19.536 49.284 47.064 49.284 12.432 0 23.532-3.108 32.19-9.324v-22.2h-23.088c-8.214 0-14.874-6.438-14.874-14.652 0-8.214 6.66-14.874 14.874-14.874h39.072c9.546 0 17.094 7.548 17.094 17.094v37.74c0 9.99-3.774 16.872-11.988 21.756-12.654 7.77-31.08 15.54-54.39 15.54Zm164.058-.222c-41.736 0-67.266-23.31-67.266-69.042v-73.038c0-9.546 7.548-17.094 17.094-17.094 9.546 0 17.094 7.548 17.094 17.094v72.15c0 25.308 12.654 38.406 33.522 38.406s33.522-12.654 33.522-37.296v-73.26c0-9.546 7.548-17.094 17.094-17.094 9.546 0 17.094 7.548 17.094 17.094v71.928c0 47.064-26.418 70.152-68.154 70.152Zm103.008-17.76V138.806c0-9.546 7.548-17.094 17.094-17.094h3.774c7.326 0 12.432 3.774 15.54 8.88l41.292 67.266 41.514-67.488c3.552-5.772 8.436-8.658 15.318-8.658h3.774c9.546 0 17.094 7.548 17.094 17.094v123.432c0 9.546-7.548 17.094-17.094 17.094-9.324 0-16.872-7.77-16.872-17.094V184.76l-29.97 46.176c-3.552 5.328-7.992 8.658-14.208 8.658s-10.656-3.33-14.208-8.658l-29.526-45.51v77.256c0 9.324-7.548 16.65-16.872 16.65s-16.65-7.326-16.65-16.65Zm192.696-1.776V138.362c0-9.546 7.548-17.094 17.094-17.094 9.546 0 17.094 7.548 17.094 17.094V246.92h63.27c8.658 0 15.54 6.882 15.54 15.54s-6.882 15.54-15.54 15.54h-80.364c-9.546 0-17.094-7.548-17.094-17.094ZM1181.441 278c-9.546 0-17.094-7.548-17.094-17.094V139.694c0-9.546 7.548-17.094 17.094-17.094h86.136c8.436 0 15.318 6.882 15.318 15.318s-6.882 15.096-15.318 15.096h-69.264v31.524h59.274c8.436 0 15.318 6.882 15.318 15.318s-6.882 15.096-15.318 15.096h-59.274v32.634h70.374c8.436 0 15.318 6.882 15.318 15.318S1277.123 278 1268.687 278h-87.246Zm167.832-15.762V154.124h-32.856c-8.658 0-15.762-7.104-15.762-15.762 0-8.658 7.104-15.762 15.762-15.762h99.9c8.658 0 15.762 7.104 15.762 15.762 0 8.658-7.104 15.762-15.762 15.762h-32.856v108.114c0 9.546-7.548 17.094-17.094 17.094-9.546 0-17.094-7.548-17.094-17.094Z" fill="#4A4A4A"/><g fill-rule="nonzero"><path d="M190.343 254 136 330.43c24.138 16.576 51.733 27.15 83 28.57v-94.753c-10.88-1.204-19.862-4.68-28.657-10.247Z" fill="#104A70"/><path d="M219 135.087 218.371 41C187.485 42.492 160.04 52.466 136 69.03L190.232 145c8.605-5.39 18.07-8.837 28.768-9.913Z" fill="#ED7324"/><path d="M313 67.309C288.643 50.664 260.054 41.932 228.597 41L228 134.966c10.808.782 21.056 3.629 29.789 9.034L313 67.309Z" fill="#FBBC05"/><path d="M165.657 224 77 253.28c10.359 28.91 28.035 53.25 51.748 71.72L184 249.189c-7.954-6.76-14.31-15.372-18.343-25.189Z" fill="#0F1E2A"/><path d="M184 149.416 129.434 74c-15.92 12.469-28.907 27.645-39.186 45.24-5.007 8.573-8.87 17.343-12.248 26.84L166.117 175c3.995-9.859 9.96-18.78 17.883-25.584Z" fill="#DF5216"/><path d="M161.816 199.718c-.126-5.461.465-11.26 1.65-16.209L75.358 155C71.277 169.14 69 183.542 69 199c0 15.548 1.77 29.792 5.89 44L164 214.907c-1.222-5.023-2.057-9.728-2.184-15.19Z" fill="#D53C0D"/><path d="M266 250.293 321.243 326c23.664-18.513 42.462-43.142 52.757-72.077L285.194 225c-4.165 9.763-11.019 18.63-19.194 25.293Z" fill="#378A9B"/><path d="M228 264.523V359c31.352-.969 60.747-10.237 85-26.783L257.546 256c-8.801 5.315-18.771 7.86-29.546 8.523Z" fill="#1D77B2"/><path d="M376.309 154 270 186.719c1.189 5.17 1.664 7.719 1.649 12.278-.016 4.56-.574 6.976-1.649 12.164L376.685 244c4.175-14.22 6.315-29.464 6.315-45 .008-15.619-2.334-30.468-6.691-45Z" fill="#539E82"/></g></g></svg>