<svg version="1.1" id="Layer_1" xmlns:x="ns_extend;" xmlns:i="ns_ai;" xmlns:graph="ns_graphs;" xmlns="http://www.w3.org/2000/svg" xmlns:xlink="http://www.w3.org/1999/xlink" x="0px" y="0px" viewBox="0 0 333.3 66" style="enable-background:new 0 0 333.3 66;" xml:space="preserve">
 <style type="text/css">
  .st0{fill-rule:evenodd;clip-rule:evenodd;fill:#FFFFFF;}
 </style>
 <metadata>
  <sfw xmlns="ns_sfw;">
   <slices>
   </slices>
   <sliceSourceBounds bottomLeftOrigin="true" height="66" width="333.3" x="254.1" y="50.7">
   </sliceSourceBounds>
  </sfw>
 </metadata>
 <g>
  <path class="st0" d="M91.9,12.2c2.5-0.5,5-0.5,7.4,0l0.1,0V53l-0.1,0c-2.5,0.5-4.9,0.5-7.4,0l-0.1,0V36.5H75V53l-0.1,0
		c-1.3,0.2-2.5,0.4-3.7,0.4s-2.5-0.1-3.7-0.4l-0.1,0V12.3l0.1,0c2.4-0.5,4.9-0.5,7.4,0l0.1,0V30h16.8V12.3L91.9,12.2z M118,23.7
		c4.3,0,7.9,1.4,10.2,4c2.6,3,3.7,7.3,3.1,12.7v0.1h-20.4c0.1,5.5,2.5,8.1,7.3,8.1c3.5,0,5.8-1.7,6.3-4.6V44h0.1
		c2.3-0.3,4.2-0.2,6.2,0.5l0.1,0v0.1c-0.5,4.8-4.7,9.6-12.8,9.6c-4.8,0-8.4-1.5-10.8-4.4c-2.2-2.7-3.3-6.5-3.3-11.3
		C103.9,29.2,109.2,23.7,118,23.7z M117.8,29c-4.3,0-6.8,2.6-7.1,7.3h13.6c0.1-2.3-0.5-4.1-1.7-5.4C121.5,29.6,119.9,29,117.8,29
		L117.8,29z M136.3,12.2c2.3-0.5,4.7-0.5,6.9,0l0.1,0V53l-0.1,0c-1.1,0.2-2.3,0.4-3.5,0.4s-2.3-0.1-3.5-0.4l-0.1,0V12.3L136.3,12.2z
		 M163.4,23.7c8.3,0,13.1,5.6,13.1,15.3c0,9.5-4.8,15.2-12.8,15.2c-2.9,0-5.5-0.8-7.9-2.3v13.6l-0.1,0c-1.1,0.2-2.3,0.4-3.5,0.4
		s-2.3-0.1-3.5-0.4l-0.1,0V25l0.1,0c1.7-0.5,3.1-0.5,4.9,0l0.1,0l0.4,2.2C157.1,24.9,160.3,23.7,163.4,23.7z M155.7,31.7v14.6
		c2,1.4,4.1,2.1,6.2,2.1c5,0,7.6-3.2,7.6-9.3c0-6.2-2.7-9.6-7.5-9.6C159.8,29.6,157.8,30.3,155.7,31.7L155.7,31.7z M207.1,31.1
		c5.7,2.2,11.5,4.4,11.6,11.3c-0.1,10.3-9.8,11.9-15.7,11.9c-6,0-10.7-1.6-13.5-4.6c-2.1-2.3-3.1-5.2-2.9-8.5V41l0.1,0
		c2.4-0.6,4.9-0.6,7.4-0.1l0.1,0V41c-0.2,1.8,0.2,3.3,1.3,4.5c1.5,1.6,4,2.5,7.4,2.5c3.1,0,5.3-0.7,6.7-2c0.9-0.9,1.4-2.2,1.3-3.7
		c-0.1-3-3.4-4.1-8.9-6c-1.1-0.4-2.4-0.8-3.7-1.3l-0.6-0.2c-4-1.5-10.8-3.9-10.7-11.2c0.1-7.4,6-11.8,15.9-11.8h0.2
		c5.3,0,9.5,1.5,12.1,4.3c2.1,2.2,3.2,5.2,3,8.6v0.1l-0.1,0c-2.6,0.6-5.1,0.7-7.5,0.2l-0.1,0v-0.1c0.1-2-0.3-3.6-1.5-4.8
		c-1.3-1.4-3.5-2.2-6.3-2.2c-2.8,0-5.2,0.8-6.6,2.2c-0.9,0.9-1.4,2.2-1.4,3.5c0.1,3,3.4,4.2,9,6.2C204.7,30.2,205.9,30.6,207.1,31.1
		L207.1,31.1z M236.5,29.6c-5,0-7.3,3-7.3,9.4s2.3,9.4,7.3,9.4c1.3,0,5.6-0.3,6.3-4.8v-0.1h0.1c2.3-0.4,4.4-0.3,6.4,0.4l0.1,0V44
		c-0.2,2.6-1.4,5.1-3.4,6.9c-2.3,2.2-5.7,3.3-9.6,3.3c-9.2,0-14.2-5.4-14.2-15.2c0-9.9,5.1-15.3,14.4-15.3c3.9,0,7.2,1.1,9.5,3.2
		c2,1.8,3.2,4.4,3.4,7.3v0.1l-0.1,0c-2,0.6-4.2,0.7-6.5,0.4h-0.1v-0.1C242.5,32.7,241.4,29.6,236.5,29.6L236.5,29.6z M267,23.7
		c9.1,0,14.1,5.4,14.1,15.3c0,9.8-5,15.2-14.1,15.2c-9.1,0-14.1-5.4-14.1-15.2C252.8,29.1,257.8,23.7,267,23.7z M274.2,39
		c0-6.3-2.4-9.4-7.3-9.4c-5,0-7.3,3-7.3,9.4c0,6.3,2.4,9.4,7.3,9.4C271.9,48.4,274.2,45.3,274.2,39L274.2,39z M303.9,25
		c2.3-0.6,4.7-0.6,6.9,0l0.1,0v28l-0.1,0c-1.7,0.5-3.4,0.5-5.1,0l-0.1,0l-0.7-3.2c-3.3,3-6.3,4.4-9.8,4.4c-6.5,0-10.2-4-10.2-10.9
		V25l0.1,0c2.3-0.6,4.7-0.6,6.9,0l0.1,0v16.7c0,4.6,1.5,6.5,4.9,6.5c2.4,0,4.5-0.9,6.8-2.9V25L303.9,25z M332.9,47.6
		c0.5,2,0.5,3.9,0,5.7l0,0.1h-0.1c-2,0.4-3.7,0.6-5.2,0.6c-2.5,0-4.3-0.5-5.7-1.6c-2.4-2-2.6-5.6-2.6-9l-0.1-12.5h-3.6l0-0.1
		c-0.5-1.9-0.5-3.9,0-5.8l0-0.1h3.6l-0.1-7.7l0.1,0c2.3-0.5,4.7-0.5,6.9,0l0.1,0v7.7h5.7l0,0.1c0.4,1.9,0.4,3.9,0,5.8l0,0.1h-5.7v13
		c0,1.7,0.4,2.8,1.1,3.5c1,0.8,2.6,0.8,5.3,0.2l0.1,0L332.9,47.6z">
  </path>
  <path class="st0" d="M23.3,19.5L4.2,39c-2.4-2.4-3.9-5.8-4.2-9.8c0-3.7,1.8-7.3,4.2-9.7L23.6,0c2.4,2.4,3.9,6.1,3.9,9.7
		S25.7,17.1,23.3,19.5L23.3,19.5z M31.7,46.5L51,27c2.4,2.7,3.9,6.1,3.9,9.7c0,3.7-1.8,7.3-4.2,9.8L31.4,66
		c-2.4-2.4-3.9-6.1-3.9-9.7C27.4,52.6,29.3,48.9,31.7,46.5L31.7,46.5z M31.2,19.5l5.7-5.7L51,0c2.4,2.4,3.9,6,3.9,9.6
		s-1.8,7.2-4.2,9.6L36.9,33l-5.7,5.7l-8.1,8.1l-5.7,5.7L3.9,66C1.5,63.6,0,60,0,56.4c0-3.6,1.8-7.2,4.2-9.6l13.5-13.5l5.4-5.7
		L31.2,19.5z">
  </path>
 </g>
</svg>