<svg version="1.1" id="Logo_00000152252418857761589150000000798012301435666049_" xmlns:x="ns_extend;" xmlns:i="ns_ai;" xmlns:graph="ns_graphs;" xmlns="http://www.w3.org/2000/svg" xmlns:xlink="http://www.w3.org/1999/xlink" x="0px" y="0px" viewBox="0 0 888.8 172.2" style="enable-background:new 0 0 888.8 172.2;" xml:space="preserve">
 <style type="text/css">
  .st0{fill:#FFFFFF;}
 </style>
 <metadata>
  <sfw xmlns="ns_sfw;">
   <slices>
   </slices>
   <sliceSourceBounds bottomLeftOrigin="true" height="172.2" width="888.8" x="73" y="39.9">
   </sliceSourceBounds>
  </sfw>
 </metadata>
 <g>
  <g>
   <path class="st0" d="M110.6,123c-3.9,1.4-12.7,3.5-22.5-1.6c-0.5-0.3-1,0.4-0.6,0.8c3.1,3.3,8.6,9.2,12,12
			c0.7,0.6,1.8,0.5,2.4-0.2l9.3-10.3C111.5,123.5,111.1,122.8,110.6,123z">
   </path>
   <path class="st0" d="M146.9,80.3c-5-10.8-12.4-20.9-23.7-22.1c-2-0.2-4.1,0.2-5.8,1.3l-12.3,7.3c-3.1,1.8-6.9,1.6-9.7-0.6
			l-10.7-8.3c-3.6-2.8-7.7-4.8-12.1-5.8c-18.3-4.3-30.7,5.3-40.1,23.3c-9,17.2-4,42,18.1,47.8c23.3,6.2,38.7-19.7,44.9-28.3
			c1.2-1.7,3.6-1.7,4.8,0c9.6,13,22.4,26.9,36.2,24.1C154.7,115.3,152.5,92.4,146.9,80.3z M79.4,94c-4.5,3-10.2,2.3-13.6-2.8
			c-3.4-5.1-1.9-10.7,2.6-13.7s10.2-2.3,13.6,2.8C85.4,85.4,83.9,91,79.4,94z M127.1,94.9c-4.5,3-10.2,2.3-13.6-2.8
			s-1.9-10.7,2.6-13.7s10.2-2.3,13.6,2.8C133.1,86.3,131.6,91.9,127.1,94.9z">
   </path>
   <path class="st0" d="M100.1,101.5c-0.9-1-2.6-1-3.5,0.1l-9.8,11.6c-0.5,0.5-0.4,1.4,0.2,1.8c2.3,1.6,7.8,5.2,13.2,5.2
			c5,0,9.5-1.9,11.7-3c0.7-0.4,0.9-1.3,0.4-1.9L100.1,101.5z">
   </path>
  </g>
  <path class="st0" d="M22,4.7c0.2,0,0.5,0,0.7,0.1l54.8,20.4c2.6-0.4,5.1-0.7,7.7-0.7c9.5,0,18.6,2.1,27.6,7.4l52.5-4.7
		c0.1,0,0.1,0,0.2,0c1.7,0,2.3,2.3,0.8,3.2l-32.7,19.4c0.5,0.6,1.1,1.2,1.6,1.8c15.1,17.7,24.4,43.5,28.8,58.4
		c2.6,8.8,1,18.3-4.3,25.8c-9.7,13.4-30.4,31.8-71.3,31.8c-44.6,0-67.8-22-79-35.6c-4.8-5.8-6.1-13.7-3.5-20.8
		c6.2-16.6,18.8-48.4,28.9-59.9c5.8-6.6,12.5-12.4,19.7-16.8L20.8,8.3C19.2,7.1,20.2,4.7,22,4.7 M22,0L22,0c-2.8,0-5.4,1.8-6.3,4.6
		c-0.9,2.7-0.1,5.7,2.3,7.5l28.6,22.1c-5.5,4-10.6,8.8-15.2,14c-10.5,12-23.1,43.6-29.8,61.3c-3.2,8.6-1.6,18.4,4.2,25.4
		c20.4,24.8,48.2,37.3,82.6,37.3c42,0,64-18.3,75.1-33.7c6.3-8.7,8.1-19.6,5-29.9c-4.1-13.8-13.1-39.2-27.8-57.7l28-16.6
		c2.5-1.4,3.7-4.3,2.9-7.1c-0.7-2.8-3.3-4.7-6.1-4.7c-0.2,0-0.4,0-0.6,0l-51,4.6c-8.9-4.9-18.3-7.2-28.7-7.2c-2.3,0-4.8,0.2-7.2,0.5
		l-53.6-20C23.6,0.2,22.8,0,22,0L22,0L22,0z M117.4,59.4l-12.3,7.3c-3.1,1.8-6.9,1.6-9.7-0.6l-10.7-8.3C81.1,55,77,53,72.6,52
		c-18.3-4.3-30.7,5.3-40.1,23.3c-9,17.2-4,42,18.1,47.8c23.3,6.2,38.7-19.7,44.9-28.3c1.2-1.7,3.6-1.7,4.8,0
		c9.6,13,22.4,26.9,36.2,24.1c18-3.6,15.9-26.5,10.3-38.7c-5-10.8-12.4-20.9-23.7-22.1C121.2,57.9,119.1,58.4,117.4,59.4z M79.4,94
		c-4.5,3-10.2,2.3-13.6-2.8c-3.4-5.1-1.9-10.7,2.6-13.7s10.2-2.3,13.6,2.8C85.4,85.4,83.9,91,79.4,94z M129.7,81.2
		c3.4,5.1,1.9,10.7-2.6,13.7c-4.5,3-10.2,2.3-13.6-2.8c-3.4-5.1-1.9-10.7,2.6-13.7C120.5,75.4,126.2,76.1,129.7,81.2z M112.3,115.2
		c0.5,0.6,0.4,1.5-0.4,1.9c-2.2,1.1-6.7,3-11.7,3c-5.4,0-10.9-3.5-13.2-5.2c-0.6-0.4-0.7-1.2-0.2-1.8l9.8-11.6
		c0.9-1.1,2.5-1.1,3.5-0.1L112.3,115.2z M111.2,123.9l-9.3,10.3c-0.6,0.7-1.7,0.7-2.4,0.2c-3.3-2.9-8.9-8.7-12-12
		c-0.4-0.4,0.1-1,0.6-0.8c9.8,5.1,18.6,3,22.5,1.6C111.1,122.8,111.5,123.5,111.2,123.9z">
  </path>
  <g>
   <g>
    <path class="st0" d="M211.3,134.4V56.7h17.2v33.7h57.1V56.7h17.2v77.6h-17.2v-29.4h-57.1v29.4h-17.2V134.4z">
    </path>
    <path class="st0" d="M351.5,136.3c-11.4,0-20.6-3-27.5-8.9c-7-5.9-10.4-13.7-10.4-23.4s3.5-17.5,10.4-23.4
				c7-5.9,16.1-8.9,27.5-8.9c11.5,0,20.7,3,27.7,8.9s10.4,13.7,10.4,23.4s-3.5,17.5-10.4,23.4C372.2,133.4,363,136.3,351.5,136.3z
				 M351.5,123c6.6,0,12-1.7,16-5.2s6.1-8,6.1-13.7s-2-10.4-6.1-13.8c-4-3.5-9.4-5.2-16-5.2s-11.8,1.8-15.9,5.3
				c-4,3.5-6.1,8.1-6.1,13.8c0,5.7,2,10.2,6.1,13.7C339.7,121.2,345,123,351.5,123z">
    </path>
    <path class="st0" d="M435.3,136.3c-11.4,0-20.6-3-27.5-8.9c-7-5.9-10.4-13.7-10.4-23.4s3.5-17.5,10.4-23.4
				c7-5.9,16.1-8.9,27.5-8.9c11.5,0,20.7,3,27.7,8.9s10.4,13.7,10.4,23.4s-3.5,17.5-10.4,23.4C456,133.4,446.8,136.3,435.3,136.3z
				 M435.3,123c6.6,0,12-1.7,16-5.2s6.1-8,6.1-13.7s-2-10.4-6.1-13.8c-4-3.5-9.4-5.2-16-5.2c-6.6,0-11.8,1.8-15.9,5.3
				c-4,3.5-6.1,8.1-6.1,13.8c0,5.7,2,10.2,6.1,13.7C423.4,121.2,428.7,123,435.3,123z">
    </path>
    <path class="st0" d="M505.2,135.6c-7.6,0-11.9-3.5-14.1-6.7c-2.3-3.2-4.1-7.3-4.1-16.3V86.3h-8.7V73.7h11.2v-17h14.8v17h17.5
				v12.5h-17.5v22.7c-0.1,6.8,1,9.2,2.6,10.9c2.9,2.9,11.7,0.9,14.9-1.1v13.1C518,134.4,511.3,135.6,505.2,135.6z">
    </path>
    <path class="st0" d="M565.6,136.3c-10.8,0-21.6-1.6-32.5-4.7v-13.8c9.1,3.5,19,5.2,29.7,5.2c7.7,0,13.2-0.5,16.5-1.5s5-2.7,5-5.2
				c0-2.3-1.8-4-5.5-4.9s-8.2-1.5-13.5-1.8c-5.3-0.2-10.6-0.7-15.9-1.4c-5.3-0.7-9.8-2.4-13.5-5c-3.7-2.7-5.5-6.4-5.5-11.3
				c0-6.6,3.2-11.6,9.6-15c6.4-3.4,15.1-5.1,26.1-5.1c8.7,0,18.8,1.1,30.3,3.4v13.3c-9.9-2.1-19.5-3.2-28.5-3.2
				c-13.7,0-20.6,2.1-20.6,6.3c0,2.1,1.9,3.6,5.6,4.4c3.7,0.8,8.2,1.4,13.5,1.8c5.3,0.3,10.5,0.9,15.8,1.6c5.3,0.8,9.8,2.5,13.5,5.3
				s5.6,6.6,5.6,11.5c0,6.8-3.2,11.8-9.5,15.1C585.5,134.7,576.7,136.3,565.6,136.3z">
    </path>
    <path class="st0" d="M683.6,73.7v60.7h-18.9l2.4-25h-1c-2.8,18-12.8,26.9-29.8,26.9c-8.7-0.2-15.1-3-19.2-8.6
				c-4-5.5-6.1-14.8-6.1-27.7V73.7h17.2V98c0,9.1,1.3,15.6,3.9,19.5c2.6,3.9,6.8,5.8,12.7,5.8c6.6,0,11.8-3,15.6-9
				c3.9-6,5.8-13.9,5.8-23.9V73.7H683.6z">
    </path>
    <path class="st0" d="M707,67.9c-3.3,0-5.9-0.8-7.8-2.5c-1.9-1.7-2.8-4.1-2.8-7.3c0-3.2,0.9-5.7,2.8-7.3c1.9-1.6,4.4-2.4,7.8-2.4
				c3.4,0,6,0.8,7.9,2.4s2.9,4,2.9,7.3C717.8,64.6,714.2,67.9,707,67.9z M698.6,134.4V73.7h17.2v60.7H698.6z">
    </path>
    <path class="st0" d="M812.9,136.3c-11,0-19.8-3-26.5-8.9c-6.7-5.9-10-13.7-10-23.4s3.3-17.5,10-23.4s15.5-8.9,26.5-8.9
				c10.8,0,19.6,2.5,26.3,7.6s10.1,11.7,10.3,20v9.9H793c1,4.9,3.5,8.5,7.7,10.7s10.3,3.3,18.4,3.3c10.7,0,15.5-1.7,20.7-3.6
				c0.8-0.3,6.5-2.8,7-3v13.8c-6.1,2.3-11.4,3.9-15.9,4.7C826.3,135.9,820.3,136.3,812.9,136.3z M792.5,100.9l40.5-1
				c-0.2-5.3-2-9.2-5.2-11.5s-8.2-3.5-14.9-3.5c-6.5,0-11.3,1.2-14.6,3.7C795,91.2,793.1,95.2,792.5,100.9z">
    </path>
    <g>
     <g>
      <g>
       <g>
        <path class="st0" d="M880.1,89.1c1.2-1,1.7-2.3,1.7-4s-0.6-3-1.7-4c-1.2-1-2.8-1.5-4.8-1.5h-6.5v16.1h2.7v-5.2h3.7
								c0.2,0,0.4,0,0.7,0l3.4,5.2h2.8l-3.7-5.7C879,89.8,879.6,89.5,880.1,89.1z M875.1,88.3h-3.6v-6.4h3.6c1.3,0,2.3,0.3,3,0.8
								c0.7,0.6,1.1,1.3,1.1,2.4c0,1-0.4,1.8-1.1,2.4C877.4,88,876.4,88.3,875.1,88.3z">
        </path>
        <path class="st0" d="M887.7,82c-0.7-1.7-1.7-3.2-3-4.5s-2.8-2.3-4.5-3s-3.6-1.1-5.6-1.1s-3.9,0.4-5.6,1.1
								c-1.7,0.7-3.3,1.7-4.5,3c-1.3,1.3-2.3,2.8-3,4.5s-1.1,3.6-1.1,5.6s0.4,3.8,1.1,5.6c0.7,1.7,1.7,3.2,3,4.5s2.8,2.3,4.5,3
								s3.6,1.1,5.6,1.1s3.9-0.4,5.6-1.1c1.7-0.7,3.2-1.7,4.5-3s2.3-2.8,3-4.6c0.7-1.7,1.1-3.6,1.1-5.6
								C888.8,85.6,888.5,83.7,887.7,82z M886,92.5c-0.6,1.5-1.5,2.8-2.6,4c-1.1,1.1-2.4,2-4,2.7c-1.5,0.6-3.1,1-4.9,1
								c-1.8,0-3.4-0.3-4.9-0.9s-2.8-1.5-3.9-2.6c-1.1-1.1-2-2.4-2.6-4c-0.6-1.5-0.9-3.1-0.9-4.9s0.3-3.4,0.9-4.9
								c0.6-1.5,1.5-2.8,2.6-4c1.1-1.1,2.4-2,3.9-2.7c1.5-0.6,3.2-0.9,4.9-0.9c1.8,0,3.4,0.3,4.9,0.9s2.8,1.5,3.9,2.6
								c1.1,1.1,2,2.4,2.6,3.9s0.9,3.1,0.9,4.9C886.9,89.4,886.6,91,886,92.5z">
        </path>
       </g>
      </g>
     </g>
    </g>
    <path class="st0" d="M754.2,135.6c-7.6,0-11.9-3.5-14.1-6.7c-2.3-3.2-4.1-7.3-4.1-16.3V86.3h-8.7V73.7h11.2v-17h14.8v17h17.5
				v12.5h-17.5v22.7c-0.1,6.8,1,9.2,2.6,10.9c2.9,2.9,11.7,0.9,14.9-1.1v13.1C767.1,134.4,760.4,135.6,754.2,135.6z">
    </path>
   </g>
  </g>
 </g>
</svg>