<svg version="1.1" id="Layer_1" xmlns:x="ns_extend;" xmlns:i="ns_ai;" xmlns:graph="ns_graphs;" xmlns="http://www.w3.org/2000/svg" xmlns:xlink="http://www.w3.org/1999/xlink" x="0px" y="0px" viewBox="0 0 693 114" style="enable-background:new 0 0 693 114;" xml:space="preserve">
 <style type="text/css">
  .st0{fill:#FFFFFF;}
	.st1{fill-rule:evenodd;clip-rule:evenodd;fill:#FFFFFF;}
 </style>
 <metadata>
  <sfw xmlns="ns_sfw;">
   <slices>
   </slices>
   <sliceSourceBounds bottomLeftOrigin="true" height="113.1" width="692.9" x="0" y="0.9">
   </sliceSourceBounds>
  </sfw>
 </metadata>
 <g>
  <path class="st0" d="M166.4,30.4c-2.8,0-5.1-0.9-7.1-2.7c-1.9-1.8-2.8-4-2.8-6.6c0-2.7,0.9-5,2.8-6.7c1.9-1.8,4.3-2.7,7.1-2.7
		c2.8,0,5.1,0.9,7,2.7c1.9,1.8,2.8,4,2.8,6.7c0,2.6-0.9,4.8-2.8,6.6C171.6,29.5,169.2,30.4,166.4,30.4z M157.6,88.6V38.3h17.6v50.3
		H157.6z">
  </path>
  <path class="st0" d="M187,88.6V38.3h17.3l0.2,6.2c1.3-2.5,3.2-4.4,5.7-5.7c2.5-1.4,5.4-2,8.7-2c5.6,0,9.9,1.8,12.8,5.5
		c3,3.6,4.5,8.8,4.5,15.8v30.6h-17.6V61.3c0-5.9-2.2-8.9-6.7-8.9c-2.4,0-4.2,0.8-5.5,2.5c-1.2,1.6-1.8,4-1.8,7v26.6H187z">
  </path>
  <path class="st0" d="M252.8,88.6V52.4h-8.1V38.3h8.1v-4.9c0-7.7,1.9-13.7,5.6-17.9c3.8-4.2,9.2-6.3,16.1-6.3c2,0,3.9,0.2,5.6,0.5
		c1.8,0.3,3.3,0.6,4.6,1.2l-0.9,14.6c-0.7-0.3-1.6-0.6-2.6-0.7c-1-0.2-1.9-0.3-2.7-0.3c-2.8,0-4.9,0.8-6.2,2.4
		c-1.3,1.6-1.9,4.2-1.9,7.7v3.7h11.8v14.1h-11.8v36.1H252.8z M290,88.6V9.7h17.6v78.9H290z">
  </path>
  <path class="st0" d="M335.9,90.1c-5.5,0-9.7-1.8-12.6-5.3c-2.9-3.6-4.4-8.8-4.4-15.6v-31h17.7v27.4c0,3,0.5,5.2,1.6,6.6
		c1.1,1.4,2.8,2.1,5.1,2.1c2.3,0,4.1-0.8,5.3-2.4c1.3-1.7,1.9-4.1,1.9-7.1V38.3h17.6v50.3h-17.3l-0.2-6.2c-1.3,2.5-3.2,4.4-5.8,5.7
		C342.3,89.4,339.4,90.1,335.9,90.1z">
  </path>
  <path class="st0" d="M376.1,88.6l18.2-25.9l-17.3-24.4h19.6l8.2,13.6l8-13.6h18.6l-17.2,24.5l18.3,25.7h-19.7l-9.1-15.2l-9,15.2
		H376.1z">
  </path>
  <path class="st0" d="M463.4,90.1c-4.5,0-8.5-1.1-12-3.3c-3.5-2.2-6.2-5.3-8.2-9.2c-2-4-3-8.4-3-13.4c0-4.8,1.1-9.2,3.2-13.1
		c2.2-4,5.1-7.1,8.8-9.4c3.7-2.3,7.8-3.5,12.2-3.5c3.7,0,7.1,0.9,10.1,2.7c3.1,1.8,5.6,4.4,7.5,7.7V9.7h8.3v78.9h-8.1l-0.2-8.9
		c-1.9,3.3-4.5,5.9-7.7,7.7C471.1,89.2,467.5,90.1,463.4,90.1z M465.5,82.7c3.4,0,6.3-0.8,8.8-2.3c2.5-1.6,4.5-3.7,5.9-6.5
		c1.5-2.8,2.2-6,2.2-9.6c0-3.6-0.7-6.9-2.2-9.6c-1.4-2.8-3.4-5-5.9-6.5c-2.5-1.6-5.5-2.3-8.8-2.3c-3.3,0-6.2,0.8-8.8,2.3
		c-2.5,1.6-4.5,3.7-6,6.5c-1.4,2.8-2.1,6-2.1,9.6c0,3.6,0.7,6.9,2.1,9.6c1.5,2.8,3.5,5,6,6.5C459.3,81.9,462.2,82.7,465.5,82.7z">
  </path>
  <path class="st0" d="M527.6,90.1c-4.5,0-8.5-1.1-12-3.3c-3.5-2.2-6.2-5.3-8.3-9.2c-2-4-3-8.4-3-13.4c0-4.8,1.1-9.2,3.2-13.1
		c2.2-4,5.1-7.1,8.8-9.4c3.7-2.3,7.8-3.5,12.2-3.5c3.7,0,7.1,0.9,10.1,2.7c3.1,1.8,5.6,4.4,7.5,7.7l0.2-8.9h8.1v48.7h-8.1l-0.2-8.9
		c-1.9,3.3-4.5,5.9-7.7,7.7C535.3,89.2,531.6,90.1,527.6,90.1z M529.7,82.7c3.4,0,6.3-0.8,8.8-2.3c2.5-1.6,4.5-3.7,5.9-6.5
		c1.5-2.8,2.2-6,2.2-9.6c0-3.6-0.7-6.9-2.2-9.6c-1.4-2.8-3.4-5-5.9-6.5c-2.5-1.6-5.5-2.3-8.8-2.3c-3.3,0-6.2,0.8-8.8,2.3
		c-2.5,1.6-4.5,3.7-6,6.5c-1.4,2.8-2.1,6-2.1,9.6c0,3.6,0.7,6.9,2.1,9.6c1.5,2.8,3.5,5,6,6.5C523.5,81.9,526.4,82.7,529.7,82.7z">
  </path>
  <path class="st0" d="M591.2,90.1c-5.5,0-9.5-1.5-12.1-4.4c-2.6-3-3.9-7.6-3.9-13.9V47h-11.1v-7.1h11.1v-14h8.3v14h17V47h-17v24.2
		c0,4.2,0.7,7.2,2.1,9.1c1.5,1.8,3.9,2.7,7.1,2.7c3.1,0,6.3-0.8,9.6-2.5l1,6.9c-1.5,0.9-3.3,1.6-5.4,2
		C595.7,89.9,593.5,90.1,591.2,90.1z">
  </path>
  <path class="st0" d="M633.8,90.1c-4.5,0-8.5-1.1-12-3.3c-3.5-2.2-6.2-5.3-8.3-9.2c-2-4-3-8.4-3-13.4c0-4.8,1.1-9.2,3.2-13.1
		c2.2-4,5.1-7.1,8.8-9.4c3.7-2.3,7.8-3.5,12.2-3.5c3.7,0,7.1,0.9,10.1,2.7c3.1,1.8,5.6,4.4,7.5,7.7l0.2-8.9h8.1v48.7h-8.1l-0.2-8.9
		c-1.9,3.3-4.5,5.9-7.7,7.7C641.5,89.2,637.9,90.1,633.8,90.1z M636,82.7c3.4,0,6.3-0.8,8.8-2.3c2.5-1.6,4.5-3.7,5.9-6.5
		c1.5-2.8,2.2-6,2.2-9.6c0-3.6-0.7-6.9-2.2-9.6c-1.4-2.8-3.4-5-5.9-6.5c-2.5-1.6-5.5-2.3-8.8-2.3c-3.3,0-6.2,0.8-8.8,2.3
		c-2.5,1.6-4.5,3.7-6,6.5c-1.4,2.8-2.1,6-2.1,9.6c0,3.6,0.7,6.9,2.1,9.6c1.5,2.8,3.5,5,6,6.5C629.7,81.9,632.7,82.7,636,82.7z">
  </path>
  <path class="st1" d="M82.6,78l26.2-6c0.4-0.1,0.8-0.2,1.1-0.5c0.3-0.2,0.6-0.5,0.8-0.9c0.2-0.4,0.3-0.7,0.4-1.2
		c0.1-0.4,0-0.8-0.1-1.2L100,19.9c-0.2-0.8-0.7-1.5-1.4-1.9c-0.7-0.4-1.6-0.5-2.4-0.3l-26.2,6c-0.8,0.2-1.5,0.7-1.9,1.4
		s-0.5,1.5-0.3,2.3l11.1,48.4c0.2,0.8,0.7,1.5,1.4,1.9C81,78.1,81.8,78.2,82.6,78z">
  </path>
  <path class="st1" d="M73.6,107.9l31.8-29.4c1.2-1.2,0.9-2-0.8-1.4l-21.9,5c-0.9,0.2-1.7,0.7-2.4,1.3c-0.7,0.6-1.2,1.4-1.5,2.3
		L72.2,107C71.8,108.7,72.4,109.1,73.6,107.9z">
  </path>
  <path class="st1" d="M15.6,98.3L63.2,113c0.8,0.2,1.7,0,2.4-0.4c0.7-0.4,1.3-1.1,1.5-1.8l8-25.5c0.1-0.4,0.2-0.8,0.1-1.2
		c0-0.4-0.2-0.8-0.4-1.2c-0.2-0.4-0.5-0.7-0.8-0.9c-0.3-0.3-0.7-0.5-1.1-0.6L25.3,66.8c-0.8-0.2-1.7-0.1-2.4,0.3s-1.3,1.1-1.5,1.9
		l-7.9,25.5c-0.2,0.8-0.1,1.7,0.2,2.4C14.1,97.5,14.8,98.1,15.6,98.3z">
  </path>
  <path class="st1" d="M0.2,46l9.7,42.3c0.3,1.7,1.1,1.7,1.5,0L18,67c0.2-0.9,0.2-1.9,0-2.8c-0.2-0.9-0.6-1.8-1.2-2.5L1.6,45.3
		C0.5,44-0.3,44.4,0.2,46z">
  </path>
  <path class="st1" d="M37.4,0.9L1,34.6c-0.6,0.6-0.9,1.3-1,2.1c0,0.8,0.3,1.6,0.8,2.2L19,58.7c0.6,0.6,1.3,0.9,2.2,1
		s1.6-0.3,2.2-0.8L59.9,25c0.6-0.6,0.9-1.3,1-2.1c0-0.8-0.3-1.6-0.8-2.2L41.8,1c-0.3-0.3-0.6-0.5-1-0.7C40.5,0.1,40.1,0,39.7,0
		c-0.4,0-0.8,0.1-1.2,0.2C38.1,0.4,37.7,0.6,37.4,0.9z">
  </path>
  <path class="st1" d="M72.7,77.3c1.7,0.5,2.7-0.4,2.3-2.2L64.4,29.5c-0.5-1.7-1.8-2.1-3-0.9L27,60.5c-1.2,1.2-0.9,2.5,0.7,3
		L72.7,77.3z">
  </path>
  <path class="st1" d="M90.6,13.6L49,0.9c-1.7-0.5-2,0.2-0.6,1.5l15.2,16.4c0.7,0.6,1.5,1.1,2.4,1.4c0.9,0.3,1.8,0.3,2.8,0.1l21.9-5
		C92.3,14.8,92.3,14,90.6,13.6z">
  </path>
  <path class="st0" d="M680.8,33.2c-2.3,0-4.3-0.5-6.1-1.6c-1.8-1.1-3.3-2.5-4.4-4.4c-1.1-1.8-1.6-3.9-1.6-6.1c0-2.3,0.5-4.3,1.6-6.1
		c1.1-1.8,2.5-3.3,4.4-4.4c1.8-1.1,3.9-1.6,6.1-1.6c2.3,0,4.3,0.5,6.1,1.6c1.8,1.1,3.3,2.5,4.4,4.4c1.1,1.8,1.6,3.9,1.6,6.1
		c0,2.3-0.5,4.3-1.6,6.1c-1.1,1.8-2.5,3.3-4.4,4.4C685.2,32.7,683.1,33.2,680.8,33.2z M680.8,31.1c1.9,0,3.5-0.4,5-1.3
		c1.5-0.9,2.7-2.1,3.6-3.6c0.9-1.5,1.3-3.2,1.3-5.1c0-1.9-0.4-3.6-1.3-5c-0.9-1.5-2.1-2.7-3.6-3.6c-1.5-0.9-3.1-1.3-5-1.3
		c-1.8,0-3.5,0.4-5,1.3c-1.5,0.9-2.7,2.1-3.6,3.6c-0.9,1.5-1.3,3.2-1.3,5c0,1.9,0.4,3.6,1.3,5.1c0.9,1.5,2.1,2.7,3.6,3.6
		C677.3,30.6,679,31.1,680.8,31.1z M676.8,26.6V15h3.9c1.5,0,2.6,0.3,3.3,1c0.8,0.7,1.2,1.5,1.2,2.7c0,0.7-0.2,1.4-0.5,2
		c-0.3,0.6-0.9,1-1.5,1.3l2.9,4.6h-2.4l-2.5-4.2h-2.2v4.2H676.8z M680.5,16.9h-1.7v3.7h1.6c1,0,1.6-0.2,2-0.5
		c0.4-0.3,0.6-0.8,0.6-1.4C683,17.5,682.2,16.9,680.5,16.9z">
  </path>
 </g>
</svg>