<?xml version="1.0" encoding="UTF-8"?>
<svg xmlns="http://www.w3.org/2000/svg" xmlns:xlink="http://www.w3.org/1999/xlink" viewBox="0 0 800.02 135.99"><defs><style>.cls-1{isolation:isolate;}.cls-2{fill:#00287a;}.cls-11,.cls-12,.cls-3,.cls-5,.cls-7,.cls-8,.cls-9{mix-blend-mode:multiply;}.cls-3{fill:url(#linear-gradient);}.cls-4{fill:#64b5f9;}.cls-5,.cls-8{opacity:0.2;}.cls-5{fill:url(#linear-gradient-2);}.cls-6{fill:#0098ff;}.cls-7,.cls-9{opacity:0.5;}.cls-7{fill:url(#linear-gradient-3);}.cls-8{fill:url(#linear-gradient-4);}.cls-9{fill:url(#linear-gradient-5);}.cls-10{fill:#0e5fc1;}.cls-11{opacity:0.3;fill:url(#linear-gradient-6);}.cls-12{opacity:0.8;fill:url(#linear-gradient-7);}</style><linearGradient id="linear-gradient" x1="158.31" y1="49.76" x2="20.85" y2="206" gradientUnits="userSpaceOnUse"><stop offset="0" stop-color="#fff" stop-opacity="0"/><stop offset="1" stop-color="#00287a"/></linearGradient><linearGradient id="linear-gradient-2" x1="88.72" y1="20.49" x2="-4.04" y2="188.84" href="#linear-gradient"/><linearGradient id="linear-gradient-3" x1="110.16" y1="27.52" x2="23.69" y2="183.26" href="#linear-gradient"/><linearGradient id="linear-gradient-4" x1="77.53" y1="-28.84" x2="-15.23" y2="139.51" href="#linear-gradient"/><linearGradient id="linear-gradient-5" x1="98.97" y1="-21.81" x2="12.5" y2="133.93" href="#linear-gradient"/><linearGradient id="linear-gradient-6" x1="134.81" y1="17.04" x2="38.2" y2="111.2" href="#linear-gradient"/><linearGradient id="linear-gradient-7" x1="25.82" y1="64.75" x2="133.94" y2="64.75" href="#linear-gradient"/></defs><title>Instabug-Logo-H_colored</title><g class="cls-1"><g id="Layer_2" ><g id="Layer_1-2"><path class="cls-2" d="M236.62,13.12h21v93.42h-21Z"/><path class="cls-2" d="M274.42,106.54V37.26h19.34v9.61c3.67-6.57,11.88-11.5,21.87-11.5a26.83,26.83,0,0,1,19.09,7.45c5.18,4.93,7.84,12.14,7.84,21.37v42.35H322.71V69.37c0-10.11-5.31-15.8-13.53-15.8-9,0-14.91,6.57-14.91,16.31v36.66Z"/><path class="cls-2" d="M351.78,95.67l9.73-12.9c5.95,6.07,12.52,9.1,19.85,9.1,4.93,0,8.47-2.15,8.47-5.56,0-2-1.39-3.66-4.3-5-1-.51-3.79-1.52-8.21-3s-7.46-2.78-9-3.54C360.12,70.76,356,64.57,356,56.35a18.75,18.75,0,0,1,7.33-15.42C368.21,37,374.79,35,383,35c10,0,18.33,3.16,25,9.6l-9.23,12.9c-5.19-4.3-10.62-6.45-16.19-6.45-4.42,0-7.2,2-7.2,4.93,0,2.53,2,4.43,6.19,5.82,7.46,2.4,12.9,4.42,16.44,6.32,7.83,4.17,11.75,10,11.75,17.7A20.3,20.3,0,0,1,402,102c-5.19,4.3-12,6.44-20.61,6.44C369.1,108.43,359.24,104.14,351.78,95.67Z"/><path class="cls-2" d="M471.87,102.62q-8.91,5.68-21.24,5.69c-16.56,0-24.78-9.36-24.78-27.94V53.7h-11V37.26H426V12.74H445.7V37.26H468V53.7H445.7V78.47c0,7.84,3,11.76,9.23,11.76q4.74,0,11.38-3.41Z"/><path class="cls-2" d="M530.9,37.26h18.71v69.28H530.9V99.46a29,29,0,0,1-21.36,8.85A32.13,32.13,0,0,1,485,97.82c-6.45-7.08-9.61-15.81-9.61-26.3s3.29-19,9.74-25.79,14.66-10.24,24.4-10.24a28.8,28.8,0,0,1,21.36,9.1ZM500.18,84.92A16.88,16.88,0,0,0,513,90.23a16.56,16.56,0,0,0,12.77-5.44,18.45,18.45,0,0,0,5.18-13,18,18,0,0,0-5.18-12.89,18,18,0,0,0-25.54,0,18.25,18.25,0,0,0-4.93,12.89A18.85,18.85,0,0,0,500.18,84.92Z"/><path class="cls-2" d="M629.37,46c6.7,7,10,15.55,10,25.92s-3.29,19.09-9.86,26-14.79,10.37-24.65,10.37a26.22,26.22,0,0,1-20.74-9.48v7.71H564.9V10.33h19.85V44.09a26.74,26.74,0,0,1,20.1-8.6A32.49,32.49,0,0,1,629.37,46ZM614.2,59a16.42,16.42,0,0,0-12.64-5.31A16.88,16.88,0,0,0,588.79,59a17.72,17.72,0,0,0-4.93,12.76,18.31,18.31,0,0,0,4.93,13,16.88,16.88,0,0,0,12.77,5.31,16.42,16.42,0,0,0,12.64-5.31,18.31,18.31,0,0,0,4.93-13A17.72,17.72,0,0,0,614.2,59Z"/><path class="cls-2" d="M650.22,76.83V37.26h19.85V77c0,8,4.68,13.14,12.64,13.14S695.35,84.92,695.35,77V37.26H715.2V76.83c0,20.1-12.26,31.48-32.49,31.48S650.22,96.68,650.22,76.83Z"/><path class="cls-2" d="M781.94,37.26H800V99.71c0,11.13-3.67,20-11,26.42S772.46,136,761.21,136a53.51,53.51,0,0,1-32.37-10.36L736.43,111c8,5.44,16.06,8.09,24,8.09,13.15,0,20.6-7.58,20.6-17.82V98.57c-5.18,5.44-12,8.09-20.47,8.09-10.25,0-18.46-3.28-24.91-10s-9.61-15.17-9.61-25.41c0-10.5,3.42-19.09,10.12-25.79s15.17-10,25.15-10a27.48,27.48,0,0,1,20.61,8.6ZM763.74,53.7a17.09,17.09,0,0,0-12.65,5A16.68,16.68,0,0,0,746,71.39a17.44,17.44,0,0,0,5.05,12.9,17.2,17.2,0,0,0,12.65,5.18,16.59,16.59,0,0,0,12.51-5,17.76,17.76,0,0,0,5.06-13C781.31,61.15,773.85,53.7,763.74,53.7Z"/><path class="cls-2" d="M119.27,49.28,61.38,122.62h57.71a32.26,32.26,0,0,0,25.32-12.27l48.2-61.07Z"/><path class="cls-3" d="M119.27,49.28,61.38,122.62h57.71a32.26,32.26,0,0,0,25.32-12.27l48.2-61.07Z"/><polygon class="cls-4" points="36.14 122.68 94.04 49.33 69.12 49.33 11.19 122.68 36.14 122.68"/><polygon class="cls-5" points="36.13 122.68 94.02 49.33 69.11 49.33 11.22 122.68 36.13 122.68"/><polygon class="cls-6" points="61.35 122.68 119.24 49.33 94.03 49.33 36.14 122.68 61.35 122.68"/><polygon class="cls-7" points="61.35 122.68 119.24 49.33 94.03 49.33 36.14 122.68 61.35 122.68"/><polygon class="cls-4" points="24.95 73.34 82.84 0 57.93 0 0 73.34 24.95 73.34"/><polygon class="cls-8" points="24.95 73.34 82.84 0 57.92 0 0.03 73.34 24.95 73.34"/><polygon class="cls-6" points="50.16 73.34 108.05 0 82.84 0 24.95 73.34 50.16 73.34"/><polygon class="cls-9" points="50.16 73.34 108.05 0 82.84 0 24.95 73.34 50.16 73.34"/><path class="cls-10" d="M132,62.53,181.39,0H108.05L50.16,73.35h59.57A28.39,28.39,0,0,0,132,62.53Z"/><path class="cls-11" d="M181.4,0,142.5,49.28,132,62.53a28.42,28.42,0,0,1-22.31,10.81H50.16L108.05,0Z"/><path class="cls-12" d="M150.37,49.31,135,69.18a28.42,28.42,0,0,1-22.46,11H44.78l5.38-6.83h59.57A28.42,28.42,0,0,0,132,62.56L142.5,49.31Z"/></g></g></g></svg>