<svg version="1.1" id="Layer_1" xmlns:x="ns_extend;" xmlns:i="ns_ai;" xmlns:graph="ns_graphs;" xmlns="http://www.w3.org/2000/svg" xmlns:xlink="http://www.w3.org/1999/xlink" x="0px" y="0px" viewBox="0 0 437.6 83" style="enable-background:new 0 0 437.6 83;" xml:space="preserve">
 <style type="text/css">
  .st0{fill-rule:evenodd;clip-rule:evenodd;fill:#FFFFFF;}
	.st1{fill:#FFFFFF;}
	.st2{fill:#FFB21D;}
	.st3{fill:#0099FF;}
	.st4{fill:#FF6100;}
 </style>
 <metadata>
  <sfw xmlns="ns_sfw;">
   <slices>
   </slices>
   <sliceSourceBounds bottomLeftOrigin="true" height="83" width="437.6" x="81.2" y="109.5">
   </sliceSourceBounds>
  </sfw>
 </metadata>
 <g>
  <path class="st0" d="M300.7,63.6c-2.8,0-5.5-1-7.5-3c-2-2-3.3-5-3.3-9.1c0-4.1,1.3-7.1,3.3-9.1c2-2,4.7-3,7.5-3c2.8,0,5.5,1,7.5,3
		c2,2,3.3,5,3.3,9.1c0,4.1-1.3,7.1-3.3,9.1C306.2,62.6,303.5,63.6,300.7,63.6z M300.7,26.2c-14.4,0-25.3,10.6-25.3,25.3
		c0,14.6,10.9,25.3,25.3,25.3c14.4,0,25.3-10.7,25.3-25.3C326,36.8,315.1,26.2,300.7,26.2z">
  </path>
  <path class="st0" d="M181,63.6c-2.8,0-5.5-1-7.5-3c-2-2-3.3-5-3.3-9.1c0-4.1,1.3-7.1,3.3-9.1c2-2,4.7-3,7.5-3c2.8,0,5.5,1,7.5,3
		c2,2,3.3,5,3.3,9.1c0,4.1-1.3,7.1-3.3,9.1C186.6,62.6,183.9,63.6,181,63.6z M181,26.2c-14.4,0-25.3,10.6-25.3,25.3
		c0,14.6,10.9,25.3,25.3,25.3c14.4,0,25.3-10.7,25.3-25.3C206.3,36.8,195.4,26.2,181,26.2z">
  </path>
  <path class="st0" d="M365.3,76.8h14.4V48.1c0-2.4,0.7-4.4,2-5.9c1.3-1.4,3.2-2.4,5.7-2.4c2.6,0,4.4,0.9,5.5,2.2
		c1.1,1.3,1.7,3.3,1.7,5.7v29h14.3V48.1c0-2.3,0.7-4.4,2-5.8c1.3-1.5,3.2-2.4,5.6-2.4c2.6,0,4.4,0.9,5.5,2.2
		c1.1,1.3,1.7,3.3,1.7,5.7v29h14V45.2c0-6.4-2.1-11.1-5.5-14.2c-3.3-3-7.7-4.4-12.2-4.4c-3.2,0-6.1,0.5-8.7,1.8
		c-2.2,1.1-4.2,2.8-5.9,5c-2.8-4.5-7.8-6.9-13.8-6.9c-4.4,0-9.4,1.7-12.6,5.1v-3.8h-13.8V76.8z">
  </path>
  <path class="st0" d="M359.9,27.8v14.6l-1.1-0.2c-1.3-0.3-2.5-0.4-3.6-0.4c-3,0-5.7,0.7-7.7,2.6c-1.9,1.8-3.3,4.8-3.3,9.6v22.7
		h-14.3V27.9h13.9v4.6c3.4-4.1,8.8-5,12.2-5c1.1,0,2.1,0.1,3,0.2L359.9,27.8z">
  </path>
  <path class="st0" d="M102.2,52.7h13.9l0.2,0.2c0.1,0.1,0.2,0.3,0.2,0.4c0.3,3,1.5,5.3,3.3,6.9c1.8,1.5,4.1,2.2,6.5,2.2
		c2.9,0,5.3-1.1,7-3c1.6-1.9,2.5-4.5,2.5-7.4V11.4h15.1v41c0,13.1-10.1,24.1-24.5,24.1c-7.2,0-13.2-2.4-17.4-6.5
		c-4.1-4-6.6-9.8-6.7-16.8L102.2,52.7z">
  </path>
  <path class="st0" d="M273.3,18.1l0.8,0.2V7.3l-0.4-0.2c-0.6-0.3-1.5-0.5-2.5-0.7c-1.1-0.2-2.3-0.3-3.6-0.3
		c-4.9,0-10.5,1.6-13.4,4.6c-2.9,2.9-4.5,7.1-4.5,12.1v2.3h-7.2v12.5h7.2v39.1h14.5V37.7h9.8V25.2h-9.8v-2.1c0-2.3,0.8-3.6,1.8-4.3
		c1-0.8,2.4-1.1,3.7-1.1C271.7,17.7,272.8,18,273.3,18.1z">
  </path>
  <path class="st0" d="M237.5,64.8l0.7-0.2v11.1l-0.3,0.2c-0.5,0.3-1.4,0.5-2.4,0.7c-1,0.2-2.2,0.3-3.3,0.3c-4.6,0-9.8-1.6-12.5-4.6
		c-2.7-3-4.2-7.2-4.2-12.2V37.9h-6.8V25.3h6.8V11.8h13.6v13.6h9.2v12.6h-9.2v21.9c0,2.3,0.7,3.6,1.7,4.3c1,0.8,2.3,1.1,3.4,1.1
		C236,65.2,237,64.9,237.5,64.8z">
  </path>
  <path class="st1" d="M21.6,78.6c1.6,1.6,0.5,4.3-1.8,4.3H5.2c-2.9,0-5.2-2.2-5.2-5V63.9c0-2.2,2.8-3.3,4.4-1.8L21.6,78.6z">
  </path>
  <path class="st2" d="M44.3,79.8c-4.3-4.2-4.3-11.1,0-15.3l15.5-15.3c4.3-4.2,11.3-4.2,15.6,0c4.3,4.2,4.3,11.1,0,15.3L59.9,79.8
		C55.6,84,48.6,84,44.3,79.8z">
  </path>
  <path class="st3" d="M3.3,41.4C-1,37.2-1,30.3,3.3,26.1L26.6,3.2c4.3-4.2,11.3-4.2,15.6,0c4.3,4.2,4.3,11.1,0,15.3L18.9,41.4
		C14.6,45.7,7.6,45.7,3.3,41.4z">
  </path>
  <path class="st4" d="M24.6,59.8c-4.3-4.2-4.3-11.1,0-15.3L60,9.7c4.3-4.2,11.3-4.2,15.6,0c4.3,4.2,4.3,11.1,0,15.3L40.2,59.8
		C35.9,64,29,64,24.6,59.8z">
  </path>
 </g>
</svg>