<svg width="156" height="31" viewBox="0 0 156 31" fill="none" xmlns="http://www.w3.org/2000/svg">
<path d="M19.1689 19.513L6.12427 6.4642C5.63495 5.97666 4.80078 6.32329 4.80078 7.01357C4.80078 10.6398 5.46966 16.0586 7.46084 18.9725C10.2915 23.1154 15.5106 23.5899 19.1689 19.513Z" fill="url(#paint0_radial_2521_1688)"/>
<path d="M4.80078 23.3147C4.80078 25.1852 6.55474 26.5628 8.37052 26.1151C12.1668 25.1787 16.0629 23.266 19.2213 19.5654L19.1689 19.5131C15.5112 23.59 10.2915 23.1155 7.46084 18.9726C5.47026 16.0587 4.80078 10.6399 4.80078 7.01367V23.3153V23.3147Z" fill="url(#paint1_linear_2521_1688)"/>
<path fill-rule="evenodd" clip-rule="evenodd" d="M5.64008 13.302C6.05533 15.4565 6.70626 17.4896 7.64609 18.8535C9.05181 20.8932 11.0037 22.0282 13.0472 22.1574C15.0901 22.2866 17.2422 21.4116 19.0504 19.3962L19.2288 19.5562C17.3792 21.6177 15.1589 22.5311 13.0321 22.3966C10.9057 22.2621 8.89042 21.0813 7.44879 18.9894L7.44879 18.9894C6.48067 17.5845 5.82209 15.5124 5.4048 13.3474C4.98695 11.1795 4.80859 8.9049 4.80859 7.08496H5.0482C5.0482 8.89124 5.22539 11.1505 5.64008 13.302Z" fill="url(#paint2_linear_2521_1688)"/>
<path d="M12.0342 12.3776L25.0788 25.4264C25.5682 25.914 26.4023 25.5673 26.4023 24.877C26.4023 21.2508 25.7334 15.832 23.7423 12.9181C20.9116 8.77519 15.6925 8.30073 12.0342 12.3776Z" fill="url(#paint3_radial_2521_1688)"/>
<path d="M26.4019 8.5758C26.4019 6.70532 24.648 5.32772 22.8322 5.77543C19.0359 6.71186 15.1398 8.62456 11.9814 12.3251L12.0338 12.3774C15.6915 8.30052 20.9112 8.77498 23.7419 12.9179C25.7324 15.8318 26.4019 21.2506 26.4019 24.8768V8.57521V8.5758Z" fill="url(#paint4_linear_2521_1688)"/>
<path d="M12.5781 11.8142C12.5781 11.8142 16.2632 7.82773 21.116 10.4313C18.739 12.8084 16.6776 14.8697 16.6776 14.8697L12.5781 11.8137V11.8142Z" fill="url(#paint5_linear_2521_1688)"/>
<path fill-rule="evenodd" clip-rule="evenodd" d="M18.1674 9.73615C16.1223 9.60833 13.966 10.4862 12.1578 12.5016L11.9795 12.3416C13.829 10.2802 16.0535 9.36395 18.1823 9.497C20.3109 9.63003 22.3263 10.8109 23.7597 12.9088L23.7597 12.9088C24.7687 14.3858 25.4274 16.4573 25.8345 18.6052C26.2421 20.7554 26.3996 22.9936 26.3996 24.8129H26.16C26.16 23.0058 26.0034 20.7828 25.5991 18.6498C25.1943 16.5145 24.5435 14.4808 23.5619 13.0439M18.1674 9.73615C20.2128 9.86398 22.1646 10.9989 23.5619 13.0439L18.1674 9.73615Z" fill="url(#paint6_linear_2521_1688)"/>
<path d="M15.6014 21.0641C18.428 21.0641 20.7193 18.7727 20.7193 15.9461C20.7193 13.1195 18.428 10.8281 15.6014 10.8281C12.7748 10.8281 10.4834 13.1195 10.4834 15.9461C10.4834 18.7727 12.7748 21.0641 15.6014 21.0641Z" fill="white"/>
<path d="M52.6398 9.98047V20.7509H50.0548V10.9279L50.6866 10.9712L46.3068 20.7509H43.5352L39.1553 11L39.7872 10.9423V20.7509H37.2021V9.98047H41.3809L45.474 19.4007H44.3824L48.461 9.98047H52.6398Z" fill="white"/>
<path d="M58.2807 15.9834C58.2807 16.5101 58.3841 16.9672 58.5895 17.3549C58.7899 17.7369 59.103 18.0481 59.4868 18.2454C59.8795 18.4514 60.3629 18.5541 60.9372 18.5541C61.5114 18.5541 61.9949 18.4514 62.3875 18.2454C62.7714 18.0481 63.0845 17.7375 63.2849 17.3549C63.4909 16.9672 63.5936 16.5101 63.5936 15.9834V9.98047H66.3077V16.1124C66.3077 17.0887 66.0829 17.941 65.6326 18.6687C65.1773 19.4014 64.5254 19.9906 63.7514 20.3708C62.9474 20.7778 62.0093 20.9807 60.9366 20.9813C59.8638 20.9813 58.9258 20.7778 58.1217 20.3708C57.347 19.9913 56.6958 19.4014 56.2405 18.6687C55.7902 17.941 55.5654 17.0893 55.5654 16.1124V9.98047H58.2795V15.9834H58.2807Z" fill="white"/>
<path d="M76.7309 20.7506H79.8758L77.1956 17.3421C77.0459 17.1517 76.8587 16.9939 76.6457 16.878C76.4328 16.7622 76.1986 16.6908 75.9569 16.6689L75.8755 16.6614C75.8974 16.657 76.7034 16.652 76.7253 16.647C77.034 16.5793 77.3346 16.4773 77.6208 16.3426C78.1913 16.0834 78.6785 15.6707 79.0279 15.1509C79.3629 14.6437 79.5308 14.055 79.5308 13.3843C79.5308 12.7137 79.3629 12.1112 79.0279 11.604C78.6778 11.0842 78.1906 10.6715 77.6208 10.4123C77.0177 10.1249 76.3138 9.98145 75.5098 9.98145H69.2344V20.7518H71.9484V16.7741H72.792C73.065 16.7741 73.3349 16.8367 73.5798 16.9576C73.8246 17.0784 74.0394 17.2538 74.2054 17.4704L76.7297 20.7518L76.7309 20.7506ZM71.9484 12.048H75.1509C75.6582 12.048 76.0602 12.1651 76.3571 12.3999C76.6539 12.6348 76.8023 12.9623 76.8023 13.3837C76.8023 13.8052 76.6539 14.1333 76.3571 14.3675C76.0602 14.6023 75.6582 14.7194 75.1509 14.7194H71.9484V12.0486V12.048Z" fill="white"/>
<path d="M91.615 12.2925V9.98047H82.2373V20.7509H84.9514V17.8778C84.9514 17.5847 85.0678 17.3041 85.2751 17.0969C85.4824 16.8896 85.7636 16.7731 86.056 16.7731H91.3564V14.4611H86.0811C85.855 14.4611 85.6327 14.5187 85.4348 14.6283C85.2375 14.7379 85.071 14.8963 84.9514 15.0879V12.2925H91.615Z" fill="white"/>
<path d="M94.7099 17.9504V17.7897H96.7698V17.9285C96.7698 18.5031 96.9938 18.9316 97.4418 19.2141C97.8947 19.4917 98.5303 19.6305 99.3484 19.6305C100.162 19.6305 100.79 19.4965 101.233 19.2287C101.681 18.956 101.905 18.5908 101.905 18.133C101.905 17.7142 101.71 17.3757 101.321 17.1176C100.931 16.8595 100.069 16.5795 98.7348 16.2776C97.3761 15.9708 96.3997 15.5885 95.8056 15.1308C95.2163 14.6681 94.9217 13.9937 94.9217 13.1074C94.9217 12.2113 95.3064 11.4857 96.0759 10.9305C96.8453 10.3705 97.9118 10.0905 99.2753 10.0905C100.61 10.0905 101.676 10.3924 102.475 10.9963C103.273 11.6001 103.673 12.355 103.673 13.2608V13.4142H101.649V13.2754C101.649 12.7689 101.45 12.3696 101.05 12.0774C100.651 11.7803 100.059 11.6318 99.2753 11.6318C98.4913 11.6318 97.9069 11.7535 97.5222 11.997C97.1375 12.2357 96.9451 12.579 96.9451 13.027C96.9451 13.402 97.1375 13.7088 97.5222 13.9474C97.9118 14.1811 98.7518 14.4466 100.042 14.7436C101.377 15.0553 102.353 15.44 102.972 15.8978C103.595 16.3555 103.907 17.0592 103.907 18.0088C103.907 18.9828 103.493 19.7522 102.665 20.3171C101.842 20.882 100.736 21.1645 99.3484 21.1645C97.9702 21.1645 96.8526 20.8869 95.9955 20.3317C95.1384 19.7717 94.7099 18.9779 94.7099 17.9504ZM103.992 11.8802V10.3096H113.568V11.8802H109.799V20.9453H107.776V11.8802H103.992ZM114.194 16.9862V10.3096H116.21V17.0665C116.21 17.9285 116.441 18.564 116.904 18.973C117.367 19.3772 118.002 19.5793 118.811 19.5793C119.614 19.5793 120.247 19.3772 120.71 18.973C121.172 18.564 121.404 17.9285 121.404 17.0665V10.3096H123.398V16.9862C123.398 18.413 122.952 19.4673 122.061 20.1491C121.175 20.826 120.086 21.1645 118.796 21.1645C117.505 21.1645 116.415 20.826 115.523 20.1491C114.637 19.4673 114.194 18.413 114.194 16.9862ZM125.017 20.9453V10.3096H128.903C130.501 10.3096 131.832 10.7431 132.899 11.6099C133.97 12.4767 134.506 13.7404 134.506 15.401V15.8539C134.506 17.5145 133.97 18.7782 132.899 19.6451C131.832 20.5119 130.501 20.9453 128.903 20.9453H125.017ZM127.041 19.4113H128.881C129.953 19.4113 130.812 19.1264 131.46 18.5567C132.108 17.9869 132.431 17.0957 132.431 15.8831V15.3718C132.431 14.1592 132.108 13.2705 131.46 12.7056C130.812 12.1358 129.953 11.8509 128.881 11.8509H127.041V19.4113ZM135.84 20.9453V10.3096H137.893V20.9453H135.84ZM139.235 15.8539V15.401C139.235 13.6187 139.726 12.2892 140.71 11.4127C141.699 10.5312 142.972 10.0905 144.53 10.0905C146.079 10.0905 147.35 10.5312 148.344 11.4127C149.342 12.2892 149.841 13.6187 149.841 15.401V15.8539C149.841 17.6363 149.342 18.9682 148.344 19.8496C147.35 20.7262 146.079 21.1645 144.53 21.1645C142.977 21.1645 141.706 20.7262 140.717 19.8496C139.729 18.9682 139.235 17.6363 139.235 15.8539ZM141.309 15.9927C141.309 17.2394 141.601 18.15 142.186 18.7247C142.77 19.2944 143.552 19.5793 144.53 19.5793C145.509 19.5793 146.293 19.2944 146.883 18.7247C147.472 18.15 147.766 17.2394 147.766 15.9927V15.2695C147.766 14.018 147.472 13.1074 146.883 12.5376C146.293 11.9629 145.509 11.6756 144.53 11.6756C143.552 11.6756 142.77 11.9629 142.186 12.5376C141.601 13.1074 141.309 14.018 141.309 15.2695V15.9927Z" fill="url(#paint7_linear_2521_1688)"/>
<defs>
<radialGradient id="paint0_radial_2521_1688" cx="0" cy="0" r="1" gradientUnits="userSpaceOnUse" gradientTransform="translate(14.9416 17.2156) rotate(-180) scale(14.3604 14.3604)">
<stop offset="0.28" stop-color="#DAABFF"/>
<stop offset="0.87" stop-color="#735DFF"/>
</radialGradient>
<linearGradient id="paint1_linear_2521_1688" x1="0.681666" y1="13.7459" x2="15.0908" y2="21.6874" gradientUnits="userSpaceOnUse">
<stop offset="0.42" stop-color="#C6B2FF"/>
<stop offset="0.84" stop-color="#735DFF"/>
</linearGradient>
<linearGradient id="paint2_linear_2521_1688" x1="9.43992" y1="5.84412" x2="13.9074" y2="22.5174" gradientUnits="userSpaceOnUse">
<stop stop-color="white" stop-opacity="0"/>
<stop offset="0.1" stop-color="white" stop-opacity="0.01"/>
<stop offset="0.3" stop-color="white" stop-opacity="0.0729"/>
<stop offset="0.59" stop-color="white" stop-opacity="0.3481"/>
<stop offset="0.94" stop-color="white"/>
</linearGradient>
<radialGradient id="paint3_radial_2521_1688" cx="0" cy="0" r="1" gradientUnits="userSpaceOnUse" gradientTransform="translate(16.2615 14.6738) scale(14.3604 14.3604)">
<stop offset="0.22" stop-color="#FFD522"/>
<stop offset="0.27" stop-color="#FFCA27"/>
<stop offset="0.34" stop-color="#FFAC37"/>
<stop offset="0.45" stop-color="#FF7D50"/>
<stop offset="0.54" stop-color="#FF4B6C"/>
<stop offset="1" stop-color="#C81395"/>
</radialGradient>
<linearGradient id="paint4_linear_2521_1688" x1="15.1445" y1="16.7986" x2="28.072" y2="14.7818" gradientUnits="userSpaceOnUse">
<stop offset="0.35" stop-color="#F02173"/>
<stop offset="0.61" stop-color="#E81DB8"/>
<stop offset="0.76" stop-color="#C516E1"/>
<stop offset="1" stop-color="#735DFF"/>
</linearGradient>
<linearGradient id="paint5_linear_2521_1688" x1="12.3094" y1="12.2096" x2="18.4952" y2="12.2096" gradientUnits="userSpaceOnUse">
<stop stop-color="white"/>
<stop offset="0.45" stop-color="white" stop-opacity="0.2601"/>
<stop offset="0.8" stop-color="white" stop-opacity="0.0196"/>
<stop offset="0.96" stop-color="white" stop-opacity="0"/>
</linearGradient>
<linearGradient id="paint6_linear_2521_1688" x1="21.7778" y1="26.0507" x2="17.3097" y2="9.3763" gradientUnits="userSpaceOnUse">
<stop stop-color="white" stop-opacity="0"/>
<stop offset="0.1" stop-color="white" stop-opacity="0.01"/>
<stop offset="0.3" stop-color="white" stop-opacity="0.0729"/>
<stop offset="0.59" stop-color="white" stop-opacity="0.3481"/>
<stop offset="0.94" stop-color="white"/>
</linearGradient>
<linearGradient id="paint7_linear_2521_1688" x1="94.1328" y1="15.9453" x2="151.133" y2="15.9453" gradientUnits="userSpaceOnUse">
<stop stop-color="#FC6337"/>
<stop offset="1" stop-color="#C516E1"/>
</linearGradient>
</defs>
</svg>
