<svg version="1.1" id="Layer_1" xmlns:x="ns_extend;" xmlns:i="ns_ai;" xmlns:graph="ns_graphs;" xmlns="http://www.w3.org/2000/svg" xmlns:xlink="http://www.w3.org/1999/xlink" x="0px" y="0px" viewBox="0 0 378.3 85" style="enable-background:new 0 0 378.3 85;" xml:space="preserve">
 <style type="text/css">
  .st0{fill:#FFFFFF;}
 </style>
 <metadata>
  <sfw xmlns="ns_sfw;">
   <slices>
   </slices>
   <sliceSourceBounds bottomLeftOrigin="true" height="85" width="378.3" x="-117.9" y="-213.6">
   </sliceSourceBounds>
  </sfw>
 </metadata>
 <g>
  <g>
   <g>
    <path class="st0" d="M72.7,83.8H55.5c-1-55-3.3-68.5-10.8-68.5c-10.3,0-19.4,31.1-29.3,68.5H0V1.2h16.9V39
				C24.1,16.5,32.6,0,47.1,0C68.1,0,71.6,25.8,72.7,83.8z M157.5,83.8h-15.7c-15.7-14.6-29.7-26-38.5-26c-3.8,0-6,2.2-7,6.8
				l-4.1,19.2H79.5C89.2,44.3,94.4,0,118.5,0S147.8,44.2,157.5,83.8z M100.7,45.8c1-0.1,2-0.3,3.1-0.3c9.7,0,20.2,6.6,31.3,15.7
				c-6.3-28.3-11.4-45.9-18.8-45.9C110.2,15.3,105.4,27,100.7,45.8L100.7,45.8z M150.7,1.2h17.5c8.3,38.7,14,68.5,22.9,68.5
				c8.9,0,15.4-30.9,23.4-68.5h12.7C217.4,40.7,212.4,85,189,85C165.6,85,160.4,40.7,150.7,1.2z M298.5,83.8h-15.7
				c-15.7-14.6-29.7-26-38.5-26c-3.8,0-6,2.2-7,6.8l-4.1,19.2h-12.8c9.8-39.5,15-83.8,39.1-83.8S288.8,44.2,298.5,83.8z M241.6,45.8
				c1-0.1,2-0.3,3.1-0.3c9.7,0,20.2,6.6,31.3,15.7c-6.3-28.3-11.4-45.9-18.8-45.9C251.1,15.3,246.4,27,241.6,45.8z M378.3,83.8H361
				c-0.9-55-3.3-68.5-10.8-68.5c-10.3,0-19.4,31.1-29.3,68.5h-15.3V1.2h16.9V39c7.2-22.4,15.7-39,30.3-39
				C373.7,0,377.2,25.8,378.3,83.8L378.3,83.8z">
    </path>
   </g>
  </g>
 </g>
</svg>