<svg version="1.1" id="Layer_1" xmlns:x="ns_extend;" xmlns:i="ns_ai;" xmlns:graph="ns_graphs;" xmlns="http://www.w3.org/2000/svg" xmlns:xlink="http://www.w3.org/1999/xlink" x="0px" y="0px" viewBox="0 0 278.3 56" style="enable-background:new 0 0 278.3 56;" xml:space="preserve">
 <style type="text/css">
  .st0{fill:#FC5E02;}
	.st1{fill:#FFFFFF;}
 </style>
 <metadata>
  <sfw xmlns="ns_sfw;">
   <slices>
   </slices>
   <sliceSourceBounds bottomLeftOrigin="true" height="56" width="278.3" x="-154.1" y="0">
   </sliceSourceBounds>
  </sfw>
 </metadata>
 <g>
  <g>
   <a href="48.7239215686274">
    <path id="logoMark_00000023998619249164868820000000305097565885119120_" class="st0" d="M36.8,1.2L32.9,11l3.8,7.9l4.2-10.2H50
				v34.7c0,1.3-0.5,2.6-1.5,3.5c-0.9,0.9-2.2,1.5-3.6,1.5c-1,0-2.9-0.6-3.6-2l-5.5-12.2l0,0l-9.1-20l0,0L22.8,6
				c-2.2-4.4-6.6-6-10.2-6C9.3,0,6,1.3,3.7,3.7C1.3,6,0,9.2,0,12.5l0.1,42.2h19l4.9-10.6l-3.8-7.9l-5.1,10.9H7.5V12.5
				C7.5,11.2,8.1,10,9,9c0.9-0.9,2.2-1.5,3.6-1.5c0.6,0,2.9,0.1,3.8,2.3l4.3,9.3l1.4,3.1l9.1,20c1.6,3.4,3.4,7.2,4.1,8.8
				c1.6,3.3,5.7,5,9.7,5c1.6,0,3.3-0.3,4.8-0.9c1.5-0.6,2.9-1.5,4.1-2.7c1.2-1.1,2.1-2.5,2.7-4.1s0.9-3.2,0.9-4.8V1.2H36.8z">
    </path>
   </a>
  </g>
  <a xlink:href="86.1407843137255">
   <path id="type__x3C_PathItem_x3E__00000165210861898033169940000014228060201819831738_" class="st1" d="M70.2,46.2V10.8
			c0-0.1,0-0.1,0-0.2c0-0.1,0-0.1,0.1-0.2c0,0,0.1-0.1,0.2-0.1c0.1,0,0.1,0,0.2,0h7.5c0.1,0,0.3,0,0.4,0.1c0.1,0.1,0.2,0.2,0.3,0.3
			l16.1,25.1h0.3V10.8c0-0.1,0-0.1,0-0.2c0-0.1,0-0.1,0.1-0.2c0,0,0.1-0.1,0.2-0.1c0.1,0,0.1,0,0.2,0h6.2c0.1,0,0.1,0,0.2,0
			c0.1,0,0.1,0,0.2,0.1c0,0,0.1,0.1,0.1,0.2c0,0.1,0,0.1,0,0.2v35.6c0,0.1,0,0.1,0,0.2c0,0.1,0,0.1-0.1,0.2c0,0-0.1,0.1-0.2,0.1
			c-0.1,0-0.1,0-0.2,0h-7.5c-0.1,0-0.2-0.1-0.3-0.2c-0.1-0.1-0.1-0.2-0.2-0.3L77.8,21.2h-0.2v25.1c0,0.1,0,0.1,0,0.2
			c0,0.1,0,0.1-0.1,0.2c-0.1,0-0.1,0.1-0.2,0.1c-0.1,0-0.1,0-0.2,0h-6.2c-0.1,0-0.1,0-0.2,0c-0.1,0-0.1,0-0.2-0.1
			c0-0.1-0.1-0.1-0.1-0.2C70.2,46.4,70.2,46.3,70.2,46.2z">
   </path>
  </a>
  <a xlink:href="86.1407843137255">
   <path id="type__x3C_PathItem_x3E__00000175316316227346310120000012860625208398038432_" class="st1" d="M143.9,38.4V24.2h-3.7
			c-0.1,0-0.1,0-0.2,0c-0.1,0-0.1,0-0.2-0.1c0,0-0.1-0.1-0.1-0.2c0-0.1,0-0.1,0-0.2v-4.3c0-0.4,0.2-0.6,0.6-0.6h3.7v-7.7
			c0-0.1,0-0.1,0-0.2c0,0,0-0.1,0.1-0.2c0,0,0.1-0.1,0.2-0.1c0,0,0.1,0,0.2,0l6.4,0c0.1,0,0.1,0,0.2,0c0.1,0,0.1,0,0.2,0.1
			c0,0,0.1,0.1,0.1,0.2c0,0.1,0,0.1,0,0.2v7c0,0.3,0.2,0.5,0.5,0.5h6.9c0.1,0,0.1,0,0.2,0c0.1,0,0.1,0,0.2,0.1c0,0,0.1,0.1,0.1,0.2
			c0,0.1,0,0.1,0,0.2v4.4c0,0.1,0,0.1,0,0.2s-0.1,0.1-0.1,0.2c0,0-0.1,0.1-0.2,0.1c-0.1,0-0.1,0-0.2,0h-7.4v16.5
			c0,0.3,0.2,0.5,0.5,0.5h6.9c0.1,0,0.1,0,0.2,0c0.1,0,0.1,0,0.2,0.1c0,0,0.1,0.1,0.1,0.2c0,0.1,0,0.1,0,0.2V46c0,0.1,0,0.1,0,0.2
			c0,0.1,0,0.1-0.1,0.2c-0.1,0-0.1,0.1-0.2,0.1c-0.1,0-0.1,0-0.2,0h-6.6c-1.1,0.1-2.3,0-3.4-0.3c-1.1-0.3-2.1-1-2.9-1.8
			c-0.8-0.8-1.4-1.8-1.8-2.8C143.9,40.7,143.7,39.5,143.9,38.4z">
   </path>
  </a>
  <a xlink:href="86.1407843137255">
   <path id="type__x3C_PathItem_x3E__00000084495364269793737550000003887050846340558982_" class="st1" d="M229.1,46.2V27.1
			c-0.1-1.1,0-2.3,0.3-3.4c0.4-1.1,1-2.1,1.8-2.9c0.8-0.8,1.8-1.4,3-1.8c1.1-0.4,2.3-0.5,3.5-0.3h8.6c0.1,0,0.1,0,0.2,0
			c0.1,0,0.1,0,0.2,0.1c0,0,0.1,0.1,0.1,0.2c0,0.1,0,0.1,0,0.2v5c0,0.1,0,0.1,0,0.2s0,0.1-0.1,0.2c0,0-0.1,0.1-0.2,0.1
			c-0.1,0-0.1,0-0.2,0h-9.1c-0.3,0-0.5,0.2-0.5,0.5v20.9c0,0.4-0.2,0.6-0.5,0.6h-6.4c-0.1,0-0.1,0-0.2,0c-0.1,0-0.1,0-0.2-0.1
			c0,0-0.1-0.1-0.1-0.2C229.1,46.4,229.1,46.3,229.1,46.2z">
   </path>
  </a>
  <path id="type__x3C_CompoundPathItem_x3E__00000139997445305046047590000013360262371072736699_" class="st1" d="M194.6,33.1
		c0-0.2,0-0.4,0-0.6c-0.1-1.8,0.2-3.7,0.8-5.4c0.7-1.8,1.8-3.5,3.2-4.9c1.4-1.4,3.1-2.4,4.9-3.1c2.6-1,8.7-1.1,11.6,0
		c1.8,0.7,3.6,1.7,5,3.1c1.4,1.4,2.5,3,3.2,4.9c0.6,1.7,0.9,3.6,0.8,5.4c0,0.2,0,0.4,0,0.6c0,1.8-0.2,3.7-0.9,5.4
		c-0.7,1.8-1.8,3.5-3.2,4.8c-1.4,1.3-3.1,2.4-4.9,3.1c-3.6,1.2-8.3,1.3-11.5,0c-1.8-0.7-3.5-1.7-4.9-3.1c-1.4-1.3-2.5-3-3.2-4.8
		C194.9,36.8,194.5,35,194.6,33.1z M209.3,41.6c4.6,0,7.2-3.2,7.2-8.7s-2.7-8.8-7.2-8.8c-4.5,0-7.2,3.2-7.2,8.8
		S204.7,41.6,209.3,41.6z">
  </path>
  <a xlink:href="86.1407843137255">
   <path id="type__x3C_PathItem_x3E__00000137101172769680678530000016196911889055241386_" class="st1" d="M162.9,32.8
			c-0.1-1.9,0.2-3.9,0.9-5.7c0.7-1.8,1.8-3.5,3.2-4.9c1.4-1.4,3.1-2.4,5-3.1c1.8-0.7,3.8-1,5.8-0.8c7.3,0,12.5,3.6,13.4,9.9
			c0,0.1,0,0.1,0,0.2s0,0.1-0.1,0.2c0,0-0.1,0.1-0.2,0.1c-0.1,0-0.1,0-0.2,0l-6.2,0.3c-0.4,0-0.5-0.2-0.6-0.6
			c-0.1-0.7-0.3-1.3-0.6-1.9c-0.3-0.6-0.8-1.1-1.3-1.5c-0.5-0.4-1.2-0.7-1.8-0.9c-0.7-0.2-1.4-0.2-2-0.1c-4.5,0-7,3.4-7,8.8
			s2.6,8.7,7,8.7c1.4,0.2,2.9-0.1,4-1c1.1-0.8,1.9-1.9,2.1-3.3c0-0.1,0-0.1,0-0.2s0.1-0.1,0.1-0.2c0,0,0.1-0.1,0.2-0.1
			c0.1,0,0.1,0,0.2,0l6.2,0.1c0.4,0,0.6,0.2,0.6,0.5c-0.9,6.2-6.3,9.9-13.7,9.9c-2,0.1-3.9-0.1-5.8-0.8c-1.8-0.7-3.5-1.7-4.9-3.1
			c-1.4-1.4-2.5-3-3.2-4.9C163.1,36.7,162.9,34.8,162.9,32.8z">
   </path>
  </a>
  <path id="type__x3C_CompoundPathItem_x3E__00000177454841477071984130000009411287652107273877_" class="st1" d="M108,32.8
		c-0.1-1.9,0.1-3.9,0.8-5.7c0.7-1.8,1.8-3.5,3.2-4.9c1.4-1.3,3.1-2.4,5-3.1c1.9-0.7,3.9-0.9,5.8-0.8c8.6,0,13.8,5.4,13.8,14.4v1.5
		c0,0.1,0,0.3-0.2,0.4c-0.1,0.1-0.3,0.2-0.4,0.2h-20.2c0,0.9,0.1,1.8,0.5,2.7c0.3,0.8,0.9,1.6,1.5,2.3c0.7,0.6,1.5,1.1,2.3,1.4
		c0.9,0.3,1.8,0.4,2.7,0.4c1.2,0.1,2.5,0,3.6-0.7c1.1-0.6,1.8-1.3,2.3-2.5c0-0.1,0.1-0.3,0.2-0.4c0.1-0.1,0.3-0.1,0.4-0.1l6.2,0.3
		c0.4,0,0.6,0,0.6,0.4c-1,5.3-6.9,8.5-13.6,8.4c-1.9,0.1-3.9-0.1-5.7-0.8c-1.8-0.6-3.5-1.7-4.9-3.1c-1.4-1.3-2.5-3-3.2-4.8
		C108.2,36.7,107.9,34.8,108,32.8z M129.3,30.4c0-0.8,0-1.7-0.3-2.5c-0.3-0.8-0.7-1.5-1.3-2.1c-0.6-0.6-1.3-1.1-2.1-1.4
		c-0.8-0.3-1.6-0.4-2.5-0.4c-0.9-0.1-1.8,0-2.7,0.3c-0.8,0.3-1.6,0.7-2.3,1.3c-0.6,0.6-1.2,1.3-1.5,2.2c-0.3,0.8-0.5,1.7-0.5,2.6
		L129.3,30.4L129.3,30.4z">
  </path>
  <path id="type__x3C_CompoundPathItem_x3E__00000179623821524560001700000001923664027115997831_" class="st1" d="M249.6,32.8
		c-0.1-1.9,0.1-3.9,0.8-5.7c0.7-1.8,1.8-3.5,3.2-4.9s3.1-2.4,5-3.1c1.9-0.7,3.9-0.9,5.8-0.8c8.6,0,13.8,5.4,13.8,14.4v1.5
		c0,0.1,0,0.3-0.2,0.4c-0.1,0.1-0.3,0.2-0.4,0.2h-20.2c0,0.9,0.1,1.8,0.5,2.7c0.3,0.8,0.9,1.6,1.5,2.3c0.7,0.6,1.5,1.1,2.3,1.4
		c0.9,0.3,1.8,0.4,2.7,0.4c1.2,0.1,2.5,0,3.6-0.7c1.1-0.6,1.8-1.3,2.3-2.5c0-0.1,0.1-0.3,0.2-0.4c0.1-0.1,0.3-0.1,0.4-0.1l6.2,0.3
		c0.4,0,0.6,0,0.6,0.4c-1,5.3-6.9,8.5-13.6,8.4c-1.9,0.1-3.9-0.1-5.7-0.8c-1.8-0.6-3.5-1.7-4.9-3.1c-1.4-1.3-2.5-3-3.2-4.8
		C249.8,36.7,249.5,34.8,249.6,32.8z M270.8,30.4c0-0.8,0-1.7-0.3-2.5c-0.3-0.8-0.7-1.5-1.3-2.1c-0.6-0.6-1.3-1.1-2.1-1.4
		c-0.8-0.3-1.6-0.4-2.5-0.4c-0.9-0.1-1.8,0-2.7,0.3c-0.8,0.3-1.6,0.7-2.3,1.3c-0.6,0.6-1.2,1.3-1.5,2.2c-0.3,0.8-0.5,1.7-0.5,2.6
		L270.8,30.4L270.8,30.4z">
  </path>
 </g>
</svg>