<svg width="240" height="38" viewBox="0 0 240 38" fill="none" xmlns="http://www.w3.org/2000/svg">
<path d="M93.3594 7.25V30H89.4375L79.2344 13.7031V30H75.3125V7.25H79.2344L89.4688 23.5781V7.25H93.3594ZM105.109 30.3125C103.859 30.3125 102.729 30.1094 101.719 29.7031C100.719 29.2865 99.8646 28.7083 99.1562 27.9688C98.4583 27.2292 97.9219 26.3594 97.5469 25.3594C97.1719 24.3594 96.9844 23.2812 96.9844 22.125V21.5C96.9844 20.1771 97.1771 18.9792 97.5625 17.9062C97.9479 16.8333 98.4844 15.9167 99.1719 15.1562C99.8594 14.3854 100.672 13.7969 101.609 13.3906C102.547 12.9844 103.562 12.7812 104.656 12.7812C105.865 12.7812 106.922 12.9844 107.828 13.3906C108.734 13.7969 109.484 14.3698 110.078 15.1094C110.682 15.8385 111.13 16.7083 111.422 17.7188C111.724 18.7292 111.875 19.8438 111.875 21.0625V22.6719H98.8125V19.9688H108.156V19.6719C108.135 18.9948 108 18.3594 107.75 17.7656C107.51 17.1719 107.141 16.6927 106.641 16.3281C106.141 15.9635 105.474 15.7812 104.641 15.7812C104.016 15.7812 103.458 15.9167 102.969 16.1875C102.49 16.4479 102.089 16.8281 101.766 17.3281C101.443 17.8281 101.193 18.4323 101.016 19.1406C100.849 19.8385 100.766 20.625 100.766 21.5V22.125C100.766 22.8646 100.865 23.5521 101.062 24.1875C101.271 24.8125 101.573 25.3594 101.969 25.8281C102.365 26.2969 102.844 26.6667 103.406 26.9375C103.969 27.1979 104.609 27.3281 105.328 27.3281C106.234 27.3281 107.042 27.1458 107.75 26.7812C108.458 26.4167 109.073 25.901 109.594 25.2344L111.578 27.1562C111.214 27.6875 110.74 28.1979 110.156 28.6875C109.573 29.1667 108.859 29.5573 108.016 29.8594C107.182 30.1615 106.214 30.3125 105.109 30.3125ZM122.562 13.0938V15.8438H113.031V13.0938H122.562ZM115.781 8.95312H119.547V25.3281C119.547 25.849 119.62 26.25 119.766 26.5312C119.922 26.8021 120.135 26.9844 120.406 27.0781C120.677 27.1719 120.995 27.2188 121.359 27.2188C121.62 27.2188 121.87 27.2031 122.109 27.1719C122.349 27.1406 122.542 27.1094 122.688 27.0781L122.703 29.9531C122.391 30.0469 122.026 30.1302 121.609 30.2031C121.203 30.276 120.734 30.3125 120.203 30.3125C119.339 30.3125 118.573 30.1615 117.906 29.8594C117.24 29.5469 116.719 29.0417 116.344 28.3438C115.969 27.6458 115.781 26.7188 115.781 25.5625V8.95312ZM127.438 7.25H130.938L137.516 24.7969L144.078 7.25H147.578L138.891 30H136.109L127.438 7.25ZM125.844 7.25H129.172L129.75 22.4375V30H125.844V7.25ZM145.844 7.25H149.188V30H145.266V22.4375L145.844 7.25ZM157.5 13.0938V30H153.719V13.0938H157.5ZM153.469 8.65625C153.469 8.08333 153.656 7.60938 154.031 7.23438C154.417 6.84896 154.948 6.65625 155.625 6.65625C156.292 6.65625 156.818 6.84896 157.203 7.23438C157.589 7.60938 157.781 8.08333 157.781 8.65625C157.781 9.21875 157.589 9.6875 157.203 10.0625C156.818 10.4375 156.292 10.625 155.625 10.625C154.948 10.625 154.417 10.4375 154.031 10.0625C153.656 9.6875 153.469 9.21875 153.469 8.65625ZM165.359 16.7031V30H161.594V13.0938H165.141L165.359 16.7031ZM164.688 20.9219L163.469 20.9062C163.479 19.7083 163.646 18.6094 163.969 17.6094C164.302 16.6094 164.76 15.75 165.344 15.0312C165.938 14.3125 166.646 13.7604 167.469 13.375C168.292 12.9792 169.208 12.7812 170.219 12.7812C171.031 12.7812 171.766 12.8958 172.422 13.125C173.089 13.3438 173.656 13.7031 174.125 14.2031C174.604 14.7031 174.969 15.3542 175.219 16.1562C175.469 16.9479 175.594 17.9219 175.594 19.0781V30H171.812V19.0625C171.812 18.25 171.693 17.6094 171.453 17.1406C171.224 16.6615 170.885 16.3229 170.438 16.125C170 15.9167 169.453 15.8125 168.797 15.8125C168.151 15.8125 167.573 15.9479 167.062 16.2188C166.552 16.4896 166.12 16.8594 165.766 17.3281C165.422 17.7969 165.156 18.3385 164.969 18.9531C164.781 19.5677 164.688 20.224 164.688 20.9219ZM189.75 26.5V6H193.531V30H190.109L189.75 26.5ZM178.75 21.7344V21.4062C178.75 20.125 178.901 18.9583 179.203 17.9062C179.505 16.8438 179.943 15.9323 180.516 15.1719C181.089 14.401 181.786 13.8125 182.609 13.4062C183.432 12.9896 184.359 12.7812 185.391 12.7812C186.411 12.7812 187.307 12.9792 188.078 13.375C188.849 13.7708 189.505 14.3385 190.047 15.0781C190.589 15.8073 191.021 16.6823 191.344 17.7031C191.667 18.7135 191.896 19.8385 192.031 21.0781V22.125C191.896 23.3333 191.667 24.4375 191.344 25.4375C191.021 26.4375 190.589 27.3021 190.047 28.0312C189.505 28.7604 188.844 29.3229 188.062 29.7188C187.292 30.1146 186.391 30.3125 185.359 30.3125C184.339 30.3125 183.417 30.099 182.594 29.6719C181.781 29.2448 181.089 28.6458 180.516 27.875C179.943 27.1042 179.505 26.1979 179.203 25.1562C178.901 24.1042 178.75 22.9635 178.75 21.7344ZM182.516 21.4062V21.7344C182.516 22.5052 182.583 23.224 182.719 23.8906C182.865 24.5573 183.089 25.1458 183.391 25.6562C183.693 26.1562 184.083 26.5521 184.562 26.8438C185.052 27.125 185.635 27.2656 186.312 27.2656C187.167 27.2656 187.87 27.0781 188.422 26.7031C188.974 26.3281 189.406 25.8229 189.719 25.1875C190.042 24.5417 190.26 23.8229 190.375 23.0312V20.2031C190.312 19.5885 190.182 19.0156 189.984 18.4844C189.797 17.9531 189.542 17.4896 189.219 17.0938C188.896 16.6875 188.495 16.375 188.016 16.1562C187.547 15.9271 186.99 15.8125 186.344 15.8125C185.656 15.8125 185.073 15.9583 184.594 16.25C184.115 16.5417 183.719 16.9427 183.406 17.4531C183.104 17.9635 182.88 18.5573 182.734 19.2344C182.589 19.9115 182.516 20.6354 182.516 21.4062Z" fill="white"/>
<path d="M220.172 10.2812L213.375 30H209.266L217.828 7.25H220.453L220.172 10.2812ZM225.859 30L219.047 10.2812L218.75 7.25H221.391L229.984 30H225.859ZM225.531 21.5625V24.6719H213.156V21.5625H225.531ZM236.719 7.25V30H232.797V7.25H236.719Z" fill="white"/>
<circle cx="202.5" cy="27.5" r="2.5" fill="white"/>
<path fill-rule="evenodd" clip-rule="evenodd" d="M39.7965 5.00541C40.3923 5.04348 40.9675 5.23831 41.4638 5.57016C41.9929 5.83988 42.4436 6.24121 42.7726 6.73553C43.3118 7.69394 43.5164 8.80465 43.3541 9.89228C43.1918 10.9799 42.6718 11.9825 41.8762 12.7417C41.1497 13.3562 40.3448 13.8717 39.4827 14.2746C38.1452 14.905 36.9636 15.8234 36.0225 16.9639C34.7388 18.4963 33.7317 20.2405 33.0463 22.1184C32.5273 23.5054 32.3222 24.9903 32.4457 26.4661C32.5394 27.2672 32.5394 28.0764 32.4457 28.8775C32.3031 30.0426 31.7304 31.1123 30.8398 31.8769C29.9492 32.6414 28.805 33.0456 27.6318 33.0101C26.4491 33.0526 25.2946 32.6437 24.4023 31.8662C23.51 31.0888 22.9468 30.0011 22.8269 28.8237C22.7332 28.0227 22.7332 27.2134 22.8269 26.4123C22.946 24.9366 22.741 23.4527 22.2263 22.0646C21.8866 21.132 21.4635 20.232 20.9623 19.3753C20.4609 18.5132 19.8882 17.6946 19.2501 16.928C18.5857 16.1299 17.8063 15.435 16.9373 14.8662C16.5399 14.6385 16.1063 14.4809 15.6554 14.4001C15.1803 14.4788 14.7277 14.6592 14.3287 14.929C13.4963 15.4931 12.7478 16.1722 12.1055 16.9459C11.4675 17.7125 10.8948 18.5311 10.3933 19.3932C9.89572 20.2518 9.47283 21.1515 9.12937 22.0825C8.61315 23.4702 8.41108 24.9551 8.53773 26.4302C8.65547 27.4934 8.57646 28.5691 8.30465 29.6036C8.02708 30.6144 7.41696 31.5021 6.5728 32.1234C5.72864 32.7447 4.69971 33.0634 3.65214 33.028C3.06047 33.0034 2.48558 32.8241 1.98477 32.5081C1.46014 32.2309 1.01562 31.8234 0.693904 31.3248C0.133658 30.3784 -0.0972012 29.273 0.0374172 28.1814C0.172036 27.0899 0.664543 26.0737 1.43795 25.2918C2.21435 24.6739 3.06328 24.1531 3.9659 23.7409C5.30296 23.1097 6.48442 22.1915 7.42614 21.0516C8.06996 20.2875 8.64586 19.4686 9.1473 18.6044C9.63873 17.7439 10.0585 16.8444 10.4023 15.915C10.9207 14.5278 11.1258 13.0431 11.0029 11.5673C10.8995 10.7668 10.8995 9.95639 11.0029 9.15591C11.3346 7.4975 12.2848 5.01437 15.6734 5.01437C19.0619 5.01437 19.9583 7.41682 20.3528 9.2097C20.4614 10.0098 20.4614 10.821 20.3528 11.6211C20.2299 13.0969 20.435 14.5816 20.9534 15.9688C21.2966 16.8999 21.7195 17.7997 22.2173 18.6581C22.7183 19.5249 23.2974 20.3441 23.9475 21.1054C24.6471 21.9456 25.4763 22.6689 26.4037 23.2479C26.7918 23.4817 27.2207 23.6399 27.6677 23.714C28.1567 23.625 28.6231 23.4391 29.0392 23.1672C29.911 22.5987 30.6935 21.9039 31.361 21.1054C31.9954 20.3211 32.5621 19.4844 33.0553 18.6044C33.5531 17.7459 33.976 16.8462 34.3192 15.915C34.8331 14.5267 35.0381 13.043 34.9199 11.5673C34.8279 10.6715 34.852 9.76763 34.9916 8.87802C35.3143 7.27339 37.2058 4.87094 39.7965 5.00541ZM55.0014 28.501C55.0014 31.0061 52.9706 33.0369 50.4654 33.0369C47.9603 33.0369 45.9295 31.0061 45.9295 28.501C45.9295 25.9958 47.9603 23.965 50.4654 23.965C52.9706 23.965 55.0014 25.9958 55.0014 28.501Z" fill="white"/>

 </svg>
