<svg xmlns="http://www.w3.org/2000/svg" width="1677" height="383" fill="none"><path fill="#0F0" fill-rule="evenodd" d="M88.166 152.197c-66.949 143.821-70.453 151.429-71 154.161-2.014 10.048-1.434 18.961 1.816 27.889 3.33 9.149 8.883 16.616 16.843 22.646 3.693 2.799 12.643 6.993 17.126 8.027 9.667 2.23 19.132 1.678 28.272-1.649 8.893-3.237 15.74-8.225 22.217-16.187l2.145-2.637 70.626-151.194 70.625-151.194-44.123-20.575L158.591.909 88.166 152.197zm76.352-31.091c1.98 2.579 1.564 6.091-.937 7.916-4.203 3.065-9.988-1.316-8.2-6.211.491-1.343.951-1.968 1.901-2.582 2.469-1.596 5.632-1.213 7.236.877zm-25.5 14.947c2.492 2.127 3.413 6.897 1.94 10.055-1.957 4.198-7.394 6.177-11.592 4.219-2.112-.985-3.494-2.556-4.373-4.971-1.692-4.65.301-9.123 4.869-10.924 3.288-1.296 6.377-.75 9.156 1.621zm6.51 39.084c2.313 2.539 2.209 6.751-.221 8.963-1.64 1.494-2.713 1.903-4.899 1.869-3.491-.055-6.337-3.141-6.192-6.715.23-5.67 7.491-8.313 11.312-4.117zm-55.536 13.597c2.209 5.33 6.513 10.203 12.467 14.117 3.942 2.591 15.103 7.35 21.113 9.002 12.057 3.314 22.598 3.726 28.358 1.109l1.915-.871-28.924 62.017c-27.598 59.173-29.022 62.147-31.056 64.873-10.482 14.053-28.917 18.815-44.572 11.515-15.656-7.3-23.857-24.483-19.83-41.546.78-3.311 2.144-6.313 29.736-65.496l28.918-62.026.263 2.025c.144 1.114.87 3.491 1.612 5.281z" clip-rule="evenodd"/><path fill="#0F0" d="M440.336 289.59c-22.578 0-39.683-8.895-50.288-22.237v79.366h-47.893V105.885h47.893v18.474c10.605-13 27.71-21.894 50.288-21.894 49.603 0 78.339 42.419 78.339 93.391 0 51.314-28.736 93.734-78.339 93.734zm-51.314-98.523v9.92c0 30.447 17.105 47.551 40.025 47.551 27.025 0 41.393-21.552 41.393-52.682 0-30.788-14.368-52.34-41.393-52.34-22.92 0-40.025 16.762-40.025 47.551zm158.256 94.759V40.204h47.893v84.155c9.92-11.632 26.341-21.894 49.261-21.894 37.63 0 60.55 25.657 60.55 64.655v118.706h-47.893V180.804c0-20.184-8.21-34.552-28.735-34.552-16.763 0-33.183 11.974-33.183 35.578v103.996h-47.893zm362.017-89.97c0 56.103-36.262 93.734-88.26 93.734-51.998 0-88.26-37.631-88.26-93.734 0-55.761 36.262-93.391 88.26-93.391 51.998 0 88.26 37.63 88.26 93.391zm-128.969 0c0 34.209 15.736 54.051 40.709 54.051 24.973 0 40.367-19.842 40.367-54.051 0-33.867-15.394-53.709-40.367-53.709s-40.709 19.842-40.709 53.709zm140.365 59.524 29.762-30.446c12.315 16.762 34.209 27.367 54.397 27.367 16.07 0 30.1-5.473 30.1-18.473 0-13.683-13.34-15.394-42.077-20.867-29.078-5.816-61.235-13.342-61.235-51.999 0-34.551 30.446-58.497 73.552-58.497 31.81 0 60.21 12.999 74.23 31.13l-27.37 30.104c-11.97-15.394-29.42-23.946-48.23-23.946-15.053 0-24.973 6.499-24.973 16.42 0 11.631 11.973 13.684 34.213 18.131 31.47 6.5 68.76 13.684 68.76 54.393 0 37.63-34.9 60.893-78 60.893-32.499 0-66.709-11.974-83.129-34.21zm287.349 34.21c-22.58 0-39.68-8.895-50.29-22.237v79.366h-47.89V105.885h47.89v18.474c10.61-13 27.71-21.894 50.29-21.894 49.6 0 78.34 42.419 78.34 93.391 0 51.314-28.74 93.734-78.34 93.734zm-51.31-98.523v9.92c0 30.447 17.1 47.551 40.02 47.551 27.03 0 41.4-21.552 41.4-52.682 0-30.788-14.37-52.34-41.4-52.34-22.92 0-40.02 16.762-40.02 47.551zm158.25 94.759V40.204h47.9v84.155c9.92-11.632 26.34-21.894 49.26-21.894 37.63 0 60.55 25.657 60.55 64.655v118.706h-47.9V180.804c0-20.184-8.21-34.552-28.73-34.552-16.76 0-33.18 11.974-33.18 35.578v103.996h-47.9zm362.02-89.97c0 56.103-36.26 93.734-88.26 93.734-52 0-88.26-37.631-88.26-93.734 0-55.761 36.26-93.391 88.26-93.391 52 0 88.26 37.63 88.26 93.391zm-128.97 0c0 34.209 15.74 54.051 40.71 54.051s40.37-19.842 40.37-54.051c0-33.867-15.4-53.709-40.37-53.709s-40.71 19.842-40.71 53.709z"/></svg>