<svg width="685" height="780" viewBox="0 0 685 780" fill="none" xmlns="http://www.w3.org/2000/svg">
<path d="M45.8996 597.245C31.8929 589.464 23.2061 574.7 23.2061 558.677V222.866C23.2061 206.91 31.8212 192.197 45.7364 184.389L320.489 30.2222C333.899 22.6978 350.259 22.6978 363.669 30.2222L638.421 184.389C652.336 192.197 660.952 206.91 660.952 222.866V558.677C660.952 574.7 652.265 589.464 638.258 597.245L363.505 749.886M45.8996 597.245L363.505 749.886M45.8996 597.245L320.652 749.886C333.977 757.289 350.18 757.289 363.505 749.886M45.8996 597.245L363.505 749.886" fill="white" stroke="white" stroke-width="45.5009" stroke-linejoin="round"/>
<path d="M67.3033 223.862L341.714 376.313V711.706L67.3033 559.255V223.862Z" fill="white" fill-opacity="0.01"/>
<path d="M616.13 223.862L341.72 376.313V711.706L616.13 559.255V223.862Z" fill="white" fill-opacity="0.01"/>
<path fill-rule="evenodd" clip-rule="evenodd" d="M77.6647 205.198C71.0541 201.526 62.9936 201.625 56.4759 205.46C49.9582 209.295 45.9565 216.293 45.9565 223.855V559.248C45.9565 566.999 50.1588 574.141 56.9345 577.905L331.345 730.357C337.956 734.029 346.016 733.93 352.534 730.095C359.052 726.259 363.053 719.262 363.053 711.699V376.307C363.053 368.556 358.851 361.414 352.075 357.649L77.6647 205.198ZM88.6427 301.583C88.6427 282.985 108.622 271.228 124.881 280.261L307.821 381.895C315.565 386.197 320.367 394.359 320.367 403.218V521.306C320.367 539.904 300.387 551.66 284.129 542.628L219.4 506.667C203.142 497.635 183.162 509.391 183.162 527.99V558.632C183.162 576.833 163.609 588.338 147.698 579.499L101.189 553.66C93.4453 549.358 88.6427 541.196 88.6427 532.337V301.583Z" fill="black"/>
<path fill-rule="evenodd" clip-rule="evenodd" d="M183.929 417.482C183.929 401.422 201.168 391.259 215.22 399.035L251.235 418.966C258.149 422.792 262.441 430.071 262.441 437.974V437.974C262.441 453.805 245.462 463.836 231.596 456.197L194.839 435.948C188.109 432.241 183.929 425.166 183.929 417.482V417.482Z" fill="black"/>
<path d="M346.462 132.329C350.685 130.04 350.727 123.994 346.536 121.647L343.143 119.747C339.415 117.659 334.866 117.674 331.153 119.787L302.978 135.816C298.819 138.183 298.881 144.199 303.089 146.478L305.915 148.009C309.54 149.973 313.911 149.972 317.536 148.008L346.462 132.329Z" fill="black"/>
<path fill-rule="evenodd" clip-rule="evenodd" d="M637.464 223.906C637.448 231.641 633.248 238.762 626.486 242.518L352.075 394.97C345.629 398.551 337.791 398.551 331.345 394.97L56.9345 242.519C50.173 238.762 45.973 231.641 45.9566 223.906C45.9402 216.172 50.11 209.033 56.8556 205.248L331.266 51.2722C337.753 47.6323 345.667 47.6323 352.154 51.2722L626.565 205.248C633.311 209.033 637.48 216.171 637.464 223.906ZM347.678 97.7077C343.972 95.6277 339.449 95.6277 335.742 97.7077L266.631 136.487C258.306 141.158 258.333 153.152 266.679 157.786L329.869 192.872C337.233 196.962 346.186 196.962 353.551 192.872L360.571 188.975C364.762 186.647 364.752 180.616 360.553 178.302L342.25 168.218C338.044 165.901 338.042 159.857 342.247 157.538L370.884 141.738C374.55 139.715 378.997 139.714 382.664 141.736L408.36 155.901C412.037 157.928 416.498 157.921 420.169 155.883L426.293 152.482C430.466 150.165 430.479 144.169 426.317 141.833L347.678 97.7077ZM329.869 241.698L215.489 178.188C208.249 174.168 199.443 174.187 192.22 178.24L130.131 213.079C121.806 217.75 121.832 229.741 130.176 234.377L329.864 345.315C337.231 349.408 346.189 349.408 353.556 345.315L553.245 234.377C561.589 229.741 561.614 217.75 553.29 213.079L491.2 178.24C483.978 174.187 475.171 174.168 467.931 178.188L353.551 241.698C346.186 245.787 337.233 245.787 329.869 241.698Z" fill="black"/>
<path fill-rule="evenodd" clip-rule="evenodd" d="M626.944 205.46C620.426 201.625 612.366 201.526 605.755 205.198L331.344 357.649C324.569 361.414 320.366 368.556 320.366 376.307V711.699C320.366 719.262 324.368 726.259 330.886 730.095C337.404 733.93 345.464 734.029 352.075 730.357L626.485 577.905C633.261 574.141 637.463 566.999 637.463 559.248V223.855C637.463 216.293 633.462 209.295 626.944 205.46ZM558.539 280.261C574.797 271.228 594.777 282.985 594.777 301.583V532.337C594.777 541.196 589.975 549.358 582.231 553.66L399.29 655.294C383.032 664.326 363.053 652.57 363.053 633.972V586.285C363.053 577.43 367.852 569.27 375.592 564.967L517.569 486.029C524.283 482.296 528.422 475.194 528.359 467.512C528.23 451.617 511.166 441.627 497.242 449.296L399.212 503.289C382.956 512.243 363.053 500.483 363.053 481.923V403.218C363.053 394.359 367.855 386.197 375.599 381.895L436.403 348.115C444.532 343.598 454.522 349.477 454.522 358.776V381.06C454.522 397.189 471.726 407.49 485.944 399.873C492.879 396.158 497.208 388.928 497.208 381.06V328.686C497.208 319.828 502.011 311.666 509.754 307.364L558.539 280.261Z" fill="black"/>
</svg>
