<svg width="353" height="128" viewBox="0 0 353 128" fill="none" xmlns="http://www.w3.org/2000/svg">
<path d="M235.369 85.5349H241.481C245.39 85.5349 248.582 87.8025 248.582 92.9484V94.0481C248.582 99.2127 245.57 101.55 241.573 101.55H235.368V85.5349H235.369ZM238.783 88.435V98.6101H241.411C243.611 98.6101 245.117 97.1508 245.117 93.9396V93.1086C245.117 89.8985 243.569 88.4381 241.297 88.4381H238.783V88.4339V88.435ZM250.399 88.5921H253.115L253.541 91.6038C254.059 89.5388 255.384 88.4815 257.788 88.4815H258.62V91.918H257.228C254.443 91.918 253.768 92.8833 253.768 95.6222V101.553H250.399V88.5921ZM259.34 95.3504V94.9907C259.34 90.6343 262.126 88.2975 265.901 88.2975C269.676 88.2975 272.439 90.6767 272.439 94.9907V95.3504C272.439 99.6178 269.81 101.886 265.901 101.886C261.724 101.886 259.34 99.6189 259.34 95.3504ZM269.024 95.3039V94.9897C269.024 92.565 267.81 91.1511 265.902 91.1511C263.994 91.1511 262.755 92.4771 262.755 94.9897V95.3039C262.755 97.6407 263.947 98.9429 265.879 98.9429C267.811 98.9429 269.025 97.6634 269.025 95.3039H269.024ZM274.213 88.5921H277.046L277.383 91.0633C278.08 89.4003 279.517 88.3006 281.652 88.3006C284.955 88.3006 287.112 90.6798 287.112 95.0393V95.3989C287.112 99.6664 284.709 101.889 281.652 101.889C279.586 101.889 278.214 100.969 277.517 99.4638V106H274.213V88.591V88.5921ZM283.694 95.3266V95.0351C283.694 92.4534 282.368 91.1739 280.594 91.1739C278.709 91.1739 277.448 92.6105 277.448 95.0124V95.2615C277.448 97.5528 278.662 98.9894 280.525 98.9894C282.388 98.9894 283.694 97.7099 283.694 95.3266ZM292.076 99.193L291.808 101.553H288.888V84.2554H292.192V90.902C292.912 89.2163 294.349 88.2965 296.393 88.2965C299.47 88.3192 301.761 90.4535 301.761 94.7633V95.1468C301.761 99.4607 299.604 101.885 296.301 101.885C294.166 101.885 292.775 100.855 292.077 99.192L292.076 99.193ZM298.369 95.1468V94.8326C298.369 92.4534 297.065 91.1511 295.268 91.1511C293.47 91.1511 292.122 92.657 292.122 94.8791V95.1468C292.122 97.5714 293.356 98.9667 295.221 98.9667C297.087 98.9667 298.368 97.7099 298.368 95.1468H298.369ZM303.266 95.3504V94.9907C303.266 90.6343 306.029 88.2975 309.804 88.2975C313.579 88.2975 316.365 90.6767 316.365 94.9907V95.3504C316.365 99.6178 313.714 101.886 309.804 101.886C305.623 101.886 303.266 99.6189 303.266 95.3504ZM312.947 95.3039V94.9897C312.947 92.565 311.732 91.1511 309.823 91.1511C307.914 91.1511 306.676 92.4771 306.676 94.9897V95.3039C306.676 97.6407 307.868 98.9429 309.8 98.9429C311.732 98.9429 312.947 97.6634 312.947 95.3039ZM320.768 94.8326L316.231 88.588H320.116L322.745 92.473L325.397 88.588H329.26L324.653 94.8098L329.505 101.548H325.684L322.695 97.2572L319.798 101.548H315.843L320.767 94.8326H320.768Z" fill="#1E1919"/>
<path d="M211.088 101.325V89.7647H212.952V91.717H212.996C213.522 90.5324 214.861 89.4795 216.703 89.4795C218.458 89.4795 219.774 90.2692 220.191 91.8705H220.235C220.674 90.664 222.1 89.4795 224.008 89.4795C226.18 89.4795 227.671 90.5324 227.671 93.2745V101.325H225.697V94.1738C225.697 93.3403 225.697 92.4409 225.28 91.8705C224.885 91.3221 224.249 91.1247 223.482 91.1247C221.332 91.1247 220.367 92.5067 220.367 94.3932V101.325H218.392V94.1738C218.392 93.3403 218.392 92.4628 217.976 91.8925C217.581 91.3441 216.945 91.1247 216.177 91.1247C214.027 91.1247 213.062 92.5067 213.062 94.3493V101.325H211.088Z" fill="#1E1919"/>
<path d="M203.204 101.61C199.804 101.61 198.049 99.1534 198.049 95.5339C198.049 91.9583 200.023 89.4795 203.248 89.4795C206.692 89.4795 208.403 91.9583 208.403 95.5339C208.403 99.1534 206.451 101.61 203.204 101.61ZM203.226 90.9931C201.12 90.9931 200.089 92.726 200.089 95.5339C200.089 98.3637 201.032 100.075 203.27 100.075C205.42 100.075 206.363 98.3637 206.363 95.5339C206.363 92.726 205.442 90.9931 203.226 90.9931Z" fill="#1E1919"/>
<path d="M191.164 101.325V89.7648H193.029V91.9365H193.073C193.599 90.73 195.047 89.5454 196.736 89.5454H196.933V91.6074H196.561C194.499 91.6074 193.138 92.792 193.138 95.0295V101.325H191.164Z" fill="#1E1919"/>
<path d="M186.283 91.2779V101.325H184.309V91.2779H182.203V89.7643H184.309V87.1758C184.309 84.8067 185.669 83.9731 187.819 83.9731C188.257 83.9731 188.696 84.017 189.047 84.0828V85.7061C188.828 85.6622 188.477 85.6184 187.972 85.6184C186.832 85.6184 186.283 86.0351 186.283 87.4171V89.7643H189.047V91.2779H186.283Z" fill="#1E1919"/>
<path d="M104.816 38.6869V45.8968C103.889 45.4979 102.888 45.3005 101.879 45.3201C97.3515 45.3201 94.0376 48.8941 94.0376 54.4359V70.5776H86.3503V38.6869H94.0376V43.406C95.7597 40.2165 98.5041 38.1794 102.009 38.1794C102.967 38.1722 103.919 38.3437 104.816 38.6869Z" fill="#171D26"/>
<path d="M137.003 56.0349H111.635C112.211 61.1313 116.039 64.5823 120.821 64.5823C122.499 64.6122 124.155 64.1895 125.615 63.3596C127.074 62.5297 128.283 61.3215 129.115 59.8631L135.619 62.477C133.067 67.7656 127.516 71.2083 121.013 71.2083C110.358 71.2083 103.855 63.8753 103.855 54.6283C103.855 45.3813 110.874 38.0483 120.822 38.0483C130.046 38.0483 137.019 44.6816 137.149 54.3741L137.004 56.0339L137.003 56.0349ZM112.326 50.4239H128.716C128.228 48.6855 127.17 47.162 125.712 46.0965C124.254 45.0319 122.48 44.4873 120.675 44.5513C118.838 44.5079 117.036 45.0557 115.534 46.113C114.031 47.1703 112.907 48.6813 112.326 50.4239Z" fill="#171D26"/>
<path d="M138.186 54.6283C138.186 45.1281 145.773 38.0483 155.406 38.0483C162.324 38.0483 168.289 41.7453 170.903 48.0406L163.985 50.9076C163.307 49.1867 162.118 47.715 160.579 46.6887C159.04 45.6624 157.224 45.1312 155.375 45.1663C149.824 45.1663 145.873 49.1247 145.873 54.6056C145.873 60.0864 149.825 64.0448 155.375 64.0448C157.224 64.08 159.04 63.5487 160.579 62.5224C162.118 61.4961 163.307 60.0244 163.985 58.3035L170.903 61.1778C168.289 67.4886 162.355 71.17 155.406 71.17C145.735 71.2083 138.186 64.1296 138.186 54.6293V54.6283Z" fill="#171D26"/>
<path d="M173.164 22.7456H180.851V70.5703H173.164V22.7456Z" fill="#171D26"/>
<path d="M218.134 38.6869V70.5704H210.447V66.7267C208.018 69.5327 204.451 71.1843 199.854 71.1843C191.245 71.1843 184.103 63.8514 184.103 54.6044C184.103 45.3573 191.245 38.0244 199.854 38.0244C204.466 38.0244 208.018 39.6843 210.447 42.4903V38.6466L218.134 38.6848V38.6869ZM210.67 54.6281C210.67 52.7616 210.117 50.9374 209.08 49.385C208.043 47.8327 206.569 46.6234 204.845 45.9082C203.12 45.194 201.223 45.0059 199.391 45.3697C197.559 45.7335 195.878 46.6317 194.558 47.9505C193.238 49.2693 192.337 50.9508 191.972 52.7812C191.608 54.6116 191.794 56.5092 192.507 58.2341C193.22 59.9591 194.428 61.434 195.981 62.4716C197.533 63.5093 199.357 64.0643 201.223 64.0664C202.463 64.0716 203.693 63.8307 204.838 63.3584C205.986 62.8861 207.027 62.1905 207.903 61.313C208.78 60.4356 209.473 59.3927 209.945 58.2455C210.416 57.0983 210.654 55.8684 210.648 54.6281H210.67Z" fill="#171D26"/>
<path d="M222.632 26.6958C222.615 25.7801 222.872 24.881 223.368 24.111C223.864 23.342 224.578 22.7374 225.42 22.3757C226.261 22.0139 227.19 21.9106 228.091 22.078C228.991 22.2465 229.82 22.6785 230.474 23.3203C231.127 23.9621 231.575 24.7838 231.76 25.6799C231.944 26.577 231.858 27.5082 231.512 28.3557C231.166 29.2032 230.574 29.9287 229.815 30.4393C229.054 30.9499 228.16 31.2227 227.243 31.2227C226.035 31.2227 224.874 30.7483 224.011 29.9019C223.149 29.0554 222.653 27.904 222.63 26.6948L222.632 26.6958ZM223.332 38.6869H231.019V70.5704H223.332V38.6869Z" fill="#171D26"/>
<path d="M281.94 50.3543V70.5692H274.253V50.93C274.278 50.1745 274.149 49.4211 273.873 48.7172C273.598 48.0134 273.182 47.3726 272.649 46.8351C272.117 46.2977 271.481 45.874 270.781 45.5908C270.08 45.3076 269.327 45.1701 268.572 45.1877C265.189 45.1877 262.96 47.8708 262.96 51.1832V70.5682H255.273V50.929C255.298 50.1735 255.171 49.4211 254.896 48.7172C254.622 48.0134 254.206 47.3726 253.675 46.8351C253.143 46.2977 252.508 45.874 251.808 45.5908C251.107 45.3076 250.355 45.1701 249.6 45.1877C246.156 45.1877 243.988 47.8708 243.988 51.1832V70.5682H236.301V38.6847H243.988V41.8132C244.903 40.6567 246.064 39.7172 247.388 39.0661C248.711 38.4149 250.163 38.0666 251.637 38.047C253.435 38.0904 255.196 38.5648 256.771 39.4299C258.348 40.2949 259.691 41.5269 260.693 43.0204C261.73 41.4732 263.136 40.2081 264.784 39.34C266.433 38.4718 268.271 38.0274 270.133 38.047C276.859 38.047 281.941 43.4658 281.941 50.3533L281.94 50.3543Z" fill="#171D26"/>
<path d="M318.017 38.6869V70.5704H312.789V65.9587C310.045 69.2102 305.871 71.1853 300.797 71.1853C292.249 71.1853 284.854 63.7914 284.854 54.6053C284.854 45.4193 292.249 38.0254 300.797 38.0254C305.901 38.0254 310.021 40.0005 312.789 43.252V38.6403L318.017 38.6869ZM312.788 54.6281C312.788 52.3822 312.123 50.188 310.875 48.3204C309.627 46.4539 307.854 44.9987 305.78 44.1387C303.706 43.2799 301.422 43.0546 299.22 43.4928C297.017 43.931 294.994 45.0121 293.405 46.5996C291.818 48.1871 290.736 50.2097 290.298 52.4122C289.86 54.6147 290.085 56.8967 290.944 58.972C291.803 61.0463 293.258 62.8199 295.126 64.0674C296.993 65.3148 299.189 65.9804 301.434 65.9804C302.926 65.9877 304.406 65.6993 305.787 65.1309C307.168 64.5624 308.423 63.7273 309.479 62.6711C310.534 61.6158 311.37 60.3611 311.939 58.9803C312.507 57.5995 312.796 56.1205 312.788 54.6271V54.6281Z" fill="#171D26"/>
<path d="M323.213 25.6809C323.199 24.9709 323.398 24.2733 323.781 23.6769C324.166 23.0806 324.719 22.6114 325.37 22.3302C326.022 22.0491 326.743 21.9685 327.442 22.0987C328.139 22.2289 328.783 22.5638 329.29 23.0609C329.796 23.5581 330.143 24.1947 330.287 24.8893C330.431 25.5848 330.364 26.3062 330.096 26.9636C329.827 27.6209 329.369 28.1831 328.781 28.579C328.192 28.9748 327.498 29.1867 326.788 29.1867C325.851 29.1888 324.951 28.8229 324.283 28.1666C323.614 27.5103 323.229 26.6184 323.213 25.682V25.6809ZM324.174 38.6869H329.401V70.5705H324.174V38.6869Z" fill="#171D26"/>
<path d="M59.2148 44.9511C65.4426 44.9511 70.492 39.9023 70.492 33.6753C70.492 27.4482 65.4426 22.3994 59.2148 22.3994C52.987 22.3994 47.9376 27.4482 47.9376 33.6753C47.9376 39.9023 52.987 44.9511 59.2148 44.9511Z" fill="#171D26"/>
<path d="M44.5627 22.353H22V44.913H44.5627V22.353Z" fill="#EE9AB2"/>
<path d="M59.2148 49.7251L65.1036 60.14L70.9923 70.5632H47.4456L53.3261 60.14L59.2148 49.7251Z" fill="#FFC550"/>
<path d="M33.2772 70.7231C39.505 70.7231 44.5544 65.6743 44.5544 59.4473C44.5544 53.2202 39.505 48.1714 33.2772 48.1714C27.0494 48.1714 22 53.2202 22 59.4473C22 65.6743 27.0494 70.7231 33.2772 70.7231Z" fill="#5263F3"/>
</svg>
