<svg version="1.1" id="Layer_1" xmlns:x="ns_extend;" xmlns:i="ns_ai;" xmlns:graph="ns_graphs;" xmlns="http://www.w3.org/2000/svg" xmlns:xlink="http://www.w3.org/1999/xlink" x="0px" y="0px" viewBox="0 0 236 52" style="enable-background:new 0 0 236 52;" xml:space="preserve">
 <style type="text/css">
  .st0{fill:#FFFFFF;}
 </style>
 <metadata>
  <sfw xmlns="ns_sfw;">
   <slices>
   </slices>
   <sliceSourceBounds bottomLeftOrigin="true" height="52" width="236" x="82.2" y="-226.2">
   </sliceSourceBounds>
  </sfw>
 </metadata>
 <g>
  <g>
   <path class="st0" d="M38.7,40.1h0.5V52h-2c-12.8,0-20.1-7.2-20.1-19v-6.1l4.1-1c2.5-0.6,4.4-2.6,4.9-5.1c0.5-2.5-0.4-5.1-2.4-6.6
			c-4.4-3.4-10.7-0.3-10.8,5.2v26H0V19c0-0.8,0.1-1.6,0.1-2.4C1.5,7,9.9-0.1,19.6,0c8.8-0.1,16.5,5.7,19,14.1
			c1.2,4.2,0.8,8.8-1.1,12.8c-1.6,3.4-4.1,6.2-7.3,8.2c1.1,4.3,3.3,5.1,8.4,5.1 M72.1,14.9v7.3h-1.2c-2.5,0-4.5,0.7-5.9,2.1
			c-1.5,1.5-2.2,3.5-2.1,5.6V43h-7V15.4h7v3.6c1.9-2.5,4.8-4,8-4H72.1z M102.4,31.7H81c0.4,1.7,1.4,3.1,2.8,4.2
			c1.4,1,3.1,1.5,5.1,1.5c1.5,0,3-0.3,4.4-1c1.2-0.6,2.3-1.4,3.2-2.4l4.7,4.1c-1.5,1.8-3.3,3.2-5.4,4.1c-2.2,1-4.6,1.5-7.1,1.4
			c-2.7,0-5.4-0.6-7.9-1.9c-4.7-2.5-7.6-7.3-7.5-12.6c0-2.6,0.6-5.1,1.9-7.4c1.3-2.2,3.1-4,5.3-5.2c2.3-1.3,4.9-1.9,7.5-1.9
			c3.9-0.1,7.7,1.4,10.4,4.1c2.8,2.7,4.2,6.5,4.1,10.4C102.6,30.1,102.5,30.9,102.4,31.7L102.4,31.7z M92.4,22.4
			c-2.6-2.1-6.3-2.1-8.9,0c-1.3,1.1-2.2,2.5-2.6,4.1H95C94.7,24.9,93.8,23.5,92.4,22.4L92.4,22.4z M147.8,17.5
			c1.9,2,2.9,4.7,2.8,7.5v18h-7.1V27.1c0-1.7-0.5-3.1-1.5-4.1c-1-1-2.5-1.6-3.9-1.5c-1.7,0-3.1,0.5-4.2,1.6
			c-1.1,1.1-1.7,2.6-1.6,4.1V43h-7V27.1c0-1.7-0.5-3-1.5-4.1c-1.1-1-2.5-1.6-4-1.5c-1.5-0.1-3.1,0.5-4.2,1.6
			c-1.1,1.1-1.7,2.6-1.6,4.1V43h-7V15.4h7v2.9c2.1-2.3,5.1-3.6,8.2-3.5c1.8,0,3.5,0.4,5.1,1.2c1.5,0.8,2.7,1.9,3.6,3.3
			c2.2-3,5.7-4.6,9.4-4.5C143.4,14.7,145.9,15.6,147.8,17.5L147.8,17.5z M184.3,29.2c0.1,3.9-1.4,7.6-4.2,10.3
			c-2.8,2.8-6.7,4.3-10.6,4.1c-4.2,0-7.7-1.4-10.6-4.1c-2.8-2.7-4.4-6.4-4.3-10.3c0-4.1,1.4-7.6,4.3-10.3c2.8-2.8,6.6-4.3,10.6-4.1
			c4.2,0,7.7,1.4,10.6,4.1C182.9,21.5,184.4,25.3,184.3,29.2L184.3,29.2z M174.9,34.6c1.4-1.5,2.2-3.4,2.1-5.5c0-2.2-0.7-4-2.1-5.5
			c-1.4-1.5-3.4-2.2-5.4-2.2c-2-0.1-4,0.7-5.4,2.2c-2.9,3.1-2.9,7.8,0,10.9c1.4,1.5,3.4,2.3,5.4,2.2
			C171.7,36.8,173.5,36.1,174.9,34.6L174.9,34.6z M197.2,21.8v11.5c0,2.4,1.3,3.5,3.8,3.5c1.3,0,2.5-0.4,3.6-0.9v6.6
			c-1.6,0.8-3.4,1.2-5.2,1.2c-3.1,0-5.4-0.8-7-2.5c-1.6-1.9-2.5-4.3-2.3-6.8V21.8h-4.4v-6.4h4.4v-4.6l7-2.4v7h7.5v6.4H197.2z
			 M235.9,31.7h-21.4c0.4,1.7,1.4,3.1,2.8,4.2c1.4,1,3.1,1.5,5.1,1.5c1.5,0,3-0.3,4.4-1c1.2-0.6,2.3-1.4,3.2-2.4l4.7,4.1
			c-1.5,1.8-3.3,3.1-5.4,4.1c-2.2,1-4.6,1.5-7.1,1.4c-2.7,0-5.4-0.6-7.9-1.9c-4.7-2.4-7.6-7.3-7.5-12.6c0-2.6,0.7-5.1,1.9-7.4
			c1.3-2.2,3.1-4,5.3-5.2c2.3-1.3,4.9-1.9,7.5-1.9c4.1,0,7.6,1.4,10.4,4.1c2.8,2.7,4.3,6.5,4.1,10.4C236,30.1,235.9,30.9,235.9,31.7
			L235.9,31.7z M225.9,22.4c-2.6-2.1-6.3-2.1-9,0c-1.3,1.1-2.2,2.5-2.6,4.1h14.1C228.1,24.9,227.2,23.5,225.9,22.4L225.9,22.4z
			 M225.9,22.4">
   </path>
  </g>
 </g>
</svg>