<svg width="196" height="30" xmlns="http://www.w3.org/2000/svg" xmlns:xlink="http://www.w3.org/1999/xlink">
    <defs>
        <path id="a" d="M0 0h28.517v30H0z"/>
        <path id="c" d="M0 0h16.615v21.12H0z"/>
        <path id="e" d="M0 0h14.208v16.355H0z"/>
        <path id="g" d="M0 0h14.208v16.355H0z"/>

    </defs>
    <g fill="none" fill-rule="evenodd">
        <g>
            <mask id="b" fill="#fff">
                <use href="#a"/>
            </mask>
            <path d="M14.245 10.843c-.912 0-1.77.357-2.415 1.005-.645.649-1 1.51-1 2.427s.355 1.778 1 2.426l2.443 2.456 2.416-2.427a3.447 3.447 0 0 0 0-4.854l-.028-.028a3.387 3.387 0 0 0-2.416-1.005zm.022-6.506a9.867 9.867 0 0 0-7.018 2.918 9.95 9.95 0 0 0-2.917 7.08 9.94 9.94 0 0 0 2.925 7.06l2.462 2.46 1.493-1.5-2.488-2.502A7.808 7.808 0 0 1 6.44 14.31c0-2.095.81-4.063 2.284-5.544a7.724 7.724 0 0 1 5.514-2.296c2.083 0 4.041.815 5.514 2.296l.029.029c3.04 3.057 3.04 8.03 0 11.087l-2.46 2.473 1.489 1.496 2.474-2.487c3.869-3.89 3.869-10.219 0-14.11a9.867 9.867 0 0 0-7.017-2.917zM18.815 30l-4.547-4.568-4.544 4.564-5.521-5.517A14.26 14.26 0 0 1 0 14.345 14.259 14.259 0 0 1 4.176 4.198c5.57-5.596 14.614-5.595 20.172-.01 5.559 5.583 5.559 14.669 0 20.253L18.815 30z" fill="#114EF7" mask="url(#b)"/>
        </g>
        <g transform="translate(35.52 4.286)">
            <mask id="d" fill="#fff">
                <use href="#c"/>
            </mask>
            <path d="M8.312 0c1.592 0 2.952.284 4.08.85 1.128.568 1.99 1.369 2.582 2.404.593 1.034.89 2.25.89 3.645 0 1.402-.302 2.607-.905 3.614-.604 1.008-1.477 1.779-2.619 2.315l-.196.086 4.471 8.206h-4.918l-3.992-7.488-3.25.001v7.487H0V0h8.312zM7.46 3.65H4.455v6.394H7.48c.85 0 1.556-.117 2.119-.351.562-.233.983-.584 1.26-1.051.277-.468.416-1.049.416-1.743 0-.701-.139-1.292-.416-1.774-.277-.481-.7-.847-1.265-1.098-.566-.25-1.278-.376-2.135-.376z" fill="#FFFFFF" mask="url(#d)"/>
        </g>
        <path d="M55.743 24.719a6.72 6.72 0 0 1-2.7-2.825c-.632-1.22-.947-2.666-.947-4.337 0-1.63.315-3.059.946-4.29.63-1.23 1.52-2.189 2.67-2.876 1.149-.687 2.498-1.032 4.049-1.032 1.041 0 2.014.167 2.916.5.901.334 1.69.835 2.366 1.5.676.668 1.202 1.505 1.58 2.512.376 1.007.565 2.185.565 3.532v1.206H56.427v-2.722h6.636c0-.632-.138-1.192-.412-1.68a2.988 2.988 0 0 0-1.136-1.15c-.484-.28-1.045-.418-1.683-.418-.665 0-1.253.152-1.764.458a3.29 3.29 0 0 0-1.199 1.227 3.498 3.498 0 0 0-.442 1.707v2.59c0 .782.145 1.46.437 2.03.292.571.704 1.01 1.24 1.32.535.31 1.169.464 1.903.464.487 0 .933-.069 1.337-.206a2.763 2.763 0 0 0 1.04-.62 2.68 2.68 0 0 0 .658-1.01l4.053.269a5.54 5.54 0 0 1-1.26 2.552c-.634.725-1.45 1.289-2.448 1.69-.999.403-2.149.604-3.452.604-1.625 0-3.023-.332-4.192-.995zM68.6 25.405V9.565h4.177v2.795h.185c.329-.928.878-1.66 1.646-2.196.768-.536 1.688-.805 2.757-.805 1.084 0 2.007.27 2.768.81.76.54 1.268 1.27 1.522 2.191h.165c.322-.907.907-1.634 1.754-2.18.847-.547 1.85-.82 3.01-.82 1.474 0 2.672.469 3.595 1.407.922.938 1.383 2.267 1.383 3.986v10.652h-4.371v-9.786c0-.88-.234-1.54-.7-1.98-.467-.44-1.05-.66-1.749-.66-.796 0-1.417.253-1.862.758-.446.505-.669 1.17-.669 1.995v9.673h-4.249v-9.879c0-.776-.221-1.395-.664-1.856-.442-.46-1.024-.69-1.743-.69-.487 0-.925.12-1.312.365a2.574 2.574 0 0 0-.92 1.021c-.228.436-.34.947-.34 1.531v9.508H68.6zM100.731 22.311c.728 0 1.334-.207 1.821-.623.487-.416.856-.986 1.106-1.707.25-.722.376-1.543.376-2.465 0-.921-.125-1.742-.376-2.464-.25-.722-.619-1.292-1.106-1.712-.487-.419-1.093-.63-1.82-.63-.734 0-1.35.211-1.847.63-.498.42-.872.99-1.122 1.712-.25.722-.376 1.543-.376 2.464 0 .922.126 1.743.376 2.465.25.721.624 1.29 1.122 1.707.497.416 1.113.623 1.846.623m-.02 3.403c-1.599 0-2.979-.342-4.141-1.026a6.925 6.925 0 0 1-2.69-2.866c-.632-1.228-.947-2.652-.947-4.275 0-1.636.315-3.067.947-4.295a6.925 6.925 0 0 1 2.69-2.866c1.162-.684 2.542-1.027 4.14-1.027 1.599 0 2.979.343 4.141 1.027a6.93 6.93 0 0 1 2.69 2.866c.632 1.228.947 2.659.947 4.295 0 1.623-.315 3.047-.946 4.275a6.93 6.93 0 0 1-2.69 2.866c-1.163.684-2.543 1.026-4.141 1.026M115.332 5.771v3.794h2.973v3.3h-2.973v7.673c0 .405.062.72.185.943.124.223.297.38.52.469.223.09.481.135.777.135.206 0 .411-.02.617-.057l.473-.088.69 3.27c-.22.068-.529.149-.926.242-.399.092-.882.149-1.451.17-1.057.04-1.98-.1-2.772-.423-.793-.324-1.409-.825-1.847-1.505-.44-.681-.655-1.54-.648-2.579l-.001-8.25h-2.16v-3.3h2.16V5.771h4.383zM122.55 24.719a6.72 6.72 0 0 1-2.7-2.825c-.63-1.22-.946-2.666-.946-4.337 0-1.63.315-3.059.947-4.29.63-1.23 1.52-2.189 2.67-2.876 1.148-.687 2.498-1.032 4.048-1.032 1.042 0 2.014.167 2.916.5.902.334 1.69.835 2.366 1.5.676.668 1.202 1.505 1.58 2.512.376 1.007.565 2.185.565 3.532v1.206h-10.761v-2.722h6.636c0-.632-.138-1.192-.412-1.68a2.988 2.988 0 0 0-1.136-1.15c-.483-.28-1.044-.418-1.683-.418-.665 0-1.253.152-1.764.458a3.29 3.29 0 0 0-1.199 1.227 3.498 3.498 0 0 0-.442 1.707v2.59c0 .782.146 1.46.437 2.03.292.571.705 1.01 1.24 1.32.535.31 1.169.464 1.903.464.487 0 .933-.069 1.337-.206a2.763 2.763 0 0 0 1.04-.62 2.68 2.68 0 0 0 .658-1.01l4.054.269a5.54 5.54 0 0 1-1.26 2.552c-.635.725-1.45 1.289-2.45 1.69-.997.403-2.148.604-3.45.604-1.626 0-3.024-.332-4.193-.995zM135.49 25.405V4.286h8.313c1.598 0 2.96.304 4.084.913 1.125.608 1.984 1.45 2.578 2.526.593 1.076.89 2.315.89 3.717 0 1.403-.303 2.64-.905 3.713-.604 1.072-1.477 1.907-2.62 2.505-1.141.599-2.522.898-4.14.898h-3.745V14.98h3.025c.857 0 1.565-.15 2.125-.45a2.93 2.93 0 0 0 1.254-1.247c.278-.533.417-1.146.417-1.84 0-.702-.139-1.315-.417-1.841a2.887 2.887 0 0 0-1.26-1.228c-.562-.292-1.276-.437-2.14-.437h-3.004v17.468h-4.455zM158.064 22.672c.645 0 1.214-.128 1.708-.387a2.994 2.994 0 0 0 1.163-1.046c.28-.44.421-.939.421-1.495v-1.68a2.28 2.28 0 0 1-.56.242 8.261 8.261 0 0 1-.798.195c-.295.059-.59.11-.884.155l-.803.119a5.432 5.432 0 0 0-1.347.36c-.385.165-.683.387-.896.665-.213.279-.319.625-.319 1.037 0 .598.218 1.054.654 1.366.436.313.989.47 1.661.47m-1.255 3.031c-1.008 0-1.907-.177-2.695-.53a4.27 4.27 0 0 1-1.868-1.579c-.456-.698-.684-1.569-.684-2.614 0-.88.161-1.619.484-2.217a3.914 3.914 0 0 1 1.317-1.444 6.366 6.366 0 0 1 1.898-.825c.71-.185 1.455-.315 2.238-.391a50.27 50.27 0 0 0 2.222-.273c.562-.087.97-.215 1.224-.387.253-.172.38-.427.38-.763v-.062c0-.653-.204-1.16-.611-1.516-.409-.358-.987-.537-1.734-.537-.789 0-1.416.174-1.883.521-.466.348-.775.782-.926 1.305l-4.053-.33c.206-.963.61-1.796 1.213-2.501.604-.705 1.384-1.248 2.341-1.63.957-.38 2.066-.572 3.329-.572.877 0 1.719.103 2.525.31a6.666 6.666 0 0 1 2.15.959 4.687 4.687 0 0 1 1.487 1.665c.364.677.545 1.487.545 2.428v10.684h-4.156V23.21h-.123c-.254.495-.594.93-1.02 1.304a4.596 4.596 0 0 1-1.532.877c-.597.21-1.286.314-2.068.314" fill="#FFFFFF"/>
        <g transform="translate(166.965 9.36)">
            <mask id="f" fill="#fff">
                <use href="#e"/>
            </mask>
            <path d="m13.848 4.723-4.013.247a2.124 2.124 0 0 0-.442-.933 2.429 2.429 0 0 0-.89-.67c-.367-.168-.804-.253-1.312-.253-.678 0-1.251.143-1.718.428-.466.285-.699.665-.699 1.14 0 .377.15.697.453.959.301.261.819.47 1.553.628l2.86.578c1.536.316 2.681.825 3.436 1.526.755.701 1.132 1.623 1.132 2.764 0 1.038-.304 1.949-.91 2.732-.607.784-1.438 1.394-2.49 1.831-1.053.436-2.266.655-3.637.655-2.092 0-3.757-.438-4.995-1.315S.213 12.969 0 11.456l4.31-.227c.131.64.447 1.126.947 1.46.501.333 1.142.5 1.924.5.768 0 1.387-.15 1.858-.449.469-.299.707-.685.715-1.16-.008-.398-.176-.726-.505-.984-.33-.259-.837-.455-1.523-.594L4.99 9.456C3.447 9.146 2.3 8.61 1.55 7.847.798 7.084.422 6.111.422 4.929c0-1.017.276-1.894.828-2.63C1.802 1.565 2.58.998 3.586.598 4.59.2 5.769 0 7.12 0c1.996 0 3.568.422 4.717 1.268 1.148.846 1.82 1.997 2.01 3.455" fill="#FFFFFF" mask="url(#f)"/>
        </g>
        <g transform="translate(181.792 9.36)">
            <mask id="h" fill="#fff">
                <use href="#g"/>
            </mask>
            <path d="m13.848 4.723-4.013.247a2.124 2.124 0 0 0-.442-.933 2.429 2.429 0 0 0-.89-.67c-.367-.168-.804-.253-1.312-.253-.678 0-1.251.143-1.718.428-.466.285-.699.665-.699 1.14 0 .377.15.697.453.959.301.261.819.47 1.553.628l2.86.578c1.536.316 2.681.825 3.436 1.526.755.701 1.132 1.623 1.132 2.764 0 1.038-.304 1.949-.91 2.732-.607.784-1.438 1.394-2.49 1.831-1.053.436-2.266.655-3.637.655-2.092 0-3.757-.438-4.995-1.315S.213 12.969 0 11.456l4.31-.227c.131.64.447 1.126.947 1.46.501.333 1.142.5 1.924.5.768 0 1.387-.15 1.858-.449.469-.299.707-.685.715-1.16-.008-.398-.176-.726-.505-.984-.33-.259-.837-.455-1.523-.594L4.99 9.456C3.447 9.146 2.3 8.61 1.55 7.847.798 7.084.422 6.111.422 4.929c0-1.017.276-1.894.828-2.63C1.802 1.565 2.58.998 3.586.598 4.59.2 5.769 0 7.12 0c1.996 0 3.568.422 4.717 1.268 1.148.846 1.82 1.997 2.01 3.455" fill="#FFFFFF" mask="url(#h)"/>
        </g>
    </g>
</svg>
