<?xml version="1.0" encoding="UTF-8"?><svg id="Layer_1" xmlns="http://www.w3.org/2000/svg" viewBox="0 0 321.73 44.07"><defs><style>.cls-1{fill:#cdeb62;}.cls-1,.cls-2{stroke-width:0px;}.cls-2{fill:#f1f1f1;}</style></defs><path class="cls-2" d="m169.99,22.04c0,1.53,0,3.05,0,4.58v-13.3c0,2.91,0,5.82,0,8.72Z"/><path class="cls-1" d="m43.75,1.48c0-1.36,0-1.36-1.4-1.36C28.66.12,14.97.12,1.28.12.85.12.42.08,0,.05v43.75c14.19,0,28.38,0,42.57.02.92,0,1.2-.19,1.2-1.16-.03-13.72-.02-27.45-.03-41.18Zm-4.91,36.35c0,.86-.25,1.06-1.09,1.06-10.61-.03-21.22-.03-31.83,0-.78,0-1.04-.18-1.04-1,.03-10.64.03-21.29,0-31.93,0-.89.37-.97,1.09-.97,5.32.02,10.65.01,15.97.01h0c5.29,0,10.58.02,15.86-.01.79,0,1.05.19,1.04,1.01-.03,10.61-.03,21.22,0,31.83Z"/><path class="cls-2" d="m318.44.8c-.94-.03-1.27.17-1.26,1.21.06,4.46.03,8.93.02,13.39,0,.35.14.75-.23,1.11-1.26-1.66-2.72-3-4.62-3.77-3.7-1.49-7.44-1.54-11.2-.29-5.05,1.69-10.06,7.22-10.37,14.64-.39,9.03,6.45,17.92,17.24,16.88,3.56-.34,6.63-1.65,8.78-4.67.08-.11.16-.25.41-.09,0,1.06.02,2.15,0,3.25-.02.51.16.69.67.68,1.28-.02,2.57,0,3.85.01V.7c-1.09.28-2.2.14-3.29.11Zm-9.08,38.62c-6.51,1.74-12.84-2.44-13.8-9.11-.59-4.07.03-7.83,2.89-10.99,2.96-3.26,6.71-4.13,10.83-3.1,4.09,1.02,6.65,3.84,7.93,7.81.4,1.23.51,2.51.51,3.81-.02,5.68-3.3,10.21-8.37,11.57Z"/><path class="cls-2" d="m92.33,41.93c-2.99,1.39-6.12,1.87-9.97,1.89-4.71-.05-9.57-1.35-13.57-5.06-1.16-1.08-2.08-2.34-2.92-3.69-.29-.46-.24-.74.22-1.04,1.93-1.29,3.85-2.6,5.74-3.94.5-.35.71-.17,1,.25,3.13,4.39,7.52,5.47,12.58,4.72.92-.14,1.78-.51,2.52-1.12,1.86-1.56,1.9-3.98.06-5.56-1.24-1.07-2.74-1.63-4.26-2.18-3.19-1.15-6.46-2.1-9.41-3.83-5.85-3.42-7.84-11.15-4.12-16.5,2.21-3.19,5.44-4.91,9.23-5.47,5.09-.74,9.9-.05,14.09,3.26,1.01.8,1.88,1.74,2.71,2.74.4.48.44.78-.12,1.19-1.71,1.24-3.38,2.51-5.04,3.81-.5.39-.75.3-1.2-.14-2.64-2.56-5.84-3.16-9.32-2.34-1.71.4-2.69,1.55-2.79,2.89-.13,1.73.72,2.8,2.24,3.52,2.4,1.13,4.98,1.73,7.43,2.72,2.19.88,4.31,1.87,6.34,3.1,7.35,4.46,6.5,17.1-1.42,20.77Z"/><path class="cls-2" d="m165.46,13.36c0-.61-.11-.89-.82-.88-2.5.04-5,.04-7.5,0-.7-.01-.82.27-.82.88,0,.81.12,1.65-.12,2.59-1.02-1.61-2.35-2.62-3.98-3.15-4.51-1.46-8.9-1.2-12.97,1.36-8.49,5.35-9.82,18.03-2.7,25.19,5.59,5.62,14.35,5.85,19.78.39,0,.95.03,1.79-.01,2.63-.03.62.19.78.8.78,2.5-.03,5-.04,7.5,0,.68.01.83-.23.83-.86-.02-9.64-.02-19.29,0-28.93Zm-16.66,22.06c-4.37-.02-7.66-3.32-7.65-7.68.01-4.19,3.42-7.52,7.71-7.55,4.4-.03,8.03,3.45,8,7.67-.03,4.28-3.55,7.57-8.07,7.56Z"/><path class="cls-2" d="m211.14,16.26c-3.73-3.77-8.32-4.92-13.44-4.43-13.4,1.28-17.43,14.26-12.97,23.72,2.33,4.94,6.67,7.39,11.98,8.11,5.9.8,11.2-.51,15.68-4.63.6-.55.68-.91.02-1.49-1.31-1.16-2.57-2.37-3.8-3.62-.58-.59-.95-.62-1.64-.08-3.22,2.52-6.82,2.96-10.62,1.64-2.07-.72-3.52-2.1-4.04-4.35-.18-.77.06-.9.76-.9,3.54.02,7.07.01,10.61.01h9.54c2.08,0,2.15,0,2.24-2.07.18-4.54-1.04-8.6-4.32-11.91Zm-5.66,8.02c-.92-.02-1.84-.02-2.76-.02-1.15,0-2.3,0-3.45,0-.52,0-1.04,0-1.56,0-.67,0-1.34,0-2,0-.45,0-.91,0-1.36,0-.06,0-.12,0-.17,0-.33,0-.67,0-1,.02-.82.02-.9-.27-.64-.95.65-1.69,1.93-2.73,3.54-3.37,2.66-1.06,5.29-1.05,7.82.45,1.15.68,1.93,1.66,2.3,2.97.18.65.02.9-.7.89Z"/><path class="cls-2" d="m257.52,36.21c0,.62-.2,1.07-.64,1.51-4.77,4.72-10.59,6.66-17.18,6.24-8.46-.53-14.99-4.53-18.53-12.23-6.48-14.08,1.78-29.33,16.56-31.45,6.31-.9,12.14.34,17.2,4.47.72.59.98.98.16,1.68-.62.53-1.15,1.18-1.66,1.82-.41.51-.69.59-1.27.13-5.93-4.7-12.49-5.27-19.09-2.01-6.5,3.21-9.4,8.95-9.22,16.16.17,6.98,3.22,12.42,9.62,15.36,6.27,2.88,12.51,2.3,18.27-1.75.66-.47.97-.99.95-1.86-.06-2.96-.05-5.93-.01-8.9.01-.74-.19-.97-.95-.96-3.61.04-7.22,0-10.83.04-.86.01-1.25-.16-1.15-1.1.08-.78.07-1.57,0-2.36-.08-.84.27-1.01,1.04-1,2.61.05,5.22.02,7.83.02,2.64,0,5.29.03,7.93-.02.77-.01.95.24.95.98-.03,5.07-.02,10.15,0,15.22Z"/><path class="cls-2" d="m130.6,39.03c-4.36,4.24-9.59,5.66-15.48,4.58-6.5-1.19-11.02-4.92-12.89-11.29-2.96-10.1,4.13-19.96,14.65-20.7.53-.04,1.07-.07,1.6-.11,4.82,0,8.92,1.69,12.3,5.15.44.45.54.71.03,1.19-1.58,1.5-3.13,3.03-4.65,4.59-.49.51-.76.36-1.2-.06-2.86-2.67-6.79-3.34-10.01-1.74-3.26,1.62-4.93,5.5-3.95,9.19.97,3.66,4.15,6.02,7.84,5.84,2.34-.11,4.39-.93,6.08-2.56.53-.51.84-.51,1.36.03,1.44,1.49,2.9,2.96,4.44,4.35.75.68.37,1.03-.13,1.52Z"/><path class="cls-2" d="m179.09,42.27c0,.71-.21.91-.91.89-2.43-.04-4.86-.05-7.29,0-.79.02-.92-.26-.92-.97.02-3.67.02-7.33.02-10.99,0-3.05,0-6.11,0-9.16s0-5.82,0-8.72c0-3.81,0-7.62-.02-11.43,0-.82.18-1.11,1.05-1.09,2.36.06,4.72.05,7.07.02.71-.01,1,.14,1,.93-.02,13.51-.02,27.01,0,40.52Z"/><path class="cls-2" d="m277.84,16.5c0,.7-.45.5-.81.44-1.57-.26-3.14-.28-4.68.14-3.28.9-5.68,3.8-5.76,7.32-.12,5.82-.09,11.65-.06,17.47,0,1.02-.22,1.41-1.28,1.29-.88-.1-1.78-.04-2.68-.01-.46.01-.66-.15-.62-.62.02-.21,0-.43,0-.64,0-9.4.02-18.8-.03-28.2,0-1.01.29-1.31,1.25-1.21.71.08,1.43.07,2.14,0,.91-.09,1.29.16,1.21,1.15-.09,1.1-.02,2.21-.02,3.31.82-.75,1.4-1.59,2.16-2.28,2.45-2.23,5.38-2.81,8.56-2.59.38.03.6.13.6.56-.01,1.29-.02,2.57,0,3.86Z"/><path class="cls-2" d="m287.13,42.27c0,.7-.18.94-.9.89-.92-.06-1.86-.07-2.78,0-.78.06-.95-.24-.95-.97.03-4.78.02-9.57.02-14.35s.02-9.57-.02-14.35c0-.8.21-1.08,1.02-1.01.89.07,1.79.07,2.67,0,.79-.06.94.26.94.98-.02,9.6-.02,19.21,0,28.81Z"/><path class="cls-2" d="m287.89,4.47c-.02,1.72-1.35,3-3.11,2.99-1.74,0-3.07-1.35-3.04-3.06.03-1.68,1.45-3.07,3.11-3.04,1.68.03,3.07,1.45,3.05,3.11Z"/><path class="cls-1" d="m34.05,33.17c0,.57-.08.95-.8.95-7.68-.02-15.37-.01-23.05-.02-.06,0-.12-.06-.32-.17,1.53-1.54,3-3.04,4.48-4.52.32-.31.75-.18,1.13-.18,4.14-.01,8.29-.03,12.44.01.89,0,1.21-.24,1.14-1.14-.07-.85-.06-1.72,0-2.57.06-.82-.19-1.12-1.06-1.1-2.46.06-4.93.02-7.4.02-.27,0-.62.17-.78-.15-.17-.34.19-.5.38-.68,1.2-1.22,2.43-2.42,3.62-3.66.34-.35.71-.43,1.15-.43,2.75,0,5.5.02,8.26-.02.69,0,.83.29.83.9-.02,4.25-.02,8.51,0,12.76Z"/><path class="cls-1" d="m33.81,10.04c-1.52,1.53-3.01,3.04-4.51,4.54-.32.32-.74.2-1.13.2-4.08,0-8.15.03-12.23-.02-1.02-.01-1.59.18-1.37,1.34.05.27-.04.58.02.85.42,2.08-.52,3.52-2.07,4.77-.8.64-1.49,1.43-2.22,2.16-.15.14-.24.39-.51.28-.2-.09-.14-.31-.14-.48,0-4.4,0-8.79,0-13.19,0-.47.2-.63.65-.63.79.02,1.57,0,2.36,0,6.68,0,13.37,0,20.05,0,.34,0,.7-.12,1.1.17Z"/></svg>