<?xml version="1.0" encoding="utf-8"?>
<svg xmlns="http://www.w3.org/2000/svg" id="Ebene_1" version="1.1" viewBox="0 0 128 47.1">
  
  <defs>
    <style>
      .st0 {
        fill: #505050;
      }
    </style>
  </defs>
  <path class="st0" d="M33,10.1c.3-.9.5-1.9.5-2.8s-.2-1.8-.5-2.7c-.4-.9-.9-1.7-1.6-2.3-.7-.7-1.6-1.2-2.7-1.6C27.5.2,26.3,0,24.9,0,22.9,0,21,.3,19.3,1c-1.7.7-3.2,1.7-4.5,2.9-1.3,1.3-2.3,2.7-3,4.4-.8,1.8-1.2,3.7-1.2,5.7s.5,4.3,1.6,6.3c1,2,2.2,3.9,3.4,5.7,1.2,1.8,2.4,3.6,3.4,5.3,1,1.7,1.6,3.3,1.6,4.9s-.5,2.6-1.4,3.6-2.3,1.5-4.2,1.5-1.8,0-2.7-.4c-.9-.3-1.9-.8-2.9-1.5s-1.9-1.7-2.8-3-1.6-2.9-2.3-5c0-.4-.4-.4-.9-.2-.4.2-.9.6-1.4,1.2-.5.6-1,1.4-1.4,2.3-.4.9-.6,1.9-.6,2.9,0,1.5.3,2.9,1,4,.6,1.2,1.5,2.2,2.6,3s2.3,1.5,3.8,1.9c1.4.4,2.9.6,4.5.6s4.1-.3,6-.9c1.9-.6,3.6-1.5,5-2.6s2.6-2.5,3.4-4.2c.9-1.7,1.3-3.6,1.3-5.8s-.5-4-1.5-6c-1-1.9-2.1-3.8-3.3-5.7-1.2-1.8-2.3-3.6-3.3-5.3-1-1.7-1.5-3.4-1.5-5s.2-1.9.5-2.7c.4-.8.8-1.4,1.4-1.9s1.2-.9,1.8-1.1c.7-.3,1.3-.4,1.9-.4s1.3.2,1.8.5c.4.4.6,1,.6,1.7s-.1,1.4-.2,2c-.2.6-.3,1.2-.5,1.7s-.3.9-.5,1.3c-.2.4-.2.7-.2.9,0,.9.8,1.3,2.3,1.3s2-.2,2.8-.7c.8-.4,1.5-1,2.1-1.7.4-.7.9-1.5,1.2-2.4Z"/>
  <path class="st0" d="M127.5,23.1c-.3-1.1-.8-2-1.4-2.8s-1.5-1.4-2.5-1.9c-1-.4-2.2-.7-3.7-.7s-4,.6-5.9,1.9c-1.8,1.3-3.4,2.9-4.8,4.9-1.3,2-2.4,4.1-3.2,6.4,0,.4-.3.9-.4,1.3-.5.8-1,1.5-1.5,2.3-1,1.4-2,2.6-3.1,3.7-1.1,1-2.1,1.5-3,1.5s-.6-.4-.6-1.1.3-2.2.9-4.1c.6-1.9,1.4-4.3,2.5-7.2,1.1-3,2.4-6.5,3.9-10.6s3.2-8.9,5.2-14.3c.2-.5,0-.9-.3-1.2-.4-.3-1-.4-1.7-.4-1,0-2.2.3-3.4.8-1.2.5-2,1.3-2.3,2.3l-5.4,16.7c-.3-.8-.8-1.5-1.4-2s-1.5-.8-2.6-.8c-2.4,0-4.6.7-6.6,2.2-2,1.4-3.8,3.2-5.3,5.4-1.4,2-2.5,4.1-3.3,6.4-.6.9-1.1,1.9-1.8,2.8-1,1.4-2,2.6-3.1,3.7-1.1,1-2.1,1.5-3,1.5s-.8-.4-.8-1.1.2-1.8.6-3.2.9-2.9,1.5-4.6c.6-1.7,1.2-3.5,1.8-5.4.6-1.9,1.2-3.7,1.7-5.5,0-.6,0-1-.4-1.2-.4-.3-.9-.4-1.6-.4s-1,.1-1.5.2-1.1.3-1.6.6c-.5.3-.9.6-1.3,1s-.7.8-.9,1.3l-1.4,4.1c-.4,1.3-1.1,2.7-2,4.3s-1.9,3.1-2.9,4.5-2.1,2.6-3.1,3.5-1.9,1.4-2.6,1.4-.5-.3-.5-.9c0-1.2.5-3.4,1.6-6.6,1.1-3.2,2.3-7.2,3.8-12,.2-.5,0-.9-.3-1.2-.4-.3-.9-.4-1.6-.4s-1,.1-1.6.2-1.1.3-1.6.6c-.5.2-.9.6-1.3,1-.4.4-.7.8-.8,1.3-.8,2.3-1.5,4.4-2.1,6.4-.4.7-.9,1.5-1.4,2.4-.9,1.5-1.9,2.9-2.9,4.3-1.1,1.4-2.2,2.6-3.4,3.7-1.2,1-2.3,1.5-3.4,1.5s-1-.5-1-1.4.4-2.8,1.1-5.3c.7-2.4,1.8-5.5,3.2-9.4l1.6-.2c.6-.1,1.1-.3,1.7-.6s1.1-.7,1.6-1.2c.4-.4.8-.9,1.1-1.4s.4-.9.4-1.2c0-.5-.3-.7-.9-.7h-3.5l2.5-6.8c.2-.5.2-.9-.2-1.2s-.9-.4-1.6-.4-1.1.1-1.7.2c-.6.1-1.1.3-1.7.6-.5.2-1,.6-1.4,1s-.7.8-.9,1.3l-2,5.3h-.4c-.4,0-.9.2-1.3.5-.5.4-.9.8-1.2,1.3-.4.5-.6,1.1-.9,1.6-.2.6-.3,1.1-.3,1.6,0,.9.4,1.3,1.1,1.2h.7c-1.4,4.1-2.4,7.5-3.1,10.3-.7,2.7-1,4.9-1,6.6s.4,3.1,1.1,3.8c.7.8,1.8,1.1,3.1,1.1,2.1,0,4.1-.5,6-1.5,1.8-1,3.5-2.3,5-3.8s.4-.5.7-.7c0,.8-.2,1.5-.2,2.1,0,1.5.3,2.5,1,3.1.7.5,1.7.8,3.1.8s1.8-.2,2.8-.7,1.9-1.1,2.8-1.9c.9-.8,1.8-1.7,2.7-2.6.9-1,1.6-1.9,2.3-2.9-.3,1.6-.4,2.8-.4,3.8,0,1.7.3,2.8,1,3.4.7.6,1.7.9,3,.9,2,0,3.8-.5,5.5-1.5s3.3-2.3,4.7-3.8q0,0,.2-.2c.2,1.4.7,2.5,1.4,3.5,1,1.3,2.7,2,4.9,2s3.1-.3,4.4-1c1.3-.6,2.4-1.4,3.4-2.3.5,2.2,1.8,3.3,4,3.3s3.8-.5,5.5-1.5,3.3-2.3,4.7-3.8c.3-.3.5-.6.8-.9,0,.3,0,.6.2.8.3,1.1.7,2,1.3,2.8.6.8,1.4,1.4,2.4,1.9s2.2.7,3.6.7c2.1,0,4-.6,5.9-1.9,1.8-1.3,3.5-2.9,4.8-4.8,1.4-1.9,2.5-4.1,3.2-6.4.8-2.3,1.2-4.6,1.2-6.7.3-1.1.1-2.3-.2-3.3ZM92.3,31.9c-.5,1.3-1.2,2.6-2,3.9s-1.6,2.4-2.5,3.3c-.9.9-1.9,1.4-2.9,1.4s-1-.2-1.2-.7c-.2-.4-.4-1.1-.4-1.9,0-1.2.2-2.6.7-4.2.5-1.6,1.1-3.2,1.9-4.7s1.7-2.8,2.7-3.8,2-1.6,3.1-1.6.6.1.7.4c0,.2,0,.5,0,.9s0,.7,0,1.1c0,.4,0,.7,0,1s0,.8.2,1.1c0,.3.4.5.9.5,0,.9-.5,2-1.1,3.3ZM120.3,31.2c-.4,1.7-.9,3.2-1.6,4.7-.6,1.5-1.4,2.7-2.2,3.7-.8,1-1.6,1.5-2.4,1.5s-1.3-.3-1.7-1c-.4-.7-.5-1.5-.5-2.6s.2-2.8.6-4.5.9-3.3,1.6-4.8c.6-1.5,1.4-2.7,2.2-3.7.8-1,1.6-1.5,2.4-1.5s1.4.3,1.7,1c.3.7.5,1.5.5,2.6s-.2,2.9-.6,4.6Z"/>
</svg>