<svg xmlns="http://www.w3.org/2000/svg" width="200" height="34" viewBox="0 0 200 34" fill="none"><path d="M8.26367 27.4375H20.1919C21.9894 27.4375 23.7323 26.4571 24.6038 24.8776C25.5297 23.298 25.5297 21.3372 24.6038 19.7577C23.6778 18.1781 21.9894 17.1977 20.1919 17.1977H17.2507H14.255C12.4032 17.2522 10.6602 16.2718 9.73428 14.6923C8.80834 13.1127 8.80834 11.0974 9.73428 9.51789C10.6602 7.93835 12.4032 6.95794 14.255 7.01241H25.2574" stroke="#1A22E4" stroke-width="2.72335" stroke-linecap="round" stroke-linejoin="round"></path><path d="M22.5356 2.00114H14.3111C10.6618 1.94667 7.28489 3.85301 5.43301 7.0121C3.58113 10.1712 3.6356 14.0383 5.43301 17.1974C7.23042 20.3565 10.6618 22.2629 14.3111 22.2084H18.6685" stroke="#1A22E4" stroke-width="2.72335" stroke-linecap="round" stroke-linejoin="round"></path><path d="M11.9102 32.3935H20.1347C25.7448 32.3935 30.2111 27.8727 30.2111 22.3171C30.2111 16.7615 25.6903 12.2407 20.1347 12.2407H15.7773" stroke="#1A22E4" stroke-width="2.72335" stroke-linecap="round" stroke-linejoin="round"></path><path d="M28.1446 9.95368C29.7389 9.95368 31.0313 8.66123 31.0313 7.06693C31.0313 5.47262 29.7389 4.18018 28.1446 4.18018C26.5503 4.18018 25.2578 5.47262 25.2578 7.06693C25.2578 8.66123 26.5503 9.95368 28.1446 9.95368Z" stroke="#1A22E4" stroke-width="2.72335" stroke-linecap="round" stroke-linejoin="round"></path><path d="M4.88675 30.4332C6.48106 30.4332 7.7735 29.1407 7.7735 27.5464C7.7735 25.9521 6.48106 24.6597 4.88675 24.6597C3.29244 24.6597 2 25.9521 2 27.5464C2 29.1407 3.29244 30.4332 4.88675 30.4332Z" stroke="#1A22E4" stroke-width="2.72335" stroke-linecap="round" stroke-linejoin="round"></path><path d="M53.136 26.3199C57.552 26.3199 60.112 24.3039 60.112 21.4879C60.112 18.8319 58.48 17.4559 53.904 16.6239C50.896 16.0799 49.968 15.4719 49.968 14.3199C49.968 13.3279 51.312 12.3679 53.296 12.3679C55.376 12.3679 56.752 13.1999 57.488 15.1519L59.984 13.2959C58.832 10.8319 56.816 9.67991 53.264 9.67991C48.976 9.67991 46.544 12.0479 46.544 14.6399C46.544 17.3279 48.208 18.7039 52.976 19.5999C55.76 20.1439 56.688 20.7199 56.688 21.7119C56.688 22.7999 55.536 23.6319 53.264 23.6319C51.024 23.6319 49.136 22.8959 48.304 20.9759L46 22.9599C47.344 25.2959 50.032 26.3199 53.136 26.3199Z" fill="#090A3A"></path><path d="M70.3302 9.67991C65.3382 9.67991 62.3622 12.7839 62.3622 17.9999C62.3622 23.2159 65.3382 26.3199 70.3942 26.3199C74.1062 26.3199 76.5063 24.4639 77.4023 21.5519L74.2663 20.4959C73.8503 22.4799 72.5382 23.5999 70.3302 23.5999C67.5142 23.5999 65.8182 21.6479 65.8182 18.0319C65.8182 14.4159 67.4823 12.3999 70.3302 12.3999C72.3142 12.3999 73.5302 13.4559 74.0742 15.4399L77.2743 14.1599C76.2822 11.5359 74.2023 9.67991 70.3302 9.67991Z" fill="#090A3A"></path><path d="M88.7113 9.67991C86.2153 9.67991 84.5193 10.7999 83.6553 12.8799L83.3673 9.99991H80.4552V25.9999H83.8793V17.5199C83.8793 14.2559 85.9913 12.7199 87.9113 12.7199C88.7753 12.7199 89.4792 12.8799 89.9272 13.1359L90.4713 9.99991C90.0233 9.77591 89.3513 9.67991 88.7113 9.67991Z" fill="#090A3A"></path><path d="M106.225 23.7599C105.361 23.7599 105.042 23.3759 105.042 22.5759V15.3439C105.042 11.5039 102.29 9.67991 98.2895 9.67991C94.8015 9.67991 92.3375 11.3119 91.5695 13.8399L94.2255 15.2479C94.8975 13.2319 96.3695 12.3679 98.3535 12.3679C100.434 12.3679 101.618 13.6159 101.618 15.5359V16.3999L97.5535 17.1039C93.3615 17.8399 91.3135 19.6639 91.3135 22.1279C91.3135 24.9119 93.5215 26.3199 96.5295 26.3199C98.8975 26.3199 100.946 25.4559 101.938 23.9519C102.29 25.7119 103.442 26.3199 105.201 26.3199C106.002 26.3199 106.673 26.1599 107.185 25.9359L107.41 23.6319C107.057 23.7279 106.641 23.7599 106.225 23.7599ZM97.2655 23.7279C95.7615 23.7279 94.8655 23.0879 94.8655 21.9039C94.8655 20.6239 95.9535 19.8879 98.1295 19.4719L101.618 18.7679V20.6879C101.618 22.6079 99.4095 23.7279 97.2655 23.7279Z" fill="#090A3A"></path><path d="M118.3 9.67991C115.74 9.67991 113.788 11.0239 112.86 12.9759L112.7 9.99991H109.692V32.7199H113.116V23.4399C114.076 25.1679 115.932 26.3199 118.3 26.3199C122.652 26.3199 125.372 23.2159 125.372 17.9679C125.372 12.7519 122.652 9.67991 118.3 9.67991ZM117.532 23.5359C114.94 23.5359 113.276 21.6799 113.116 18.6079V17.3919C113.276 14.2879 114.94 12.4319 117.532 12.4319C120.284 12.4319 121.948 14.5119 121.948 17.9999C121.948 21.4879 120.284 23.5359 117.532 23.5359Z" fill="#090A3A"></path><path d="M143.16 17.5199C143.16 12.8799 140.537 9.67991 135.737 9.67991C130.745 9.67991 127.928 12.7839 127.928 17.9999C127.928 23.2159 130.905 26.3199 135.961 26.3199C139.481 26.3199 141.688 24.9759 142.84 22.6079L139.993 21.4239C139.481 22.8319 138.073 23.5999 135.961 23.5999C133.401 23.5999 131.705 22.0959 131.321 19.2799H143.033C143.097 18.8639 143.16 18.1279 143.16 17.5199ZM135.737 12.3999C138.105 12.3999 139.609 13.9679 139.961 16.6559H131.321C131.705 13.9039 133.241 12.3999 135.737 12.3999Z" fill="#090A3A"></path><path d="M154.746 9.67991C152.25 9.67991 150.554 10.7999 149.69 12.8799L149.402 9.99991H146.49V25.9999H149.914V17.5199C149.914 14.2559 152.026 12.7199 153.946 12.7199C154.81 12.7199 155.514 12.8799 155.962 13.1359L156.506 9.99991C156.058 9.77591 155.386 9.67991 154.746 9.67991Z" fill="#090A3A"></path><path d="M172.604 23.7599C171.74 23.7599 171.42 23.3759 171.42 22.5759V15.3439C171.42 11.5039 168.668 9.67991 164.668 9.67991C161.18 9.67991 158.716 11.3119 157.948 13.8399L160.604 15.2479C161.276 13.2319 162.748 12.3679 164.732 12.3679C166.812 12.3679 167.996 13.6159 167.996 15.5359V16.3999L163.932 17.1039C159.74 17.8399 157.692 19.6639 157.692 22.1279C157.692 24.9119 159.9 26.3199 162.908 26.3199C165.276 26.3199 167.324 25.4559 168.316 23.9519C168.668 25.7119 169.82 26.3199 171.58 26.3199C172.38 26.3199 173.052 26.1599 173.564 25.9359L173.788 23.6319C173.436 23.7279 173.02 23.7599 172.604 23.7599ZM163.644 23.7279C162.14 23.7279 161.244 23.0879 161.244 21.9039C161.244 20.6239 162.332 19.8879 164.508 19.4719L167.996 18.7679V20.6879C167.996 22.6079 165.788 23.7279 163.644 23.7279Z" fill="#1A22E4"></path><path d="M184.678 9.67991C182.118 9.67991 180.166 11.0239 179.238 12.9759L179.078 9.99991H176.07V32.7199H179.494V23.4399C180.454 25.1679 182.31 26.3199 184.678 26.3199C189.03 26.3199 191.75 23.2159 191.75 17.9679C191.75 12.7519 189.03 9.67991 184.678 9.67991ZM183.91 23.5359C181.318 23.5359 179.654 21.6799 179.494 18.6079V17.3919C179.654 14.2879 181.318 12.4319 183.91 12.4319C186.662 12.4319 188.326 14.5119 188.326 17.9999C188.326 21.4879 186.662 23.5359 183.91 23.5359Z" fill="#1A22E4"></path><path d="M196.963 7.31191C198.435 7.31191 199.235 6.51191 199.235 5.16791C199.235 3.82391 198.435 3.05591 196.963 3.05591C195.491 3.05591 194.659 3.82391 194.659 5.16791C194.659 6.51191 195.491 7.31191 196.963 7.31191ZM198.659 9.99991H195.235V25.9999H198.659V9.99991Z" fill="#1A22E4"></path></svg>