<svg version="1.1" id="Layer_1" xmlns="http://www.w3.org/2000/svg" xmlns:xlink="http://www.w3.org/1999/xlink" x="0px" y="0px"
	 width="1127.842px" height="329.94px" viewBox="0 0 1127.842 329.94" enable-background="new 0 0 1127.842 329.94"
	 xml:space="preserve">
<g>
	<path fill-rule="evenodd" clip-rule="evenodd"  fill="#000000" d="M152.119,0c2.949,3.382,7.441,2.867,11.158,4.26
		c14.698,5.509,27.307,13.608,37.783,25.589c7.244,8.283,12.61,17.561,16.342,27.478c3.316,8.815,5.073,18.413,5.666,27.988
		c0.309,4.98,0.232,10.005-0.006,14.993c-0.166,3.49,1.044,4.646,4.559,4.59c11.496-0.18,23.001,0.102,34.494-0.15
		c4.498-0.099,6.276,1.183,6.118,5.923c-0.312,9.322-0.317,18.671,0.002,27.992c0.166,4.853-1.507,6.262-6.297,6.254
		c-71.329-0.128-142.657-0.089-213.986-0.089c-7.824,0-7.826,0.002-7.826,8.033c-0.001,26.831-0.005,53.663,0.003,80.494
		c0.002,6.432,0.038,6.472,6.379,6.473c44.663,0.007,89.327,0.002,133.991,0.006c6.178,0.001,7.329,1.012,7.382,7.093
		c0.024,2.743-1.172,4.858-4.406,4.899c-1,0.012-2,0.015-3,0.015c-49.164,0.001-98.327-0.052-147.49,0.09
		c-4.446,0.013-5.989-0.994-5.963-5.762c0.203-35.996,0.107-71.994,0.115-107.992c0.001-6.288,0.057-6.338,6.513-6.338
		c71.662-0.005,143.324,0.007,214.986-0.049c2.357-0.002,5.64,1.279,6.854-1.464c1.477-3.338,0.884-7.188,0.226-10.789
		c-0.235-1.287-1.561-1.629-2.789-1.671c-1.332-0.045-2.666-0.043-3.999-0.043c-76.495-0.001-152.99-0.002-229.485,0
		c-7.291,0-7.299,0.006-7.3,7.057c-0.002,44.997-0.003,89.994,0,134.991c0.001,6.951,0.01,6.962,6.893,6.962
		c58.83,0.003,117.659,0.003,176.489-0.001c6.597-0.001,6.604-0.019,6.61-6.746c0.007-9.5,0.008-18.999,0-28.498
		c-0.006-6.31-0.409-6.737-6.868-6.739c-44.331-0.013-88.661-0.007-132.992-0.007c-1.333,0-2.669-0.059-3.999,0.004
		c-2.993,0.141-4.162-1.305-4.155-4.229c0.044-18.832,0.034-37.664,0.009-56.497c-0.005-3.477,1.537-5.312,5.095-5.282
		c1,0.008,2-0.003,3-0.003c66.329-0.001,132.658-0.001,198.987,0.001c7.521,0,7.597,0.109,6.972,7.353
		c-0.128,1.489-0.037,2.998-0.037,4.498c-0.009,52.996-0.017,105.992-0.024,158.988c-1.83,0.053-3.659,0.152-5.488,0.152
		c-85.66,0.008-171.319-0.031-256.979,0.114c-4.504,0.007-5.826-1.039-5.636-5.613c0.423-10.146,0.228-20.319,0.285-30.48
		c73.827-0.005,147.654-0.008,221.481-0.014c7.092-0.001,7.345-0.236,7.347-7.273c0.01-26.998,0.007-53.996,0.003-80.993
		c-0.001-7.175-0.545-7.729-7.64-7.73c-44.83-0.005-89.66-0.062-134.489,0.086c-4.683,0.016-6.065-1.536-5.984-6.079
		c0.09-5.078,2.607-6.068,6.974-6.062c48.829,0.075,97.659,0.045,146.488,0.05c6.637,0.001,6.649,0.018,6.65,6.709
		c0.004,35.331,0.003,70.661,0.001,105.992c0,7.297-0.004,7.301-7.559,7.301c-70.827,0.001-141.655,0-212.483,0.001
		c-1.5,0-3,0.024-4.499,0.017c-1.857-0.01-3.222,0.853-4.023,2.467c-3.032,6.099,0.201,11.521,6.838,11.521
		c75.828,0.001,151.655,0.001,227.483,0.001c9.252,0,9.246,0,9.245-9.111c-0.002-42.83-0.001-85.66-0.001-128.49
		c0-10.416,0-10.413-10.449-10.413c-55.162,0.001-110.324,0.009-165.487-0.022c-2.979-0.002-5.953,0.193-8.958-0.345
		c-2.471-0.442-4.7,0.605-4.473,3.58c0.793,10.315,0.17,20.637,0.343,30.953c0.114,6.821,0.032,6.832,7.043,6.832
		c44.664,0.003,89.327-0.004,133.99,0.007c6.155,0.002,6.967,0.806,6.974,6.894c0.019,17.331,0.016,34.663,0.002,51.995
		c-0.005,6.613-1.537,8.103-8.326,8.103c-68.828,0.003-137.656-0.002-206.484-0.005c-0.059-11.829-0.163-23.658-0.169-35.486
		c-0.02-44.665-0.01-89.33-0.001-133.995c0.001-1.829,0.105-3.658,0.162-5.487c13.479-0.006,26.96-0.131,40.437,0.056
		c4.162,0.057,5.809-1.413,5.436-5.525c-0.21-2.311-0.096-4.657-0.028-6.985c0.427-14.67,1.79-28.85,8.476-42.614
		c6.298-12.966,15.309-23.226,25.82-32.261c7.057-6.066,15.636-10.098,24.685-13.188c3.623-1.237,8.257-0.722,11.024-4.326
		C128.139,0.002,140.128,0.001,152.119,0z M134.674,104.831c23.306,0,46.611-0.004,69.917,0.005
		c2.743,0.001,5.396,0.237,5.563-3.812c0.829-20.224-1.889-39.445-13.875-56.621c-14.877-21.318-35.649-31.493-61.029-32.42
		c-14.435-0.527-28.033,3.599-40.518,11.062c-13.211,7.898-23.081,19.003-29.286,32.879c-5.868,13.125-7.655,27.277-7.324,41.667
		c0.15,6.513,0.727,7.231,7.135,7.235C88.396,104.839,111.535,104.831,134.674,104.831z"/>
	<path fill-rule="evenodd" clip-rule="evenodd" d="M380,171.828c17.49,0.001,34.983,0.115,52.472-0.079
		c4.388-0.049,5.767,1.423,5.75,5.771c-0.056,14.313,0.087,14.314-14.123,14.314c-29.818,0-59.638,0.14-89.453-0.124
		c-5.672-0.051-8.617,2.629-10.791,7.055c-1.779,3.624,2.558,9.097,7.878,9.959c1.464,0.237,2.991,0.108,4.489,0.109
		c23.488,0.004,46.978-0.124,70.464,0.102c5.185,0.05,10.599-0.031,15.419,2.725c9.771,5.585,15.694,13.304,16.143,25.175
		c0.71,18.785-15.556,30.036-29.988,30.014c-32.816-0.052-65.634-0.008-98.45-0.025c-5.774-0.003-6.729-0.902-6.659-6.685
		c0.189-15.67-2.246-13.217,13.016-13.278c29.984-0.121,59.97-0.071,89.954,0.005c4.308,0.011,7.628-1.435,10.281-4.816
		c2.175-2.771,1.853-5.596,0.479-8.42c-1.365-2.808-3.688-3.866-6.91-3.854c-24.987,0.096-49.978,0.282-74.961-0.051
		c-12.059-0.16-22.352-4.747-28.404-15.882c-7.883-14.504-1.735-31.684,12.1-39.141c4.811-2.593,9.651-2.934,14.82-2.904
		C349.015,171.885,364.508,171.828,380,171.828z"/>
	<path fill-rule="evenodd" clip-rule="evenodd" d="M585.887,171.83c16.495-0.001,32.992,0.109,49.486-0.077
		c4.275-0.048,6.225,1.207,5.806,5.682c-0.263,2.808-0.168,5.667-0.022,8.492c0.243,4.714-2.235,5.967-6.501,5.945
		c-20.827-0.104-41.655-0.046-62.483-0.046c-9.997,0-20.014,0.379-29.985-0.125c-7.409-0.374-14.284,5.987-14.103,14.008
		c0.201,8.826,0.011,17.661,0.057,26.491c0.043,8.392,6.346,14.608,14.849,14.62c21.161,0.029,42.322,0.044,63.483-0.004
		c10.186-0.023,17.503-10.064,14.5-19.777c-0.932-3.015-3.356-3.233-6.013-3.228c-19.162,0.037-38.323,0.02-57.485,0.02
		c-1.166,0-2.333-0.028-3.498-0.003c-2.753,0.062-3.894-1.338-3.855-4.011c0.056-3.998,0.07-7.999-0.005-11.996
		c-0.059-3.091,1.567-4.007,4.386-4.003c27.159,0.037,54.319,0.027,81.479,0.014c2.914-0.001,5.136,1.15,5.061,4.224
		c-0.257,10.626,1.375,21.357-0.811,31.866c-3.517,16.903-15.369,25.957-31.911,26.671c-22.119,0.956-44.321,0.645-66.468,0.088
		c-13.88-0.35-24.891-6.821-30.842-19.842c-1.63-3.565-3.122-7.468-2.981-11.828c0.317-9.82,0.432-19.672,0.023-29.485
		c-0.652-15.709,10.498-28.394,24.417-33.231c1.514-0.526,3.281-0.44,4.931-0.443C553.562,171.82,569.725,171.832,585.887,171.83z"
		/>
	<path fill-rule="evenodd" clip-rule="evenodd" d="M885.079,171.829c17.994-0.001,35.989-0.003,53.983,0.001
		c6.524,0.001,12.29,4.108,13.838,9.841c1.462,5.41-1.748,12.589-7.13,15.724c-18.134,10.565-36.277,21.116-54.436,31.639
		c-8.167,4.733-16.378,9.39-24.57,14.079c-1.036,0.593-2.384,1.402-2.083,2.534c0.529,1.986,2.508,1.146,3.854,1.148
		c25.659,0.049,51.317,0.035,76.977,0.036c7.613,0.001,7.592,0.004,7.621,7.735c0.056,14.67,0.423,12.199-12.354,12.233
		c-33.655,0.092-67.313,0.041-100.969,0.022c-6.748-0.003-12.437-3.88-14.893-8.911c-3.038-6.224,0.603-13.874,6.015-17.138
		c14.686-8.857,29.647-17.256,44.471-25.887c10.537-6.136,21.121-12.204,31.445-18.682c1.708-1.071,5.804-0.363,4.979-3.658
		c-0.902-3.61-3.959-0.587-5.911-0.601c-25.491-0.188-50.983-0.091-76.476-0.154c-4.475-0.012-5.81-1.95-5.417-6.58
		c0.225-2.647,0.283-5.344,0.061-7.987c-0.353-4.191,1.417-5.499,5.512-5.465C848.089,171.917,866.584,171.829,885.079,171.829z"/>
	<path fill-rule="evenodd" clip-rule="evenodd" d="M665.141,218.788c0-13.823-0.023-27.647,0.011-41.471
		c0.014-5.793,0.789-6.203,5.849-3.583c14.061,7.283,28.154,14.5,42.21,21.792c16.05,8.326,32.07,16.711,48.108,25.06
		c4.778,2.487,9.864,4.329,14.446,7.258c3.63,2.32,3.349-0.753,3.353-2.897c0.033-15.155,0.017-30.312,0.019-45.468
		c0.001-7.646,0.003-7.711,7.7-7.636c14.192,0.138,12.226-1.912,12.275,12.034c0.086,24.316,0.008,48.633,0.031,72.949
		c0.011,10.636,0.17,10.404-9.417,5.353c-19.729-10.396-39.616-20.489-59.408-30.765c-12.916-6.706-25.79-13.493-38.662-20.285
		c-4.364-2.303-5.509-1.68-5.519,3.378c-0.03,15.156,0.002,30.313-0.018,45.469c-0.009,6.053-0.823,6.775-7.003,6.863
		c-16.658,0.237-13.857-0.525-13.958-13.575C665.071,241.772,665.141,230.28,665.141,218.788z"/>
	<path fill-rule="evenodd" clip-rule="evenodd" d="M1036.133,242.201c0.472-5.758-0.553-12.737,0.472-19.728
		c0.362-2.478-1.677-4.44-3.901-5.859c-15.23-9.714-30.416-19.498-45.645-29.216c-6.554-4.183-13.163-8.278-19.78-12.36
		c-0.827-0.51-2.089-0.609-1.833-1.93c0.239-1.235,1.396-1.259,2.399-1.26c10.664-0.008,21.329-0.088,31.991,0.059
		c2.926,0.04,5.139,2.255,7.467,3.751c11.826,7.602,23.538,15.381,35.309,23.069c2.598,1.697,5.36,1.732,7.947,0.071
		c13.348-8.57,26.673-17.177,39.952-25.854c1.371-0.896,2.715-1.118,4.226-1.117c9.832,0.004,19.663-0.018,29.494,0.021
		c1.249,0.005,2.979-0.542,3.498,1.096c0.624,1.966-1.489,1.796-2.471,2.427c-15.911,10.211-31.848,20.381-47.767,30.579
		c-5.708,3.657-11.322,7.464-17.105,10.996c-2.423,1.479-3.34,3.232-3.308,6.074c0.139,12.163,0.068,24.328,0.056,36.491
		c-0.007,6.589-0.69,7.313-7.055,7.313c-15.364,0-13.947,1.461-13.946-13.919C1036.133,249.739,1036.133,246.573,1036.133,242.201z"
		/>
	<path fill-rule="evenodd" clip-rule="evenodd" d="M463.125,218.869c0.001-14.145,0.082-28.29-0.059-42.434
		c-0.033-3.358,0.831-4.913,4.466-4.664c3.81,0.261,7.652,0.129,11.478,0.042c2.992-0.067,4.146,1.32,4.143,4.237
		c-0.037,28.788-0.044,57.577,0.011,86.366c0.006,3.196-1.28,4.551-4.468,4.438c-3.49-0.124-6.989-0.066-10.483-0.02
		c-3.798,0.051-5.195-1.694-5.151-5.533C463.222,247.159,463.125,233.014,463.125,218.869z"/>
</g>
</svg>
