<svg width="88" height="40" xmlns="http://www.w3.org/2000/svg"><path d="M78.05 15.173c-7.251-.275-9.577 6.795-9.577 6.795-.137-2.952.069-4.874.069-4.874.41-.274 6.566-2.677 6.908-10.982.137-4.53-3.625-7.139-8.003-5.697-1.641 7.55-3.215 17.847-1.847 28.623-.273.824-2.735 6.864-5.403 6.864-3.626 0-4.241-7.482-4.104-12.355.82-1.785 2.53-6.04 1.094-7.757-.684-.892-2.052-1.03-4.104-.617 0 .48-.137 3.706-.137 3.706s-1.778-3.363-6.156-3.363c-6.292 0-10.396 6.109-10.396 12.493 0 1.03.068 1.921.136 2.814l.069.068-.069.069c-1.71 3.158-3.283 4.736-5.335 4.736-4.446 0-4.993-6.864-4.993-6.864 4.172-4.942 6.43-11.875 6.43-19.425 0-6.247-2.736-10.846-8.345-8.992-1.3 6.59-2.942 21.347-1.71 28.211-2.463 3.295-5.404 5.286-5.404 5.286s.479-.755.479-2.472c0-7.55-13.064-5.422-13.064-9.815 0-1.167.957-3.158 4.787-3.158 3.489 0 5.335 1.854 6.225 1.854 2.12 0 1.846-2.609 1.846-2.609-1.025-.755-4.446-2.677-8.139-2.608-5.882 0-8.413 3.57-8.413 6.727 0 8.237 13.406 5.354 13.406 10.296 0 2.54-1.504 3.981-5.198 3.981-3.215 0-5.54-2.608-6.908-2.608-2.395 0-2.19 2.47-2.19 2.47.616.481 4.447 3.639 9.508 3.57 4.241-.137 9.302-1.853 13.749-7.207v-.137c.889 3.226 2.872 7.344 7.524 7.344 4.377 0 6.908-4.942 6.908-4.942s2.19 4.942 7.182 4.942c3.488 0 6.225-1.716 8.55-5.834 1.095 3.912 3.283 5.834 6.635 5.834 4.104 0 6.43-4.942 6.84-5.903.753 1.51 3.42 5.697 8.892 5.903 9.234.343 11.764-7.962 11.902-12.287.136-4.187-2.258-11.806-9.645-12.08zM70.045 3.984s2.189-.48 2.12 2.06c-.205 5.902-3.556 7.344-3.556 7.344a72.537 72.537 0 0 1 1.436-9.404zM25.518 24.577C25.245 13.594 27.023 4.19 27.023 4.19s2.188.069 2.188 5.835c0 8.51-3.693 14.552-3.693 14.552zm27.223-.756c0 7.07-2.6 11.875-7.387 11.875-4.993 0-5.609-5.972-5.609-7.825 0-2.402 1.094-8.923 6.977-8.923 4.104 0 6.02 4.873 6.02 4.805v.068zm31.19 3.707c-.136 3.158-1.914 8.58-7.455 8.374-5.746-.274-7.182-5.834-7.045-8.237.273-4.393 3.215-9.13 8.276-8.923 4.925.206 6.293 5.629 6.225 8.786z" fill="#FF4143" fill-rule="evenodd"/></svg>