<svg width="108" height="24" viewBox="0 0 108 24" fill="none" xmlns="http://www.w3.org/2000/svg">
<g clip-path="url(#clip0_950_657)">
<path d="M39.8675 5.31521C39.3698 4.58407 38.6801 4.01149 37.7895 3.59748C36.8989 3.18347 35.86 2.98087 34.6639 2.98087C33.494 2.98087 32.4461 3.18347 31.5295 3.59748C30.6126 4.01149 29.8879 4.58407 29.3641 5.31521C28.8403 6.04634 28.5784 6.90079 28.587 7.8874C28.5784 9.0854 28.9713 10.0368 29.757 10.7415C30.5429 11.4462 31.608 11.9659 32.9613 12.3006L34.7075 12.7411C35.2924 12.882 35.7901 13.0406 36.1918 13.2168C36.5935 13.3929 36.9078 13.6043 37.1173 13.851C37.3268 14.0976 37.4316 14.4059 37.4316 14.7671C37.4316 15.1547 37.3181 15.4982 37.0823 15.8066C36.8465 16.106 36.5147 16.3439 36.0869 16.5113C35.6591 16.6786 35.1614 16.7667 34.5852 16.7667C34.0003 16.7667 33.4765 16.6786 33.0137 16.4936C32.551 16.3087 32.1842 16.0444 31.9049 15.6832C31.739 15.463 31.6166 15.2163 31.5381 14.9345H28.1942C28.2902 15.833 28.5609 16.6082 28.9974 17.2512C29.53 18.0352 30.2808 18.6342 31.2412 19.0306C32.2017 19.427 33.3281 19.6296 34.6201 19.6296C35.9299 19.6296 37.0388 19.427 37.9729 19.0306C38.8984 18.6342 39.6142 18.0704 40.1033 17.3481C40.601 16.6258 40.8454 15.7625 40.8541 14.7759C40.8454 14.0976 40.7231 13.5074 40.4873 12.9789C40.2517 12.4592 39.9199 12.0011 39.4921 11.6223C39.0643 11.2347 38.5577 10.9176 37.9729 10.6534C37.3878 10.3891 36.7419 10.1777 36.0433 10.0191L34.6026 9.67559C34.2534 9.59632 33.9218 9.49941 33.6161 9.38491C33.3106 9.27038 33.0398 9.13824 32.804 8.97968C32.5685 8.82114 32.3851 8.63615 32.2541 8.42472C32.1232 8.2045 32.0619 7.95786 32.0708 7.66716C32.0708 7.32363 32.1756 7.00651 32.3762 6.73344C32.5771 6.46036 32.8653 6.24895 33.2493 6.09038C33.6336 5.93182 34.0963 5.86136 34.6551 5.86136C35.4671 5.86136 36.1132 6.03754 36.5935 6.38989C36.9078 6.61892 37.1259 6.91843 37.2569 7.27076H40.601C40.4962 6.53082 40.2604 5.88778 39.8675 5.31521Z" fill="url(#paint0_linear_950_657)"/>
<path d="M47.6381 16.1677H47.5158L45.0275 7.24434H41.5177L45.8307 19.7353L45.6387 20.2462C45.4903 20.625 45.3069 20.8981 45.0711 21.0566C44.8355 21.2152 44.5647 21.2857 44.2504 21.2769C43.9361 21.2681 43.5782 21.1976 43.1853 21.0831L42.4343 23.5936C42.6788 23.6906 42.9756 23.7786 43.3512 23.8402C43.7177 23.9019 44.1195 23.9371 44.5386 23.9371C45.3679 23.9371 46.0665 23.805 46.6516 23.5407C47.2364 23.2765 47.7253 22.8976 48.1009 22.4132C48.4849 21.9287 48.7906 21.3561 49.0176 20.7043L53.6973 7.25315H50.1614L47.6381 16.1677Z" fill="url(#paint1_linear_950_657)"/>
<path d="M63.9302 7.64074C63.3101 7.27076 62.5769 7.08578 61.7473 7.08578C60.8568 7.08578 60.0972 7.28838 59.4685 7.70241C58.8398 8.11642 58.3946 8.68019 58.1327 9.38488H57.9842V7.24434H54.8062V19.3829H58.1415V12.3623C58.1501 11.8426 58.2461 11.3933 58.4384 11.0233C58.6304 10.6534 58.8923 10.3715 59.2416 10.1777C59.582 9.9839 59.9837 9.887 60.429 9.887C61.1012 9.887 61.625 10.0984 62.0006 10.5124C62.3846 10.9353 62.568 11.5166 62.568 12.2566V19.3829H65.9033V11.6488C65.9033 10.7062 65.7285 9.8958 65.3881 9.20873C65.0388 8.53924 64.55 8.01071 63.9302 7.64074Z" fill="url(#paint2_linear_950_657)"/>
<path d="M76.1448 8.06358C75.6645 7.72884 75.1233 7.4822 74.5032 7.33244C73.892 7.17388 73.2459 7.09458 72.5825 7.09458C71.6221 7.09458 70.7751 7.24434 70.0504 7.53504C69.3257 7.82572 68.7234 8.23976 68.2693 8.78589C67.8065 9.32323 67.501 9.96629 67.3438 10.7062L70.4346 10.9617C70.5481 10.5653 70.7839 10.2305 71.1418 9.95748C71.4997 9.6932 71.9713 9.56109 72.5737 9.56109C73.1413 9.56109 73.5866 9.70201 73.892 9.9751C74.2064 10.2482 74.3548 10.6357 74.3548 11.1379V11.1819C74.3548 11.4373 74.2588 11.6312 74.0668 11.7633C73.8746 11.8954 73.5602 11.9923 73.1324 12.0628C72.7046 12.1244 72.1372 12.1949 71.4387 12.2742C70.845 12.3359 70.2776 12.4328 69.7361 12.5737C69.1948 12.7146 68.7146 12.926 68.2868 13.2079C67.8678 13.4898 67.5271 13.8598 67.2827 14.3179C67.0383 14.7759 66.916 15.3397 66.916 16.018C66.916 16.8196 67.0907 17.4891 67.44 18.0264C67.789 18.5637 68.2607 18.9601 68.863 19.2332C69.4655 19.5063 70.1464 19.6384 70.9149 19.6384C71.5086 19.6384 72.0324 19.5591 72.4865 19.4006C72.9404 19.242 73.3333 19.013 73.6565 18.7311C73.9794 18.4404 74.2413 18.1145 74.4333 17.7269H74.5295V19.4094H77.6987V11.2171C77.6987 10.4948 77.5591 9.87819 77.2798 9.35846C77.0004 8.82114 76.625 8.3983 76.1448 8.06358ZM74.3811 15.049C74.3811 15.4718 74.2763 15.8594 74.0579 16.1941C73.8396 16.5289 73.5516 16.802 73.1762 16.9957C72.8006 17.1895 72.3642 17.2953 71.8753 17.2953C71.3602 17.2953 70.941 17.1719 70.6092 16.9341C70.2776 16.6962 70.1117 16.3439 70.1117 15.8858C70.1117 15.5687 70.1902 15.3044 70.3561 15.093C70.522 14.8816 70.749 14.7054 71.037 14.5821C71.3338 14.4588 71.6745 14.3619 72.0673 14.3091C72.2507 14.2826 72.4516 14.2562 72.6785 14.221C72.9055 14.1857 73.1238 14.1505 73.3508 14.1065C73.5777 14.0624 73.7786 14.0095 73.9619 13.9567C74.1453 13.9039 74.2849 13.8422 74.3897 13.7717V15.049H74.3811Z" fill="url(#paint3_linear_950_657)"/>
<path d="M87.1021 9.288C86.9536 8.96206 86.7442 8.62735 86.4648 8.2838C86.1854 7.94025 85.8186 7.65835 85.3645 7.42933C84.9106 7.2003 84.3518 7.08578 83.6796 7.08578C82.7977 7.08578 81.9856 7.31483 81.2435 7.78168C80.5014 8.23976 79.9165 8.93564 79.4712 9.86057C79.0259 10.7855 78.8076 11.9395 78.8076 13.3313C78.8076 14.6878 79.0259 15.8242 79.4538 16.7579C79.8816 17.6917 80.4666 18.3875 81.2085 18.872C81.9507 19.3477 82.7716 19.5856 83.6882 19.5856C84.3344 19.5856 84.8845 19.4798 85.3384 19.2596C85.7923 19.0394 86.1591 18.7751 86.4473 18.4404C86.7353 18.1145 86.9536 17.7797 87.1109 17.4362H87.2505V19.383H90.542V3.20109H87.2155V9.288H87.1021ZM86.9711 15.2075C86.7703 15.7449 86.4822 16.1589 86.1066 16.4584C85.7313 16.7579 85.2774 16.9076 84.7361 16.9076C84.1859 16.9076 83.7232 16.7579 83.3564 16.4496C82.981 16.1501 82.7017 15.7273 82.5008 15.1811C82.3088 14.6438 82.204 14.0184 82.204 13.3136C82.204 12.6089 82.3 11.9923 82.4922 11.4638C82.6842 10.9353 82.9724 10.5124 83.3478 10.2129C83.7232 9.91342 84.1859 9.76369 84.7361 9.76369C85.2774 9.76369 85.7313 9.90461 86.1066 10.1953C86.4822 10.486 86.7703 10.9 86.9711 11.4285C87.172 11.9571 87.268 12.5913 87.268 13.3136C87.2766 14.0448 87.172 14.6702 86.9711 15.2075Z" fill="url(#paint4_linear_950_657)"/>
<path d="M93.9122 2.27615C93.4145 2.27615 92.9956 2.44352 92.6374 2.77827C92.2884 3.11298 92.105 3.50938 92.105 3.97626C92.105 4.44312 92.2795 4.84835 92.6374 5.18307C92.9867 5.51781 93.4145 5.68518 93.9122 5.68518C94.4099 5.68518 94.8289 5.51781 95.187 5.18307C95.5361 4.84835 95.7195 4.44312 95.7195 3.97626C95.7195 3.50938 95.5449 3.11298 95.187 2.77827C94.8289 2.44352 94.4099 2.27615 93.9122 2.27615Z" fill="url(#paint5_linear_950_657)"/>
<path d="M95.571 7.24434H92.236V19.383H95.571V7.24434Z" fill="url(#paint6_linear_950_657)"/>
<path d="M106.991 9.34084C106.712 8.82114 106.336 8.3983 105.856 8.06358C105.376 7.72884 104.835 7.4822 104.215 7.33244C103.604 7.17388 102.957 7.09458 102.294 7.09458C101.334 7.09458 100.487 7.24434 99.7619 7.53504C99.0373 7.82572 98.435 8.23976 97.9808 8.78589C97.5181 9.32323 97.2126 9.96629 97.0553 10.7062L100.146 10.9617C100.26 10.5653 100.495 10.2305 100.853 9.95748C101.211 9.6932 101.683 9.56109 102.285 9.56109C102.853 9.56109 103.298 9.70201 103.604 9.9751C103.918 10.2482 104.066 10.6357 104.066 11.1379V11.1819C104.066 11.4373 103.97 11.6312 103.778 11.7633C103.586 11.8954 103.272 11.9923 102.844 12.0628C102.416 12.1244 101.849 12.1949 101.15 12.2742C100.557 12.3359 99.9889 12.4328 99.4476 12.5737C98.9063 12.7146 98.4261 12.926 97.9983 13.2079C97.5793 13.4898 97.2387 13.8598 96.9943 14.3179C96.7498 14.7759 96.6275 15.3397 96.6275 16.018C96.6275 16.8196 96.8023 17.4891 97.1513 18.0264C97.5006 18.5637 97.9722 18.9601 98.5745 19.2332C99.1771 19.5063 99.8579 19.6384 100.626 19.6384C101.22 19.6384 101.744 19.5591 102.198 19.4006C102.652 19.242 103.045 19.013 103.368 18.7311C103.691 18.4404 103.953 18.1145 104.145 17.7269H104.241V19.4094H107.41V11.2171C107.41 10.4772 107.271 9.86057 106.991 9.34084ZM104.092 15.049C104.092 15.4718 103.988 15.8594 103.769 16.1941C103.551 16.5289 103.263 16.802 102.888 16.9957C102.512 17.1895 102.076 17.2953 101.587 17.2953C101.072 17.2953 100.653 17.1719 100.321 16.9341C99.9889 16.6962 99.823 16.3439 99.823 15.8858C99.823 15.5687 99.9017 15.3044 100.068 15.093C100.234 14.8816 100.461 14.7054 100.749 14.5821C101.037 14.4588 101.386 14.3619 101.779 14.3091C101.962 14.2826 102.163 14.2562 102.39 14.221C102.617 14.1857 102.835 14.1505 103.062 14.1065C103.289 14.0624 103.49 14.0095 103.673 13.9567C103.857 13.9039 103.996 13.8422 104.101 13.7717V15.049H104.092Z" fill="url(#paint7_linear_950_657)"/>
<path d="M16.7767 0H5.59223C2.56807 0 0.116505 2.45157 0.116505 5.47573V16.6602C0.116505 19.6844 2.56807 22.1359 5.59223 22.1359H16.7767C19.8009 22.1359 22.2524 19.6844 22.2524 16.6602V5.47573C22.2524 2.45157 19.8009 0 16.7767 0Z" fill="url(#paint8_linear_950_657)"/>
<path fill-rule="evenodd" clip-rule="evenodd" d="M16.7767 0.23301H5.59223C2.69676 0.23301 0.349514 2.58026 0.349514 5.47573V16.6602C0.349514 19.5557 2.69676 21.9029 5.59223 21.9029H16.7767C19.6722 21.9029 22.0194 19.5557 22.0194 16.6602V5.47573C22.0194 2.58026 19.6722 0.23301 16.7767 0.23301ZM5.59223 0H16.7767C19.8009 0 22.2524 2.45157 22.2524 5.47573V16.6602C22.2524 19.6844 19.8009 22.1359 16.7767 22.1359H5.59223C2.56807 22.1359 0.116505 19.6844 0.116505 16.6602V5.47573C0.116505 2.45157 2.56807 0 5.59223 0Z" fill="url(#paint9_linear_950_657)"/>
<path fill-rule="evenodd" clip-rule="evenodd" d="M4.64379 14.063C2.80159 12.2335 2.80159 9.26715 4.64379 7.43758L7.5443 4.56017C7.87925 4.22752 8.4223 4.22752 8.75725 4.56017L9.21211 5.0119C9.54706 5.34455 9.54706 5.88387 9.21211 6.21654L6.3116 9.09393C5.39049 10.0087 5.39049 11.4919 6.3116 12.4067L6.91808 13.009C7.83919 13.9238 9.3326 13.9238 10.2537 13.009L13.1542 10.1316C13.4891 9.79892 14.0322 9.79892 14.3671 10.1316L14.822 10.5833C15.157 10.9159 15.157 11.4553 14.822 11.7879L11.9215 14.6653C10.0793 16.4949 7.09249 16.4949 5.25027 14.6653L4.64379 14.063Z" fill="url(#paint10_linear_950_657)"/>
<path fill-rule="evenodd" clip-rule="evenodd" d="M15.9591 12.9173C16.8802 12.0025 16.8802 10.5193 15.9591 9.60454L15.3527 9.00224C14.4315 8.08746 12.9381 8.08746 12.0171 9.00224L9.11655 11.8796C8.7816 12.2123 8.23855 12.2123 7.9036 11.8796L7.44874 11.4279C7.11379 11.0953 7.11379 10.5559 7.44874 10.2233L10.3492 7.34589C12.1914 5.51632 15.1783 5.51632 17.0205 7.34589L17.627 7.94819C19.4692 9.77776 19.4692 12.7441 17.627 14.5736L14.7264 17.451C14.3915 17.7837 13.8484 17.7837 13.5135 17.451L13.0586 16.9993C12.7237 16.6667 12.7237 16.1273 13.0586 15.7947L15.9591 12.9173Z" fill="url(#paint11_linear_950_657)"/>
</g>
<defs>
<linearGradient id="paint0_linear_950_657" x1="67.8022" y1="2.27615" x2="67.8022" y2="23.9371" gradientUnits="userSpaceOnUse">
<stop offset="0.35" stop-color="white"/>
<stop offset="1" stop-color="white" stop-opacity="0.6"/>
</linearGradient>
<linearGradient id="paint1_linear_950_657" x1="67.8022" y1="2.27615" x2="67.8022" y2="23.9371" gradientUnits="userSpaceOnUse">
<stop offset="0.35" stop-color="white"/>
<stop offset="1" stop-color="white" stop-opacity="0.6"/>
</linearGradient>
<linearGradient id="paint2_linear_950_657" x1="67.8022" y1="2.27615" x2="67.8022" y2="23.9371" gradientUnits="userSpaceOnUse">
<stop offset="0.35" stop-color="white"/>
<stop offset="1" stop-color="white" stop-opacity="0.6"/>
</linearGradient>
<linearGradient id="paint3_linear_950_657" x1="67.8022" y1="2.27615" x2="67.8022" y2="23.9371" gradientUnits="userSpaceOnUse">
<stop offset="0.35" stop-color="white"/>
<stop offset="1" stop-color="white" stop-opacity="0.6"/>
</linearGradient>
<linearGradient id="paint4_linear_950_657" x1="67.8022" y1="2.27615" x2="67.8022" y2="23.9371" gradientUnits="userSpaceOnUse">
<stop offset="0.35" stop-color="white"/>
<stop offset="1" stop-color="white" stop-opacity="0.6"/>
</linearGradient>
<linearGradient id="paint5_linear_950_657" x1="67.8022" y1="2.27615" x2="67.8022" y2="23.9371" gradientUnits="userSpaceOnUse">
<stop offset="0.35" stop-color="white"/>
<stop offset="1" stop-color="white" stop-opacity="0.6"/>
</linearGradient>
<linearGradient id="paint6_linear_950_657" x1="67.8022" y1="2.27615" x2="67.8022" y2="23.9371" gradientUnits="userSpaceOnUse">
<stop offset="0.35" stop-color="white"/>
<stop offset="1" stop-color="white" stop-opacity="0.6"/>
</linearGradient>
<linearGradient id="paint7_linear_950_657" x1="67.8022" y1="2.27615" x2="67.8022" y2="23.9371" gradientUnits="userSpaceOnUse">
<stop offset="0.35" stop-color="white"/>
<stop offset="1" stop-color="white" stop-opacity="0.6"/>
</linearGradient>
<linearGradient id="paint8_linear_950_657" x1="2.79612" y1="-1.38747" x2="15.9778" y2="25.8475" gradientUnits="userSpaceOnUse">
<stop stop-color="#CB60FE"/>
<stop offset="0.15" stop-color="#9A4AFF"/>
<stop offset="0.69" stop-color="#4F46E5"/>
</linearGradient>
<linearGradient id="paint9_linear_950_657" x1="11.1845" y1="-0.116505" x2="11.1845" y2="22.2524" gradientUnits="userSpaceOnUse">
<stop stop-color="white" stop-opacity="0.3"/>
<stop offset="1" stop-color="white" stop-opacity="0.1"/>
</linearGradient>
<linearGradient id="paint10_linear_950_657" x1="13.7587" y1="4.66435" x2="20.3112" y2="15.1518" gradientUnits="userSpaceOnUse">
<stop stop-color="white"/>
<stop offset="1" stop-color="white" stop-opacity="0.7"/>
</linearGradient>
<linearGradient id="paint11_linear_950_657" x1="11.1354" y1="4.62042" x2="17.2157" y2="12.9552" gradientUnits="userSpaceOnUse">
<stop stop-color="white"/>
<stop offset="1" stop-color="white" stop-opacity="0.7"/>
</linearGradient>
<clipPath id="clip0_950_657">
<rect width="107.417" height="24" fill="white"/>
</clipPath>
</defs>
</svg>
