<svg version="1.1" id="Ebene_1" xmlns:x="ns_extend;" xmlns:i="ns_ai;" xmlns:graph="ns_graphs;" xmlns="http://www.w3.org/2000/svg" xmlns:xlink="http://www.w3.org/1999/xlink" x="0px" y="0px" viewBox="0 0 60 60" style="enable-background:new 0 0 60 60;" xml:space="preserve">
 <style type="text/css">
  .st0{fill:#E20074;}
	.st1{fill:#FFFFFF;}
 </style>
 <metadata>
  <sfw xmlns="ns_sfw;">
   <slices>
   </slices>
   <sliceSourceBounds bottomLeftOrigin="true" height="60" width="60" x="0" y="0">
   </sliceSourceBounds>
  </sfw>
 </metadata>
 <g>
  <rect class="st0" width="60" height="60">
  </rect>
  <path class="st1" d="M22.7,35.3H16v-6.6h6.7V35.3z M16,13.5v11.2h2v-0.3c0-5.3,3-8.6,8.7-8.6H27v23.8c0,3.3-1.3,4.6-4.7,4.6h-1v2.3
		h17.3v-2.3h-1c-3.3,0-4.7-1.3-4.7-4.6V15.8h0.3c5.7,0,8.7,3.3,8.7,8.6v0.3h2V13.5C44,13.5,16,13.5,16,13.5z M37.3,35.3H44v-6.6
		h-6.7V35.3z">
  </path>
 </g>
</svg>