<svg version="1.1" id="Layer_1" xmlns:x="ns_extend;" xmlns:i="ns_ai;" xmlns:graph="ns_graphs;" xmlns="http://www.w3.org/2000/svg" xmlns:xlink="http://www.w3.org/1999/xlink" x="0px" y="0px" viewBox="0 0 721.7 97" style="enable-background:new 0 0 721.7 97;" xml:space="preserve">
 <style type="text/css">
  .st0{fill:#FFFFFF;}
 </style>
 <metadata>
  <sfw xmlns="ns_sfw;">
   <slices>
   </slices>
   <sliceSourceBounds bottomLeftOrigin="true" height="97" width="721.7" x="-421.4" y="-213.5">
   </sliceSourceBounds>
  </sfw>
 </metadata>
 <g>
  <polygon class="st0" points="470.1,30.1 448.2,30.1 456.8,42.5 467.9,42.5 458.6,95.5 478,95.5 487.3,42.5 511.6,42.5 473.3,11.7 	
		">
  </polygon>
  <polygon class="st0" points="90.6,0 2.4,0 0,13.9 34.3,13.9 19.9,95.5 39.3,95.5 53.7,13.9 88.2,13.9 	">
  </polygon>
  <path class="st0" d="M115,55.9H81.3c2-6.7,8.6-15.9,20.5-15.9C114.8,39.9,116.2,49.8,115,55.9 M105,28.7
		c-24.7,0-40.5,15.5-43.6,33.6c-3.5,20,8.8,34.7,33.7,34.7c11.1,0,21.5-2.1,30-6.8l2.6-14.9c-8.3,5.9-18.8,9.2-27.7,9.2
		c-12.4,0-22.3-5.2-20.7-17h51.3c0.6-1.4,1.4-3.9,1.9-6.9C135,46.1,129.9,28.7,105,28.7">
  </path>
  <path class="st0" d="M190.7,28.7c-12.1,0-21.2,5-25.5,10.1h-0.5l-17.1-10.1c-0.6,5.7-1.5,13.4-2.8,20.9l-8,45.9h19.4l6.7-38.5
		c0.3-1.9,1-3.9,1.8-5.2c2.9-5.1,9-9.7,16.7-9.7c10.6,0,13.5,7.2,11.9,16.5L187,95.5h19.4l6.8-38.8C216.8,36,204.1,28.7,190.7,28.7">
  </path>
  <path class="st0" d="M423.6,28.7c-12.1,0-21.2,5-25.5,10.1h-0.5l-17.1-10.1c-0.6,5.7-1.5,13.4-2.8,20.9l-8,45.9h19.4L396,57
		c0.3-1.9,1-3.9,1.8-5.2c2.9-5.1,9-9.7,16.7-9.7c10.6,0,13.5,7.2,11.9,16.5l-6.5,36.9h19.4l6.8-38.8C449.7,36,437,28.7,423.6,28.7">
  </path>
  <path class="st0" d="M348,55.9h-33.8c2-6.7,8.6-15.9,20.5-15.9C347.7,39.9,349.1,49.8,348,55.9 M337.9,28.7
		c-24.7,0-40.5,15.5-43.6,33.6c-3.5,20,8.8,34.7,33.7,34.7c11.1,0,21.5-2.1,30-6.8l2.6-14.9c-8.3,5.9-18.8,9.2-27.7,9.2
		c-12.4,0-22.3-5.2-20.7-17h51.3c0.6-1.4,1.4-3.9,1.9-6.9C367.9,46.1,362.8,28.7,337.9,28.7">
  </path>
  <path class="st0" d="M221.4,61.9c-3.5,20.3,10.7,35,34.7,35c9.6,0,21-2.7,25.3-4.4l3.1-17.5c-6.7,7.3-15.9,8.8-22.4,8.8
		c-13.2,0-23.2-7.7-20.9-21.1c2-12,13.4-21.2,28.2-21.2c6,0,14.2,2,19.4,8.8l3-17.8c-4.2-1.6-10.9-3.9-20.8-3.9
		C244.1,28.7,224.8,42.4,221.4,61.9">
  </path>
  <path class="st0" d="M599.8,44c-1.8-2.1-3.8-5.4-5-7.8h-4c-2.2,2.7-5.4,5.7-8.2,7.8H599.8z M595.8,52.1h-23.7l7.1,3.2l-1.3,6.5
		h15.7L595.8,52.1z M607.1,50.6l-2.5,11.2h5.3c3.6,0,6.2,0.8,5.5,5.2c-1.2,8-3.4,19.1-5.1,28.5h-28.8l-2.4-8.5h21.2
		c1-4.5,2.2-10.1,2.8-14.6c0.2-1.5-0.4-2.1-1.9-2.1h-35.9l3.2-17.4c-2.6,1.2-6.5,2.5-10.3,3.2l2.3-10.5c6.7-1.6,13.5-4.9,17.7-9.5
		h-16l1.8-8.2h19.8c1.1-1.5,1.9-3.5,2.4-4.9h-21.4l1.6-8.5h7.7L571.4,2h10.9l2.6,12.7h3.8c1.2-4.2,2.1-9.8,2.2-14.5H602
		c-0.2,4.7-0.9,10.2-1.9,14.5h4.4c1.7-3.9,3.5-8.5,4.9-12.7h11.1c-1.5,3.9-3.5,8.7-5.3,12.7h7.8l-2.1,8.5h-23.2
		c-0.4,1.4-1.3,3.5-2,4.9h28.5l-1.9,8.2h-16.6c3.6,5.3,12.1,9.3,18.7,10.7l-3.7,9.3C616,55.3,611.1,53.1,607.1,50.6 M595,82.8h-36.7
		l-1.5-8.3h40v0.1L595,82.8z M551.8,11.8h-5.4c-0.9,5.2-1.7,10.6-2.8,16.2h7.3l2.7-14.2C554,12.2,553.3,11.8,551.8,11.8 M549.5,36.6
		h-7.5c-1.1,5.6-2.3,11.5-3.5,17.3h7.8L549.5,36.6z M564.6,8.8c-5.3,29.1-10.1,57.8-15.5,86.8h-10.9c2.2-10.9,4.6-22.5,6.5-33.2
		h-7.8c-2.4,11.2-4.9,22.5-7.2,33.2h-10.9c9.2-29.3,13.7-59.5,18.9-92.8h20.4C563.4,2.8,565.5,3.7,564.6,8.8">
  </path>
  <path class="st0" d="M714.7,2.9h-50.5l2.2,9.6h37.7c2.5,0,3.7,0.3,3.1,3.1c-1.4,7.8-2.9,15.7-4.4,23.4h-16.4l2.8-16.4l-11.5-6.7
		L673.5,39h-12.2l-1.6,9.6h12c-2.5,15.6-5.5,31.5-8.7,47h13.1c3-15.7,6.1-31.4,8.7-47h16.3c-2.7,15.7-5.7,31.8-8.8,47h23.1l4-9.7
		h-12.3c4.9-24.8,9.9-50.6,14.3-75.6C722.4,5,721.3,2.9,714.7,2.9 M659.2,22.8c-1.6-7.6-3.7-15.5-5.4-22.8h-12.2
		c1.6,7.5,3.4,15.5,4.8,22.8H659.2z M632.5,27.9h22.7c-2.3,15.1-4.9,30.5-7.8,45.8c4.3-3.2,8.9-6.7,13-10.3L658,77.4
		c-7.7,6.5-18.3,14.1-28,19.6c4.2-19.6,8.1-40.3,10.9-59.5h-10.2L632.5,27.9z">
  </path>
 </g>
</svg>