<svg version="1.1" id="Layer_1" xmlns:x="ns_extend;" xmlns:i="ns_ai;" xmlns:graph="ns_graphs;" xmlns="http://www.w3.org/2000/svg" xmlns:xlink="http://www.w3.org/1999/xlink" x="0px" y="0px" viewBox="0 0 402 65" style="enable-background:new 0 0 402 65;" xml:space="preserve">
 <style type="text/css">
  .st0{clip-path:url(#SVGID_2_);}
	.st1{fill:url(#SVGID_3_);}
	.st2{fill:url(#SVGID_4_);}
	.st3{fill:url(#SVGID_5_);}
	.st4{fill-rule:evenodd;clip-rule:evenodd;fill:#FFFFFF;}
 </style>
 <metadata>
  <sfw xmlns="ns_sfw;">
   <slices>
   </slices>
   <sliceSourceBounds bottomLeftOrigin="true" height="65" width="402" x="156" y="321.1">
   </sliceSourceBounds>
  </sfw>
 </metadata>
 <g>
  <g>
   <g>
    <defs>
     <rect id="SVGID_1_" width="104.5" height="65">
     </rect>
    </defs>
    <clipPath id="SVGID_2_">
     <use href="#SVGID_1_" style="overflow:visible;">
     </use>
    </clipPath>
    <g class="st0">
     <linearGradient id="SVGID_3_" gradientUnits="userSpaceOnUse" x1="103.3196" y1="957.3685" x2="154.5664" y2="935.257" gradientTransform="matrix(1 0 0 -1 -106 978.2415)">
      <stop offset="0" style="stop-color:#F213A4">
      </stop>
      <stop offset="0.1517" style="stop-color:#E011A7">
      </stop>
      <stop offset="0.4554" style="stop-color:#B20DAF">
      </stop>
      <stop offset="0.8789" style="stop-color:#6806BB">
      </stop>
      <stop offset="1" style="stop-color:#5204BF">
      </stop>
     </linearGradient>
     <path class="st1" d="M0.3,5.5C-0.8,2.8,1.2,0,4,0h17.6c1.7,0,3.1,1,3.7,2.5l14,35c0.4,0.9,0.4,2,0,3l-8.8,22
					c-1.3,3.4-6.1,3.4-7.5,0L0.3,5.5z">
     </path>
     <linearGradient id="SVGID_4_" gradientUnits="userSpaceOnUse" x1="137.0498" y1="956.1652" x2="184.8126" y2="937.126" gradientTransform="matrix(1 0 0 -1 -106 978.2415)">
      <stop offset="0" style="stop-color:#F213A4">
      </stop>
      <stop offset="0.1517" style="stop-color:#E011A7">
      </stop>
      <stop offset="0.4554" style="stop-color:#B20DAF">
      </stop>
      <stop offset="0.8789" style="stop-color:#6806BB">
      </stop>
      <stop offset="1" style="stop-color:#5204BF">
      </stop>
     </linearGradient>
     <path class="st2" d="M34.3,5.4c-0.9-2.6,1-5.4,3.8-5.4h15.4c1.7,0,3.2,1.1,3.8,2.6l12.8,35c0.3,0.9,0.3,1.8,0,2.7l-7.7,21
					c-1.3,3.5-6.3,3.5-7.6,0L34.3,5.4z">
     </path>
     <linearGradient id="SVGID_5_" gradientUnits="userSpaceOnUse" x1="168.1022" y1="957.3685" x2="219.3489" y2="935.257" gradientTransform="matrix(1 0 0 -1 -106 978.2415)">
      <stop offset="0" style="stop-color:#F213A4">
      </stop>
      <stop offset="0.1517" style="stop-color:#E011A7">
      </stop>
      <stop offset="0.4554" style="stop-color:#B20DAF">
      </stop>
      <stop offset="0.8789" style="stop-color:#6806BB">
      </stop>
      <stop offset="1" style="stop-color:#5204BF">
      </stop>
     </linearGradient>
     <path class="st3" d="M65.1,5.5C64,2.8,66,0,68.8,0h17.6c1.7,0,3.1,1,3.7,2.5l14,35c0.4,0.9,0.4,2,0,3l-8.8,22
					c-1.3,3.4-6.1,3.4-7.5,0L65.1,5.5z">
     </path>
    </g>
   </g>
  </g>
  <g>
   <path class="st4" d="M197.4,6.5c-3.3,0-5.9,2.6-5.9,6c0,3.3,2.7,5.9,5.9,5.9s5.9-2.6,5.9-5.9C203.3,9.1,200.7,6.5,197.4,6.5z
			 M202.6,21.4h-10.3v35.5h10.3V21.4z M132,7.8H142v13.6h7.7v9.5H142v12.5c0,1.8,1.4,3.3,3.2,3.3h4.5v10.1h-4.5
			c-7.3,0-13.3-6-13.3-13.4V30.8h-4.7v-9.5h4.7V7.8z M174.4,20.6c-4.7,0-8.4,2-9.8,5.1V7.8h-10.3v49.1h10.3V37c0-4.1,2.7-7,6.4-7
			c3.8,0,6,2.5,6,6.7v20.3h10.3V35.3C187.3,26.1,182.7,20.6,174.4,20.6z M217.4,21.4v4.9c1.6-3.6,5.3-5.6,10.1-5.7
			c0.7,0,1.6,0.1,2.7,0.2v9.9c-1-0.2-2.2-0.3-3.4-0.3c-5.9,0-9.4,3.4-9.4,9.2v17.3H207V21.4H217.4z M259.2,26
			c-1-3.1-5.1-5.3-10.4-5.3c-4.9,0-9.1,1.8-12.4,5.3c-3.3,3.5-4.9,7.9-4.9,13c0,5.1,1.7,9.5,4.9,13.1c3.3,3.5,7.5,5.3,12.4,5.3
			c5.3,0,9.4-2.2,10.4-5.3v4.7h10.3V7.8h-10.3V26z M257.2,45.5c-1.8,1.7-3.9,2.5-6.4,2.5c-2.5,0-4.6-0.9-6.3-2.5
			c-1.8-1.8-2.6-3.9-2.6-6.3c0-2.4,0.8-4.5,2.6-6.3c1.8-1.8,3.8-2.6,6.3-2.6c2.6,0,4.7,0.9,6.4,2.6c1.8,1.7,2.7,3.8,2.7,6.3
			C259.9,41.6,259,43.7,257.2,45.5z M299.4,21.6l9.4,16.9l6.3-17h10.1L310.8,59l-11.4-20.4L288,59l-14.4-37.5h10.1l6.2,17
			L299.4,21.6z M342.2,20.6c-5.3,0-9.8,1.7-13.3,5.1c-3.4,3.4-5.2,7.8-5.2,13.4v0.3c0,5.5,1.8,10,5.2,13.4c3.6,3.3,8.1,5,13.8,5
			c5.3,0,9.7-1.1,13-3.2v-9.2c-3.2,2.3-7.4,3.4-12.4,3.4c-5.5,0-9-2.7-9.2-6.9h25.7c0.1-1.1,0.2-2.2,0.2-3.4c0-5.1-1.7-9.3-4.9-12.7
			C351.8,22.3,347.5,20.6,342.2,20.6z M334.1,35.1c0.1-1.6,0.9-3,2.5-4.1c1.6-1.1,3.4-1.7,5.7-1.7c4.1,0,7.3,2.7,7.3,5.9H334.1z
			 M384.6,20.8c4.9,0,9.1,1.8,12.4,5.3c3.3,3.6,5,7.8,5,13c0,5.1-1.7,9.5-5,13.1c-3.2,3.5-7.4,5.3-12.4,5.3c-5.3,0-9.4-2.2-10.4-5.3
			v4.7h-10.3V7.8h10.3V26C375.3,22.9,379.4,20.8,384.6,20.8z M382.7,48c2.5,0,4.6-0.8,6.3-2.5c1.8-1.8,2.6-3.9,2.6-6.3
			c0-2.4-0.8-4.5-2.6-6.3c-1.7-1.8-3.8-2.6-6.3-2.6c-2.5,0-4.7,0.9-6.5,2.6c-1.8,1.7-2.7,3.8-2.7,6.3c0,2.4,0.9,4.5,2.7,6.3
			C378,47.1,380.1,48,382.7,48z">
   </path>
  </g>
 </g>
</svg>