<?xml version="1.0" encoding="UTF-8"?><svg id="Layer_1" xmlns="http://www.w3.org/2000/svg" viewBox="0 0 2400 944.18"><defs><style>.cls-1{fill:#fff;}</style></defs><g><path class="cls-1" d="M1796.61,712.14c-10.13-12.46-15.65-28.02-15.65-44.07v-115.91c0-82.26-38.77-129.36-107.35-129.36-91.31,0-108.99,49.74-133.29,92.05-1.18,2.05-3.78,2.77-5.86,1.66l-5.08-2.72c-2.17-1.16-2.96-3.89-1.73-6.03l6.93-12.12c4.38-7.52,6.73-16.06,6.73-24.77v-17.49c0-11.29-9.15-20.43-20.43-20.43h-99.43c-14.98,0-23.04,17.58-13.28,28.93l14.49,16.85c14.6,16.99,22.64,38.65,22.64,61.05v120.32c0,13.35-2.85,26.54-8.37,38.7l-11.52,25.38c-5.26,11.6,3.22,24.75,15.95,24.75h124.21c14.79,0,22.92-17.2,13.54-28.63l-10.05-12.25c-10.26-12.5-15.87-28.17-15.87-44.33v-66.39c0-23.18,5.55-46.17,17.17-66.23,14.1-24.34,32.52-36.78,55.57-36.78,31.02,0,47.7,22.1,47.7,62.01v107.84c0,13.03-2.72,25.91-7.98,37.83l-9.86,22.34c-5.11,11.58,3.37,24.59,16.02,24.59h117.91c14.75,0,22.89-17.12,13.59-28.56l-6.68-8.21Z"/><path class="cls-1" d="M2018.05,702.67c-3.97,.79-7.86,1.34-11.28,1.42-32.05,0-47.46-20.17-47.46-61.66v-164.87h58.35c6.75,0,12.23-5.47,12.23-12.23v-19.97c0-6.75-5.48-12.23-12.23-12.23h-74.67c-2.1,0-3.79-1.7-3.79-3.79v-5.59c0-2.08,1.68-3.78,3.76-3.79h7.58c4.84,.01,8.77-3.91,8.77-8.75v-43.62c0-8.32-6.74-15.06-15.06-15.06h-42.94c-7.82,0-14.75,5.07-17.07,12.54-4.95,16.36-16.88,68.06-55.69,68.06h-11.54c-6.72,0-12.19,5.47-12.19,12.23v19.97c0,6.76,5.47,12.23,12.19,12.23h35.58v169.04c0,68.77,35,106.72,98.42,106.72,31.65,0,60.36-11.56,77.74-32.4,6.76-8.14-.27-20.29-10.7-18.25Z"/><path class="cls-1" d="M1394.58,690.25c-18.91,3.41-31.69-11.4-31.69-34.64v-111.87c0-79.78-50.57-122.64-148.79-122.64-87.96,0-148.04,33.82-148.2,84.89-.04,9.17,3.4,18.15,8.47,26.81,8.15,12.51,22.88,20.9,39.75,20.9,25.68,0,46.5-19.37,46.5-43.26-.08-24.5-20.77-36.92-27.04-39.25,4.46-3.8,23.72-18.64,52.16-18.64,45.21,0,69.42,34.26,69.42,87.62v21.21c-33.93,0-72,3.41-98.77,9.93-65.51,14.31-100.03,51.59-100.03,98.03,0,52.37,41.68,85.09,107.74,85.09,45.85,0,83.95-16.04,101.8-42.86,11.28,22.65,36.29,36.92,68.46,36.92,41.6,0,63.39-21.7,70.27-47.5,1.78-7.34-3.77-11.95-10.03-10.73Zm-139.43-25.09c-3.54,24.97-20.8,39.87-45.81,39.87-27.41,0-45.85-18.44-45.85-47.62,0-22.61,10.11-42.39,32.17-51.91,14.86-6.57,38.06-10.14,59.49-10.73v70.39Z"/><path class="cls-1" d="M2389.64,690.25c-18.91,3.41-31.69-11.4-31.69-34.64v-111.87c0-79.78-50.57-122.64-148.79-122.64-87.96,0-148.04,33.82-148.2,84.89-.04,9.17,3.4,18.15,8.47,26.81,8.15,12.51,22.88,20.9,39.75,20.9,25.68,0,46.5-19.37,46.5-43.26-.08-24.5-20.77-36.92-27.04-39.25,4.46-3.8,23.72-18.64,52.16-18.64,45.21,0,69.42,34.26,69.42,87.62v21.21c-33.93,0-72,3.41-98.77,9.93-65.51,14.31-100.03,51.59-100.03,98.03,0,52.37,41.68,85.09,107.74,85.09,45.85,0,83.95-16.04,101.8-42.86,11.28,22.65,36.29,36.92,68.46,36.92,41.6,0,63.39-21.7,70.27-47.5,1.78-7.34-3.77-11.95-10.03-10.73Zm-139.43-25.09c-3.54,24.97-20.8,39.87-45.81,39.87-27.41,0-45.85-18.44-45.85-47.62,0-22.61,10.11-42.39,32.17-51.91,14.86-6.57,38.06-10.14,59.49-10.73v70.39Z"/><path class="cls-1" d="M1073.25,327.63h-53.99c-11.62,0-18.58,12.91-12.19,22.62l9.25,14.05c7.9,12.01,9.45,27.12,4.14,40.48l-96.86,243.61c-4.46,11.73-8.97,19.77-11.03,21.75-1.1,1.05-2.93,1.37-4.36,.31l-5.11-4.07c-1.62-1.22-1.53-2.99-.04-4.65,2.84-3.77,4.6-8.32,5.6-12.46,1.19-4.97,.79-10.19-1.03-14.97l-82.02-216.82c-5.42-14.31-5.2-30.14,.59-44.3l8.76-21.41c4.72-11.52-3.76-24.15-16.21-24.15h-132.17c-17.81,0-27.09,21.19-15.03,34.28l8.41,9.13c15.45,16.76,27.66,36.24,36.03,57.45l117.77,307.77c3.08,7.81,10.62,12.94,19.01,12.94h65.21c8.38,0,15.91-5.11,18.99-12.9l152.55-384.68c4.56-11.5-3.91-23.97-16.28-23.97Z"/></g><g><path class="cls-1" d="M534.57,451.6c-3.55,0-7.37,4.95-8.34,12.68-2.11,10.88-1.39,31-11.1,31-6.71,0-7.32-13.48-18.6-25.91-11.7-12.06-28.48-13.29-39.24-21.96-5.98-4.15-9.54-9.26-9.16-18.02,0,0,1.27-13.97,20.13-11.42,8.96,.93,23.5,3.12,32.49,4.15,16.07,1.81,19.99-10.13,20.46-14.2,1.02-9.52-9.08-17.4-15.47-22.94-8.08-7.03-16.89-13.35-26.01-19.01-1.66-1.02-3.34-2.1-5.03-3.17-22.89-14.59-63.59-39.02-86.41-11.13-8.18,10.95-11.73,23.57-14.29,34.03-4.73,19.13-14.68,26.51-21.75,38.18-11.22,18.52-18.94,39.56-19.52,61.2-.1,31.25,19.23,61.86,50.07,80.99,25.6,13.43,38.73,13.43,48.98,10.68,1.87-.63,5.99-3.5,3.16-8.24-.5-1.01-1.94-3.22-2.8-4.65-2.92-5.38,1.07-10.29,7.01-5.7,3.9,3.05,7.88,6.11,12.47,7.97,3.87,1.57,8.26,2.18,12.25,1.13,0,0,0,0,0,0,4.67-1.53,7.04-4.59,7.3-8.5,.27-4.67-1.84-8.28-5.35-10.2-5.33-2.59-17.12-9.08-22.1-12.74-5.62-3.93-11.62-9.81-13.71-12.02-6.8-7.22-8.74-14.27-12.97-14.27-.71,.04-1.4,.43-1.88,.97-2.65,2.83-2.67,7.51-2.8,10.17-.09,1.96,.22,4.96-2.53,4.96-6.82,0-6.8-14.23-6.79-18.09,0-5.28,1.94-19.01,10.11-19.01,2.52,0,5.96,3.38,7.3,4.7,18.01,19.98,38.94,35.52,65.44,35.52,20.3,0,37.26-11.47,47.92-22.2,8.35-8.38,13.85-18.87,14.21-29.71,.23-6.87-3.07-25.22-13.48-25.22Zm-116.3,18.59c-2.47,1.36-5.41-.33-8.09-1.21-5.4-1.77-11.52,.02-15.97,3.55-3.06,2.43-5.39,5.61-7.29,9.05-2.06,3.75-2.46,8.7-6.89,8.7-3.65,0-5.49-5.06-5.88-7.14-2.14-11.32,3.32-23.92,13.48-29.35,10.16-5.43,24.26-2.56,30.83,6.9,1.02,1.47,1.88,3.12,2.01,4.91,.12,1.79-.63,3.72-2.2,4.58Z"/><path class="cls-1" d="M284.52,340.62c-9.71,.14-19.12,4.31-25.98,11.35-3.86,3.96-12.46,16.77-11.62,36.5-.14,2.91-3.96,3.94-5.49,1.47-6.19-11.09-6.56-22.67-4.15-31.2,5.33-17.26,20.4-31.6,40.78-31.6,26.73,0,33.42,17.48,34.76,22.89,.64,2.24-2.13,3.9-3.84,2.31-4.43-4.12-11.26-11.72-24.46-11.72Z"/><path class="cls-1" d="M286.71,379.7c-6.38,.57-11.42-3.55-11.99-9.93-.56-6.26,3.66-11.43,10.04-12,6.38-.57,11.56,3.77,12.11,10.03,.57,6.38-3.79,11.33-10.17,11.89Z"/><path class="cls-1" d="M77.5,260.41c-9.41,0-40.28-50.07-40.28-120.77,0-31.73,8.15-65.6,22.96-65.6,9.12,0,11.18,19.41,11.6,25.17,4.79,60.73-3.03,101.97,8.4,156.98,.76,3.22-1.19,4.23-2.68,4.23Z"/><path class="cls-1" d="M326.02,840.61c-20.44-3.32-39.56-13.5-53.51-28.93-37.18,12.31-75.85-18.97-64.09-60.27,1.88-5.4,9.94-3.42,9.14,2.21-1.16,7.27,.18,14.71,3.3,21.11,8.31,18.98,33.08,24.08,48.25,10.86,5.62-4.95,13.74-3.06,17.55,3.07,33.24,45.09,102.22,36.63,125.35-13.99,3.4-7.07,5.6-14.56,6.89-22.32,.9-5.51,9.17-4.99,9.4,.58,1.87,54.48-49.16,96.18-102.28,87.66Z"/><path class="cls-1" d="M640.2,814.79c-2.66-3.08-6.86-4.25-10.71-2.98-13.43,4.44-26.38,3.35-36.46-3.06-8.63-5.49-14.48-14.61-15.66-24.41-.17-1.81-2.5-25.65-8.78-51.05-7.92-32.04-18.59-51.96-31.75-59.36,2.58-11.87,3.93-37.83-15.09-62.27,4.97-17.77,1.59-30.86-3.51-42.2,4.72-6.53,8.44-14.2,10.63-21.85,.97-4.01,1.42-5.99,1.48-9.32,.03-1.59-1.46-2.29-3.13-1.14-1.96,1.35-4.65,2.52-6.47,3.24-1.17,.46-1.48,.58-1.94,1.03s-.81,1.66-.96,2.22c-.03,.12-.08,.34-.11,.43-2.09,7.47-5.94,14.98-10.83,20.98l-2.36,2.89,1.63,3.36c4.99,10.25,9.38,21.78,3.51,39.84l-1,3.08,2.08,2.48c23.71,28.23,13.86,57.76,13.75,58.01l-3.02,6.21,6.63,1.94c20.99,6.16,34.2,66.23,37.6,102.65l.02,.14c1.57,13.27,9.41,25.59,20.99,32.96,12.11,7.71,27.11,9.59,42.61,5.43-11.57,21.03-36.8,49.67-91.75,73-55.41,23.53-126.6,35.46-211.59,35.46-37.31,0-81.17-1.39-123.55-11.72-48.78-11.89-84.4-32.85-108.89-64.07-4.63-5.9-8.06-12.08-10.2-18.37-5.86-17.23-5.66-36.45,.71-66.32,11.96-50.97,20.27-91.44,24.75-135.6l.8-7.87c.28-2.8-3.1-4.42-5.1-2.44l-5.62,5.56c-6,5.94-14.85,8.1-23.68,5.76-4.01-1.06-7.44-2.96-9.74-5.29,15.88-7.51,23.63-22.1,23.63-44.38v-.78c0-10.99-.01-27.59,9.65-48.4l1.1-2.37-1.03-2.4c-4.18-9.73-6.3-26.56-5.66-36.17,1.02-15.15,5.43-28.3,8.09-32.41l2.62-4.09-3.52-3.34c-.89-.84-21.78-21.11-14.58-57.46,8.38-44.42,.95-70.04-39.76-136.98-1.02-1.86-2.19-3.9-3.47-6.13-11.55-20.21-30.88-54.03-30.89-102.73,.98-54.85,11.24-84.1,26.35-111.09,5.12-8.04,20.31-31.71,42.85-31.71,.16,0,.32,0,.48,0,.35,0,.67,0,.95,0,8.67,0,16.75,11.17,19.66,27.16,.36,1.98,.56,4.03,.73,5.97,3.29,36.74,10.95,93.53,22.57,142.76,17.8,75.37,33.24,84.09,43.3,84.09,11,0,19.42-8.68,23.1-23.83l.05-.23c1.96-9.74,.63-17.96-.25-23.4-.06-.37-.12-.76-.18-1.15,4.92,3.18,12.9,11.95,19.16,28.45l.74,1.96c1.09,2.87,4.71,3.76,7.01,1.73l1.58-1.39c21.16-18.68,27.7-60.57,34.03-101.08l1.06-6.76c1.34-8.45,2.52-19.74,3.88-32.81,3.29-31.58,7.39-70.88,15.9-87.99l.06-.12c3.33-7.08,7.66-11.44,12.87-12.94,1.52-.44,3.38-.56,5.7-.36,32.56,2.76,47.39,44.83,53.72,62.8l.8,2.25c6.05,21.3,12.83,54.49,13.78,84,1,31.14-4.75,51.39-16.19,57.05-5.5,2.12-10.1,4.06-13.68,5.78-3.31,1.58-4.97,5.4-3.72,8.96,.98,2.83,3.71,4.71,6.7,4.86,7.97,.4,22.19,3.08,29.22,16.4l.05,.1c4.6,8.35,12.31,7.09,16.92,6.33,1.68-.27,3.26-.53,4.81-.53,19.42,0,32.83,18.64,33.17,30.97l.12,4.46,4.33,1.06c16.51,4.02,30.11,18.96,35.5,38.98l.95,3.59c.48,1.83,1.1,2.61,2.39,3.43,1.84,1.18,3.45,2.09,5.64,3.46,1.41,.88,1.34,.92,2.89,1.75,.98,.53,2.27-.34,2.29-1.52,.08-.73-.6-4.54-1.17-7.41-.33-1.67-1.14-4.54-1.76-6.64,0-.02-.03-.04-.04-.06-.19-.68-.38-1.35-.58-2.02-.01-.05-.03-.09-.04-.13-6.48-21.34-21.18-37.6-39.29-43.64-1.38-7.89-5.76-16.45-12.04-23.23-8.8-9.5-20.29-14.74-32.35-14.74-2.5,0-4.73,.36-6.7,.68-1.38,.22-3.68,.6-4.22,.36,0,0-.22-.15-.57-.77-5.95-11.22-15.26-16.96-23.98-19.84h.02c36.82-17.62,21.82-109.14,8.74-155.06l-.96-2.76C350.93,50.6,334.34,3.54,294.26,.15c-3.76-.32-7.01-.07-9.92,.78-8.57,2.47-15.36,8.91-20.18,19.14-9.43,19.02-13.64,59.44-17.03,91.92-1.35,12.91-2.51,24.05-3.8,32.2l-1.06,6.78c-5.33,34.12-10.82,69.27-24.56,87.87-8.61-17.89-20.58-29.35-30.69-28.82l-.51,.03-.49,.12c-8.34,1.96-6.92,10.71-6.07,15.94,.83,5.12,1.86,11.5,.35,19.11-.89,3.62-4.26,14.79-11.72,14.79-1.45,0-14.7-2.11-31.93-75.09-11.48-48.63-19.05-104.79-22.31-141.12-.19-2.1-.43-4.56-.87-7.02C109.4,14.45,97.17,.02,82.31,.02c-.23,0-.49,0-.78,0-7.3-.11-29.46-.43-53.45,37.26l-.17,.28C11.9,66.12,1.03,96.9,0,154.39c.01,51.91,21.1,88.81,32.43,108.63,1.27,2.22,2.43,4.24,3.43,6.08l.13,.22c41.54,68.28,45.67,89.92,38.34,128.8-6.8,34.33,8.16,56.75,14.96,64.86-3.45,7.57-6.83,20.22-7.75,33.89-.7,10.42,1.22,27.32,5.6,39.12-9.7,22.09-9.69,40.1-9.69,51.01v.78c0,25.6-11.83,32.59-22.13,35.83l-5.41,1.7,1.53,5.46c2.34,8.32,10.32,15.21,20.82,17.98,8.16,2.16,16.4,1.63,23.61-1.32-4.65,38.99-12.42,76.19-23.17,121.99l-.03,.12c-6.86,32.15-6.96,53.18-.36,72.58,2.56,7.53,6.63,14.87,12.07,21.82,25.81,32.9,64.6,55.85,115.31,68.21,43.84,10.68,90.53,12.05,126.32,12.05,86.57,0,159.29-12.24,216.16-36.39,61.21-25.99,87.84-58.88,99.4-81.89,1.83-3.65,1.28-8.01-1.4-11.11Z"/></g></svg>