<?xml version="1.0" encoding="utf-8" ?>
<svg xmlns="http://www.w3.org/2000/svg" xmlns:xlink="http://www.w3.org/1999/xlink" width="360" height="320">
	<path fill="#FCB03C" d="M1.85809 66.5723C10.168 66.7329 18.5038 66.6085 26.8166 66.6099L73.3664 66.6148C96.2171 66.6159 119.174 67.0643 142.013 66.4226C141.955 69.1229 142.315 90.8762 142.04 91.534C141.967 91.7092 141.833 91.852 141.729 92.011Q114.382 91.7654 87.0331 91.8788L1.52483 91.9728C1.2834 88.1967 0.669575 68.9365 1.85809 66.5723Z"/>
	<path fill="#FCB03C" d="M168.859 66.9844C179.586 67.6036 190.558 67.2017 201.312 67.1533C205.577 67.1341 209.907 66.9518 214.162 67.2585C215.129 71.7805 216.402 76.2525 217.496 80.7471Q220.94 95.4307 224.552 110.074L251.132 220.873L258.623 252.024C259.78 256.766 262.097 263.883 262.289 268.503L266.346 268.509C268.279 261.711 269.775 254.752 271.416 247.876L279.16 215.664L302.146 120.218C306.389 102.545 310.321 84.7083 314.959 67.142C329.804 67.2464 344.742 67.4641 359.577 67.0295C359.902 67.769 360.042 68.0437 359.765 68.8366C359.749 68.8835 359.727 68.9286 359.708 68.9746C359.046 70.8863 358.686 73.0343 358.202 75.0045Q356.645 81.3886 355.012 87.7537L341.702 140.006L301.835 296.642C276.965 297.082 252.059 296.402 227.18 296.761L191.747 156.897L177.218 99.7663C174.457 88.859 171.941 77.7977 168.859 66.9844Z"/>
</svg>
