<svg class="sc-7d0556ff-9 ebXDKx" viewBox="0 0 110 29" width="110" height="29" fill="none" xmlns="http://www.w3.org/2000/svg"><path fill-rule="evenodd" clip-rule="evenodd" d="M16.1088 1.47023C14.7617 0.768041 13.157 0.76804 11.8099 1.47023L2.50369 6.32129C0.965066 7.12333 0 8.71541 0 10.4517V19.3543C0 21.0905 0.965067 22.6826 2.50369 23.4847L11.8099 28.3357C12.2276 28.5534 12.67 28.7036 13.1218 28.7864V22.441C13.1218 18.7405 10.1219 15.7405 6.42132 15.7405H3.35025V14.0654H6.42132C10.1219 14.0654 13.1218 11.0655 13.1218 7.3649V4.29383H14.797V7.3649C14.797 11.0655 17.7969 14.0654 21.4975 14.0654H27.9188V10.4517C27.9188 8.71541 26.9537 7.12333 25.4151 6.32129L16.1088 1.47023ZM27.9188 15.7405H21.4975C17.7969 15.7405 14.797 18.7405 14.797 22.441V28.7864C15.2488 28.7036 15.6912 28.5534 16.1088 28.3357L25.4151 23.4847C26.9537 22.6826 27.9188 21.0905 27.9188 19.3543V15.7405Z" fill="url(#paint0_linear_2527_859)"></path><path d="M47.3882 9.83209H45.6278C45.5414 9.83209 45.4636 9.88732 45.4367 9.96946L42.9725 17.1863C42.9102 17.369 42.651 17.369 42.5887 17.1863L40.1232 9.96946C40.0948 9.88732 40.0183 9.83209 39.932 9.83209H38.1731C38.0315 9.83209 37.9323 9.97371 37.9833 10.1068L41.6838 19.9139C41.7008 19.9606 41.7008 20.0102 41.6838 20.0569L41.3609 20.9193C41.0493 21.8144 40.8171 22.1259 39.8626 22.1259H38.5101C38.3982 22.1259 38.3076 22.2166 38.3076 22.3284V23.6342C38.3076 23.746 38.3982 23.8367 38.5101 23.8367H40.5438C42.2361 23.8367 42.8394 22.7859 43.3634 21.347L47.5779 10.1068C47.6275 9.97371 47.5298 9.83209 47.3882 9.83209Z" fill="#000"></path><path d="M52.7455 9.59842C49.6143 9.59842 47.7464 11.8544 47.7464 14.8893C47.7464 17.9241 49.6129 20.1801 52.7455 20.1801C55.8781 20.1801 57.763 17.9241 57.763 14.8893C57.763 11.8544 55.8951 9.59842 52.7455 9.59842ZM52.7455 18.4283C50.7813 18.4283 49.848 16.9696 49.848 14.8893C49.848 12.8089 50.7813 11.3502 52.7455 11.3502C54.7098 11.3502 55.6629 12.8089 55.6629 14.8893C55.6629 16.9696 54.7296 18.4283 52.7455 18.4283Z" fill="#000"></path><path d="M67.8349 9.83209H66.1978C66.0859 9.83209 65.9953 9.92273 65.9953 10.0346V15.4331H65.9755C65.9755 17.9227 64.167 18.3702 63.3881 18.3702C61.9096 18.3702 61.2681 17.437 61.2681 16.1327V10.0346C61.2681 9.92273 61.1774 9.83209 61.0656 9.83209H59.4483C59.3364 9.83209 59.2458 9.92273 59.2458 10.0346V16.3479C59.2458 18.4297 60.3929 20.1787 62.8443 20.1787C64.2591 20.1787 65.2985 19.5202 65.9825 18.628C66.0123 18.5897 66.0732 18.6096 66.0732 18.6577V19.7425C66.0732 19.8544 66.1638 19.945 66.2757 19.945H67.8349C67.9468 19.945 68.0374 19.8544 68.0374 19.7425V10.0346C68.0374 9.92273 67.9468 9.83209 67.8349 9.83209Z" fill="#000"></path><path d="M82.5348 16.3479H80.8566C80.7632 16.3479 80.6811 16.4116 80.6598 16.5023C80.3865 17.6947 79.5297 18.4283 78.2608 18.4283C76.4524 18.4283 75.5177 16.9696 75.5177 14.8893C75.5177 12.8089 76.4509 11.3502 78.2608 11.3502C79.5113 11.3502 80.3667 12.047 80.657 13.2026C80.6796 13.2918 80.7603 13.3527 80.8524 13.3527H82.5334C82.6609 13.3527 82.7557 13.2366 82.7331 13.112C82.3451 11.0075 80.7901 9.59984 78.2594 9.59984C75.284 9.59984 73.416 11.8558 73.416 14.8907C73.416 17.9255 75.2826 20.1815 78.2594 20.1815C80.6782 20.1815 82.338 18.7356 82.7331 16.5915C82.7557 16.4669 82.6609 16.3508 82.5334 16.3508L82.5348 16.3479Z" fill="#000"></path><path d="M88.7858 9.59842C85.6547 9.59842 83.7867 11.8544 83.7867 14.8893C83.7867 17.9241 85.6547 20.1801 88.7858 20.1801C91.917 20.1801 93.8034 17.9241 93.8034 14.8893C93.8034 11.8544 91.9354 9.59842 88.7858 9.59842ZM88.7858 18.4283C86.8216 18.4283 85.8869 16.9696 85.8869 14.8893C85.8869 12.8089 86.8202 11.3502 88.7858 11.3502C90.7515 11.3502 91.7032 12.8089 91.7032 14.8893C91.7032 16.9696 90.7699 18.4283 88.7858 18.4283Z" fill="#000"></path><path d="M106.617 9.59842C105.062 9.59842 104.005 10.3943 103.341 11.4451C103.32 11.4791 103.271 11.4763 103.254 11.4395C102.737 10.3391 101.738 9.59842 100.297 9.59842C98.8549 9.59842 97.9655 10.247 97.3736 11.1109C97.3452 11.152 97.2815 11.1307 97.2815 11.0812V10.0346C97.2815 9.92272 97.1908 9.83209 97.079 9.83209H95.5198C95.4079 9.83209 95.3173 9.92272 95.3173 10.0346V19.7425C95.3173 19.8544 95.4079 19.945 95.5198 19.945H97.1569C97.2687 19.945 97.3594 19.8544 97.3594 19.7425V14.344C97.3594 11.8544 98.954 11.4069 99.7513 11.4069C100.996 11.4069 101.638 12.3401 101.638 13.643V19.7425C101.638 19.8544 101.728 19.945 101.84 19.945H103.477C103.589 19.945 103.68 19.8544 103.68 19.7425V14.344C103.68 11.8544 105.274 11.4069 106.072 11.4069C107.317 11.4069 107.958 12.3401 107.958 13.643V19.7425C107.958 19.8544 108.049 19.945 108.161 19.945H109.798C109.91 19.945 110 19.8544 110 19.7425V13.4306C110 11.3488 108.833 9.59983 106.617 9.59983V9.59842Z" fill="#000"></path><path d="M72.2491 18.0049L71.1969 17.3973C71.1544 17.3732 71.102 17.3732 71.0595 17.3973L70.0073 18.0049C69.9648 18.0289 69.9379 18.0742 69.9379 18.1238V19.3389C69.9379 19.3885 69.9648 19.4338 70.0059 19.4579L71.0581 20.0654C71.0794 20.0767 71.1034 20.0838 71.1261 20.0838C71.1488 20.0838 71.1728 20.0781 71.1941 20.0654L72.2463 19.4579C72.2888 19.4338 72.3143 19.387 72.3143 19.3389V18.1238C72.3143 18.0742 72.2888 18.0289 72.2463 18.0049H72.2491Z" fill="#000"></path><defs><linearGradient id="paint0_linear_2527_859" x1="27.9188" y1="0.943588" x2="0.076117" y2="28.8623" gradientUnits="userSpaceOnUse"><stop offset="0.15" stop-color="#A0A4EE"></stop><stop offset="0.8" stop-color="#596CED"></stop></linearGradient></defs></svg>