<svg version="1.1" id="Layer_1" xmlns="http://www.w3.org/2000/svg" xmlns:xlink="http://www.w3.org/1999/xlink" x="0px" y="0px" viewBox="0 0 516 360" style="enable-background:new 0 0 516 360;" xml:space="preserve">
 <style type="text/css">
  .st0{fill:#FFFFFF;}
 </style>
 <title>
  golion-z-sourcefile-algae
 </title>
 <polygon class="st0" points="250.2,93.2 250.2,206.1 156.7,206.1 ">
 </polygon>
 <path class="st0" d="M250.2,52.7c0,25.8-20.9,46.7-46.7,46.7s-46.7-20.9-46.7-46.7H250.2z">
 </path>
 <path class="st0" d="M265.6,206.1c0-25.8,20.9-46.7,46.7-46.7c25.8,0,46.7,20.9,46.7,46.7H265.6z">
 </path>
 <polygon class="st0" points="265.6,165.6 265.6,52.7 359.1,52.7 ">
 </polygon>
 <path class="st0" d="M317.9,302.6c4.8,0.1,9.5-1.7,13-5l6.4,6.9c-4.2,4.4-10.1,7.6-19.3,7.6c-15.7,0-25.8-10.4-25.8-24.5
	c-0.3-13.3,10.3-24.2,23.5-24.5c0.3,0,0.6,0,0.8,0c15.6,0,24.4,11.8,23.6,28.3h-36.8C304.7,298.3,309.5,302.7,317.9,302.6
	 M329.1,283.7c-1-6.4-4.8-11.1-12.4-11.1c-7.1,0-12,4-13.3,11.1H329.1z">
 </path>
 <polygon class="st0" points="76.4,302.1 104.7,273.4 77.1,273.4 77.1,264.3 117.8,264.3 117.8,273.5 89.5,302.3 118.2,302.3 
	118.2,311.3 76.4,311.3 ">
 </polygon>
 <path class="st0" d="M150,302.6c4.8,0.1,9.5-1.7,12.9-5l6.4,6.9c-4.2,4.4-10.1,7.6-19.3,7.6c-15.7,0-25.8-10.4-25.8-24.5
	c-0.3-13.3,10.3-24.2,23.5-24.5c0.3,0,0.6,0,0.8,0c15.6,0,24.4,11.8,23.6,28.3h-36.8C136.8,298.3,141.6,302.7,150,302.6
	 M161.2,283.7c-1-6.4-4.8-11.1-12.4-11.1c-7.1,0-12,4-13.3,11.1H161.2L161.2,283.7z">
 </path>
 <path class="st0" d="M233.4,287.7c0-15,11.2-24.4,23.6-24.4c6-0.1,11.7,2.5,15.7,7v-27.7h10v68.6h-10v-6.5
	c-3.9,4.7-9.7,7.5-15.8,7.4C244.9,312.1,233.4,302.6,233.4,287.7 M273.2,287.6c-0.2-8.2-7.1-14.7-15.3-14.5
	c-8.2,0.2-14.7,7.1-14.5,15.3c0.2,8.1,6.8,14.5,14.9,14.5C266.9,302.9,273.2,296.1,273.2,287.6">
 </path>
 <path class="st0" d="M346.7,301.2l9.1-4.7c2.4,4.4,7.1,7,12.1,6.9c5.7,0,8.6-2.9,8.6-6.2c0-3.8-5.5-4.6-11.4-5.8
	c-8-1.7-16.3-4.3-16.3-14c0-7.4,7.1-14.3,18.2-14.2c8.8,0,15.3,3.5,19,9.1l-8.4,4.6c-2.4-3.5-6.4-5.5-10.6-5.4
	c-5.4,0-8.1,2.6-8.1,5.6c0,3.4,4.3,4.3,11.1,5.8c7.7,1.7,16.5,4.2,16.5,14c0,6.5-5.7,15.2-19.1,15.1
	C357.6,312.1,350.7,308.2,346.7,301.2">
 </path>
 <polygon class="st0" points="413.6,290.3 405.7,299 405.7,311.2 395.7,311.2 395.7,242.6 405.7,242.6 405.7,287.5 426.9,264.2 
	439.1,264.2 420.7,284.3 439.6,311.2 428.2,311.2 ">
 </polygon>
 <path class="st0" d="M203.2,263.2c-11.9,0-21.9,7.7-21.9,20.5v27.5h10.2V285c0-7.7,4.4-12.3,12-12.3s11.3,4.6,11.3,12.3v26.2H225
	v-27.4C225,271,215,263.2,203.2,263.2">
 </path>
</svg>