<?xml version="1.0" encoding="utf-8" ?>
<svg xmlns="http://www.w3.org/2000/svg" xmlns:xlink="http://www.w3.org/1999/xlink" width="443" height="114">
	<path fill="#FEFEFE" d="M0 0L442.562 0C442.868 0.467044 442.953 0.892541 442.975 1.44267C443.331 10.2244 443.005 19.1514 443.006 27.9455L443.007 80.6045L443.002 104.064C443.001 106.506 443.401 110.989 442.914 113.209C442.852 113.49 442.719 113.761 442.562 114L0 114L0 0Z"/>
	<path fill="#11192B" d="M65.6046 5.05953C68.0109 4.87393 70.6543 4.87484 72.9046 5.85552C74.7612 6.66468 76.1068 8.05233 76.8443 9.93957C78.1709 13.3338 78.2055 23.4835 76.6878 26.8571C75.3179 29.9021 72.6896 31.739 69.6638 32.8919Q69.5478 32.916 69.4314 32.9381C67.0066 33.3968 64.6339 32.9313 62.591 31.5288C60.1763 29.871 58.3871 27.2056 57.8626 24.3192C57.1337 20.307 57.0169 11.5739 59.4061 8.16567C60.8636 6.08665 63.2508 5.48017 65.6046 5.05953Z"/>
	<path fill="#11192B" d="M54.159 63.2922C47.5988 59.8928 41.1011 55.1956 35.2437 50.7054C33.5421 49.401 27.5909 44.9452 27.4109 43.0638C27.3499 42.4263 27.5858 42.2668 27.966 41.8178C32.7206 40.9019 42.2645 41.4468 47.4122 41.446L87.3413 41.5026C76.3422 48.8347 65.0365 55.7888 54.159 63.2922Z"/>
	<path fill="#11192B" d="M94.0873 77.6284C101.605 80.2414 129.024 97.0368 132.094 103.255C132.277 103.625 132.348 104.001 132.37 104.411L132.17 104.945C128.588 106.412 91.9669 105.234 84.536 105.601C88.2049 96.501 90.2373 86.6675 94.0873 77.6284Z"/>
	<path fill="#11192B" d="M241.142 42.3747Q242.045 42.2671 242.954 42.2374Q243.862 42.2077 244.77 42.2561Q245.678 42.3046 246.579 42.4309Q247.479 42.5572 248.365 42.7603Q249.251 42.9635 250.117 43.242Q250.982 43.5205 251.821 43.8723Q252.659 44.2242 253.464 44.6467Q254.269 45.0693 255.035 45.5594C260.047 48.7949 263.678 54.7676 264.92 60.5391Q265.39 62.7967 265.483 65.101C265.633 68.1346 265.912 86.9433 265.067 88.2468C261.529 88.3106 257.982 88.2559 254.442 88.2515C254.575 88.0543 254.687 87.8397 254.733 87.6043C255.224 85.1291 254.857 63.7156 254.363 60.9228C254.144 59.6861 253.422 58.3016 252.735 57.2517C251.268 55.0082 249.031 53.1803 246.374 52.6248C245.352 52.1803 243.35 52.2603 242.296 52.4948C233.161 54.5279 233.467 63.7975 233.492 71.1478L233.568 83.1415C233.577 84.6054 233.855 87.02 233.068 88.2473C229.54 88.3015 226.007 88.2595 222.479 88.2609C223.447 86.9296 222.704 65.3484 223.34 61.2627C223.864 57.8983 224.927 54.5731 226.762 51.6861C230.133 46.3825 235.16 43.7167 241.142 42.3747Z"/>
	<path fill="#11192B" d="M172.005 42.8752C172.353 42.9786 172.394 42.9914 172.619 43.2732C172.689 44.7071 172.44 45.9457 172.108 47.3253C169.631 57.6367 161.972 64.9592 154.792 72.2822C152.933 74.1781 150.861 76.8086 148.624 78.1772C152.936 77.9845 161.707 77.5979 165.659 78.8522Q166.148 79.0035 166.618 79.2032Q167.089 79.403 167.537 79.6492Q167.986 79.8954 168.407 80.1856Q168.828 80.4758 169.218 80.8069Q169.607 81.1381 169.962 81.5069Q170.316 81.8757 170.631 82.2783Q170.947 82.6809 171.22 83.1133Q171.493 83.5457 171.721 84.0034C172.425 85.3855 172.917 86.9965 172.427 88.5228C167.917 88.544 135.532 88.9635 134.275 88.3943C134.118 88.3234 133.863 88.0106 133.725 87.8824C134.4 87.0308 134.482 85.1665 134.688 84.0884C135.548 79.5815 137.95 75.6499 140.564 71.9494C143.396 67.9422 158.444 54.1627 158.878 52.521C155.752 52.8725 145.018 52.9466 141.946 52.3572C138.452 51.6868 135.779 49.2973 134.763 45.9074C134.473 44.9399 134.363 43.8396 133.781 42.9962C133.771 42.9806 133.76 42.9653 133.749 42.9498C146.48 42.6376 159.283 43.3848 172.005 42.8752Z"/>
	<path fill="#11192B" d="M194.125 42.3746C199.481 41.831 205.337 42.7202 209.945 45.617C214.522 48.4946 217.556 52.915 218.743 58.1688C219.251 60.4141 220.013 66.6737 218.845 68.5257C214.946 68.8367 210.924 68.6611 207.012 68.659Q196.09 68.6005 185.168 68.7211C186.539 70.2616 186.601 73.7325 188.704 76.0867C190.421 78.008 193.196 78.9677 195.729 79.1125C198.411 79.2658 201.833 78.4669 203.857 76.6387C204.552 76.0111 205.722 74.7042 205.771 73.7421L213.437 73.7232L218.012 73.742C218.02 73.7692 218.028 73.7963 218.035 73.8237C218.31 74.9288 216.795 77.4947 216.183 78.4307C212.846 83.5346 207.906 86.7548 201.956 87.9937C195.782 89.2791 189.036 87.9165 183.78 84.4574Q183.35 84.1696 182.936 83.8609Q182.521 83.5523 182.122 83.2236Q181.723 82.8949 181.34 82.547Q180.958 82.1991 180.593 81.8327Q180.228 81.4664 179.882 81.0825Q179.535 80.6987 179.208 80.2982Q178.881 79.8978 178.574 79.4818Q178.267 79.0657 177.981 78.635Q177.695 78.2044 177.43 77.7601Q177.166 77.3159 176.923 76.8592Q176.681 76.4025 176.461 75.9344Q176.242 75.4663 176.045 74.988Q175.849 74.5097 175.677 74.0223Q175.504 73.5349 175.356 73.0395Q175.207 72.5442 175.084 72.0422Q174.96 71.5402 174.861 71.0327C173.558 64.6365 174.436 57.4222 178.089 51.9241C181.927 46.1454 187.545 43.712 194.125 42.3746Z"/>
	<path fill="#FEFEFE" d="M195.087 51.6247C196.3 51.4589 197.667 51.529 198.872 51.7422C201.688 52.2404 204.452 53.7408 206.096 56.1267C207.138 57.6388 207.62 59.6142 207.297 61.425C205.169 60.9619 200.353 61.3776 197.937 61.3882L185.406 61.3486C186.662 59.8817 186.941 57.289 187.988 55.5521C189.313 53.3556 192.731 52.1956 195.087 51.6247Z"/>
	<path fill="#11192B" d="M303.587 13.1248C307.265 12.7807 311.155 13.0276 314.857 13.0256C314.865 13.0405 314.874 13.0551 314.882 13.0703C314.894 13.0956 314.905 13.1217 314.918 13.1469C314.989 13.287 315.059 13.4221 315.119 13.5681C315.606 14.7544 315.518 79.7924 315.278 86.4349C315.256 87.0376 315.172 87.5647 314.946 88.127Q309.166 88.2603 303.386 88.1587Q303.532 87.891 303.617 87.5982C304.023 86.1568 303.968 82.8827 303.264 81.594C303.258 81.7503 303.236 81.897 303.184 82.0456C302.534 83.9002 299.815 85.617 298.146 86.4574C291.999 89.553 286.599 89.1967 280.291 87.1248C279.596 86.6163 278.856 86.1987 278.133 85.7349C273.172 82.5514 269.832 77.3226 268.587 71.5868C267.132 64.8826 268.281 57.091 272.016 51.2936Q272.289 50.8648 272.583 50.45Q272.876 50.0352 273.19 49.6354Q273.504 49.2356 273.837 48.8517Q274.17 48.4678 274.522 48.1008Q274.873 47.7338 275.242 47.3846Q275.612 47.0354 275.998 46.7048Q276.384 46.3743 276.786 46.0631Q277.188 45.752 277.604 45.461Q278.021 45.17 278.452 44.9Q278.882 44.6299 279.325 44.3814Q279.769 44.1329 280.224 43.9065Q280.679 43.6802 281.145 43.4765Q281.61 43.2729 282.085 43.0924Q282.56 42.9119 283.044 42.7551Q283.527 42.5983 284.018 42.4655Q284.508 42.3327 285.005 42.2243C290.018 41.1418 295.195 42.2244 299.498 45.0051C300.655 45.7527 303.027 47.3053 303.328 48.7023C303.563 48.3218 303.668 47.9523 303.696 47.5074C304.139 40.6023 303.752 33.4008 303.753 26.467C303.754 23.1872 304.184 15.9315 303.587 13.1248Z"/>
	<path fill="#FEFEFE" d="M290.478 52.1249L290.694 52.1088C293.95 51.8807 296.907 52.7038 299.398 54.8741C302.098 57.2261 303.585 60.3249 303.83 63.8804C304.105 67.8872 303.361 71.7858 300.655 74.8728C298.454 77.383 295.599 78.6451 292.312 78.8592Q291.403 78.8963 290.499 78.7886Q289.595 78.6809 288.72 78.4312Q287.845 78.1815 287.02 77.7961Q286.196 77.4107 285.443 76.8993C282.545 74.9201 280.798 71.7228 280.158 68.3203C279.443 64.5194 280.089 60.3882 282.302 57.1703C284.29 54.2791 287.081 52.7516 290.478 52.1249Z"/>
	<path fill="#11192B" d="M372.294 24.1247C374.482 23.4732 381.154 23.9483 383.821 23.977C383.889 24.081 383.952 24.1862 384.004 24.2996C384.519 25.4217 384.278 41.5782 383.859 42.6966L405.45 42.7253C405.54 42.8173 405.628 42.9147 405.702 43.0204C406.601 44.3094 408.134 49.6911 408.792 51.4868C411.303 58.3351 414.525 65.9065 416.613 72.8057C416.77 73.324 416.787 73.8537 416.694 74.3855C417.044 74.0637 417.325 73.6927 417.523 73.2589C419.771 68.3196 421.44 62.9057 423.347 57.8109C425.091 53.1514 427.277 48.3366 428.607 43.5674C428.69 43.2724 428.622 42.9681 428.516 42.6869Q434.722 42.7323 440.928 42.7019C441.003 43.025 440.965 43.4205 440.848 43.7304C438.936 48.7868 436.641 53.7661 434.533 58.7476L422.317 87.6343L415.445 103.861C414.291 106.583 413.295 109.672 411.742 112.164C407.849 111.667 403.533 111.989 399.591 112.05C399.634 112.013 399.678 111.977 399.718 111.938C400.399 111.283 410.491 88.2038 410.519 86.6687C410.531 86.5797 410.529 86.4968 410.524 86.4071C410.435 85.0787 398.321 55.9321 396.952 52.9665C396.78 52.5928 396.529 52.3028 396.219 52.0346C392.098 51.89 387.929 52.0301 383.803 52.0385C383.933 52.2678 384.042 52.5182 384.094 52.7776C384.405 54.3325 384.462 62.5239 383.745 63.625C385.11 65.806 383.948 71.995 383.92 74.5802C383.911 75.4334 384.143 76.1621 384.762 76.7713C386.774 78.7539 391.449 78.2061 394.076 78.1866C394.191 78.3818 394.296 78.6008 394.352 78.8212C394.718 80.2597 394.694 86.7717 394.027 87.9601C389.203 87.8799 383.541 88.2252 379.068 86.1891C372.145 83.0378 372.606 75.5255 372.577 69.0829Q372.529 63.8473 372.606 58.6122C372.645 56.6436 372.952 53.9207 372.252 52.1046C372.243 52.0805 372.233 52.0566 372.223 52.0326L363.094 52.0244C363.147 52.1079 363.197 52.1907 363.241 52.2795C364.038 53.9075 363.543 65.6964 363.241 68.1145C362.96 70.3552 362.502 72.5819 361.748 74.7138Q361.583 75.1888 361.394 75.6551Q361.206 76.1214 360.995 76.578Q360.784 77.0345 360.551 77.4801Q360.318 77.9258 360.063 78.3595Q359.809 78.7932 359.533 79.2139Q359.257 79.6346 358.961 80.0414Q358.666 80.4481 358.35 80.8398Q358.035 81.2315 357.701 81.6074Q357.366 81.9832 357.014 82.3422Q356.662 82.7012 356.293 83.0425Q355.923 83.3839 355.538 83.7067Q355.152 84.0295 354.751 84.3331Q354.35 84.6366 353.935 84.9202Q353.519 85.2038 353.09 85.4666Q352.662 85.7295 352.221 85.9711Q351.779 86.2126 351.327 86.4323Q350.881 86.6482 350.425 86.842Q349.969 87.0357 349.504 87.2068Q349.039 87.3779 348.566 87.5259Q348.093 87.6739 347.614 87.7985Q347.134 87.923 346.649 88.0238Q346.164 88.1246 345.674 88.2015Q345.185 88.2783 344.692 88.331Q344.199 88.3836 343.705 88.412Q343.21 88.4403 342.714 88.4443Q342.219 88.4483 341.724 88.4279Q341.229 88.4075 340.735 88.3627Q340.242 88.318 339.751 88.2491Q339.26 88.1801 338.774 88.0871Q338.287 87.9941 337.806 87.8773Q337.324 87.7605 336.849 87.6201Q336.374 87.4797 335.906 87.3161C328.537 84.6934 323.117 77.9695 321.664 70.3238C320.648 64.9792 321.173 54.9878 321.241 49.1724C321.261 47.4537 321.69 44.4169 320.957 42.9076C320.948 42.89 320.939 42.8727 320.931 42.8553C324.365 42.9322 327.941 43.1434 331.36 42.8181C331.994 44.0732 331.773 46.3461 331.772 47.7587C331.772 54.0655 330.503 68.2153 333.706 73.2747C335.181 75.6039 337.63 77.4302 340.332 78.0135C342.941 78.5766 345.918 78.0231 348.144 76.553C350.661 74.8903 352.075 71.9939 352.674 69.116C353.17 66.7303 353.549 43.9762 352.818 42.8594C359.219 43.1879 365.812 42.7079 372.236 42.681Q372.371 42.3877 372.442 42.0727C372.838 40.2898 372.909 25.0885 372.294 24.1247Z"/>
	<path fill="#FE9A00" d="M87.3413 41.5026C91.0546 41.4732 103.555 40.8246 106.265 41.8855C106.81 42.7007 106.744 43.4052 106.556 44.3575C106.046 46.9367 104.804 49.5428 103.859 51.9942L97.2108 69.1929C96.173 71.8813 94.7136 74.8309 94.0873 77.6284C90.2373 86.6675 88.2049 96.501 84.536 105.601C84.1777 105.664 83.8247 105.678 83.462 105.69C77.8689 105.876 72.2359 105.737 66.6386 105.73L37.8532 105.727L16.2575 105.733C12.7352 105.735 9.08539 105.946 5.57879 105.725C4.8382 105.678 4.15852 105.562 3.60736 105.032C3.34814 104.783 3.23614 104.392 3.2399 104.036C3.25735 102.378 5.57976 100.041 6.61552 98.7865C16.7327 86.5306 30.9478 78.7233 44.0303 70.0884C47.2094 67.9901 51.423 66.0381 54.1066 63.3456L54.159 63.2922C65.0365 55.7888 76.3422 48.8347 87.3413 41.5026Z"/>
</svg>
